<svg width="87" height="57" viewBox="0 0 87 57" fill="none" xmlns="http://www.w3.org/2000/svg">
<path fill-rule="evenodd" clip-rule="evenodd" d="M57.3233 22.6858C58.8574 22.6858 60.1012 21.6245 60.1012 20.315C60.1012 19.0061 58.8574 17.9465 57.3233 17.9465C55.7893 17.9465 54.5449 19.0061 54.5449 20.315C54.5455 21.6245 55.7893 22.6858 57.3233 22.6858Z" fill="#125A9E"/>
<path fill-rule="evenodd" clip-rule="evenodd" d="M53.8248 34.9472C53.8248 34.2448 53.3329 33.6366 52.6517 33.626C50.8807 33.5968 46.1532 33.626 46.1532 33.626C46.1532 33.626 46.2133 27.1842 46.2083 23.2765H46.2105C46.2189 22.4848 46.2414 21.086 46.2307 20.6301C46.1914 19.0337 43.8274 18.535 42.4949 18.4716C41.2859 18.4132 41.3522 19.4694 41.3522 19.4694V35.3588C41.3522 36.3847 42.4607 36.6284 42.4607 36.6284H53.8377C53.8377 36.6284 53.8248 35.7873 53.8248 34.9472Z" fill="#125A9E"/>
<path fill-rule="evenodd" clip-rule="evenodd" d="M69.5407 23.9904C69.0135 18.5296 72.2186 18.7913 73.4012 19.0658C73.8459 19.1327 73.851 18.6795 73.8431 18.5504C73.7954 18.104 73.5601 17.7249 73.2372 17.4532C72.0895 16.4873 69.9557 16.6097 69.9557 16.6097C66.0795 16.6097 64.8739 19.4915 64.8739 21.8476C64.8739 23.0611 64.7509 23.9904 64.7509 23.9904H63.5796C62.9097 23.9904 62.6385 24.6934 62.6385 25.0528V25.922H64.7195V31.854C60.5345 35.4202 59.6838 33.4027 59.6838 32.5205C59.6843 30.9466 59.6894 27.989 59.6894 26.0675C59.6894 24.4885 57.413 23.973 56.0614 23.9084C54.707 23.8433 54.9001 24.9068 54.9001 24.9068V32.8338C54.9001 35.587 55.9951 36.8819 58.6522 36.8819C61.2414 36.8819 63.8154 34.8183 64.7841 33.6913C64.7841 33.6913 64.7841 35.8509 64.8251 37.4715C64.8312 37.7118 64.8391 37.9078 64.8475 38.0403C64.9121 39.0724 65.9436 38.9455 65.9436 38.9455C69.6255 38.9443 69.5407 36.3377 69.5407 36.3377V25.9883H71.839C72.2967 25.9883 73.08 25.7508 73.08 24.8883C73.08 24.3627 73.0682 23.9904 73.0682 23.9904H69.5407Z" fill="#125A9E"/>
<path fill-rule="evenodd" clip-rule="evenodd" d="M86.1504 33.0431C84.8595 33.8366 83.3097 34.4812 80.9906 34.4812C78.7973 34.4812 77.1885 33.2228 77.1885 30.6219C77.1885 29.446 77.9129 26.539 80.7385 26.539C81.8306 26.5171 82.4511 27.2308 82.4511 28.1472C82.4511 29.3444 81.099 30.7836 78.2037 30.9526C78.6333 32.2149 80.0242 32.5333 81.1495 32.5333C82.8318 32.5333 86.8748 31.308 86.5435 27.5402C86.2858 24.6085 83.5219 23.7393 81.2607 23.7393C75.9666 23.7393 71.918 26.9989 72.2948 31.4192C72.7064 36.2472 77.0099 36.8666 79.8501 36.8666C82.7296 36.8666 85.3671 35.6447 86.343 34.2847C86.53 34.0236 86.7395 33.6732 86.7395 33.3677C86.7395 33.0285 86.4767 32.8416 86.1504 33.0431Z" fill="#125A9E"/>
<path fill-rule="evenodd" clip-rule="evenodd" d="M49.0597 13.1962V8.28011H45.2155V13.1962H41.3398V0.94043H45.2155V5.54324H49.0597V0.94043H52.9544V13.1962H49.0597Z" fill="#ED1C24"/>
<path fill-rule="evenodd" clip-rule="evenodd" d="M61.8781 6.55005C61.8781 4.00859 61.3514 3.44763 59.5854 3.44763H58.596V10.6907H59.5854C61.3514 10.6907 61.8781 10.0635 61.8781 7.52205V6.55005ZM59.4546 13.4124C57.7375 13.4124 56.5004 13.3467 54.835 13.1962V0.94043C56.5004 0.791065 57.6886 0.727051 59.4546 0.727051C63.7429 0.727051 65.6897 2.37625 65.6897 6.55005L65.6903 7.52205C65.6903 11.7615 63.7923 13.4124 59.4546 13.4124Z" fill="#ED1C24"/>
<path fill-rule="evenodd" clip-rule="evenodd" d="M71.0861 3.58015V5.75774H75.7546V8.19868H71.0861V13.1962H67.21V0.94043H76.1174V3.58015H71.0861Z" fill="#ED1C24"/>
<path fill-rule="evenodd" clip-rule="evenodd" d="M82.5878 13.4943C78.7425 13.4943 76.8125 12.1248 76.8125 7.63708V6.48259C76.8125 2.0123 78.7425 0.643311 82.5872 0.643311C83.5592 0.643311 85.5055 0.824683 86.1653 1.00549V3.59636C85.2915 3.52954 84.1196 3.46384 83.064 3.46384C81.4979 3.46328 80.7218 3.94114 80.7218 6.48259V7.63708C80.7218 10.2122 81.4979 10.6906 83.064 10.6906C84.1196 10.6906 85.2915 10.6244 86.1653 10.5576V13.1316C85.5055 13.3292 83.5592 13.4943 82.5878 13.4943Z" fill="#ED1C24"/>
<path fill-rule="evenodd" clip-rule="evenodd" d="M36.0966 36.6302V36.6297L25.9027 26.4352V26.4363H10.4546V10.9888H10.4558L0.261865 0.794922H0.260742V36.6302H36.0966Z" fill="#B01419"/>
<path fill-rule="evenodd" clip-rule="evenodd" d="M10.4556 10.9888H25.9026V26.4352L36.0965 36.6297V0.794922H0.261719L10.4556 10.9888Z" fill="#ED1C24"/>
<path fill-rule="evenodd" clip-rule="evenodd" d="M9.57837 50.961C10.5133 49.8289 10.4847 49.5729 10.4847 49.5729C10.4847 49.5729 10.2578 48.8362 9.45034 48.8075C8.64231 48.7794 7.70737 49.7284 7.52319 50.82C7.33901 51.9105 8.25991 52.5619 9.57837 50.961ZM19.6246 46.3991C19.8211 46.5047 19.3674 47.511 19.3674 47.511C17.433 47.0483 15.7186 49.6801 15.4143 50.5819C15.0645 51.6191 15.0908 52.4428 15.0908 52.4428L14.3216 52.7348C13.9319 52.5731 14.2918 51.0738 14.2918 51.0738C10.752 54.3969 10.4235 50.9812 10.4235 50.9812C8.79392 53.0392 6.44844 53.2576 6.55737 51.2788C6.65957 49.4347 8.47778 48.1741 9.69629 48.2067C10.9137 48.2415 11.4129 49.1635 11.4129 49.1635C11.3208 49.5622 10.7688 51.8105 12.2001 51.8021C12.7869 51.7982 14.3648 50.2866 14.3648 50.2866C14.3648 50.2866 14.4209 49.9485 14.4395 49.5521C14.4569 49.154 14.4305 48.5385 14.4305 48.5385C14.4305 48.5385 14.9858 48.3252 15.2756 48.3544C15.5653 48.3824 15.4502 48.6716 15.4502 48.6716C15.4502 48.6716 15.0218 50.0344 15.0291 50.1192C15.0353 50.2063 15.0639 50.1928 15.0639 50.1928C16.9691 46.1975 19.4275 46.293 19.6246 46.3991Z" fill="#ED1C24"/>
<path fill-rule="evenodd" clip-rule="evenodd" d="M58.7312 49.2746C58.4078 49.6902 58.2977 50.355 58.2977 50.355C58.7829 50.3034 59.3455 50.1416 59.7262 49.9934C60.4264 49.7222 60.5589 48.8299 59.9873 48.7159C59.4977 48.6154 59.081 48.8282 58.7312 49.2746ZM61.6444 51.2383C61.7314 51.2652 61.9105 51.528 61.8824 51.6841C61.7438 52.0441 60.5983 52.5753 59.4005 52.5764C58.6082 52.5635 57.2976 52.2861 57.3937 50.7986C57.4246 50.3881 57.5453 50.0355 57.6806 49.7413C58.1366 48.7569 58.9384 48.365 59.4477 48.2094C59.706 48.1308 60.0659 48.0954 60.3057 48.119C60.7667 48.1611 61.4271 48.3521 61.3692 49.0972C61.2749 50.2977 58.2927 50.7857 58.2927 50.7857C58.2915 50.9042 58.3567 51.8885 59.7414 51.9739C60.952 52.0486 61.5545 51.2091 61.6444 51.2383Z" fill="#ED1C24"/>
<path fill-rule="evenodd" clip-rule="evenodd" d="M70.7295 45.6938C70.9278 46.0279 70.7391 46.316 70.4185 46.5681C70.0625 46.8483 69.5015 46.8421 69.3606 46.5608C69.2179 46.2795 69.4105 45.8572 69.7879 45.6175C70.1663 45.3788 70.5706 45.4237 70.7295 45.6938Z" fill="#ED1C24"/>
<path fill-rule="evenodd" clip-rule="evenodd" d="M66.0553 48.3598C66.5264 48.215 67.5411 47.7893 67.3446 48.2683C67.1492 48.7462 66.9066 50.141 66.8353 50.7356C66.764 51.3314 66.4899 53.4287 66.3484 54.1727C66.2064 54.9167 65.5129 56.2633 64.3191 56.3464C63.3993 56.411 62.8002 56.147 62.6547 55.7635C62.5104 55.3811 62.8558 54.6832 62.9844 54.7562C63.1141 54.832 63.6217 55.8202 64.4364 55.7669C65.2495 55.7141 65.4876 54.481 65.6257 53.1524C65.7639 51.8244 66.011 48.6591 66.0553 48.3598Z" fill="#ED1C24"/>
<path fill-rule="evenodd" clip-rule="evenodd" d="M69.9284 48.6058C69.9284 48.6058 68.2343 51.6436 69.6982 51.6942C70.9329 51.7368 71.8662 50.5526 71.8662 50.5526C71.8662 50.5526 72.4148 48.4873 72.5423 48.4351C72.672 48.3806 73.3773 48.6344 73.3144 48.8675C73.2503 49.1016 72.0566 51.4886 73.2678 51.6796C74.479 51.871 75.319 50.5105 75.319 50.5105C75.319 50.5105 76.1046 48.4177 76.1899 48.3958C76.2753 48.375 77.1793 48.5339 77.1058 48.9112C76.9777 49.5699 75.9176 50.7744 75.8749 50.9518C75.5217 51.6228 75.2426 52.9497 75.1388 53.7634C75.041 54.5214 75.1073 55.8927 74.9793 56.074C74.8518 56.2549 74.224 56.3234 73.9691 56.1004C73.9691 56.1004 74.1291 54.4529 74.4161 53.3692C74.7024 52.286 74.9473 51.606 74.9473 51.606C74.9473 51.606 73.7136 52.7217 72.7899 52.5825C71.8662 52.4438 71.8662 51.3825 71.8662 51.3825C71.8662 51.3825 70.5983 52.6005 69.3012 52.537C68.0046 52.4736 68.1708 50.9462 68.2455 50.5857C68.319 50.2252 68.5891 48.9225 68.8716 48.4991C69.0176 48.2807 69.2113 48.3289 69.4022 48.3924C69.5937 48.457 69.9284 48.6063 69.9284 48.6058Z" fill="#ED1C24"/>
<path fill-rule="evenodd" clip-rule="evenodd" d="M80.8241 51.4566C81.595 50.7609 81.6843 49.6609 81.2581 49.1415C80.8426 48.6355 79.8285 48.6451 78.9604 49.402C78.177 50.0837 78.0529 51.2073 78.4645 51.661C78.9632 52.2119 80.052 52.1529 80.8241 51.4566ZM82.2857 49.0297C82.8506 49.9933 82.2172 51.4128 80.8712 52.2023C79.5258 52.9907 77.9799 52.8475 77.4122 51.8868C76.9456 51.095 77.4684 49.4801 78.8267 48.7147C80.335 47.8657 81.7208 48.0673 82.2857 49.0297Z" fill="#ED1C24"/>
<path fill-rule="evenodd" clip-rule="evenodd" d="M85.9568 53.0667C85.7316 53.8174 84.5878 53.4288 84.4861 53.0655C84.1363 51.8392 86.2117 52.0093 85.9568 53.0667Z" fill="#ED1C24"/>
<path fill-rule="evenodd" clip-rule="evenodd" d="M0.341594 52.2833C0.286003 52.2642 0.256242 52.2058 0.261296 52.1317C0.27758 51.8897 0.346086 51.2574 0.829557 51.2574C1.4579 51.2574 2.5057 52.0969 3.59056 51.9475C3.59056 51.9475 4.64791 51.9335 4.71923 50.9738C4.79054 50.0147 3.62089 49.2483 3.10092 48.8322C2.60172 48.4318 1.35065 47.4744 1.50226 46.2278C1.68307 44.7443 3.46534 44.4697 4.06337 44.4624C4.87477 44.4512 6.4942 44.8122 6.32237 45.6405C6.28531 45.9207 5.96019 46.2452 5.64349 46.3154C5.55702 46.1919 5.51603 46.1386 5.44584 46.0476C5.20887 45.7399 4.68048 44.9914 3.77531 45.038C2.6517 45.0941 2.50683 46.0532 2.50289 46.3811C2.49728 46.8056 2.69381 47.297 4.24305 48.4902C5.72042 49.6295 5.84171 50.3775 5.73165 50.9738C5.62215 51.5713 4.81356 52.6567 2.98973 52.6668C1.48092 52.6764 0.608879 52.3737 0.341594 52.2833Z" fill="#ED1C24"/>
<path fill-rule="evenodd" clip-rule="evenodd" d="M44.0439 50.9624C45.0069 49.8512 45.0266 49.5727 45.0266 49.5727C45.0266 49.5727 44.7239 48.8359 43.9164 48.8079C43.1084 48.7792 42.1735 49.7288 41.9887 50.8198C41.8057 51.9108 42.7299 52.4729 44.0439 50.9624ZM26.5148 48.4131C26.5103 48.6259 24.865 51.7255 26.5833 51.7626C27.7305 51.7665 29.6425 50.0567 29.6425 50.0567C29.6425 50.0567 30.0344 48.5692 30.0064 48.5434C29.9783 48.5164 28.9776 48.5995 28.9479 48.5237C28.9176 48.4485 29.0327 48.0217 29.0866 47.9807C29.1416 47.9375 30.0906 48.0172 30.0996 47.9583C30.1091 47.901 30.2124 46.8908 30.1001 46.6617C30.1001 46.6617 30.6437 46.2501 31.1345 46.3456C31.2956 46.3933 31.4815 46.5314 31.0839 47.8864C31.0839 47.8864 32.2042 47.86 32.6865 47.6697C32.7859 47.7797 32.8645 48.1144 32.6949 48.3103C32.5259 48.508 30.9121 48.4968 30.9121 48.4968C30.9121 48.4968 30.3371 50.1286 30.2596 51.1809C30.2366 51.4566 30.4034 51.9535 31.139 51.8923C32.0868 51.8126 33.2907 50.8181 33.7265 50.2824C33.7265 50.2824 34.174 48.2025 34.4042 46.6628C34.439 46.2877 34.5188 45.3219 34.4345 45.1501C34.4345 45.1501 35.0039 44.7666 35.4941 44.8626C35.6508 44.9086 35.7199 45.2001 35.37 46.6499C35.1364 47.8752 34.393 50.9596 34.5384 51.3218C34.7574 51.0203 37.0563 48.1627 37.775 48.0066C38.1687 47.9353 38.4152 48.3468 38.3742 48.6029C38.3332 48.8573 37.7054 51.7188 39.2524 51.7048C40.3929 51.6986 41.2891 50.1785 41.2891 50.1785C41.2891 50.1785 42.1072 48.1947 44.1899 48.184C45.423 48.2374 45.9531 49.1498 45.9531 49.1498C45.9531 49.1498 45.3859 51.6632 46.9206 51.7227C47.9302 51.7328 48.5569 50.9467 48.5569 50.9467C48.5569 50.9467 48.9398 51.2235 48.9398 51.319C48.9398 51.4139 47.8241 52.4757 46.4534 52.4656C45.0827 52.4555 44.9867 50.9467 44.9867 50.9467C44.9867 50.9467 43.6368 52.5296 42.1392 52.6262C41.0656 52.7003 41.0555 51.3285 41.0555 51.3285C41.0555 51.3285 40.207 52.4656 38.7308 52.4656C37.2534 52.4656 37.0782 50.8726 37.2955 49.3104C37.3129 49.2043 36.9743 49.3963 36.7098 49.6518C36.4465 49.9056 35.4447 50.9293 34.8489 52.4128C34.7686 52.519 33.7388 52.3803 33.736 52.2C33.7332 52.0192 33.8011 51.191 33.75 51.1809C33.6984 51.1691 32.1272 52.5566 30.409 52.6032C28.8822 52.647 29.4774 50.9877 29.4774 50.9877C29.4774 50.9877 27.8035 52.332 26.2997 52.4263C24.796 52.5223 24.9762 50.936 24.9762 50.936C24.9762 50.936 23.6712 52.4926 22.4 52.4342C20.5947 52.3505 21.8255 49.0617 22.2551 48.3727C22.2607 48.3631 22.286 48.3429 22.3073 48.3429C22.4561 48.3452 23.3663 48.1615 23.3607 48.3244C23.3551 48.5091 22.9008 48.9544 22.6672 49.4856C22.4336 50.0168 21.7593 51.3341 22.8896 51.5262C24.0211 51.7165 24.9538 49.7832 24.9538 49.7832C24.9538 49.7832 25.2806 48.7865 25.4541 48.3687C25.7674 48.2907 26.5165 48.2497 26.5148 48.4131Z" fill="#ED1C24"/>
<path fill-rule="evenodd" clip-rule="evenodd" d="M53.5572 46.5663C53.3702 47.9168 52.8766 50.8271 52.8604 50.9551C52.8413 51.1028 52.9283 51.0399 52.9283 51.0399C53.5931 49.8388 55.7342 47.8252 56.2969 47.8252C56.8404 47.8252 56.7197 48.576 56.7197 48.576C56.1245 48.4171 54.2338 50.1612 54.2338 50.1612C54.2338 50.1612 54.655 50.6076 55.4714 51.255C56.2873 51.9036 57.4042 52.2641 57.3946 52.3595C57.3857 52.455 56.878 52.8806 56.6506 52.9019C56.1408 52.9547 53.788 50.6912 53.788 50.6912C53.1737 51.2118 52.8789 52.2118 52.8233 52.3281C52.7671 52.4443 52.3157 52.423 52.0518 52.4129C51.8496 52.405 52.5088 48.7282 52.6953 46.4197C52.7346 45.9273 52.7121 45.3085 52.6358 45.1541C52.6363 45.1541 53.1754 44.706 53.665 44.8014C53.8239 44.8486 53.669 45.7583 53.5572 46.5663Z" fill="#ED1C24"/>
<path fill-rule="evenodd" clip-rule="evenodd" d="M85.8979 50.0893C85.9569 50.8659 86.3185 50.794 86.2421 50.9743C86.1147 51.2736 85.8496 51.4634 85.5795 51.4325C84.8765 51.3528 84.9557 49.849 85.0815 48.8158C85.2393 47.5119 85.5206 46.6803 85.5992 45.8515C85.6436 45.3883 85.6267 44.8071 85.5532 44.6617C85.5532 44.6617 86.1866 44.2635 86.6706 44.3523C86.8273 44.3972 86.665 45.2518 86.5454 46.0116C86.4415 46.6792 85.7289 48.9753 85.8979 50.0893Z" fill="#ED1C24"/>
<path fill-rule="evenodd" clip-rule="evenodd" d="M67.6702 45.4719C67.8684 45.8071 67.6612 46.0761 67.3406 46.3282C66.9846 46.6089 66.4422 46.6207 66.3013 46.3388C66.1581 46.0581 66.3507 45.6358 66.7291 45.3961C67.107 45.1568 67.5113 45.2023 67.6702 45.4719Z" fill="#ED1C24"/>
</svg>
