<?xml version="1.0" encoding="UTF-8"?>
<svg width="319px" height="287px" viewBox="0 0 319 287" version="1.1" xmlns="http://www.w3.org/2000/svg" xmlns:xlink="http://www.w3.org/1999/xlink">
    <title>Background Check</title>
    <defs>
        <filter id="filter-1">
            <feColorMatrix in="SourceGraphic" type="matrix" values="0 0 0 0 0.000000 0 0 0 0 0.000000 0 0 0 0 0.000000 0 0 0 1.000000 0"></feColorMatrix>
        </filter>
        <filter id="filter-2">
            <feColorMatrix in="SourceGraphic" type="matrix" values="0 0 0 0 0.000000 0 0 0 0 0.000000 0 0 0 0 0.000000 0 0 0 1.000000 0"></feColorMatrix>
        </filter>
    </defs>
    <g id="Additional-Pages" stroke="none" stroke-width="1" fill="none" fill-rule="evenodd">
        <g id="Illustrations" transform="translate(-290.000000, -10393.000000)">
            <g id="Our-authentication-products-have-many-use-cases" transform="translate(265.000000, 10162.000000)">
                <g id="Background-Check" transform="translate(25.000000, 231.000000)">
                    <g id="freepik--background-complete--inject-2">
                        <path d="M149.55,214.8975 L4.7325,214.8975 C2.36905267,214.893372 0.454128302,212.978447 0.45,210.615 L0.45,7.0425 C0.474635642,4.69371027 2.38358444,2.80147731 4.7325,2.7975 L149.55,2.7975 C151.91223,2.80163701 153.825,4.7177664 153.825,7.08 L153.825,7.08 L153.825,210.615 C153.825,212.977234 151.91223,214.893363 149.55,214.8975 Z M4.7325,2.9475 C2.47260589,2.95162767 0.641627671,4.78260589 0.6375,7.0425 L0.6375,210.615 C0.641627671,212.874894 2.47260589,214.705872 4.7325,214.71 L149.55,214.71 C151.808677,214.705863 153.6375,212.87368 153.6375,210.615 L153.6375,7.0425 C153.6375,4.78381965 151.808677,2.95163678 149.55,2.9475 L4.7325,2.9475 Z" id="Shape" fill="#E6E6E6" fill-rule="nonzero"></path>
                        <path d="M311.775,214.8975 L166.95,214.8975 C164.58777,214.893363 162.675,212.977234 162.675,210.615 L162.675,7.0425 C162.695554,4.69491885 164.602332,2.80152153 166.95,2.7975 L311.775,2.7975 C314.122668,2.80152153 316.029446,4.69491885 316.05,7.0425 L316.05,210.615 C316.05,212.977234 314.13723,214.893363 311.775,214.8975 L311.775,214.8975 Z M166.95,2.9475 C164.691323,2.95163678 162.8625,4.78381965 162.8625,7.0425 L162.8625,210.615 C162.8625,212.87368 164.691323,214.705863 166.95,214.71 L311.775,214.71 C314.036118,214.705889 315.869251,212.876107 315.8775,210.615 L315.8775,7.0425 C315.869251,4.78139324 314.036118,2.95161109 311.775,2.9475 L166.95,2.9475 Z" id="Shape" fill="#E6E6E6" fill-rule="nonzero"></path>
                        <path d="M126.5625,106.845 L125.535,195 C121.905,224.3325 69.9075,247.62 69.9075,247.62 C69.9075,247.62 17.9025,224.355 14.25,195 L13.1925,106.845 L68.7675,88.5525 L126.5625,106.845 Z" id="Path" fill="#F5F5F5" fill-rule="nonzero"></path>
                        <path d="M119.31,112.425 L118.4175,191.58 C115.2525,217.1625 69.9,237.4725 69.9,237.4725 C69.9,237.4725 24.5475,217.1625 21.39,191.58 L20.4375,112.425 L68.91,96.4725 L119.31,112.425 Z" id="Path" fill="#E0E0E0" fill-rule="nonzero"></path>
                        <path d="M116.13,117.42 L115.29,190.0875 C112.29,214.0875 69.8025,233.1075 69.8025,233.1075 C69.8025,233.1075 27.285,214.065 24.3225,190.0875 L23.43,117.42 L68.8725,102.465 L116.13,117.42 Z" id="Path" stroke="#FFFFFF" stroke-width="2.25" stroke-linecap="round" stroke-linejoin="round" stroke-dasharray="0,24.75"></path>
                        <rect id="Rectangle" fill="#F5F5F5" fill-rule="nonzero" x="200.955" y="77.0925" width="100.035" height="175.53"></rect>
                        <rect id="Rectangle" fill="#E0E0E0" fill-rule="nonzero" x="208.35" y="83.9925" width="85.3875" height="168.63"></rect>
                        <path d="M210.75,253.372511 C210.600308,253.373186 210.45213,253.342529 210.315,253.2825 C210.179537,253.228556 210.056896,253.146795 209.955,253.0425 C209.845993,252.940103 209.761407,252.814505 209.7075,252.675 C209.653495,252.538917 209.62551,252.393907 209.625,252.2475 C209.625381,251.91124 209.776158,251.592779 210.036021,251.379373 C210.295884,251.165966 210.637584,251.079989 210.9675,251.145 L211.1775,251.205 L211.3725,251.31 C211.43329,251.353371 211.490934,251.400989 211.545,251.4525 C211.5982,251.503083 211.643685,251.561203 211.68,251.625 C211.723763,251.684886 211.759093,251.750499 211.785,251.82 C211.815311,251.887244 211.837954,251.957688 211.8525,252.03 C211.860252,252.102293 211.860252,252.175207 211.8525,252.2475 C211.85303,252.394757 211.822356,252.540456 211.7625,252.675 C211.70869,252.812735 211.626979,252.937855 211.5225,253.0425 C211.316393,253.246821 211.040118,253.364841 210.75,253.372511 L210.75,253.372511 Z" id="Path" fill="#FFFFFF" fill-rule="nonzero"></path>
                        <path d="M209.61,224.6175 C209.611971,224.317817 209.733434,224.031306 209.947448,223.821516 C210.161462,223.611726 210.450337,223.495998 210.75,223.5 L210.75,223.5 C211.37132,223.5 211.875,224.00368 211.875,224.625 L211.875,224.625 C211.875,225.24632 211.37132,225.75 210.75,225.75 L210.75,225.75 C210.447736,225.754037 210.156565,225.636262 209.942109,225.423217 C209.727653,225.210171 209.607958,224.919784 209.61,224.6175 Z M209.61,196.995 C209.61,196.37368 210.11368,195.87 210.735,195.87 L210.735,195.87 C211.35632,195.87 211.86,196.37368 211.86,196.995 L211.86,196.995 C211.86,197.61632 211.35632,198.12 210.735,198.12 L210.735,198.12 C210.11368,198.12 209.61,197.61632 209.61,196.995 Z M209.61,169.365 C209.61,168.74368 210.11368,168.24 210.735,168.24 L210.735,168.24 C211.35632,168.24 211.86,168.74368 211.86,169.365 L211.86,169.365 C211.86,169.98632 211.35632,170.49 210.735,170.49 L210.735,170.49 C210.436631,170.49 210.150483,170.371474 209.939505,170.160495 C209.728526,169.949517 209.61,169.663369 209.61,169.365 L209.61,169.365 Z M209.61,141.735 C209.61,141.11368 210.11368,140.61 210.735,140.61 L210.735,140.61 C211.35632,140.61 211.86,141.11368 211.86,141.735 L211.86,141.735 C211.86,142.35632 211.35632,142.86 210.735,142.86 L210.735,142.86 C210.119491,142.860055 209.618207,142.365455 209.61,141.75 L209.61,141.735 Z M209.61,114.1125 C209.61,113.49118 210.11368,112.9875 210.735,112.9875 L210.735,112.9875 C211.35632,112.9875 211.86,113.49118 211.86,114.1125 L211.86,114.1125 C211.86,114.73382 211.35632,115.2375 210.735,115.2375 L210.735,115.2375 C210.436631,115.2375 210.150483,115.118974 209.939505,114.907995 C209.728526,114.697017 209.61,114.410869 209.61,114.1125 L209.61,114.1125 Z" id="Shape" fill="#FFFFFF" fill-rule="nonzero"></path>
                        <path d="M210.75,87.6075 C210.4514,87.6089099 210.164826,87.4899544 209.955,87.2775 C209.899606,87.2270052 209.851631,87.1689302 209.8125,87.105 C209.773062,87.0450908 209.737972,86.98243 209.7075,86.9175 C209.676647,86.8484403 209.656418,86.7751107 209.6475,86.7 C209.639748,86.6277072 209.639748,86.5547928 209.6475,86.4825 C209.649384,86.1845581 209.767837,85.8991938 209.9775,85.6875 C210.027291,85.6342829 210.082602,85.5865141 210.1425,85.545 C210.203521,85.5050858 210.268956,85.4723681 210.3375,85.4475 C210.405154,85.4182647 210.475483,85.3956589 210.5475,85.38 C210.693484,85.3500955 210.844016,85.3500955 210.99,85.38 C211.062017,85.3956589 211.132346,85.4182647 211.2,85.4475 C211.268544,85.4723681 211.333979,85.5050858 211.395,85.545 C211.45579,85.5883705 211.513434,85.6359895 211.5675,85.6875 C211.777163,85.8991938 211.895616,86.1845581 211.8975,86.4825 C211.905252,86.5547928 211.905252,86.6277072 211.8975,86.7 C211.881902,86.7744646 211.859302,86.8472884 211.83,86.9175 C211.802424,86.9838772 211.767185,87.046804 211.725,87.105 C211.688685,87.1687969 211.6432,87.2269167 211.59,87.2775 C211.367317,87.4983684 211.063474,87.6177354 210.75,87.6075 L210.75,87.6075 Z" id="Path" fill="#FFFFFF" fill-rule="nonzero"></path>
                        <path d="M263.16,86.4825 C263.16,85.8611797 263.66368,85.3575 264.285,85.3575 L264.285,85.3575 C264.90632,85.3575 265.41,85.8611797 265.41,86.4825 L265.41,86.4825 C265.41,87.1038203 264.90632,87.6075 264.285,87.6075 L264.285,87.6075 C263.66368,87.6075 263.16,87.1038203 263.16,86.4825 L263.16,86.4825 Z M236.385,86.4825 C236.385,85.8611797 236.88868,85.3575 237.51,85.3575 L237.51,85.3575 C238.13132,85.3575 238.635,85.8611797 238.635,86.4825 L238.635,86.4825 C238.635,87.1038203 238.13132,87.6075 237.51,87.6075 L237.51,87.6075 C236.88868,87.6075 236.385,87.1038203 236.385,86.4825 Z" id="Shape" fill="#FFFFFF" fill-rule="nonzero"></path>
                        <path d="M291.06,87.6075 C290.987687,87.6148704 290.914813,87.6148704 290.8425,87.6075 L290.6325,87.5475 L290.4375,87.4425 C290.37671,87.3991295 290.319066,87.3515105 290.265,87.3 C290.053961,87.089224 289.935263,86.803268 289.935,86.505 C289.936884,86.2070581 290.055337,85.9216938 290.265,85.71 C290.317246,85.6586633 290.375112,85.6133776 290.4375,85.575 C290.496562,85.5299451 290.562374,85.4945079 290.6325,85.47 C290.699744,85.4396886 290.770188,85.4170459 290.8425,85.4025 C290.988484,85.3725955 291.139016,85.3725955 291.285,85.4025 L291.495,85.47 C291.562761,85.4946435 291.626081,85.5301029 291.6825,85.575 C291.746297,85.6113155 291.804417,85.6568005 291.855,85.71 C292.064663,85.9216938 292.183116,86.2070581 292.185,86.505 C292.184737,86.803268 292.066039,87.089224 291.855,87.3 C291.802552,87.3533045 291.744746,87.4010572 291.6825,87.4425 C291.622591,87.4819378 291.55993,87.5170278 291.495,87.5475 L291.285,87.6075 C291.210181,87.6148707 291.134819,87.6148707 291.06,87.6075 L291.06,87.6075 Z" id="Path" fill="#FFFFFF" fill-rule="nonzero"></path>
                        <path d="M289.935,224.6175 C289.935,223.99618 290.43868,223.4925 291.06,223.4925 L291.06,223.4925 C291.68132,223.4925 292.185,223.99618 292.185,224.6175 L292.185,224.6175 C292.185,225.23882 291.68132,225.7425 291.06,225.7425 L291.06,225.7425 C290.43868,225.7425 289.935,225.23882 289.935,224.6175 L289.935,224.6175 Z M289.935,196.995 C289.935,196.37368 290.43868,195.87 291.06,195.87 L291.06,195.87 C291.68132,195.87 292.185,196.37368 292.185,196.995 L292.185,196.995 C292.185,197.61632 291.68132,198.12 291.06,198.12 L291.06,198.12 C290.43868,198.12 289.935,197.61632 289.935,196.995 L289.935,196.995 Z M289.935,169.365 C289.935,168.74368 290.43868,168.24 291.06,168.24 L291.06,168.24 C291.68132,168.24 292.185,168.74368 292.185,169.365 L292.185,169.365 C292.185,169.98632 291.68132,170.49 291.06,170.49 L291.06,170.49 C290.761631,170.49 290.475483,170.371474 290.264505,170.160495 C290.053526,169.949517 289.935,169.663369 289.935,169.365 L289.935,169.365 Z M289.935,141.735 C289.935,141.11368 290.43868,140.61 291.06,140.61 L291.06,140.61 C291.68132,140.61 292.185,141.11368 292.185,141.735 L292.185,141.735 C292.185,142.35632 291.68132,142.86 291.06,142.86 L291.06,142.86 C290.444491,142.860055 289.943207,142.365455 289.935,141.75 L289.935,141.735 Z M289.935,114.1125 C289.935,113.49118 290.43868,112.9875 291.06,112.9875 L291.06,112.9875 C291.68132,112.9875 292.185,113.49118 292.185,114.1125 L292.185,114.1125 C292.185,114.73382 291.68132,115.2375 291.06,115.2375 L291.06,115.2375 C290.761631,115.2375 290.475483,115.118974 290.264505,114.907995 C290.053526,114.697017 289.935,114.410869 289.935,114.1125 L289.935,114.1125 Z" id="Shape" fill="#FFFFFF" fill-rule="nonzero"></path>
                        <path d="M291.06,253.3725 C290.605288,253.3721 290.195526,253.098007 290.02157,252.677885 C289.847613,252.257763 289.94367,251.77423 290.265,251.4525 C290.319066,251.400989 290.37671,251.353371 290.4375,251.31 L290.6325,251.205 L290.8425,251.145 C290.988484,251.115095 291.139016,251.115095 291.285,251.145 L291.495,251.205 C291.55993,251.235472 291.622591,251.270562 291.6825,251.31 C291.744746,251.351443 291.802552,251.399195 291.855,251.4525 C292.066039,251.663276 292.184737,251.949232 292.185,252.2475 C292.188136,252.546437 292.068912,252.833659 291.855,253.0425 C291.644224,253.253539 291.358268,253.372237 291.06,253.3725 L291.06,253.3725 Z" id="Path" fill="#FFFFFF" fill-rule="nonzero"></path>
                        <rect id="Rectangle" fill="#E0E0E0" fill-rule="nonzero" x="11.0925" y="252.9075" width="30.9075" height="1"></rect>
                        <rect id="Rectangle" fill="#E0E0E0" fill-rule="nonzero" x="74.0025" y="251.4075" width="30.9975" height="1"></rect>
                        <rect id="Rectangle" fill="#E0E0E0" fill-rule="nonzero" x="137.835" y="251.4075" width="7.5" height="1"></rect>
                        <rect id="Rectangle" fill="#E0E0E0" fill-rule="nonzero" x="35.685" y="257.8125" width="34.6875" height="1"></rect>
                        <rect id="Rectangle" fill="#E0E0E0" fill-rule="nonzero" x="174.15" y="252.81" width="16.2" height="1"></rect>
                        <rect id="Rectangle" fill="#E0E0E0" fill-rule="nonzero" x="197.025" y="252.81" width="20.9475" height="1"></rect>
                        <rect id="Rectangle" fill="#E0E0E0" fill-rule="nonzero" x="272.1675" y="255.9825" width="46.83" height="1"></rect>
                        <polygon id="Path" fill="#EBEBEB" fill-rule="nonzero" points="145.8075 24.4875 111.255 24.4875 113.145 2.955 147.69 2.955"></polygon>
                        <polygon id="Path" fill="#FAFAFA" fill-rule="nonzero" points="146.505 0.03 145.56 11.2725 144.615 24.7875 111.39 24.7875 113.28 0.03"></polygon>
                        <polygon id="Path" fill="#E0E0E0" fill-rule="nonzero" points="143.3325 2.955 145.215 24.4875 110.67 24.4875 108.78 2.955 111.72 2.955 112.74 1.335 122.0475 1.335 123.3825 2.955"></polygon>
                        <rect id="Rectangle" fill="#EBEBEB" fill-rule="nonzero" x="162.5925" y="29.295" width="36.765" height="36.765"></rect>
                        <rect id="Rectangle" fill="#E0E0E0" fill-rule="nonzero" x="199.3575" y="29.295" width="1" height="36.765"></rect>
                        <rect id="Rectangle" fill="#F5F5F5" fill-rule="nonzero" x="165.9825" y="32.7" width="29.97" height="29.97"></rect>
                        <rect id="Rectangle" fill="#E0E0E0" fill-rule="nonzero" x="165.99" y="32.7" width="1" height="29.97"></rect>
                        <ellipse id="Oval" fill="#E0E0E0" fill-rule="nonzero" cx="181.2525" cy="44.5725" rx="5.8425" ry="7.44"></ellipse>
                        <rect id="Rectangle" fill="#E0E0E0" fill-rule="nonzero" transform="translate(181.278750, 52.698750) rotate(180.000000) translate(-181.278750, -52.698750) " x="178.2" y="49.62" width="6.1575" height="6.1575"></rect>
                        <path d="M169.8225,53.34 L192.3825,53.34 L192.3825,55.44 C192.3825,59.4330187 189.145519,62.67 185.1525,62.67 L177.0225,62.67 C173.029481,62.67 169.7925,59.4330187 169.7925,55.44 L169.7925,53.34 L169.8225,53.34 Z" id="Path" fill="#E0E0E0" fill-rule="nonzero" transform="translate(181.087500, 58.005000) rotate(180.000000) translate(-181.087500, -58.005000) "></path>
                        <path d="M169.23,50.16 C169.23,51.3825 171.48,52.41 171.48,52.41 C171.48,52.41 173.73,51.4125 173.73,50.16 C173.73,49.575 172.92,49.245 172.3875,49.41 C171.975419,49.5536629 171.637873,49.8561046 171.45,50.25 C171.162885,49.8631533 170.783995,49.5538555 170.3475,49.35 C170.087676,49.2589946 169.799749,49.3010822 169.576845,49.4626502 C169.353941,49.6242182 169.224355,49.8847573 169.23,50.16 Z" id="Path" fill="#E0E0E0" fill-rule="nonzero"></path>
                        <path d="M189.195,44.6925 C189.195,46.305 192.1125,47.61 192.1125,47.61 C192.1125,47.61 195.03,46.305 195.03,44.6925 C195.03,43.9425 193.95,43.5 193.2675,43.695 C192.752733,43.9006156 192.3384,44.2988063 192.1125,44.805 C191.731986,44.2996594 191.235529,43.8932335 190.665,43.62 C190.321992,43.4985424 189.941145,43.554154 189.64719,43.7686217 C189.353234,43.9830894 189.184032,44.3287885 189.195,44.6925 L189.195,44.6925 Z" id="Path" fill="#E0E0E0" fill-rule="nonzero"></path>
                        <path d="M125.0325,228.24 C125.3775,230.4075 126.945,232.275 127.065,234.465 C127.1625,236.1825 126.36,237.795 125.9625,239.4675 C125.565,241.14 125.76,243.2175 127.2225,244.1025 C128.305964,244.653053 129.60228,244.575618 130.6125,243.9 C131.591978,243.222117 132.400708,242.326096 132.975,241.2825 C135.275498,237.563932 136.532003,233.294405 136.6125,228.9225 C136.6125,227.085 136.425,225.135 135.345,223.6725 C132,219 124.1775,222.84 125.0325,228.24 Z" id="Path" fill="#F5F5F5" fill-rule="nonzero"></path>
                        <path d="M122.25,222.5025 C122.57261,222.854893 122.993054,223.102982 123.4575,223.215 C124.028632,223.400756 124.655183,223.278848 125.115,222.8925 C125.463582,222.444345 125.600412,221.866922 125.49,221.31 C125.444077,220.619273 125.207856,219.954737 124.8075,219.39 C124.398956,218.82448 123.734642,218.500767 123.0375,218.5275 C122.331409,218.585559 121.762219,219.12973 121.6725,219.8325 C121.589079,220.760514 121.790532,221.691909 122.25,222.5025 Z" id="Path" fill="#F5F5F5" fill-rule="nonzero"></path>
                        <path d="M128.4825,217.995 C128.169172,217.510012 127.596447,217.259076 127.0275,217.3575 C126.464089,217.483515 126.035461,217.941909 125.9475,218.5125 C125.935463,218.694802 125.935463,218.877698 125.9475,219.06 C125.950259,219.355044 125.982926,219.649047 126.045,219.9375 C126.107701,220.21558 126.239222,220.473465 126.4275,220.6875 C126.684882,220.937771 127.011484,221.104991 127.365,221.1675 C127.808892,221.273723 128.276672,221.156077 128.6175,220.8525 C128.91907,220.485438 129.059695,220.012181 129.0075,219.54 C128.990377,218.984189 128.807557,218.446173 128.4825,217.995 Z" id="Path" fill="#F5F5F5" fill-rule="nonzero"></path>
                        <path d="M131.955,217.8075 C131.701,217.339607 131.142218,217.128866 130.6425,217.3125 C130.163451,217.511845 129.814869,217.936328 129.7125,218.445 C129.7125,218.61 129.6675,218.775 129.66,218.94 C129.655464,219.212727 129.685708,219.48492 129.75,219.75 C129.803885,220.01114 129.940674,220.247892 130.14,220.425 C130.352671,220.602972 130.614029,220.712742 130.89,220.74 C131.25376,220.784551 131.618671,220.666572 131.8875,220.4175 C132.179034,220.08589 132.339104,219.659037 132.3375,219.2175 C132.370386,218.718038 132.235788,218.22187 131.955,217.8075 Z" id="Path" fill="#F5F5F5" fill-rule="nonzero"></path>
                        <path d="M135.0525,218.5275 C134.685,217.98 134.3025,217.9425 133.8825,218.175 C133.509222,218.448055 133.24376,218.843593 133.1325,219.2925 C133.090332,219.437262 133.060229,219.585268 133.0425,219.735 C133.001912,219.983353 133.001912,220.236647 133.0425,220.485 C133.091369,220.725346 133.231066,220.937577 133.4325,221.0775 C133.61831,221.193524 133.836737,221.246157 134.055,221.2275 C134.338755,221.202153 134.60441,221.077295 134.805,220.875 C135.080907,220.579096 135.256709,220.203877 135.3075,219.8025 C135.3836,219.360583 135.292714,218.906155 135.0525,218.5275 L135.0525,218.5275 Z" id="Path" fill="#F5F5F5" fill-rule="nonzero"></path>
                        <path d="M135.66,221.565 C135.618974,221.742662 135.618974,221.927338 135.66,222.105 C135.690759,222.290009 135.811704,222.447519 135.9825,222.525 C136.295893,222.596435 136.621467,222.472125 136.8075,222.21 C137.029278,221.983013 137.191581,221.70478 137.28,221.4 C137.368416,221.092386 137.327799,220.762034 137.1675,220.485 C136.5,219.3975 135.75,221.025 135.66,221.565 Z" id="Path" fill="#F5F5F5" fill-rule="nonzero"></path>
                        <path d="M136.2675,278.3325 C136.77,276.5625 137.0625,274.62 136.395,272.9025 C134.3325,267.555 125.8125,269.2575 125.25,274.7025 L136.2675,278.3325 Z" id="Path" fill="#F5F5F5" fill-rule="nonzero"></path>
                        <path d="M124.065,268.4475 C124.287699,268.871611 124.632582,269.219106 125.055,269.445 C125.557899,269.770399 126.193206,269.812942 126.735,269.5575 C127.178221,269.209117 127.451195,268.687737 127.485,268.125 C127.617386,267.447677 127.56029,266.746957 127.32,266.1 C127.067465,265.444556 126.50498,264.958007 125.82,264.8025 C125.124982,264.679077 124.437954,265.056942 124.17,265.71 C123.859508,266.590988 123.822904,267.545317 124.065,268.4475 Z" id="Path" fill="#F5F5F5" fill-rule="nonzero"></path>
                        <path d="M131.25,265.68 C131.068074,265.132286 130.579617,264.743875 130.005,264.69 C129.428231,264.670614 128.897287,265.002825 128.6625,265.53 C128.596436,265.701329 128.541325,265.876682 128.4975,266.055 C128.421649,266.339365 128.376392,266.63102 128.3625,266.925 C128.343621,267.217813 128.403167,267.510363 128.535,267.7725 C128.712855,268.072179 128.973224,268.314322 129.285,268.47 C129.685885,268.683334 130.166615,268.683334 130.5675,268.47 C130.964854,268.200292 131.235559,267.7807 131.3175,267.3075 C131.452082,266.769808 131.428644,266.204702 131.25,265.68 L131.25,265.68 Z" id="Path" fill="#F5F5F5" fill-rule="nonzero"></path>
                        <path d="M134.625,266.3925 C134.498669,265.882699 134.023894,265.537696 133.5,265.575 C132.984861,265.648929 132.538999,265.971408 132.3075,266.4375 C132.239773,266.586845 132.179695,266.739543 132.1275,266.895 C132.043098,267.149764 131.992663,267.414547 131.9775,267.6825 C131.962608,267.946727 132.030796,268.208988 132.1725,268.4325 C132.338593,268.66727 132.574953,268.843227 132.8475,268.935 C133.188835,269.073187 133.574128,269.05117 133.8975,268.875 C134.265698,268.633368 134.532534,268.265134 134.6475,267.84 C134.799666,267.368196 134.791757,266.859346 134.625,266.3925 L134.625,266.3925 Z" id="Path" fill="#F5F5F5" fill-rule="nonzero"></path>
                        <path d="M137.43,267.885 C137.22,267.255 136.8225,267.135 136.395,267.24 C135.958068,267.402584 135.591874,267.713053 135.36,268.1175 C135.285028,268.248633 135.217423,268.383842 135.1575,268.5225 C135.065664,268.747328 135.009975,268.985269 134.9925,269.2275 C134.978126,269.46948 135.055826,269.70794 135.21,269.895 C135.358559,270.056599 135.556273,270.164684 135.7725,270.2025 C136.053251,270.257189 136.34431,270.206454 136.59,270.06 C136.92819,269.842742 137.190327,269.525557 137.34,269.1525 C137.523091,268.754991 137.555086,268.304392 137.43,267.885 Z" id="Path" fill="#F5F5F5" fill-rule="nonzero"></path>
                        <path d="M137.25,270.975 C137.158304,271.13305 137.104399,271.310164 137.0925,271.4925 C137.077435,271.678147 137.152834,271.859664 137.295,271.98 C137.578846,272.129906 137.924994,272.094404 138.1725,271.89 C138.443973,271.725767 138.67271,271.4996 138.84,271.23 C139.003716,270.95452 139.049668,270.624742 138.9675,270.315 C138.5775,269.0925 137.49,270.4875 137.25,270.975 Z" id="Path" fill="#F5F5F5" fill-rule="nonzero"></path>
                        <path d="M106.7025,246.495 C106.98,248.6775 105.9525,250.905 106.4775,253.0425 C106.86,254.715 108.0825,256.0425 108.9225,257.5425 C109.7625,259.0425 110.16,261.0825 108.99,262.3425 C108.105356,263.174306 106.839406,263.461369 105.6825,263.0925 C104.553827,262.70554 103.527953,262.066932 102.6825,261.225 C99.4433039,258.289292 97.0546378,254.535304 95.7675,250.3575 C95.2275,248.595 94.8975,246.6675 95.5275,244.935 C97.5,239.5425 106.035,241.0725 106.7025,246.495 Z" id="Path" fill="#F5F5F5" fill-rule="nonzero"></path>
                        <path d="M107.76,240.225 C107.549232,240.651452 107.214637,241.004346 106.8,241.2375 C106.304807,241.577969 105.667678,241.634856 105.12,241.3875 C104.657742,241.055394 104.364403,240.537254 104.3175,239.97 C104.172761,239.29413 104.214236,238.591643 104.4375,237.9375 C104.683892,237.273376 105.247439,236.777455 105.9375,236.6175 C106.630357,236.477156 107.327161,236.839619 107.61,237.4875 C107.82,238.185 108.0825,239.5425 107.76,240.225 Z" id="Path" fill="#F5F5F5" fill-rule="nonzero"></path>
                        <path d="M100.5525,237.6075 C100.72133,237.054928 101.201122,236.654611 101.775,236.5875 C102.351786,236.558008 102.888792,236.881398 103.1325,237.405 C103.205039,237.57288 103.265199,237.745842 103.3125,237.9225 C103.393403,238.203762 103.443694,238.492939 103.4625,238.785 C103.489658,239.079062 103.435159,239.374917 103.305,239.64 C103.138337,239.96137 102.87637,240.223337 102.555,240.39 C102.162907,240.619945 101.682076,240.639628 101.2725,240.4425 C100.876835,240.174529 100.606335,239.757958 100.5225,239.2875 C100.359627,238.737722 100.370102,238.151112 100.5525,237.6075 Z" id="Path" fill="#F5F5F5" fill-rule="nonzero"></path>
                        <path d="M97.1625,238.3875 C97.2766613,237.866845 97.7558651,237.509039 98.2875,237.5475 C98.8020605,237.610472 99.253152,237.921473 99.495,238.38 C99.5670769,238.528397 99.6297018,238.681202 99.6825,238.8375 C99.7743097,239.091293 99.832308,239.356067 99.855,239.625 C99.8701602,239.888244 99.8047563,240.14986 99.6675,240.375 C99.5076378,240.61284 99.2766081,240.793988 99.0075,240.8925 C98.6697023,241.03871 98.2840069,241.024935 97.9575,240.855 C97.5907838,240.618575 97.3238369,240.255527 97.2075,239.835 C97.0333875,239.370644 97.0175677,238.861774 97.1625,238.3875 L97.1625,238.3875 Z" id="Path" fill="#F5F5F5" fill-rule="nonzero"></path>
                        <path d="M94.3875,239.94 C94.59,239.31 94.98,239.19 95.415,239.2725 C95.8551437,239.428275 96.22671,239.73349 96.465,240.135 C96.5435676,240.262793 96.6137165,240.395575 96.675,240.5325 C96.7758994,240.752482 96.8368494,240.988663 96.855,241.23 C96.878663,241.472853 96.8059357,241.715277 96.6525,241.905 C96.5073411,242.068382 96.3121982,242.179139 96.0975,242.22 C95.8170679,242.281947 95.523664,242.23927 95.2725,242.1 C94.9243614,241.890686 94.6493368,241.578992 94.485,241.2075 C94.3000951,240.810744 94.2654508,240.360368 94.3875,239.94 L94.3875,239.94 Z" id="Path" fill="#F5F5F5" fill-rule="nonzero"></path>
                        <path d="M94.6425,243 C94.7354046,243.158608 94.794159,243.334871 94.815,243.5175 C94.8318981,243.704047 94.7595898,243.887599 94.62,244.0125 C94.3359592,244.163905 93.9895111,244.134545 93.735,243.9375 C93.4603578,243.781312 93.2285035,243.559763 93.06,243.2925 C92.8878282,243.020398 92.8362283,242.689073 92.9175,242.3775 C93.27,241.17 94.3875,242.5425 94.6425,243 Z" id="Path" fill="#F5F5F5" fill-rule="nonzero"></path>
                        <path d="M88.2975,66.4425 C84.7677927,66.9387188 81.2867395,65.2597755 79.4776219,62.1885933 C77.6685042,59.1174111 77.8876164,55.2588399 80.0327821,52.4122049 C82.1779479,49.5655699 85.8266905,48.2914979 89.2775317,49.1841129 C92.728373,50.0767279 95.3016915,52.960235 95.7975,56.49 C96.4657911,61.3070563 93.11218,65.7572983 88.2975,66.4425 L88.2975,66.4425 Z M86.5125,53.6175 C84.8563124,53.8458062 83.5008485,55.0495217 83.0784206,56.6671235 C82.6559927,58.2847254 83.2498334,59.9974911 84.5829211,61.0064303 C85.9160088,62.0153695 87.72568,62.1216868 89.1677387,61.2757862 C90.6097974,60.4298855 91.400109,58.7984381 91.17,57.1425 C90.8522638,54.885903 88.7705668,53.3103836 86.5125,53.6175 L86.5125,53.6175 Z" id="Shape" fill="#E0E0E0" fill-rule="nonzero"></path>
                        <rect id="Rectangle" fill="#E0E0E0" fill-rule="nonzero" transform="translate(84.825551, 42.313963) rotate(-7.950000) translate(-84.825551, -42.313963) " x="83.1530508" y="31.5552129" width="3.345" height="21.5175"></rect>
                        <rect id="Rectangle" fill="#E0E0E0" fill-rule="nonzero" transform="translate(84.923063, 30.556500) rotate(-8.049062) translate(-84.923063, -30.556500) " x="81.7847833" y="28.8842509" width="6.2765583" height="3.34449821"></rect>
                        <rect id="Rectangle" fill="#E0E0E0" fill-rule="nonzero" transform="translate(85.615275, 35.030641) rotate(-7.940000) translate(-85.615275, -35.030641) " x="82.6640249" y="33.3581414" width="5.9025" height="3.345"></rect>
                        <rect id="Rectangle" fill="#E0E0E0" fill-rule="nonzero" transform="translate(86.838655, 40.984681) rotate(-7.940000) translate(-86.838655, -40.984681) " x="84.2624051" y="39.3121811" width="5.1525" height="3.345"></rect>
                    </g>
                    <g id="freepik--Fingerprint--inject-2" transform="translate(39.750000, 100.500000)" fill-rule="nonzero">
                        <ellipse id="Oval" fill="#D3D7E1" transform="translate(27.332378, 27.046126) rotate(-46.250000) translate(-27.332378, -27.046126) " cx="27.3323776" cy="27.0461258" rx="18.105" ry="19.755"></ellipse>
                        <g id="Group" opacity="0.8" fill="#FFFFFF">
                            <ellipse id="Oval" transform="translate(27.332378, 27.046126) rotate(-46.250000) translate(-27.332378, -27.046126) " cx="27.3323776" cy="27.0461258" rx="18.105" ry="19.755"></ellipse>
                        </g>
                        <path d="M18.5175,15.18 C18.1946772,15.18 17.9080731,14.9734274 17.8059875,14.6671708 C17.703902,14.3609142 17.8092418,14.0236937 18.0675,13.83 C20.5929751,12.0174249 23.636964,11.0702892 26.745,11.13 L26.745,11.13 C27.1592136,11.13 27.495,11.4657864 27.495,11.88 C27.495,12.2942136 27.1592136,12.63 26.745,12.63 L26.745,12.63 C23.961283,12.5686441 21.2325873,13.4106717 18.9675,15.03 C18.8376779,15.1273666 18.6797777,15.18 18.5175,15.18 Z" id="Path" fill="#D3D7E1"></path>
                        <path d="M22.065,40.98 C21.9418943,40.9793849 21.8208328,40.9484755 21.7125,40.89 C17.0572999,38.4006997 13.7768759,33.9404257 12.7875,28.755 C11.8225055,24.2701382 12.9239436,19.5890263 15.7875,16.005 C16.0525967,15.6860556 16.5260555,15.6424034 16.845,15.9075001 C17.1639444,16.1725967 17.2075966,16.6460556 16.9425,16.965 C14.3555834,20.2092433 13.3667005,24.4457388 14.25,28.5 C15.1599512,33.2399008 18.1574406,37.317368 22.41,39.6 C22.7116391,39.7627975 22.8645268,40.1093781 22.7813936,40.4419109 C22.6982604,40.7744437 22.4002628,41.008303 22.0575,41.01 L22.065,40.98 Z" id="Path" fill="#D3D7E1"></path>
                        <path d="M29.5725,42.9375 C27.8937599,42.9301887 26.2263567,42.6619873 24.63,42.1425 C24.3741085,42.0594358 24.1819693,41.8461647 24.1259593,41.5830241 C24.0699493,41.3198834 24.1585778,41.0468505 24.3584593,40.8667741 C24.5583408,40.6866977 24.8391085,40.6269358 25.095,40.71 C29.7075,42.21 34.3125,41.37 37.725,38.46 C41.2458835,35.352371 42.8893599,30.6323524 42.06,26.01 C41.9937258,25.5957864 42.2757864,25.2062742 42.69,25.14 C43.1042136,25.0737258 43.4937258,25.3557864 43.56,25.77 C44.4848404,30.9071586 42.6488892,36.1531401 38.7225,39.5925 C36.1791764,41.7804057 32.9272608,42.9692207 29.5725,42.9375 L29.5725,42.9375 Z" id="Path" fill="#D3D7E1"></path>
                        <path d="M42.1875,24.09 C41.8610528,24.0887133 41.5729324,23.876414 41.475,23.565 C40.079958,19.2578321 36.9236097,15.7444185 32.79,13.8975 C32.4089235,13.7318146 32.2343146,13.2885765 32.4,12.9075 C32.5656854,12.5264235 33.0089235,12.3518146 33.39,12.5175 C37.916821,14.5412378 41.3729778,18.3898919 42.9,23.1075 C43.0280936,23.5009786 42.8132989,23.9238557 42.42,24.0525 C42.3445167,24.0753019 42.2663245,24.0879135 42.1875,24.09 L42.1875,24.09 Z" id="Path" fill="#D3D7E1"></path>
                        <path d="M30.3675,13.05 C30.3102656,13.0578153 30.2522344,13.0578153 30.195,13.05 C29.0663345,12.7871079 27.9113772,12.6537468 26.7525,12.6525 C26.3382864,12.6525 26.0025,12.3167136 26.0025,11.9025 C26.0025,11.4882864 26.3382864,11.1525 26.7525,11.1525 L26.7525,11.1525 C28.0152948,11.1563415 29.2734944,11.3048091 30.5025,11.595 C30.9167136,11.6426346 31.2138845,12.0170364 31.16625,12.43125 C31.1186154,12.8454636 30.7442136,13.1426346 30.33,13.095 L30.3675,13.05 Z" id="Path" fill="#D3D7E1"></path>
                        <path d="M17.1375,30.9675 C16.8236456,30.9685195 16.542348,30.7740052 16.4325,30.48 C15.0050077,26.7949865 15.4995745,22.6417499 17.7525,19.395 C19.8821907,16.3191411 23.4016042,14.5032137 27.1425,14.55 L27.1425,14.55 C27.5567136,14.55 27.8925,14.8857864 27.8925,15.3 C27.8925,15.7142136 27.5567136,16.05 27.1425,16.05 L27.1425,16.05 C23.8926264,16.0117621 20.8344571,17.5843744 18.975,20.25 C16.9992551,23.1093163 16.5747565,26.76394 17.8425,30 C17.9838984,30.3872294 17.7862661,30.815991 17.4,30.96 C17.3135054,30.9768967 17.2248182,30.9794307 17.1375,30.9675 Z" id="Path" fill="#D3D7E1"></path>
                        <path d="M29.0325,39.5325 L29.0325,39.5325 C24.4699183,39.3799608 20.2695767,37.0081679 17.7825,33.18 C17.5936782,32.8362989 17.7015108,32.4051572 18.0299043,32.1908166 C18.3582977,31.976476 18.7963748,32.0513052 19.035,32.3625 C21.2453268,35.7677763 24.9755066,37.8833171 29.0325,38.0325 C29.4467136,38.0325 29.7825,38.3682864 29.7825,38.7825 C29.7825,39.1967136 29.4467136,39.5325 29.0325,39.5325 Z" id="Path" fill="#D3D7E1"></path>
                        <path d="M31.8375,39.21 C31.4844771,39.2202852 31.1721116,38.9828875 31.0875,38.64 C30.9884209,38.2382632 31.2334122,37.8321816 31.635,37.7325 C37.7175,36.2325 39.2925,30.9 38.79,26.805 C38.1375,21.465 33.9225,16.0575 27.12,16.05 C26.7057864,16.05 26.37,15.7142136 26.37,15.3 C26.37,14.8857864 26.7057864,14.55 27.12,14.55 L27.12,14.55 C34.7925,14.55 39.5475,20.625 40.2825,26.625 C41.0325,32.8125 37.785,37.7475 31.995,39.1875 C31.9434462,39.200563 31.8906493,39.2081054 31.8375,39.21 Z" id="Path" fill="#D3D7E1"></path>
                        <path d="M24.075,20.19 C23.7847873,20.1878125 23.5218846,20.0183863 23.4,19.755 C23.2240376,19.3801331 23.3851947,18.9335936 23.76,18.7575 C24.9097841,18.2489511 26.1553522,17.9931876 27.4125,18.0075 C27.8267136,18.0075 28.1625,18.3432864 28.1625,18.7575 C28.1625,19.1717136 27.8267136,19.5075 27.4125,19.5075 C26.3773695,19.5081898 25.3544045,19.7306847 24.4125,20.16 C24.3037613,20.1956141 24.1883155,20.2058759 24.075,20.19 Z" id="Path" fill="#D3D7E1"></path>
                        <path d="M28.8975,36.0375 C25.0187679,35.9752467 21.5308317,33.6616702 19.965,30.1125 C18.4125,26.73 18.87,23.1975 21.1875,20.6475 C21.4674849,20.3438945 21.9402352,20.3237775 22.245,20.6025 C22.5486055,20.8824849 22.5687225,21.3552352 22.29,21.66 C20.3823165,23.8177157 20.0006712,26.9275287 21.33,29.4825 C22.6849673,32.5793118 25.7573795,34.5685585 29.1375,34.5375 C31.6928863,34.5189654 33.998745,33.0003297 35.025,30.66 C36.1779679,27.9015706 35.6409059,24.7258993 33.645,22.5 C33.470833,22.2963586 33.4185374,22.0152692 33.5078126,21.7626155 C33.5970877,21.5099618 33.8143705,21.3241278 34.0778126,21.2751155 C34.3412547,21.2261031 34.610833,21.3213586 34.785,21.525 C37.1613362,24.1903841 37.789147,27.9864494 36.3975,31.275 C35.1404496,34.146047 32.3165172,36.0130128 29.1825,36.045 L28.8975,36.0375 Z" id="Path" fill="#D3D7E1"></path>
                        <path d="M32.055,20.8500116 C31.913458,20.8508104 31.7749494,20.8089965 31.6575,20.73 C30.3910792,19.9149358 28.9185178,19.4778505 27.4125,19.47 C26.9982864,19.47 26.6625,19.1342136 26.6625,18.72 C26.6625,18.3057864 26.9982864,17.97 27.4125,17.97 L27.4125,17.97 C29.2038745,17.9766838 30.9557067,18.4972877 32.46,19.47 C32.7390098,19.6502201 32.8662475,19.9924923 32.7727126,20.3112037 C32.6791778,20.6299151 32.3871521,20.8491426 32.055,20.8500116 L32.055,20.8500116 Z" id="Path" fill="#D3D7E1"></path>
                        <path d="M28.5,32.655 C26.726078,32.6430807 25.0483607,31.8467828 23.9175,30.48 C22.4452957,28.7950526 22.0934265,26.4052736 23.0175,24.3675 C23.8430613,22.5162556 25.693264,21.335903 27.72,21.3675 L27.72,21.3675 C28.1342136,21.3675 28.47,21.7032864 28.47,22.1175 C28.47,22.5317136 28.1342136,22.8675 27.72,22.8675 C26.2866503,22.8411577 24.9748491,23.6695086 24.3825,24.975 C23.7090327,26.4792109 23.9758016,28.2381267 25.065,29.475 C26.1487704,30.8030654 27.9011445,31.3871901 29.565,30.975 C30.9193481,30.6702054 31.971466,29.6034341 32.2575,28.245 C32.3471335,27.8415455 32.7462652,27.5866379 33.15,27.675 C33.3451624,27.7163615 33.5158041,27.8337732 33.6241812,28.0012651 C33.7325583,28.168757 33.7697393,28.3725257 33.7275,28.5675 C33.3219885,30.4838374 31.8413911,31.9907695 29.9325,32.43 C29.4656649,32.5617829 28.9847568,32.6373182 28.5,32.655 L28.5,32.655 Z" id="Path" fill="#D3D7E1"></path>
                        <path d="M32.865,26.715 C32.5247999,26.7305745 32.2168106,26.5149819 32.115,26.19 C31.5014071,24.2636994 29.7335814,22.9385831 27.7125,22.89 C27.2982864,22.89 26.9625,22.5542136 26.9625,22.14 C26.9625,21.7257864 27.2982864,21.39 27.7125,21.39 L27.7125,21.39 C30.3853685,21.4495221 32.7272576,23.1954035 33.5475,25.74 C33.6086952,25.9299548 33.5916601,26.1364659 33.5001652,26.3138253 C33.4086703,26.4911846 33.2502614,26.6247649 33.06,26.685 C32.9966046,26.7035431 32.9310374,26.7136303 32.865,26.715 Z" id="Path" fill="#D3D7E1"></path>
                        <path d="M28.7025,29.535 C28.2882864,29.535 27.9525,29.1992136 27.9525,28.785 C27.9525,28.3707864 28.2882864,28.035 28.7025,28.035 C28.9094603,28.0353729 29.1073759,27.9502084 29.2493965,27.7996665 C29.3914172,27.6491247 29.464918,27.4465878 29.4525,27.24 C29.4605555,26.9450204 29.3500234,26.6591232 29.1456351,26.4462775 C28.9412469,26.2334318 28.6600637,26.1114049 28.365,26.1075 C28.1427734,26.1133834 27.9321306,26.2079026 27.78,26.37 C27.6247618,26.5531789 27.5491566,26.7907952 27.57,27.03 C27.586077,27.2979492 27.4579835,27.5541214 27.2339711,27.7020191 C27.0099588,27.8499167 26.7240604,27.8670706 26.4839711,27.7470191 C26.2438819,27.6269675 26.0860769,27.3879492 26.07,27.12 C26.0160775,26.4839107 26.2269251,25.8537477 26.6527949,25.3781932 C27.0786646,24.9026386 27.6818377,24.6238119 28.32,24.6075 C29.0134824,24.6094318 29.6773403,24.8888569 30.1634629,25.3834339 C30.6495855,25.8780108 30.9175242,26.5465874 30.9075,27.24 C30.9195923,27.8444954 30.6878885,28.4284206 30.2646139,28.8601607 C29.8413393,29.2919008 29.2621163,29.5351209 28.6575,29.535 L28.7025,29.535 Z" id="Path" fill="#D3D7E1"></path>
                        <path d="M48,27.0375 C48.915,37.485 41.1825,45.9525 30.75,45.9525 L29.94,45.9525 C39.885,45.4425 47.1075,37.1775 46.2225,27.06 C45.1672807,16.8350175 36.8965155,8.85884489 26.64,8.17482146 C26.9025,8.17482146 27.1725,8.17482146 27.4425,8.17482146 C37.905,8.13 47.115,16.5975 48,27.0375 Z" id="Path" fill="#D3D7E1"></path>
                        <g id="Group" opacity="0.4" transform="translate(26.250000, 7.500000)" fill="#FFFFFF">
                            <path d="M21.75,19.5375 C22.665,29.985 14.9325,38.4525 4.5,38.4525 L3.69,38.4525 C13.635,37.9425 20.8575,29.6775 19.9725,19.56 C18.9172807,9.3350175 10.6465155,1.35884489 0.39,0.674821465 C0.6525,0.674821465 0.9225,0.674821465 1.1925,0.674821465 C11.655,0.63 20.865,9.0975 21.75,19.5375 Z" id="Path"></path>
                        </g>
                    </g>
                    <g id="freepik--verification-code--inject-2" transform="translate(102.750000, 25.500000)" fill-rule="nonzero">
                        <path d="M0.315,9.855 C0.333435273,10.0789068 0.363475654,10.3017063 0.405,10.5225 C0.687970635,11.9675721 1.42972847,13.2827456 2.52,14.2725 C3.75536967,15.4292277 5.38018716,16.07969 7.0725,16.095 L70.44,16.095 C71.9341143,16.1251494 73.3778845,15.5547179 74.4479059,14.5114823 C75.5179274,13.4682466 76.1247697,12.0393985 76.1325,10.545 C76.1436571,10.3226399 76.1436571,10.0998601 76.1325,9.8775 C75.7669721,6.40324353 72.8751219,3.74274134 69.3825,3.6675 L6,3.6675 C4.39269997,3.63500419 2.84888754,4.29453688 1.76120956,5.47835527 C0.673531576,6.66217365 0.146806717,8.25619408 0.315,9.855 L0.315,9.855 Z" id="Path" fill="#D3D7E1"></path>
                        <path d="M0.315,9.855 C0.333435273,10.0789068 0.363475654,10.3017063 0.405,10.5225 C0.687970635,11.9675721 1.42972847,13.2827456 2.52,14.2725 C3.75536967,15.4292277 5.38018716,16.07969 7.0725,16.095 L70.44,16.095 C71.9341143,16.1251494 73.3778845,15.5547179 74.4479059,14.5114823 C75.5179274,13.4682466 76.1247697,12.0393985 76.1325,10.545 C76.1436571,10.3226399 76.1436571,10.0998601 76.1325,9.8775 C75.7669721,6.40324353 72.8751219,3.74274134 69.3825,3.6675 L6,3.6675 C4.39269997,3.63500419 2.84888754,4.29453688 1.76120956,5.47835527 C0.673531576,6.66217365 0.146806717,8.25619408 0.315,9.855 L0.315,9.855 Z" id="Path" fill="#FFFFFF" opacity="0.8"></path>
                        <path d="M76.1325,10.5 C76.1327088,10.7008507 76.1176656,10.9014274 76.0875,11.1 C75.6255429,7.70879044 72.7594824,5.16118108 69.3375,5.1 L1.965,5.25 C3.04371926,4.20074168 4.49530424,3.62334543 6,3.645 L69.3675,3.645 C72.8601219,3.72024134 75.7519721,6.38074353 76.1175,9.855 C76.132917,10.0696314 76.1379229,10.2848839 76.1325,10.5 Z" id="Path" fill="#D3D7E1"></path>
                        <path d="M76.1325,10.5 C76.1327088,10.7008507 76.1176656,10.9014274 76.0875,11.1 C75.6255429,7.70879044 72.7594824,5.16118108 69.3375,5.1 L1.965,5.25 C3.04371926,4.20074168 4.49530424,3.62334543 6,3.645 L69.3675,3.645 C72.8601219,3.72024134 75.7519721,6.38074353 76.1175,9.855 C76.132917,10.0696314 76.1379229,10.2848839 76.1325,10.5 Z" id="Path" fill="#FFFFFF" opacity="0.5"></path>
                        <polygon id="Path" fill="#D3D7E1" points="65.25 6.645 65.52 9.645 68.34 8.595 69.0075 10.095 66.1275 11.055 68.1975 13.5975 66.9 14.55 64.8825 11.91 63.3825 14.55 61.965 13.5975 63.5625 11.055 60.5625 10.095 60.9675 8.595 64.005 9.6075 63.735 6.6075"></polygon>
                        <polygon id="Path" fill="#D3D7E1" points="47.8875 6.645 48.1575 9.645 50.9775 8.595 51.6525 10.095 48.75 11.0775 50.82 13.62 49.53 14.5725 47.5125 11.9325 46.0125 14.5725 44.5875 13.62 46.1925 11.0775 43.1925 10.1175 43.5975 8.6175 46.635 9.63 46.3725 6.63"></polygon>
                        <polygon id="Path" fill="#D3D7E1" points="30.5625 6.645 30.825 9.645 33.645 8.595 34.32 10.095 31.4325 11.055 33.5025 13.5975 32.25 14.5725 30.2325 11.9325 28.7325 14.5725 27.315 13.62 28.9125 11.0775 25.9125 10.1175 26.325 8.6175 29.325 9.63 29.0625 6.63"></polygon>
                        <polygon id="Path" fill="#D3D7E1" points="13.23 6.645 13.4925 9.645 16.32 8.595 16.9875 10.095 14.1 11.055 16.1775 13.5975 14.88 14.55 12.8625 11.91 11.3625 14.55 9.945 13.5975 11.5425 11.055 8.5425 10.095 8.9475 8.595 11.9475 9.6075 11.685 6.6075"></polygon>
                        <rect id="Rectangle" fill="#D3D7E1" x="52.2825" y="0.705" width="2.955" height="1"></rect>
                        <rect id="Rectangle" fill="#D3D7E1" x="58.2975" y="0.705" width="9.6375" height="1"></rect>
                    </g>
                    <g id="freepik--face-recognition--inject-2" transform="translate(233.250000, 49.500000)" fill-rule="nonzero">
                        <path d="M35.8425,4.68 L32.775,39.75 C32.5302565,42.0656387 30.6029722,43.8387403 28.275,43.8900553 L3.9225,43.8900553 C2.85652656,43.8957822 1.83846769,43.4476238 1.12283177,42.6575618 C0.407195858,41.8674997 0.0616214493,40.8102069 0.1725,39.75 L3.24,4.6725 C3.47514736,2.35204589 5.40802741,0.573796244 7.74,0.532440341 L32.0925,0.532440341 C33.1599252,0.526484362 34.1793279,0.975653644 34.8952265,1.76743758 C35.6111252,2.55922152 35.9556658,3.6185735 35.8425,4.68 L35.8425,4.68 Z" id="Path" fill="#D3D7E1" opacity="0.8"></path>
                        <path d="M35.8425,4.68 L32.775,39.75 C32.5302565,42.0656387 30.6029722,43.8387403 28.275,43.8900553 L3.9225,43.8900553 C2.85652656,43.8957822 1.83846769,43.4476238 1.12283177,42.6575618 C0.407195858,41.8674997 0.0616214493,40.8102069 0.1725,39.75 L3.24,4.6725 C3.47514736,2.35204589 5.40802741,0.573796244 7.74,0.532440341 L32.0925,0.532440341 C33.1599252,0.526484362 34.1793279,0.975653644 34.8952265,1.76743758 C35.6111252,2.55922152 35.9556658,3.6185735 35.8425,4.68 L35.8425,4.68 Z" id="Path" fill="#FFFFFF" opacity="0.8"></path>
                        <path d="M5.46,10.3350063 L5.3925,10.3350063 C4.98064072,10.2992455 4.67537828,9.93695605 4.71,9.525 L4.995,6.315 C5.03002724,5.92735218 5.3557761,5.63092071 5.745,5.63249372 L9.135,5.63249372 C9.54921356,5.63249372 9.885,5.96828644 9.885,6.3825 C9.885,6.79671356 9.54921356,7.13249372 9.135,7.13249372 L6.435,7.13249372 L6.21,9.6525 C6.17497276,10.0401478 5.8492239,10.3365793 5.46,10.3350063 Z" id="Path" fill="#D3D7E1"></path>
                        <path d="M32.73,10.335 L32.6625,10.335 C32.2506407,10.2992455 31.9453783,9.93695605 31.98,9.525 L32.19,7.13249381 L29.625,7.13249381 C29.2107864,7.13249381 28.875,6.79671356 28.875,6.3825 C28.875,5.96828644 29.2107864,5.63249381 29.625,5.63249381 L33,5.63249381 C33.2111794,5.63164282 33.4129344,5.71985701 33.5556993,5.8754708 C33.6984643,6.03108459 33.769008,6.23967602 33.75,6.45 L33.465,9.6525 C33.4305327,10.0344598 33.1134629,10.3288817 32.73,10.335 L32.73,10.335 Z" id="Path" fill="#D3D7E1"></path>
                        <path d="M6.75,34.5375 L3.36,34.5375 C3.1521262,34.5368313 2.95385384,34.4499174 2.8125,34.2975 C2.67069491,34.1431026 2.59998177,33.9364027 2.6175,33.7275 L2.895,30.5175 C2.93020822,30.1032865 3.29453648,29.796042 3.70874999,29.8312501 C4.1229635,29.8664583 4.43020808,30.2307865 4.395,30.645 L4.185,33.0375 L6.75,33.0375 C7.16421356,33.0375 7.5,33.3732864 7.5,33.7875 C7.5,34.2017136 7.16421356,34.5375 6.75,34.5375 L6.75,34.5375 Z" id="Path" fill="#D3D7E1"></path>
                        <path d="M30.6075,34.5375063 L27.225,34.5375063 C26.8107864,34.5375063 26.475,34.2017136 26.475,33.7875 C26.475,33.3732864 26.8107864,33.0375 27.225,33.0375 L29.925,33.0375 L30.1425,30.5175 C30.1782545,30.1056407 30.5405439,29.8003783 30.9525,29.835 C31.3643593,29.8707545 31.6696217,30.2330439 31.635,30.645 L31.3575,33.855 C31.3224728,34.2426478 30.9967239,34.5390793 30.6075,34.5375063 L30.6075,34.5375063 Z" id="Path" fill="#D3D7E1"></path>
                        <ellipse id="Oval" fill="#FFFFFF" transform="translate(18.468780, 19.980471) rotate(-75.540000) translate(-18.468780, -19.980471) " cx="18.4687803" cy="19.9804713" rx="12.2775" ry="9.87"></ellipse>
                        <polygon id="Path" fill="#FFFFFF" points="21.4125 38.6475 11.7 38.6475 12.5475 28.935 22.26 28.935"></polygon>
                        <path d="M32.775,39.75 C32.5302565,42.0656387 30.6029722,43.8387403 28.275,43.8900553 L3.9225,43.8900553 C2.85652656,43.8957822 1.83846769,43.4476238 1.12283177,42.6575618 C0.407195858,41.8674997 0.0616214493,40.8102069 0.1725,39.75 C0.1725,39.75 11.3625,36.21 12.7425,36.21 L21.39,36.21 L32.775,39.75 Z" id="Path" fill="#FFFFFF"></path>
                        <rect id="Rectangle" fill="#D3D7E1" transform="translate(37.063153, 21.847812) rotate(-85.290000) translate(-37.063153, -21.847812) " x="30.1519032" y="21.4728123" width="13.8225" height="1"></rect>
                        <rect id="Rectangle" fill="#D3D7E1" transform="translate(38.308157, 10.008978) rotate(-85.290000) translate(-38.308157, -10.008978) " x="36.9506571" y="9.63397837" width="2.715" height="1"></rect>
                    </g>
                    <g id="freepik--Verified--inject-2" transform="translate(220.500000, 109.500000)" fill-rule="nonzero">
                        <rect id="Rectangle" fill="#D3D7E1" x="21.705" y="32.3025" width="2.955" height="1"></rect>
                        <rect id="Rectangle" fill="#D3D7E1" x="27.72" y="32.3025" width="9.6375" height="1"></rect>
                        <path d="M54.9975,19.5 L53.13,40.875 C52.9292286,42.8300637 51.3000295,44.3272526 49.335,44.3625 C48.4311679,44.3784804 47.5640296,44.0053866 46.9541679,43.3381261 C46.3443062,42.6708656 46.0505044,41.7737545 46.1475,40.875 L48,19.5 C48.3488999,16.2751008 47.2963633,13.0556233 45.1098361,10.6596256 C42.9233089,8.26362793 39.8132811,6.92176516 36.57,6.975 L28.95,6.975 C21.897268,7.1084495 16.0527101,12.4831255 15.33,19.5 L14.58,28.23 L7.605,28.23 L8.355,19.5 C9.2925,8.745 18.81,-8.67361738e-19 29.5575,-8.67361738e-19 L37.2075,-8.67361738e-19 C42.2566245,-0.0832903248 47.0983495,2.0059191 50.5017854,5.73649807 C53.9052213,9.46707704 55.5425424,14.4796888 54.9975,19.5 L54.9975,19.5 Z" id="Path" fill="#D3D7E1"></path>
                        <g id="Group" opacity="0.5" transform="translate(7.500000, 0.000000)" fill="#FFFFFF">
                            <path d="M47.4975,19.5 L45.63,40.875 C45.4292286,42.8300637 43.8000295,44.3272526 41.835,44.3625 C40.9311679,44.3784804 40.0640296,44.0053866 39.4541679,43.3381261 C38.8443062,42.6708656 38.5505044,41.7737545 38.6475,40.875 L40.5,19.5 C40.8488999,16.2751008 39.7963633,13.0556233 37.6098361,10.6596256 C35.4233089,8.26362793 32.3132811,6.92176516 29.07,6.975 L21.45,6.975 C14.397268,7.1084495 8.55271013,12.4831255 7.83,19.5 L7.08,28.23 L0.105,28.23 L0.855,19.5 C1.7925,8.745 11.31,-8.67361738e-19 22.0575,-8.67361738e-19 L29.7075,-8.67361738e-19 C34.7566245,-0.0832903248 39.5983495,2.0059191 43.0017854,5.73649807 C46.4052213,9.46707704 48.0425424,14.4796888 47.4975,19.5 L47.4975,19.5 Z" id="Path"></path>
                        </g>
                        <path d="M55.5,40.095 L51.8625,81.75 C51.5891854,84.4232524 49.3593427,86.4694231 46.6725,86.5125 L5.0175,86.5125 C3.78329947,86.5348493 2.59908188,86.0254026 1.76659169,85.1139694 C0.934101505,84.2025362 0.533732256,82.9771335 0.6675,81.75 L4.3125,40.095 C4.48251652,38.4104878 5.44672693,36.9084375 6.9075,36.0525 C7.68936819,35.5738073 8.58581291,35.3147193 9.5025,35.3024316 L51.15,35.3024316 C52.0008867,35.2978089 52.8356664,35.5344598 53.5575,35.985 C54.9317516,36.8760076 55.6839544,38.467541 55.5,40.095 L55.5,40.095 Z" id="Path" fill="#D3D7E1"></path>
                        <path d="M12.1875,58.29 L23.01,74.9475 L58.7025,39.255 C58.8165071,39.1182529 58.813433,38.9187075 58.6952677,38.7855371 C58.5771024,38.6523667 58.3793402,38.6255728 58.23,38.7225 L24.2175,65.385 L17.79,55.0275 L12.1875,58.29 Z" id="Path" fill="#FFFFFF"></path>
                    </g>
                    <g id="freepik--eye-scan--inject-2" transform="translate(24.750000, 47.250000)" fill-rule="nonzero">
                        <path d="M37.5,39.9827124 L10.365,39.9827124 C7.7666114,39.9353588 5.61264486,37.9552551 5.3475,35.37 L3,8.25 C2.86817488,7.06196532 3.25438839,5.87470591 4.05995143,4.99160204 C4.86551447,4.10849816 6.0123838,3.61510528 7.2075,3.6375 L34.3125,3.6375 C36.9006928,3.69627428 39.0395103,5.67427848 39.3,8.25 L41.67,35.355 C41.805569,36.5388749 41.426324,37.7239761 40.628623,38.6091947 C39.830922,39.4944133 38.691551,39.9945388 37.5,39.9827124 Z" id="Path" fill="#D3D7E1"></path>
                        <path d="M37.5,39.9827124 L10.365,39.9827124 C7.7666114,39.9353588 5.61264486,37.9552551 5.3475,35.37 L3,8.25 C2.86817488,7.06196532 3.25438839,5.87470591 4.05995143,4.99160204 C4.86551447,4.10849816 6.0123838,3.61510528 7.2075,3.6375 L34.3125,3.6375 C36.9006928,3.69627428 39.0395103,5.67427848 39.3,8.25 L41.67,35.355 C41.805569,36.5388749 41.426324,37.7239761 40.628623,38.6091947 C39.830922,39.4944133 38.691551,39.9945388 37.5,39.9827124 Z" id="Path" fill="#FFFFFF" opacity="0.8"></path>
                        <path d="M5.3625,24.5475 C5.3625,24.5475 15,11.13 22.095,11.475 C29.19,11.82 40.98,24.225 40.98,24.225 C40.98,24.225 23.6025,33.3525 5.3625,24.5475 Z" id="Path" fill="#FFFFFF"></path>
                        <path d="M5.67,24.75 L5.0625,24.315 C5.4525,23.7675 14.64,11.0775 21.825,11.0775 L22.1175,11.0775 C29.2875,11.4225 40.7625,23.4375 41.25,23.9475 L40.71,24.465 C40.59,24.345 28.95,12.1575 22.08,11.8275 L21.825,11.8275 C15,11.8425 5.76,24.6375 5.67,24.75 Z" id="Path" fill="#263238"></path>
                        <path d="M4.365,25.0200001 C2.91,25.0200001 1.02,24.48 0.3525,22.425 C0.288453203,22.2282607 0.395850547,22.0168222 0.5925,21.9525 C0.686933407,21.9195925 0.790699361,21.9265897 0.87985981,21.9718776 C0.96902026,22.0171654 1.03587459,22.0968324 1.065,22.1925 C1.9275,24.8475 5.1525,24.21 5.2875,24.18 C5.48962924,24.1427822 5.68503855,24.2719511 5.73,24.4725 C5.74991195,24.5699691 5.73027843,24.6713559 5.67542067,24.7543459 C5.62056292,24.8373358 5.53497701,24.895127 5.4375,24.915 C5.08428021,24.9848958 4.72506893,25.0200633 4.365,25.0200001 L4.365,25.0200001 Z" id="Path" fill="#263238"></path>
                        <path d="M10.0875,19.26 C10.003801,19.2616526 9.92195591,19.2352509 9.855,19.185 C9.7425,19.095 7.08,17.04 6.405,14.9475 C6.3409532,14.7507607 6.44835055,14.5393222 6.645,14.475 C6.84138373,14.4152553 7.04991348,14.5211752 7.1175,14.715 C7.725,16.5825 10.2825,18.57 10.3125,18.585 C10.4757457,18.7115463 10.505925,18.9462746 10.38,19.11 C10.3107769,19.2023463 10.2028875,19.2576742 10.0875,19.26 Z" id="Path" fill="#263238"></path>
                        <path d="M15.5925,14.1525 L15.5925,14.1525 C15.3888048,14.1407604 15.2285857,13.9740017 15.225,13.77 C14.7870297,12.1364406 14.2433846,10.5330634 13.5975,8.97 C13.41,8.475 13.275,8.115 13.245,8.025 C13.2148376,7.92852338 13.2249005,7.82395577 13.2729075,7.73500164 C13.3209144,7.64604751 13.4027995,7.58024107 13.5,7.5525 C13.5954779,7.52465227 13.6981078,7.53587357 13.7853122,7.58369535 C13.8725166,7.63151712 13.9371523,7.71202206 13.965,7.8075 C13.965,7.8975 14.1225,8.2275 14.295,8.7 C15.345,11.4525 15.99,13.26 15.975,13.785 C15.9750834,13.8851225 15.9343126,13.9809447 15.8621137,14.0503122 C15.7899149,14.1196798 15.6925391,14.1565867 15.5925,14.1525 Z" id="Path" fill="#263238"></path>
                        <path d="M22.095,11.85 C21.9017666,11.8438441 21.7422094,11.6970515 21.72,11.505 L21.195,5.505 C21.1763604,5.29789322 21.3291432,5.11488961 21.53625,5.09625 C21.7433568,5.07761039 21.9263604,5.23039322 21.945,5.4375 L22.47,11.4825 C22.4833515,11.6858517 22.3349257,11.8639626 22.1325,11.8875 L22.095,11.85 Z" id="Path" fill="#263238"></path>
                        <path d="M42.105,24.6075 C41.7380814,24.6092929 41.3717017,24.5791795 41.01,24.5175 C40.912523,24.497627 40.8269371,24.4398358 40.7720793,24.3568459 C40.7172216,24.2738559 40.697588,24.1724691 40.7175,24.075 C40.7336384,23.9770857 40.7894787,23.8901756 40.8718284,23.8348025 C40.9541781,23.7794294 41.0557329,23.7605049 41.1525,23.7825 C41.1525,23.7825 42.99,24.135 44.115,23.34 C44.6018688,22.9857009 44.9132291,22.4394549 44.97,21.84 C44.9900962,21.7060254 45.0801404,21.5929489 45.2062139,21.5433654 C45.3322874,21.4937819 45.4752366,21.5152243 45.581214,21.5996154 C45.6871913,21.6840065 45.7400962,21.8185254 45.72,21.9525 C45.6283597,22.7505617 45.2033186,23.4725867 44.55,23.94 C43.8212084,24.4045295 42.9687357,24.6372598 42.105,24.6075 L42.105,24.6075 Z" id="Path" fill="#263238"></path>
                        <path d="M35.37,18.8625097 C35.2631632,18.8632834 35.1614977,18.8165722 35.0925,18.735 C35.0215078,18.6645875 34.9815756,18.5687391 34.9815756,18.46875 C34.9815756,18.3687609 35.0215078,18.2729125 35.0925,18.2025 C35.0925,18.2025 37.3425,16.2225 37.5825,14.3775 C37.6170287,14.1745759 37.8059554,14.0353668 38.01,14.0625 C38.1085202,14.0772963 38.1971034,14.1306876 38.256201,14.2108914 C38.3152985,14.2910952 38.3400524,14.3915186 38.325,14.49 C38.01,16.605 35.685,18.675 35.5875,18.765 C35.5288857,18.8223076 35.4517809,18.8568719 35.37,18.8625097 L35.37,18.8625097 Z" id="Path" fill="#263238"></path>
                        <path d="M29.0325,14.5050505 L28.965,14.5050505 C28.7617798,14.4669376 28.6255883,14.2742764 28.6575,14.07 C28.6575,14.025 29.4825,9.2025 29.6325,8.2125 C29.6525962,8.0785254 29.7426404,7.96544894 29.8687139,7.91586545 C29.9947874,7.86628196 30.1377366,7.88772434 30.2437139,7.97211545 C30.3496913,8.05650657 30.4025962,8.1910254 30.3825,8.325 C30.2325,9.3225 29.415,14.1525 29.4075,14.1975 C29.3745123,14.3779097 29.2158764,14.5079911 29.0325,14.5050505 L29.0325,14.5050505 Z" id="Path" fill="#263238"></path>
                        <ellipse id="Oval" fill="#D3D7E1" transform="translate(22.838259, 19.978009) rotate(-46.250000) translate(-22.838259, -19.978009) " cx="22.8382593" cy="19.978009" rx="8.13" ry="8.88"></ellipse>
                        <path d="M26.355,19.9725 C26.3662035,19.7826652 26.3662035,19.5923348 26.355,19.4025 C26.1465442,17.3788039 24.4591057,15.8298384 22.425,15.795 C21.4905281,15.7787205 20.5941451,16.1649106 19.9640998,16.8552335 C19.3340546,17.5455564 19.0311443,18.4733984 19.1325,19.4025 C19.144917,19.5959737 19.1801615,19.7873013 19.2375,19.9725 L14.3475,19.9725 C14.1056962,17.7847019 14.8170364,15.5986477 16.3000265,13.9720961 C17.7830166,12.3455445 19.8942289,11.4358078 22.095,11.475 C26.8820505,11.5633804 30.8505029,15.2099794 31.3425,19.9725 L26.355,19.9725 Z" id="Path" fill="#000000" opacity="0.3"></path>
                        <path d="M26.3475,19.4025 C26.3587035,19.5923348 26.3587035,19.7826652 26.3475,19.9725 C26.2354749,21.7069524 24.7776992,23.0457261 23.04,23.01 C21.2274274,22.9761526 19.662699,21.731133 19.2225,19.9725 C19.1651615,19.7873013 19.129917,19.5959737 19.1175,19.4025 C19.0161443,18.4733984 19.3190546,17.5455564 19.9490998,16.8552335 C20.5791451,16.1649106 21.4755281,15.7787205 22.41,15.795 C24.4469861,15.8260796 26.1386937,17.3760059 26.3475,19.4025 Z" id="Path" fill="#000000" opacity="0.7"></path>
                        <path d="M28.305,15.8625 C28.3868799,16.6198255 28.1395305,17.3758392 27.6258453,17.9383102 C27.11216,18.5007812 26.3816276,18.8155207 25.62,18.8025 C23.9655107,18.7696088 22.5950775,17.5085529 22.425,15.8625 C22.3405942,15.1046283 22.5870701,14.3471647 23.1013073,13.7840893 C23.6155445,13.2210139 24.3475998,12.9070132 25.11,12.9225 C26.7658267,12.9520558 28.1381354,14.2148374 28.305,15.8625 L28.305,15.8625 Z" id="Path" fill="#FFFFFF" opacity="0.7"></path>
                        <rect id="Rectangle" fill="#D3D7E1" x="13.74" y="0.285" width="2.955" height="1"></rect>
                        <rect id="Rectangle" fill="#D3D7E1" x="19.755" y="0.285" width="9.6375" height="1"></rect>
                    </g>
                    <g id="freepik--Device--inject-5" transform="translate(136.500000, 87.000000)" fill-rule="nonzero">
                        <path d="M70.3311779,170 L12.939164,169.734258 C6.03790513,169.696084 0.47147434,164.047172 0.5,157.110888 L1.10913527,12.5080393 C1.1228154,9.17494083 2.45413058,5.98399565 4.80987292,3.6379751 C7.16561527,1.29195455 10.3525702,-0.0167241565 13.6688452,0 L71.0551136,0.265794997 C77.9563685,0.300795866 83.5253619,5.94711499 83.5,12.8833911 L82.8908879,157.480465 C82.8772019,160.814616 81.546255,164.006741 79.1908463,166.354596 C76.8354376,168.70245 73.6485144,170.013704 70.3311779,170 Z" id="Path" fill="#455A64"></path>
                        <path d="M70.7206104,5.19654802 L59.501738,5.19654802 C58.7624491,5.21020711 58.0588987,5.516105 57.5459255,6.04691912 C57.0329523,6.57773324 56.7525961,7.28996157 56.7665583,8.02685558 L56.7665583,10.05428 C56.7805125,10.7906256 56.4999752,11.502249 55.9868408,12.0321463 C55.4737064,12.5620435 54.7701439,12.8666681 54.0313787,12.8788114 L32.1615313,12.7806171 C30.6210046,12.739677 29.4048218,11.4628072 29.4437363,9.92720494 L29.4437363,7.89978055 C29.4826836,6.36637132 28.2699767,5.09043023 26.7317361,5.04636844 L22.7854282,5.04636844 L12.96312,5 C8.09911257,4.97129324 4.12736972,8.86821693 4.07958099,13.7163514 L3.5,154.896713 C3.48931075,157.229846 4.40882141,159.471686 6.05633873,161.129042 C7.70385605,162.786399 9.94442016,163.723505 12.2851199,163.734204 L70.0484052,164 C72.3906417,164.010655 74.641227,163.093508 76.3050456,161.450234 C77.9688643,159.80696 78.9096209,157.57217 78.9203545,155.237505 L79.5,14.0571435 C79.5287372,9.19448943 75.5990172,5.22834954 70.7206104,5.19654802 L70.7206104,5.19654802 Z" id="Path" fill="#FFFFFF"></path>
                        <path d="M63.6268616,145 L20.3066256,144.808739 C19.8565908,144.808739 19.4942251,144.306821 19.5,143.697348 L19.5468266,132.111391 C19.5468266,131.513869 19.9150369,131 20.3650717,131 L63.6853076,131.203158 C64.2034312,131.294749 64.5590188,131.787364 64.4918636,132.320524 L64.4509513,143.89453 C64.4509513,144.509978 64.0768964,145.005922 63.6268616,145 Z" id="Path" fill="#D3D7E1"></path>
                        <text id="SING-UP" fill="#E8E8E3" font-family="Montserrat-Medium, Montserrat" font-size="6.2242198" font-weight="400">
                            <tspan x="32.5" y="141">SING </tspan>
                            <tspan x="32.5" y="149">UP</tspan>
                        </text>
                        <polygon id="Rectangle" fill="#D3D7E1" transform="translate(21.606997, 47.614735) rotate(0.260000) translate(-21.606997, -47.614735) " points="14.1741557 46.2513733 29.0398436 46.2513408 29.0398377 48.9780976 14.1741497 48.9781301"></polygon>
                        <polygon id="Rectangle" fill="#000000" opacity="0.1" transform="translate(21.606997, 47.614735) rotate(0.260000) translate(-21.606997, -47.614735) " points="14.1741557 46.2513733 29.0398436 46.2513408 29.0398377 48.9780976 14.1741497 48.9781301"></polygon>
                        <path d="M72.4582215,63 C72.5755888,62.988409 72.6908682,62.961692 72.8010549,62.9205455 C73.1292347,62.7952284 73.3550244,62.4975158 73.3821284,62.154377 C73.3821284,61.2520007 73.3821284,59.9353259 73.3821284,58.2440798 C73.3821284,57.3984567 73.3821284,56.4506779 73.3821284,55.4064186 C73.3821284,55.151029 73.3821284,54.8842889 73.3821284,54.6175487 C73.4199975,54.3587193 73.3623233,54.0951746 73.2194279,53.8740815 C73.0572652,53.6591692 72.801271,53.5310034 72.5279504,53.5278868 L71.6214756,53.5278868 L63.2249631,53.5278868 L14.6239728,53.3519518 C14.3714958,53.3477617 14.1328462,53.4643058 13.984792,53.6640946 C13.8444714,53.8860855 13.79083,54.1500573 13.8337128,54.4075618 C13.8337128,54.975094 13.8337128,55.5426263 13.8337128,56.1101585 C13.8337128,57.245223 13.8337128,58.3802875 13.8337128,59.515352 C13.8337128,60.0828843 13.8337128,60.6504165 13.8337128,61.2179487 C13.8096073,61.4822739 13.8096073,61.7481687 13.8337128,62.0124939 C13.8955788,62.2421577 14.062987,62.4308195 14.2869502,62.5232729 C14.4014456,62.5677838 14.524031,62.589026 14.6472158,62.5857015 L17.6048801,62.5857015 L30.5105232,62.6538053 L52.358888,62.7843377 L67.0891021,62.8978442 L71.0926987,62.9432468 L72.1328203,62.9432468 C72.3710605,62.9432468 72.4872752,62.9432468 72.4872752,62.9432468 L72.1328203,62.9432468 L71.0926987,62.9432468 L67.0891021,62.9432468 L52.358888,62.9432468 L30.5105232,62.8751429 L17.6048801,62.824065 L14.6472158,62.824065 C14.4844428,62.8304904 14.3221051,62.80342 14.1707355,62.7446105 C13.8606846,62.6153766 13.6290883,62.353572 13.5431761,62.0351952 C13.5095392,61.8862381 13.4977998,61.7333605 13.5083117,61.5811694 L13.5083117,61.1611955 C13.5083117,60.5936633 13.5083117,60.026131 13.5083117,59.4585988 C13.5083117,58.3235343 13.5083117,57.1884698 13.5083117,56.0534053 C13.5083117,55.4858731 13.5083117,54.9183408 13.5083117,54.3508086 C13.4972294,54.1996602 13.4972294,54.0479312 13.5083117,53.8967828 C13.5300854,53.7298372 13.5961915,53.5713583 13.7000659,53.4370817 C13.9035224,53.159029 14.233409,52.9958097 14.5832977,53 L63.184288,53.2611467 L71.5808005,53.3178999 L72.4872752,53.3178999 C72.8113966,53.3181445 73.1150244,53.4727752 73.3007781,53.7321984 C73.4645948,53.9789414 73.5307027,54.2755472 73.4867217,54.5664708 C73.4867217,54.833211 73.4867217,55.0999511 73.4867217,55.3553407 C73.4867217,56.3882493 73.4867217,57.3360282 73.4867217,58.1930019 C73.4867217,59.8955986 73.4460465,61.2009228 73.4344251,62.1089744 C73.405426,62.4654416 73.1674393,62.7731487 72.8242979,62.8978442 C72.7143374,62.9644039 72.5875868,62.9997744 72.4582215,63 Z" id="Path" fill="#E0E0E0"></path>
                        <rect id="Rectangle" fill="#D3D7E1" x="18.5" y="56" width="27" height="3"></rect>
                        <rect id="Rectangle" fill="#FFFFFF" opacity="0.2" x="18.5" y="56" width="27" height="3"></rect>
                        <polygon id="Rectangle" fill="#D3D7E1" transform="translate(21.505620, 72.489886) rotate(0.260000) translate(-21.505620, -72.489886) " points="14.0727791 71.1265237 28.9384671 71.1264912 28.9384611 73.853248 14.0727732 73.8532805"></polygon>
                        <polygon id="Rectangle" fill="#000000" opacity="0.1" transform="translate(21.505620, 72.489886) rotate(0.260000) translate(-21.505620, -72.489886) " points="14.0727791 71.1265237 28.9384671 71.1264912 28.9384611 73.853248 14.0727732 73.8532805"></polygon>
                        <path d="M72.2090279,87.9622302 C72.3263874,87.9481058 72.4427928,87.9272081 72.5576364,87.8996462 C72.8859828,87.7973188 73.1529846,87.5607637 73.2897143,87.2510487 C73.3812028,87.0213644 73.4170029,86.7740214 73.3942968,86.5284883 C73.3942968,86.2553946 73.3942968,85.9595431 73.3942968,85.6295549 C73.3942968,84.9695785 73.3942968,84.2185709 73.3942968,83.3537742 L73.3942968,79.7409723 C73.42203,79.4794091 73.3629452,79.2160575 73.2258027,78.9899646 C73.0824958,78.7580907 72.8570741,78.5859546 72.5924973,78.5063612 C72.3030925,78.4557921 72.0084073,78.4405039 71.7151659,78.4608456 L63.3543723,78.4608456 L14.9268431,78.2844726 C14.388074,78.285718 13.9334802,78.6773534 13.8635872,79.2004743 C13.8635872,79.7409723 13.8635872,80.3383647 13.8635872,80.9073099 C13.8635872,82.0452003 13.8635872,83.1830906 13.8635872,84.320981 C13.8635872,84.8899262 13.8635872,85.4588714 13.8635872,86.0278165 C13.8419434,86.293722 13.8536509,86.5612226 13.898448,86.8243398 C13.9709913,87.0550411 14.1203025,87.2553283 14.3225883,87.393285 C14.5372112,87.5266573 14.7893164,87.5903652 15.0430459,87.5753474 L15.8506556,87.5753474 L17.5297864,87.5753474 L30.3876295,87.6379314 L52.1582297,87.7687888 L66.8346471,87.8825778 L70.8262143,87.9280935 L71.8662296,87.9280935 L72.2148381,87.9280935 L71.8662296,87.9280935 L70.8262143,87.9280935 L66.8346471,87.9280935 L52.1582297,87.9280935 L30.3760093,87.9053356 L17.5181662,87.85982 L14.9907546,87.85982 C14.6764928,87.8780584 14.3646411,87.7962262 14.101803,87.6265525 C13.8374261,87.4472208 13.6444804,87.1839139 13.5556497,86.8812343 C13.5035743,86.5921416 13.4879637,86.2978792 13.5091685,86.0050587 C13.5091685,85.4361135 13.5091685,84.8671684 13.5091685,84.2982232 C13.5091685,83.1603328 13.5091685,82.0224424 13.5091685,80.8845521 C13.5091685,80.3156069 13.5091685,79.7466617 13.5091685,79.1777165 C13.5968775,78.5046665 14.1816509,78.000268 14.8745518,78 L63.3020811,78.2617148 L71.6628746,78.3242988 C71.9742093,78.3055965 72.2867057,78.3266343 72.5924973,78.3868827 C72.8943659,78.4834669 73.1489746,78.686166 73.3071447,78.9558279 C73.4574516,79.2064232 73.5225587,79.4973037 73.4930692,79.7864879 C73.4930692,80.0538921 73.4930692,80.3156069 73.4930692,80.5773217 C73.4930692,81.6071125 73.4930692,82.5515615 73.4930692,83.4220476 C73.4930692,84.2925337 73.4930692,85.026473 73.4930692,85.6978283 C73.4930692,86.0221271 73.4930692,86.323668 73.4930692,86.6024512 C73.5141905,86.8568835 73.4723362,87.1125511 73.3710562,87.3477694 C73.218452,87.6654444 72.9320773,87.9022487 72.5866871,87.9963669 C72.4597311,88.0066396 72.3319184,87.9950866 72.2090279,87.9622302 L72.2090279,87.9622302 Z" id="Path" fill="#E0E0E0"></path>
                        <polygon id="Rectangle" fill="#D3D7E1" transform="translate(21.393585, 98.445303) rotate(0.260000) translate(-21.393585, -98.445303) " points="13.9607444 97.0819409 28.8264324 97.0819083 28.8264264 99.8086651 13.9607385 99.8086977"></polygon>
                        <polygon id="Rectangle" fill="#000000" opacity="0.1" transform="translate(21.393585, 98.445303) rotate(0.260000) translate(-21.393585, -98.445303) " points="13.9607444 97.0819409 28.8264324 97.0819083 28.8264264 99.8086651 13.9607385 99.8086977"></polygon>
                        <path d="M72.1624173,113.991417 C72.2798737,113.977905 72.3963249,113.957095 72.5110595,113.929112 C72.8379029,113.827854 73.1044902,113.594805 73.2432083,113.289072 C73.3342965,113.060308 73.3700865,112.814163 73.3478009,112.569736 C73.3478009,112.292196 73.3478009,112.003329 73.3478009,111.669149 C73.3478009,111.017781 73.3478009,110.26446 73.3478009,109.403521 L73.3478009,105.806838 C73.3755369,105.546442 73.3164463,105.284265 73.1792905,105.059181 C73.0325503,104.832551 72.8081352,104.663972 72.5459238,104.583399 C72.2567469,104.531046 71.9620167,104.513922 71.6685074,104.532422 L63.3069041,104.532422 L14.8746849,104.356836 C14.3358637,104.358076 13.8812259,104.747964 13.811326,105.268751 C13.811326,105.835158 13.811326,106.401565 13.811326,106.967972 C13.811326,108.100786 13.811326,109.233599 13.811326,110.366413 C13.811326,110.93282 13.811326,111.499227 13.811326,112.065633 C13.7896875,112.328468 13.8013973,112.5929 13.8461903,112.852939 C13.9157781,113.084047 14.0657609,113.284318 14.2703717,113.419346 C14.4836758,113.555109 14.736835,113.618792 14.990899,113.600596 L17.5185553,113.600596 L30.3776436,113.668565 L52.1503521,113.798838 L66.8281909,113.91212 L70.8201446,113.957432 L71.8602607,113.957432 C72.0926888,113.957432 72.2089029,113.957432 72.2089029,113.957432 C72.2089029,113.957432 72.0926888,113.957432 71.8602607,113.957432 L70.8201446,113.957432 L66.8281909,113.957432 L52.1503521,113.957432 L30.3776436,113.895128 L17.5185553,113.844151 L14.990899,113.844151 C14.6763487,113.864833 14.3636529,113.783153 14.1018612,113.611924 C13.8374588,113.433393 13.6444943,113.17126 13.5556551,112.869931 C13.5035746,112.582128 13.4879625,112.289179 13.5091694,111.997665 C13.5091694,111.431258 13.5091694,110.864851 13.5091694,110.298444 C13.5091694,109.16563 13.5091694,108.032817 13.5091694,106.900003 C13.5091694,106.333596 13.5091694,105.767189 13.5091694,105.172462 C13.59417,104.503297 14.1771434,104.000604 14.8688742,104 L63.3010934,104.260547 L71.6626967,104.322852 C71.9740615,104.304233 72.2865882,104.325177 72.5924094,104.385157 C72.8943073,104.48131 73.1489406,104.683105 73.307126,104.951563 C73.4574475,105.201041 73.5225609,105.490624 73.4930685,105.778517 C73.4930685,106.044729 73.4930685,106.31094 73.4930685,106.565823 C73.4930685,107.591019 73.4930685,108.531255 73.4930685,109.397857 C73.4930685,110.26446 73.4930685,110.995125 73.4930685,111.663485 C73.4930685,111.986337 73.4930685,112.286532 73.4930685,112.564071 C73.5153652,112.817412 73.4734619,113.072212 73.3710438,113.306064 C73.2184247,113.622322 72.9320223,113.85807 72.5865987,113.951768 C72.4503518,113.99723 72.3050443,114.010812 72.1624173,113.991417 L72.1624173,113.991417 Z" id="Path" fill="#E0E0E0"></path>
                        <polygon id="Rectangle" fill="#D3D7E1" transform="translate(31.653784, 82.914241) rotate(0.260000) translate(-31.653784, -82.914241) " points="18.0596582 81.6404368 45.2479148 81.6403773 45.2479093 84.1880462 18.0596526 84.1881057"></polygon>
                        <polygon id="Rectangle" fill="#FFFFFF" opacity="0.2" transform="translate(31.653784, 82.914241) rotate(0.260000) translate(-31.653784, -82.914241) " points="18.0596582 81.6404368 45.2479148 81.6403773 45.2479093 84.1880462 18.0596526 84.1881057"></polygon>
                        <path d="M20.4989843,109.073153 C20.4589881,109.617885 19.9889367,110.029775 19.4431889,109.998311 C18.897441,109.966848 18.4779241,109.503672 18.5009004,108.957959 C18.5238767,108.412247 18.9808448,107.985912 19.5273092,108.000356 C20.0905957,108.031717 20.5238083,108.510014 20.4989843,109.073153 Z" id="Path" fill="#D3D7E1"></path>
                        <path d="M24.497564,109.5 C24.5236,110.02309 24.3393639,110.522848 24.0199757,110.795506 C23.7005876,111.068165 23.2994124,111.068165 22.9800243,110.795506 C22.6606361,110.522848 22.4764,110.02309 22.502436,109.5 C22.4764,108.97691 22.6606361,108.477152 22.9800243,108.204494 C23.2994124,107.931835 23.7005876,107.931835 24.0199757,108.204494 C24.3393639,108.477152 24.5236,108.97691 24.497564,109.5 L24.497564,109.5 Z" id="Path" fill="#D3D7E1"></path>
                        <path d="M27.4991829,109.073153 C27.4591827,109.617885 26.9890846,110.029775 26.4432826,109.998311 C25.8974805,109.966848 25.4779219,109.503672 25.5009005,108.957959 C25.523879,108.412247 25.9808926,107.985912 26.5274113,108.000356 C27.0895357,108.034258 27.5213573,108.510972 27.4991829,109.073153 L27.4991829,109.073153 Z" id="Path" fill="#D3D7E1"></path>
                        <path d="M31.4991829,109.073153 C31.4591827,109.617885 30.9890846,110.029775 30.4432826,109.998311 C29.8974805,109.966848 29.4779219,109.503672 29.5009005,108.957959 C29.523879,108.412247 29.9808926,107.985912 30.5274113,108.000356 C31.0895357,108.034258 31.5213573,108.510972 31.4991829,109.073153 L31.4991829,109.073153 Z" id="Path" fill="#D3D7E1"></path>
                        <path d="M35.4993658,109.06831 C35.4619714,109.613903 34.9928561,110.028286 34.4463275,109.998489 C33.8997989,109.968692 33.478597,109.505768 33.500842,108.959349 C33.523087,108.41293 33.9805268,107.985715 34.527672,108.000366 C35.0877937,108.034247 35.5188328,108.507982 35.4993658,109.06831 Z" id="Path" fill="#D3D7E1"></path>
                        <path d="M38.4994063,109.067954 C38.4624168,109.610473 37.9983144,110.024024 37.454648,109.998915 C36.9109815,109.973806 36.4870424,109.519241 36.5003028,108.975626 C36.5135631,108.432012 36.9591621,107.998621 37.5034074,108 C38.0731648,108.021078 38.5185338,108.498621 38.4994063,109.067954 L38.4994063,109.067954 Z" id="Path" fill="#D3D7E1"></path>
                        <path d="M42.497564,109.5 C42.5236,110.02309 42.3393639,110.522848 42.0199757,110.795506 C41.7005876,111.068165 41.2994124,111.068165 40.9800243,110.795506 C40.6606361,110.522848 40.4764,110.02309 40.502436,109.5 C40.4764,108.97691 40.6606361,108.477152 40.9800243,108.204494 C41.2994124,107.931835 41.7005876,107.931835 42.0199757,108.204494 C42.3393639,108.477152 42.5236,108.97691 42.497564,109.5 L42.497564,109.5 Z" id="Path" fill="#D3D7E1"></path>
                        <path d="M46.4994063,109.067954 C46.4624168,109.610473 45.9983144,110.024024 45.454648,109.998915 C44.9109815,109.973806 44.4870424,109.519241 44.5003028,108.975626 C44.5135631,108.432012 44.9591621,107.998621 45.5034074,108 C46.0731648,108.021078 46.5185338,108.498621 46.4994063,109.067954 L46.4994063,109.067954 Z" id="Path" fill="#D3D7E1"></path>
                        <path d="M49.4993658,109.06831 C49.4619714,109.613903 48.9928561,110.028286 48.4463275,109.998489 C47.8997989,109.968692 47.478597,109.505768 47.500842,108.959349 C47.523087,108.41293 47.9805268,107.985715 48.527672,108.000366 C49.0877937,108.034247 49.5188328,108.507982 49.4993658,109.06831 L49.4993658,109.06831 Z" id="Path" fill="#D3D7E1"></path>
                        <g id="Group" opacity="0.2" transform="translate(18.500000, 108.000000)" fill="#FFFFFF">
                            <path d="M2.57714286,1.485 C2.53010043,2.11621844 1.97723904,2.59350459 1.33534569,2.55704556 C0.693452327,2.52058654 0.200028258,1.98387222 0.227052301,1.35151675 C0.254076344,0.719161286 0.791549571,0.22513691 1.43428571,0.241875 C2.09680751,0.278214907 2.60634014,0.832451069 2.57714286,1.485 Z" id="Path"></path>
                            <path d="M6.21714286,1.501875 C6.24779113,1.93409864 6.03091709,2.34704435 5.65494826,2.57233897 C5.27897943,2.79763359 4.80673485,2.79763359 4.43076602,2.57233897 C4.0547972,2.34704435 3.83792315,1.93409864 3.86857143,1.501875 C3.83792315,1.06965136 4.0547972,0.656705646 4.43076602,0.431411029 C4.80673485,0.206116412 5.27897943,0.206116412 5.65494826,0.431411029 C6.03091709,0.656705646 6.24779113,1.06965136 6.21714286,1.501875 L6.21714286,1.501875 Z" id="Path"></path>
                            <path d="M9.86285714,1.51875 C9.81581471,2.14996844 9.26295333,2.62725459 8.62105997,2.59079556 C7.97916661,2.55433654 7.48574254,2.01762222 7.51276659,1.38526675 C7.53979063,0.752911286 8.07726386,0.25888691 8.72,0.275625 C9.38108934,0.314909438 9.88893546,0.867311117 9.86285714,1.51875 L9.86285714,1.51875 Z" id="Path"></path>
                            <path d="M13.5028571,1.535625 C13.4558147,2.16684344 12.9029533,2.64412959 12.26106,2.60767056 C11.6191666,2.57121154 11.1257425,2.03449722 11.1527666,1.40214175 C11.1797906,0.769786286 11.7172639,0.27576191 12.36,0.2925 C13.0210893,0.331784438 13.5289355,0.884186117 13.5028571,1.535625 L13.5028571,1.535625 Z" id="Path"></path>
                            <path d="M17.1428571,1.546875 C17.0988757,2.17909126 16.547126,2.65926555 15.9043267,2.62473782 C15.2615274,2.59021009 14.7661311,2.05378874 14.7922945,1.4206154 C14.8184579,0.787442048 15.3564754,0.29239847 16,0.309375 C16.6587869,0.348635811 17.1657533,0.89758537 17.1428571,1.546875 Z" id="Path"></path>
                            <path d="M20.7885714,1.56375 C20.7450669,2.19239896 20.1992201,2.67160572 19.5597953,2.64251027 C18.9203704,2.61341481 18.421761,2.08668263 18.437357,1.45676376 C18.452953,0.826844896 18.9770373,0.324648198 19.6171429,0.326246179 C20.2872542,0.350670645 20.811068,0.904028839 20.7885714,1.56375 L20.7885714,1.56375 Z" id="Path"></path>
                            <path d="M24.4285714,1.580625 C24.4592197,2.01284864 24.2423457,2.42579435 23.8663768,2.65108897 C23.490408,2.87638359 23.0181634,2.87638359 22.6421946,2.65108897 C22.2662258,2.42579435 22.0493517,2.01284864 22.08,1.580625 C22.0493517,1.14840136 22.2662258,0.735455646 22.6421946,0.510161029 C23.0181634,0.284866412 23.490408,0.284866412 23.8663768,0.510161029 C24.2423457,0.735455646 24.4592197,1.14840136 24.4285714,1.580625 L24.4285714,1.580625 Z" id="Path"></path>
                            <path d="M28.0685714,1.5975 C28.0250669,2.22614896 27.4792201,2.70535572 26.8397953,2.67626027 C26.2003704,2.64716481 25.701761,2.12043263 25.717357,1.49051376 C25.732953,0.860594896 26.2570373,0.358398198 26.8971429,0.359996179 C27.5672542,0.384420645 28.091068,0.937778839 28.0685714,1.5975 L28.0685714,1.5975 Z" id="Path"></path>
                            <path d="M31.7085714,1.614375 C31.66459,2.24659126 31.1128403,2.72676555 30.470041,2.69223782 C29.8272417,2.65771009 29.3318453,2.12128874 29.3580087,1.4881154 C29.3841721,0.854942048 29.9221897,0.35989847 30.5657143,0.376875 C31.2245012,0.416135811 31.7314676,0.96508537 31.7085714,1.614375 L31.7085714,1.614375 Z" id="Path"></path>
                        </g>
                        <path d="M44.3270596,26.1109979 C45.1847992,25.7645556 45.7340009,24.9817197 45.7223241,24.1221777 C45.7649222,23.3775323 45.3560131,22.672107 44.6591454,22.2880458 C43.9622777,21.9039847 43.0912132,21.9039847 42.3943455,22.2880458 C41.6974778,22.672107 41.2885687,23.3775323 41.3311668,24.1221777 C41.3123511,24.9906188 41.8652651,25.7840929 42.7324715,26.1331574 C39.3500119,26.5985081 39.5010145,29.9667607 39.5010145,29.9667607 L47.4981154,30 C47.4981154,30 47.6853587,26.5708087 44.3270596,26.1109979 Z" id="Path" fill="#D3D7E1"></path>
                        <path d="M44.3270596,26.1109979 C45.1847992,25.7645556 45.7340009,24.9817197 45.7223241,24.1221777 C45.7649222,23.3775323 45.3560131,22.672107 44.6591454,22.2880458 C43.9622777,21.9039847 43.0912132,21.9039847 42.3943455,22.2880458 C41.6974778,22.672107 41.2885687,23.3775323 41.3311668,24.1221777 C41.3123511,24.9906188 41.8652651,25.7840929 42.7324715,26.1331574 C39.3500119,26.5985081 39.5010145,29.9667607 39.5010145,29.9667607 L47.4981154,30 C47.4981154,30 47.6853587,26.5708087 44.3270596,26.1109979 Z" id="Path" fill="#000000" opacity="0.1"></path>
                        <polygon id="Rectangle" fill="#D3D7E1" transform="translate(43.549161, 33.757107) rotate(0.260000) translate(-43.549161, -33.757107) " points="29.9116873 32.1280151 57.1866411 32.1279554 57.186634 35.3861987 29.9116802 35.3862584"></polygon>
                        <polygon id="Rectangle" fill="#FFFFFF" opacity="0.2" transform="translate(43.549161, 33.757107) rotate(0.260000) translate(-43.549161, -33.757107) " points="29.9116873 32.1280151 57.1866411 32.1279554 57.186634 35.3861987 29.9116802 35.3862584"></polygon>
                    </g>
                    <g id="humaaan-11" transform="translate(48.000000, 56.000000)">
                        <g id="Head/Front" transform="translate(27.324749, 0.353738)">
                            <g id="Head" transform="translate(16.887825, 25.292730) rotate(-7.000000) translate(-16.887825, -25.292730) translate(5.210172, 5.349361)" fill="#915B3C">
                                <path d="M21.115064,4.93442353 C24.3229056,10.7695123 23.9417307,25.5706989 19.7958811,26.613592 C18.1424732,27.0295087 14.6201674,26.0106371 11.0353345,23.9019094 L13.2857143,39.4367816 L0,39.4367816 L4.57391182,18.6327726 C2.02302076,15.7107716 0.296506348,12.1297955 0.585001185,8.11719923 C1.41621852,-3.44397663 17.9072223,-0.900665245 21.115064,4.93442353 Z" id="Head-[skin]"></path>
                            </g>
                            <path d="M7.40456155,26.7042004 C5.7160438,19.45703 0.952601081,14.5063418 1.66817534,11.2714543 C2.14522485,9.11486268 3.42987299,7.77663531 5.52211976,7.25677224 C6.59224639,2.98156031 10.0793952,1.17198823 15.9835661,1.828056 C24.8398224,2.81215766 30.2541642,6.41862324 27.9442021,14.3129402 C25.7991153,14.3066844 23.2072746,13.5415111 19.6303023,14.8291176 C18.4953434,15.23767 17.6865219,16.5125321 17.2038378,18.6537041 L15.5856665,18.648985 C14.0075702,16.1017266 12.4562536,15.1628456 10.9317167,15.8323423 C9.40717977,16.501839 9.06505868,18.1378507 9.90535343,20.7403775 L9.12607133,26.7092209 L7.40456155,26.7042004 Z" id="Hair" fill="#191847" transform="translate(15.036543, 14.203175) rotate(-7.000000) translate(-15.036543, -14.203175) "></path>
                        </g>
                        <g id="Bottom/Skinny-Jeans-1" transform="translate(15.324749, 93.353738)">
                            <polygon id="Leg-[skin]" fill="#784931" points="26.6752513 0.646262101 47.2679101 72.6127352 56.9536683 126.646262 66.6752513 126.646262 56.9709943 0.646262101"></polygon>
                            <polygon id="Shadow" fill-opacity="0.1" fill="#000000" points="26.6752513 0.646262101 47.2679101 72.6127352 56.9536683 126.646262 66.6752513 126.646262 56.9709943 0.646262101"></polygon>
                            <path d="M16.7578751,0.646262101 C18.1991666,37.991224 17.6307422,58.360181 17.3081639,61.7531331 C16.9855857,65.1460853 15.154285,87.8698039 2.67525128,127.646262 L12.8175467,127.646262 C29.3439745,89.4875469 35.1131922,66.7638283 37.0086484,61.7531331 C38.9041046,56.742438 44.5022325,36.3734809 52.6752513,0.646262101 L16.7578751,0.646262101 Z" id="Leg-[skin]" fill="#915B3C"></path>
                            <path d="M25.6752513,0.646262101 C31.0108836,25.287286 40.2392409,64.6206194 53.360323,118.646262 L67.5239256,118.646262 C68.5700692,63.1941068 64.1198234,26.697312 56.4131089,0.646262101 L25.6752513,0.646262101 Z" id="Pant" fill="#061738"></path>
                            <path d="M17.0563358,0.646262101 C18.4474057,37.9790386 14.8423599,74.7588945 3.67525128,119.646262 L18.6717048,119.646262 C34.9882184,82.0693187 46.6827892,45.4709579 54.6752513,0.646262101 L17.0563358,0.646262101 Z" id="Pant" fill="#002060"></path>
                            <g filter="url(#filter-1)" id="Left-[shoe]">
                                <g transform="translate(0.675251, 124.646262)">
                                    <path d="M0,10.35 L0.569422844,1.55 C3.90331355,2.48468381 8.07908107,2.11801714 13.0967254,0.45 C18.2611211,3.95663481 24.7052331,6.39863864 32.4290613,7.77601152 C33.563123,7.97824344 34.3185177,9.06152521 34.1162831,10.1955864 C34.1027151,10.2716709 34.0849289,10.3469425 34.0630068,10.4210529 L33.5959478,12 L33.5959478,12 L13.0967254,12 L1.13884569,12 L0,10.35 Z" id="Shoe" fill="#191847"></path>
                                </g>
                            </g>
                            <g filter="url(#filter-2)" id="Right-[shoe]">
                                <g transform="translate(53.675251, 124.646262)">
                                    <path d="M0,10.35 L0.569422844,1.55 C3.90331355,2.48468381 8.07908107,2.11801714 13.0967254,0.45 C18.2611211,3.95663481 24.7052331,6.39863864 32.4290613,7.77601152 C33.563123,7.97824344 34.3185177,9.06152521 34.1162831,10.1955864 C34.1027151,10.2716709 34.0849289,10.3469425 34.0630068,10.4210529 L33.5959478,12 L33.5959478,12 L13.0967254,12 L1.13884569,12 L0,10.35 Z" id="Shoe" fill="#191847"></path>
                                </g>
                            </g>
                        </g>
                        <g id="Body/Long-Sleeve-1" transform="translate(0.324749, 32.353738)">
                            <path d="M23.3459346,55.1405126 L35.2057799,55.1868222 C27.8828726,78.6593549 23.9295909,91.1137337 23.3459346,92.5499586 C22.0327079,95.7814647 24.8116721,100.702993 26.0000675,103.347785 C24.2473592,104.126527 23.3728975,103.246669 22.4873153,102.26009 L22.2651734,102.01212 C21.2598602,100.894333 20.1466721,99.8051522 17.6593035,100.954186 C16.8490085,101.3285 16.0739691,101.758071 15.3172036,102.191472 L14.8652013,102.45156 C11.6396199,104.312923 8.68912502,106.054903 4.66355634,103.588558 C4.03051911,103.200715 3.33681344,101.740417 5.01289404,100.599271 C9.18862203,97.7562603 15.206099,92.7804795 16.019155,91.1426627 C17.1279019,88.9092069 19.5701618,76.9084902 23.3459346,55.1405126 L23.3459346,55.1405126 Z M92.8528918,54.6849624 L110.956039,67.8845487 C115.865985,69.2000659 119.968087,70.8367915 123.262343,72.7947254 C123.333085,72.8587309 123.405169,72.9287015 123.47534,73.0028386 L123.578757,73.1169441 C124.2195,73.8565554 124.540909,74.8910224 121.753764,74.6782045 C118.526544,74.4317838 115.120831,74.3167005 114.675537,75.4096758 C114.230243,76.5026512 116.183182,77.80973 115.28305,79.28444 C114.682962,80.26758 111.847903,77.8023929 106.777875,71.8888786 L88.8510106,64.5075984 L92.8528918,54.6849624 Z" id="Arms-[skin]" fill="#915B3C" transform="translate(63.992720, 79.746030) rotate(-10.000000) translate(-63.992720, -79.746030) "></path>
                            <path d="M46.7762074,5.39897119 L51.5903936,4.14539605 C71.1102545,18.1444573 81.2169116,47.3968388 104.855659,61.3187407 L100.090378,68.3667473 C61.1019389,66.9446823 48.3015655,31.3044972 46.7762074,5.39897119 Z" id="Coat-Back" fill="#C89F08" transform="translate(75.815933, 36.256072) rotate(-5.000000) translate(-75.815933, -36.256072) "></path>
                            <path d="M27.9360391,68.6217911 C47.6084261,68.6489523 62.0790217,68.6689321 71.3478258,68.6817307 C73.3315231,68.6844675 72.9537744,65.8384172 72.6650213,64.4021491 C69.3324618,47.8258794 56.3885593,29.9445513 56.355741,6.35515302 L43.8310243,4.38720677 C33.4967414,20.9209153 29.9433505,41.2899191 27.9360391,68.6217911 Z" id="Shirt" fill="#DDE3E9" transform="translate(50.417168, 36.534469) rotate(-10.000000) translate(-50.417168, -36.534469) "></path>
                            <path d="M45.080012,7.10055935 C45.5038399,7.10055935 45.8920308,7.12693212 46.2445847,7.17967765 L50.1659418,7.40189418 C61.4156989,45.2591944 64.5183148,70.5169958 59.4737895,83.1752983 L59.4737895,83.1752983 L25.2967009,83.1760228 C23.2718765,87.86409 21.3342864,91.8084646 19.4839305,95.0091466 L19.4839305,95.0091466 L10.1713753,95.0091466 C9.29492191,66.8707667 16.032572,42.9883009 30.3843256,23.3617495 C28.5650114,22.8435755 27.1242531,21.6325607 26.0621464,19.7296367 C21.4842179,11.5275883 23.1375221,7.0117532 28.0298759,5.52737269 C32.9222296,4.04299218 37.2851847,7.10055935 45.080012,7.10055935 Z" id="Coat-Front" fill="#F7C407" transform="translate(35.956045, 50.064964) rotate(-10.000000) translate(-35.956045, -50.064964) "></path>
                            <path d="M42.1403728,83.5636523 L29.457283,83.5633718 C31.8191674,78.0948205 34.2997446,71.6143853 36.8990145,64.1220661 C37.9741408,73.0503369 39.7211666,79.5314723 42.1403728,83.5636523 Z" id="Shade" fill-opacity="0.1" fill="#000000" transform="translate(35.798606, 73.842589) rotate(-10.000000) translate(-35.798606, -73.842589) "></path>
                        </g>
                    </g>
                </g>
            </g>
        </g>
    </g>
</svg>