<?xml version="1.0" encoding="UTF-8"?>
<svg width="50px" height="50px" viewBox="0 0 50 50" version="1.1" xmlns="http://www.w3.org/2000/svg" xmlns:xlink="http://www.w3.org/1999/xlink">
    <title>BFSI - icon 02</title>
    <g id="Page-1" stroke="none" stroke-width="1" fill="none" fill-rule="evenodd">
        <g id="Illustrations" transform="translate(-1135.000000, -4556.000000)" fill-rule="nonzero">
            <g id="BFSI---icon-02" transform="translate(1135.000000, 4556.000000)">
                <path d="M3.33333333,17.5 C3.3346875,16.4410417 4.00197917,15.4973958 5,15.1433333 L5,28.3333333 L6.66666667,28.3333333 L6.66666667,7.5 C6.66822917,6.11989583 7.7865625,5.0015625 9.16666667,5 L31.6666667,5 L31.6666667,3.33333333 L9.16666667,3.33333333 C6.8665625,3.3359375 5.00260417,5.19989583 5,7.5 L5,13.4171875 C3.06135417,13.815625 1.66916667,15.5208333 1.66666667,17.5 L1.66666667,27.5 L3.33333333,27.5 L3.33333333,17.5 Z" id="Path" fill="#002060"></path>
                <path d="M49.1666667,43.3333333 L48.3333333,43.3333333 L48.3333333,25.8333333 L46.6666667,25.8333333 L46.6666667,43.3333333 L32.0117708,43.3333333 C31.035625,43.330625 30.0990625,43.7186458 29.4107292,44.4107292 C29.0342708,44.7892708 28.5220833,45.0014583 27.9882292,45 L22.0117708,45 C21.4779167,45.0014583 20.9657292,44.7892708 20.5892708,44.4107292 C19.9009375,43.7186458 18.964375,43.330625 17.9882292,43.3333333 L3.33333333,43.3333333 L3.33333333,40 L1.66666667,40 L1.66666667,43.3333333 L0.833333333,43.3333333 C0.373125,43.3333333 -5.55111512e-15,43.7064583 -5.55111512e-15,44.1666667 L-5.55111512e-15,46.6666667 C0.00208333333,48.5067708 1.49322917,49.9979167 3.33333333,50 L46.6666667,50 C48.5067708,49.9979167 49.9979167,48.5067708 50,46.6666667 L50,44.1666667 C50,43.7064583 49.626875,43.3333333 49.1666667,43.3333333 L49.1666667,43.3333333 Z M48.3333333,46.6666667 C48.3322917,47.5866667 47.5866667,48.3322917 46.6666667,48.3333333 L3.33333333,48.3333333 C2.41333333,48.3322917 1.66770833,47.5866667 1.66666667,46.6666667 L1.66666667,44.9999925 L17.9882292,44.9999925 C18.5220833,44.9985417 19.0342708,45.2107292 19.4107292,45.5892708 C20.0982292,46.2805208 21.0334375,46.6684375 22.0083333,46.6666667 L27.9916667,46.6666667 C28.9665625,46.6684375 29.9017708,46.280625 30.5892708,45.589375 C30.9657292,45.2108333 31.4779167,44.9986458 32.0117708,44.9999925 L48.3333333,44.9999925 L48.3333333,46.6666667 Z" id="Shape" fill="#002060"></path>
                <polygon id="Path" fill="#002060" points="43.3333333 25.8333333 45 25.8333333 45 41.6666667 43.3333333 41.6666667"></polygon>
                <polygon id="Path" fill="#002060" points="5 40 6.66666667 40 6.66666667 41.6666667 5 41.6666667"></polygon>
                <polygon id="Path" fill="#F7C407" points="9.16614583 6.66666667 10.8328125 6.66666667 10.8328125 8.33333333 9.16614583 8.33333333"></polygon>
                <polygon id="Path" fill="#F7C407" points="12.4994792 6.66666667 14.1661458 6.66666667 14.1661458 8.33333333 12.4994792 8.33333333"></polygon>
                <polygon id="Path" fill="#F7C407" points="15.8328125 6.66666667 17.4994792 6.66666667 17.4994792 8.33333333 15.8328125 8.33333333"></polygon>
                <polygon id="Path" fill="#002060" points="9.16666667 10 30 10 30 11.6666667 9.16666667 11.6666667"></polygon>
                <path d="M21.9919792,15.8570833 C24.6867708,14.6236458 27.8336458,14.9119792 30.2594792,16.6145833 L31.2190625,15.2517708 C27.7697917,12.8222917 23.1658333,12.8222917 19.7165625,15.2517708 L20.6760417,16.6145833 C21.0907292,16.3226042 21.53125,16.0690625 21.9919792,15.8570833 Z" id="Path" fill="#002060"></path>
                <path d="M30.493125,42.0361458 C32.3372917,40.1241667 33.7969792,37.8757292 34.7929167,35.413125 L33.2482292,34.7872917 C32.331875,37.0529167 30.9889583,39.1214583 29.2922917,40.8805208 L30.493125,42.0361458 Z" id="Path" fill="#002060"></path>
                <path d="M49.1666667,10 L48.3333333,10 L48.3333333,7.5 C48.3333333,3.3578125 44.9754167,0 40.8333333,0 C36.69125,0 33.3333333,3.3578125 33.3333333,7.5 C33.3333333,7.96020833 33.7064583,8.33333333 34.1666667,8.33333333 L37.5,8.33333333 C37.9602083,8.33333333 38.3333333,7.96020833 38.3333333,7.5 C38.3333333,6.11927083 39.4526042,5 40.8333333,5 C42.2140625,5 43.3333333,6.11927083 43.3333333,7.5 L43.3333333,10 L32.5,10 C32.0397917,10 31.6666667,10.373125 31.6666667,10.8333333 L31.6666667,18.4110417 C29.565625,17.323125 27.2327083,16.7589583 24.8666667,16.7666667 L24.75,16.7666667 C21.9695833,16.7648958 19.2534375,17.6022917 16.9565625,19.1691667 L17.8934375,20.5475 C19.9140625,19.1686458 22.30375,18.4316667 24.75,18.4329167 L24.8666667,18.4329167 C27.2646875,18.4219792 29.6186458,19.0766667 31.6666667,20.3240625 L31.6666667,22.3333333 C29.7025,20.8713542 27.31625,20.0875 24.8677083,20.0998958 L24.7510417,20.0998958 C21.2632292,20.1141667 18.0022917,21.83125 16.0170833,24.6989583 L15.616875,25.2739583 L16.9851042,26.2258333 L17.3845833,25.6516667 C19.0580208,23.2310417 21.8083333,21.7804167 24.7510417,21.76625 L24.8677083,21.76625 C27.9758333,21.76625 30.8398958,23.1921875 32.5283333,25.5798958 C33.1184375,26.4145833 33.56,27.3448958 33.8333333,28.3298958 C34.2763542,29.8858333 34.2760417,31.5345833 33.8323958,33.0903125 L35.4365625,33.5430208 C35.9641667,31.69125 35.9644792,29.7289583 35.4375,27.8769792 C35.1129167,26.71 34.589375,25.6078125 33.89,24.6188542 C33.7808333,24.4644792 33.666875,24.3141667 33.5496875,24.1666667 L49.1666667,24.1666667 C49.626875,24.1666667 50,23.7935417 50,23.3333333 L50,10.8333333 C50,10.373125 49.626875,10 49.1666667,10 L49.1666667,10 Z M40.8333333,3.33333333 C38.8540625,3.33583333 37.1486458,4.72791667 36.75,6.66666667 L35.059375,6.66666667 C35.5179167,3.4778125 38.4745833,1.264375 41.6635417,1.72291667 C44.5361458,2.1359375 46.6682292,4.59791667 46.6666675,7.5 L46.6666675,10 L45,10 L45,7.5 C44.9973958,5.19989583 43.1334375,3.3359375 40.8333333,3.33333333 Z M48.3333333,22.5 L33.3333333,22.5 L33.3333333,11.6666667 L48.3333333,11.6666667 L48.3333333,22.5 Z" id="Shape" fill="#002060"></path>
                <path d="M43.2152083,16.5833333 C43.2933333,16.3410417 43.3332292,16.0879167 43.3333333,15.8333333 C43.3333333,14.4526042 42.2140625,13.3333333 40.8333333,13.3333333 C39.4526042,13.3333333 38.3333333,14.4526042 38.3333333,15.8333333 C38.3334375,16.0879167 38.3733333,16.3410417 38.4514583,16.5833333 C37.3310417,17.3595833 36.66375,18.6369792 36.6666571,20 C36.6666571,20.4602083 37.0397917,20.8333333 37.5,20.8333333 L44.1666571,20.8333333 C44.626875,20.8333333 45.0000095,20.4602083 45.0000095,20 C45.0029167,18.6369792 44.335625,17.3595833 43.2152083,16.5833333 Z M38.475625,19.1666667 C38.7139583,18.4938542 39.2291667,17.9553125 39.8908333,17.6875 C40.3169792,17.5135417 40.5213542,17.0270833 40.3473958,16.6010417 C40.3133333,16.5176042 40.2659375,16.4402083 40.2070833,16.371875 C40.0753125,16.2232292 40.0017708,16.0319792 40,15.8333333 C40,15.373125 40.373125,15 40.8333333,15 C41.2935417,15 41.6666667,15.373125 41.6666667,15.8333333 C41.6648958,16.0319792 41.5913542,16.2234375 41.4595833,16.3720833 C41.1590625,16.7207292 41.198125,17.246875 41.5466667,17.5473958 C41.615,17.60625 41.6923958,17.6536458 41.7758333,17.6877083 C42.4375,17.9555208 42.9526042,18.4938542 43.1910417,19.1666667 L38.475625,19.1666667 Z" id="Shape" fill="#F7C407"></path>
                <path d="M0.833333333,38.3333333 L17.7214583,38.3333333 L17.6190625,38.4357292 L18.7976042,39.6145833 L20.0788542,38.3333333 L22.4302083,38.3333333 L20.09375,40.6690625 L21.2722917,41.8476042 L25.4622917,37.6575 C27.0796875,36.0461458 28.2854167,34.0689583 28.9775,31.8932292 C29.3578125,30.7039583 29.1416667,29.4042708 28.396875,28.4021875 C27.6491667,27.3695833 26.4495833,26.7607292 25.1746875,26.7667708 L24.75,26.7667708 C23.068125,26.7667708 21.5529167,27.8722917 20.9779167,29.5228125 C20.9216667,29.6878125 20.8597917,29.8457292 20.7916667,30.0001042 L18.8854167,30.0001042 C19.104375,29.6855208 19.2790625,29.3422917 19.404375,28.9801042 C20.2045833,26.659375 22.3528125,25.1001042 24.7498958,25.1001042 L25.1748958,25.1001042 C26.9752083,25.1028125 28.6675,25.9594792 29.7355208,27.40875 C30.7989583,28.8389583 31.1072917,30.694375 30.5633333,32.3915625 C29.7920833,34.8227083 28.4479167,37.0328125 26.6439583,38.8358333 L23.5689583,41.9108333 L24.7475,43.089375 L27.8225,40.014375 C29.8154167,38.0221875 31.3004167,35.5802083 32.1523958,32.8941667 C32.8592708,30.690625 32.46,28.2814583 31.0801042,26.42375 C29.6973958,24.5467708 27.5061458,23.4371875 25.1748958,23.4334375 L24.75,23.4334375 C21.6421875,23.4334375 18.8608333,25.4438542 17.8288542,28.4367708 C17.7004167,28.8027083 17.4920833,29.1354167 17.2190625,29.4108333 L16.6297917,30 L0.833333333,30 C0.373125,30 -2.77555756e-15,30.373125 -2.77555756e-15,30.8333333 L-2.77555756e-15,37.5 C-2.77555756e-15,37.9602083 0.373125,38.3333333 0.833333333,38.3333333 L0.833333333,38.3333333 Z M24.75,28.4333101 L25.175,28.4333101 C25.9179167,28.43 26.6169792,28.785 27.0525,29.386875 C27.4808333,29.9613542 27.6061458,30.7069792 27.3889583,31.3898958 C26.8907292,32.9742708 26.0782292,34.441875 25,35.7051042 L25,32.7533333 C25.3823958,32.0465625 25.6841667,31.2989583 25.8995833,30.5247917 C25.9291667,30.4136458 25.863125,30.2994792 25.751875,30.2698958 C25.745625,30.2682292 25.7392708,30.266875 25.7329167,30.2657292 L24.1666667,30 L22.5791667,30 C22.9394792,29.0463542 23.7836458,28.4333101 24.75,28.4333101 L24.75,28.4333101 Z M1.66666667,31.6666667 L23.3333333,31.6666667 L23.3333333,36.6666667 L1.66666667,36.6666667 L1.66666667,31.6666667 Z" id="Shape" fill="#002060"></path>
                <polygon id="Path" fill="#F7C407" points="3.33333333 33.3333333 5 33.3333333 5 35 3.33333333 35"></polygon>
                <polygon id="Path" fill="#F7C407" points="6.66666667 33.3333333 8.33333333 33.3333333 8.33333333 35 6.66666667 35"></polygon>
                <polygon id="Path" fill="#F7C407" points="10 33.3333333 11.6666667 33.3333333 11.6666667 35 10 35"></polygon>
                <polygon id="Path" fill="#F7C407" points="13.3333333 33.3333333 15 33.3333333 15 35 13.3333333 35"></polygon>
            </g>
        </g>
    </g>
</svg>