<?xml version="1.0" encoding="UTF-8"?>
<svg width="49px" height="49px" viewBox="0 0 49 49" version="1.1" xmlns="http://www.w3.org/2000/svg" xmlns:xlink="http://www.w3.org/1999/xlink">
    <title>BusinessCase - Normal - 02</title>
    <g id="Page-1" stroke="none" stroke-width="1" fill="none" fill-rule="evenodd">
        <g id="Normal-icons" transform="translate(-736.000000, -1067.000000)" fill-rule="nonzero">
            <g id="Group-2" transform="translate(250.000000, 1067.000000)">
                <g id="BusinessCase---Normal---02" transform="translate(486.000000, 0.000000)">
                    <path d="M46.3165674,-1.69176842e-14 L2.54057121,-1.69176842e-14 C1.13812215,0.00161541615 0.00161541615,1.13812215 -5.58283578e-13,2.54057121 L-5.58283578e-13,36.9359968 C0.00161541615,38.3384459 1.13812215,39.4749526 2.54057121,39.476568 L19.8038503,39.476568 L19.1387092,44.7953516 C17.5151319,45.3787372 15.9613648,46.1406274 14.5059776,47.0670131 C14.1477477,47.3058799 13.9880852,47.7510743 14.1128592,48.1631634 C14.2376331,48.5752525 14.617434,48.8571387 15.0479987,48.8571387 L33.8091399,48.8571387 C34.2397047,48.8571387 34.6195055,48.5752525 34.7442795,48.1631634 C34.8690534,47.7510743 34.7093909,47.3058799 34.351161,47.0670131 C32.8957738,46.1406274 31.3420068,45.3787372 29.7184294,44.7953516 L29.0532884,39.476568 L46.3165674,39.476568 C47.7190165,39.4749526 48.8555232,38.3384459 48.8571387,36.9359968 L48.8571387,2.54057121 C48.8555232,1.13812215 47.7190165,0.00161541615 46.3165674,-1.69176842e-14 Z M2.54057121,1.95428555 L46.3165674,1.95428555 C46.6402301,1.95460872 46.9028531,2.21690854 46.9028531,2.54057121 L46.9028531,29.7051403 L1.95428555,29.7051403 L1.95428555,2.54057121 C1.95428555,2.21690854 2.21690854,1.95460872 2.54057121,1.95428555 Z M19.738284,46.9028531 L19.1006006,46.9028531 C20.6535737,46.2781657 22.5507941,45.7302818 24.4285693,45.7302818 C26.2996023,45.7302818 28.196041,46.2781657 29.7499912,46.9028531 L19.738284,46.9028531 Z M27.6726833,44.1824876 C25.5442273,43.6404996 23.3138885,43.6404996 21.1854325,44.1824876 L21.773477,39.476568 L27.0836617,39.476568 L27.6726833,44.1824876 Z M46.9028531,36.9359968 C46.9028531,37.2596595 46.6402301,37.5219593 46.3165674,37.5222825 L2.54057121,37.5222825 C2.21690854,37.5219593 1.95428555,37.2596595 1.95428555,36.9359968 L1.95428555,31.6594258 L46.9028531,31.6594258 L46.9028531,36.9359968 Z" id="Shape" fill="#001D62"></path>
                    <path d="M22.8651409,35.5679969 L25.9919978,35.5679969 C26.5316588,35.5679969 26.9691405,35.1305152 26.9691405,34.5908542 C26.9691405,34.0511931 26.5316588,33.6137114 25.9919978,33.6137114 L22.8651409,33.6137114 C22.3254798,33.6137114 21.8879981,34.0511931 21.8879981,34.5908542 C21.8879981,35.1305152 22.3254798,35.5679969 22.8651409,35.5679969 Z" id="Path" fill="#001D62"></path>
                    <path d="M9.96685628,24.4285693 L29.8419403,24.4285693 C32.1904662,26.4646808 35.5825276,26.7582188 38.2459181,25.1558223 C40.9093087,23.5534258 42.2390288,20.4190855 41.5403569,17.3903594 C40.841685,14.3616334 38.2733271,12.1265087 35.1771398,11.8527418 L35.1771398,7.81714218 C35.1755781,6.41467083 34.03904,5.27813266 32.6365686,5.27657097 L9.96685628,5.27657097 C8.56438493,5.27813266 7.42784676,6.41467083 7.42628507,7.81714218 L7.42628507,21.8879981 C7.42784676,23.2904695 8.56438493,24.4270076 9.96685628,24.4285693 Z M9.38057062,21.8879981 L9.38057062,14.3639988 L29.0676524,14.3639988 C27.1352603,16.6349091 26.8119338,19.8654489 28.2559399,22.4742838 L9.96685628,22.4742838 C9.64319361,22.4739606 9.3808938,22.2116608 9.38057062,21.8879981 Z M9.38057062,11.1394276 L33.2228543,11.1394276 L33.2228543,11.9469384 C32.7004587,12.0439853 32.1905696,12.1992103 31.7027133,12.4097132 L9.38057062,12.4097132 L9.38057062,11.1394276 Z M39.7697109,19.0054269 C39.7697109,21.8926136 37.4291837,24.2331408 34.541997,24.2331408 C31.6548104,24.2331408 29.3142832,21.8926136 29.3142832,19.0054269 C29.3142832,16.1182403 31.6548104,13.7777131 34.541997,13.7777131 C37.427822,13.7809979 39.7664261,16.119602 39.7697109,19.0054269 L39.7697109,19.0054269 Z M9.96685628,7.23085652 L32.6365686,7.23085652 C32.9602313,7.2311797 33.2225311,7.49347951 33.2228543,7.81714218 L33.2228543,9.18514207 L9.38057062,9.18514207 L9.38057062,7.81714218 C9.3808938,7.49347951 9.64319361,7.2311797 9.96685628,7.23085652 Z" id="Shape" fill="#001D62"></path>
                    <path d="M19.5428555,16.1228558 L11.627999,16.1228558 C11.0883379,16.1228558 10.6508562,16.5603375 10.6508562,17.0999985 C10.6508562,17.6396596 11.0883379,18.0771413 11.627999,18.0771413 L19.5428555,18.0771413 C20.0825165,18.0771413 20.5199982,17.6396596 20.5199982,17.0999985 C20.5199982,16.5603375 20.0825165,16.1228558 19.5428555,16.1228558 Z" id="Path" fill="#F9CA00"></path>
                    <path d="M32.0405115,18.3347161 C31.750071,18.1372106 31.3759744,18.1107786 31.0606483,18.2654832 C30.7453221,18.4201879 30.5372847,18.7322252 30.5157402,19.0827961 C30.4941958,19.433367 30.6624593,19.7685301 30.9564693,19.9606817 L33.301612,21.5241101 C33.7233109,21.8052309 34.2899495,21.7172757 34.6065862,21.3215485 L37.733443,17.4129774 C37.9535426,17.1405613 38.0110198,16.7711849 37.8841018,16.4447708 C37.7571838,16.1183567 37.4652819,15.8848277 37.1189707,15.8326464 C36.7726595,15.780465 36.424905,15.917612 36.2074392,16.1921352 L33.6397034,19.4011698 L32.0405115,18.3347161 Z" id="Path" fill="#F9CA00"></path>
                </g>
            </g>
        </g>
    </g>
</svg>