<?xml version="1.0" encoding="UTF-8"?> <svg xmlns="http://www.w3.org/2000/svg" xmlns:xlink="http://www.w3.org/1999/xlink" version="1.1" id="Capa_1" x="0px" y="0px" viewBox="0 0 512 512" style="enable-background:new 0 0 512 512;" xml:space="preserve"> <style type="text/css"> .st0{fill:#D3DADC;} .st1{fill:#E2EAEF;} .st2{fill:#D3DFDB;} .st3{fill:#0E2740;} .st4{fill:#091A28;} .st5{fill:#F18B20;} .st6{fill:#EDD024;} .st7{fill:#243B81;} .st8{fill:#00B4EA;} </style> <path class="st0" d="M490.3,303.5L453.6,288c-4.9-2.1-8-6.7-8-11.7v-23.8h-54v23.8c0,5.1-3.1,9.7-8,11.7l-36.7,15.5 c-9.8,4.1-16,13.3-16,23.5v85h175.6v-85C506.3,316.8,500,307.6,490.3,303.5z"></path> <path class="st1" d="M419.6,268.4h-2.2c-23.2,0-42.1-18.8-42.1-42.1v-38.1h86.4v38.1C461.7,249.6,442.9,268.4,419.6,268.4z"></path> <path class="st2" d="M400,225.2v-37h-24.7v37c0,23.9,19.3,43.2,43.2,43.2c4.3,0,8.4-0.6,12.3-1.8C413,261.3,400,244.8,400,225.2z"></path> <path class="st3" d="M424.7,157.3h-12.3c-23.9,0-43.2,19.3-43.2,43.2v9.9c0,4.6,4.9,7.7,8.9,5.5c6.3-3.3,13.6-9.5,18.5-16.1 c2-2.7,5.8-3.1,8.5-1.1c19.6,14.6,46.9,11.3,57.9,9.1c2.9-0.6,4.9-3.1,4.9-6v-1.3C467.9,176.7,448.5,157.3,424.7,157.3z"></path> <path class="st4" d="M378,215.9c6.3-3.3,13.6-9.5,18.5-16.1c0.8-1,1.8-1.6,2.9-2c-8.7-12.1-9.3-25.7-8.2-35 c-13.2,7.4-22.1,21.5-22.1,37.7v9.9C369.1,215,374,218.1,378,215.9z"></path> <path class="st5" d="M490.3,303.5L453.6,288c-3-1.3-5.2-3.5-6.5-6.2L418.3,308l-28.4-26c-1.4,2.5-3.5,4.7-6.4,5.9l-36.7,15.5 c-9.8,4.1-16,13.3-16,23.5v85h175.6v-85C506.3,316.8,500,307.6,490.3,303.5z"></path> <path class="st0" d="M140.5,320.8L112,310.1c-5.4-2-9-7.2-9-13v-17.8H61.2v17.8c0,5.8-3.6,11-9,13l-28.5,10.7 c-10.8,4.1-18,14.4-18,26V412h152.8v-65.2C158.5,335.3,151.3,324.9,140.5,320.8z"></path> <path class="st5" d="M5.7,412h152.8v-65.2c0-11.6-7.2-22-18-26L113,310.5l-21.1,21.1c-5.4,5.4-14.2,5.4-19.7,0l-21.1-21.1 l-27.4,10.3c-10.8,4.1-18,14.4-18,26L5.7,412L5.7,412z"></path> <path class="st1" d="M82.4,286.2h-0.5c-26.7,0-48.4-21.7-48.4-48.4v-21.4c0-26.7,21.7-48.4,48.4-48.4h0.5 c26.7,0,48.4,21.7,48.4,48.4v21.4C130.7,264.6,109.1,286.2,82.4,286.2z"></path> <path class="st2" d="M61.2,237.6v-20.8c0-22,14.7-40.6,34.7-46.6c-4.4-1.3-9.1-2-13.9-2c-26.9,0-48.6,21.8-48.6,48.6v20.8 c0,26.9,21.8,48.6,48.6,48.6c4.8,0,9.5-0.7,13.9-2C75.9,278.2,61.2,259.6,61.2,237.6z"></path> <circle class="st3" cx="82.1" cy="168.1" r="27.8"></circle> <path class="st3" d="M33.5,216.8v15.6c7.7-3.6,17.1-9.4,24.3-17.9c2.1-2.5,5.7-3,8.6-1.4c9.2,5.1,30.6,14.9,64.4,17.2v-13.4 c0-26.9-21.8-48.6-48.6-48.6l0,0C55.2,168.1,33.5,189.9,33.5,216.8z"></path> <path class="st4" d="M55.5,176c-13.3,8.7-22.1,23.7-22.1,40.7v15.6c7.7-3.6,17.1-9.4,24.3-17.9c1.1-1.3,2.6-2,4.2-2.2 C56.9,202.4,52.9,189.6,55.5,176z"></path> <path class="st6" d="M35.3,357l-25.2-25.2c-2.8,4.4-4.5,9.6-4.5,15V412h36.7v-38.1C42.3,367.6,39.8,361.5,35.3,357z"></path> <path class="st0" d="M343.3,278.2l-43.5-20.1c-5.8-2.7-9.5-8.6-9.5-15.2V212h-64v30.8c0,6.6-3.7,12.6-9.5,15.2l-43.5,20.1 c-11.6,5.4-19,17.3-19,30.5V412h208V308.7C362.3,295.5,354.9,283.6,343.3,278.2z"></path> <path class="st7" d="M154.3,412h208V308.7c0-13.2-7.4-25.1-19-30.5l-43.2-20l-30.5,30.5c-6.2,6.2-16.4,6.2-22.6,0l-30.5-30.5 l-43.2,20c-11.6,5.4-19,17.3-19,30.5L154.3,412L154.3,412z"></path> <path class="st1" d="M258.3,244L258.3,244c-30.9,0-56-25.1-56-56v-48h112v48C314.3,218.9,289.3,244,258.3,244z"></path> <path class="st2" d="M234.3,188v-48h-32v48c0,30.9,25.1,56,56,56c5.6,0,10.9-0.8,16-2.4C251.2,234.8,234.3,213.4,234.3,188z"></path> <path class="st3" d="M266.3,100h-16c-30.9,0-56,25.1-56,56v12.8c0,5.9,6.3,10,11.5,7.2c8.1-4.3,17.6-12.3,24-20.9 c2.6-3.5,7.6-4,11-1.4c25.4,18.9,60.7,14.6,75,11.8c3.7-0.7,6.4-4,6.4-7.8V156C322.3,125.1,297.3,100,266.3,100z"></path> <path class="st4" d="M205.9,176c8.1-4.3,17.6-12.3,24-20.9c1-1.3,2.3-2.1,3.8-2.5c-11.3-15.7-12.1-33.3-10.7-45.4 c-17.1,9.6-28.7,27.9-28.7,48.9v12.8C194.3,174.7,200.6,178.8,205.9,176z"></path> <g> <path class="st8" d="M194.3,341.9c0-6.4-2.5-12.5-7-17l-30.1-30.1c-1.9,4.2-2.9,8.9-2.9,13.8V412h40V341.9L194.3,341.9z"></path> <path class="st8" d="M322.3,341.9c0-6.4,2.5-12.5,7-17l30.1-30.1c1.9,4.2,2.9,8.9,2.9,13.8v103.3h-40V341.9z"></path> </g> <path class="st6" d="M506.3,412v-85c0-5.2-1.7-10.2-4.6-14.3L481.4,333c-4.5,4.5-7,10.6-7,17v62H506.3L506.3,412z"></path> <path d="M344.2,276.8l-43.6-19.4c-3.1-1.4-5.1-4.4-5.1-7.8v-12c14.6-11.7,24-29.6,24-49.8V171c4.8-2.7,8-7.8,8-13.6v-1.6 c0-35.1-28.5-63.6-63.6-63.6h-16c-35.1,0-63.6,28.5-63.6,63.6v14.8c0,5.1,2.2,9.7,6,12.6c0.6,0.5,1.3,0.9,2,1.3v3.3 c0,20.1,9.4,38.1,24,49.8v12c0,3.4-2,6.4-5.1,7.8l-43.6,19.4c-14.3,6.3-23.5,20.5-23.5,36.2v99.4c0,4.1,3.4,7.5,7.5,7.5 s7.5-3.4,7.5-7.5V313c0-0.9,0.1-1.7,0.2-2.6l20.1,20.1c3.1,3.1,4.8,7.3,4.8,11.7v70.2c0,4.1,3.4,7.5,7.5,7.5s7.5-3.4,7.5-7.5v-70.2 c0-8.4-3.3-16.3-9.2-22.3L166.1,296c2.2-2.2,4.7-4.1,7.7-5.4l42.8-19l31.8,31.8v109.1c0,4.1,3.4,7.5,7.5,7.5c4.1,0,7.5-3.4,7.5-7.5 V303.2l31.8-31.8l42.8,19c2.9,1.3,5.5,3.2,7.7,5.4l-23.9,23.9c-6,6-9.2,13.9-9.2,22.3v70.2c0,4.1,3.4,7.5,7.5,7.5s7.5-3.4,7.5-7.5 V342c0-4.4,1.7-8.6,4.8-11.7l20.1-20.1c0.1,0.9,0.2,1.7,0.2,2.6v99.4c0,4.1,3.4,7.5,7.5,7.5s7.5-3.4,7.5-7.5v-99.4 C367.7,297.3,358.5,283.1,344.2,276.8z M207.4,187.9v-3.4c4.7-1.9,9.2-4.8,13.6-8.8c3-2.8,3.2-7.6,0.4-10.6s-7.6-3.2-10.6-0.4 c-3.8,3.5-7.5,5.7-11.1,6.6c-0.1,0-0.2,0-0.2,0c-0.1-0.1-0.1-0.3-0.1-0.7v-14.8c0-26.8,21.8-48.6,48.6-48.6h16 c26.8,0,48.6,21.8,48.6,48.6v1.6c0,0.2-0.1,0.5-0.3,0.5c-44.9,8.9-67.4-7.8-75-15.4c-2.9-2.9-7.7-2.9-10.6,0 c-2.9,2.9-2.9,7.7,0,10.6c23.3,23.3,57.3,23.7,78,21.2v13.6c0,26.8-21.8,48.6-48.6,48.6C229.2,236.5,207.4,214.7,207.4,187.9z M256,251.5c8.7,0,17-1.8,24.6-4.9v3.1c0,4.3,1.2,8.4,3.3,12L256,289.5l-27.9-27.9c2.1-3.6,3.3-7.7,3.3-12v-3.1 C239,249.7,247.3,251.5,256,251.5z"></path> <path d="M135.2,219.9c0-19.6-10.2-36.8-25.5-46.7c0.9-3,1.4-6.2,1.4-9.4c0-17.4-14.2-31.5-31.5-31.5s-31.5,14.2-31.5,31.5 c0,3.2,0.5,6.4,1.4,9.4C34.2,183.1,24,200.4,24,219.9v16c0,18.9,9.5,35.7,24,45.7v16.5c0,3.3-1.8,6.2-4.7,7.6l-25.9,13 C6.7,324.2,0,335,0,347v65.3c0,4.1,3.4,7.5,7.5,7.5s7.5-3.4,7.5-7.5v-62.1l12.2,12.2c3.1,3.1,4.8,7.3,4.8,11.7v38.1 c0,4.1,3.4,7.5,7.5,7.5s7.5-3.4,7.5-7.5v-38.1c0-8.4-3.3-16.3-9.2-22.3l-17-17c-0.1-0.1-0.2-0.2-0.3-0.2c1.1-0.9,2.3-1.8,3.6-2.4 l25.9-13c1.3-0.7,2.6-1.5,3.7-2.3L72,335.2v77.1c0,4.1,3.4,7.5,7.5,7.5s7.5-3.4,7.5-7.5v-77.1l18.3-18.3c1.2,0.9,2.4,1.7,3.7,2.3 l7.2,3.6c1.1,0.5,2.2,0.8,3.3,0.8c2.8,0,5.4-1.5,6.7-4.1c1.9-3.7,0.4-8.2-3.4-10.1l-7.2-3.6c-2.9-1.5-4.7-4.4-4.7-7.6v-16.5 c14.5-10,24-26.8,24-45.7L135.2,219.9L135.2,219.9z M63.1,163.8c0-9.1,7.4-16.5,16.5-16.5s16.5,7.4,16.5,16.5c0,1-0.1,2-0.3,3 c-5.2-1.6-10.6-2.4-16.3-2.4s-11.1,0.9-16.3,2.4C63.2,165.8,63.1,164.8,63.1,163.8z M79.6,179.3c22.4,0,40.6,18.2,40.6,40.6v2.7 c-31.2,9.6-49.8-14.2-50.6-15.2c-1.3-1.7-3.3-2.8-5.5-3c-2.2-0.2-4.3,0.6-5.8,2.2c-7.2,7.2-14.2,10.6-19.2,12.3 C39.6,197,57.6,179.3,79.6,179.3z M97,304.2l-17.3,17.3l-17.3-17.3c0.5-1.9,0.8-4,0.8-6V289c5.2,1.6,10.8,2.5,16.5,2.5 s11.3-0.9,16.5-2.5v9.2C96.2,300.3,96.5,302.3,97,304.2z M79.6,276.6C57.3,276.6,39,258.3,39,236v-1.6c6-1.4,14.8-4.6,24.1-12 c3.3,3.1,8,6.9,13.9,10.1c7,3.8,16.8,7.4,28.7,7.4c4.5,0,9.3-0.5,14.5-1.7C119,259.5,101.3,276.6,79.6,276.6z"></path> <path d="M494.6,302.8l-42-21c-2.9-1.5-4.7-4.4-4.7-7.6v-10.6c9.8-8.7,16-21.4,16-35.6v-8.5c0.2,0,0.3,0,0.5,0c4.1,0,7.5-3.4,7.5-7.5 v-16c0-26.2-21.3-47.6-47.6-47.6h-16c-26.2,0-47.6,21.3-47.6,47.6v16c0,4.1,3.4,7.5,7.5,7.5c0.1,0,0.2,0,0.5,0v8.5 c0,14.1,6.2,26.9,16,35.6v10.6c0,3.3-1.8,6.2-4.7,7.6c-3.7,1.9-5.2,6.4-3.4,10.1c1.3,2.6,4,4.1,6.7,4.1c1.1,0,2.3-0.3,3.3-0.8 c1.3-0.7,2.6-1.5,3.7-2.3l18.3,18.3v101.1c0,4.1,3.4,7.5,7.5,7.5s7.5-3.4,7.5-7.5V311.2l18.3-18.3c1.2,0.9,2.4,1.7,3.7,2.3 l40.6,20.3l-12.3,12.3c-6,6-9.2,13.9-9.2,22.3v62.2c0,4.1,3.4,7.5,7.5,7.5s7.5-3.4,7.5-7.5v-62.2c0-4.4,1.7-8.6,4.8-11.7l11.7-11.7 c0.4,1.4,0.5,2.8,0.5,4.2v81.3c0,4.1,3.4,7.5,7.5,7.5s7.5-3.4,7.5-7.5V331C512,319,505.3,308.1,494.6,302.8z M375.7,195.9 c0-18,14.6-32.6,32.6-32.6h16c18,0,32.6,14.6,32.6,32.6v8.3c-32.6-1.8-52.3-14.4-52.5-14.6c-1.3-0.8-2.7-1.3-4.2-1.3 c-1.9,0-3.9,0.7-5.3,2.2c-7.2,7.2-14.2,10.6-19.3,12.3L375.7,195.9L375.7,195.9z M383.7,215.9c5.3-2.1,11.4-5.4,17.6-10.7 c7.9,4.1,24.4,11.2,47.6,13.5v9.3c0,18-14.6,32.6-32.6,32.6S383.7,246,383.7,228V215.9L383.7,215.9z M416.3,275.5 c5.8,0,11.4-1.1,16.5-3v1.6c0,2.1,0.3,4.1,0.8,6l-17.3,17.3L399,280.2c0.5-1.9,0.8-4,0.8-6v-1.6 C404.9,274.5,410.5,275.5,416.3,275.5z"></path> </svg> 