<?xml version="1.0" encoding="UTF-8"?> <svg xmlns="http://www.w3.org/2000/svg" xmlns:xlink="http://www.w3.org/1999/xlink" version="1.1" id="Capa_1" x="0px" y="0px" viewBox="0 0 512 512" style="enable-background:new 0 0 512 512;" xml:space="preserve"> <style type="text/css"> .st0{fill:#BCBBBB;} .st1{fill:#FFFFFF;} .st2{fill:#F18B20;} .st3{fill:#243B81;} .st4{fill:#2170B8;} .st5{fill:#00B4EA;} </style> <g> <path class="st0" d="M485.8,7.5H197.9c-1.7,0-3,1.3-3,3v32h256.9c1.1,0,2,0.9,2,2v332.4h32c1.7,0,3-1.3,3-3V10.5 C488.8,8.8,487.5,7.5,485.8,7.5L485.8,7.5z"></path> <path class="st1" d="M451.8,41.5H163.9c-1.7,0-3,1.3-3,3v98.4l110.8,55.4c3.4,1.7,5.5,5.2,5.5,8.9V265c0,69.1-30.1,110.6-78,146 h252.6c1.7,0,3-1.3,3-3V44.5C454.8,42.8,453.5,41.5,451.8,41.5L451.8,41.5z"></path> <path class="st1" d="M194.1,159.5v-115c0-1.7,1.3-3,3-3h-33.2c-1.7,0-3,1.3-3,3v98.4L194.1,159.5z"></path> <path class="st2" d="M271.7,198.3l-112.5-56.2L46.6,198.3c-3.4,1.7-5.5,5.2-5.5,8.9V265c0,21.3,2.9,39.9,8.2,56.6 c10.4-7.8,23.3-12.4,37.2-12.4c3.8,0,7.7,0.4,11.5,1.1l2.1,0.4l-1-1.8c-5.4-10-8.3-21.2-8.3-32.6c0-37.7,30.7-68.3,68.3-68.3 s68.3,30.7,68.3,68.3c0,22.7-11.2,43.8-30,56.6l-0.4,0.3v79.5c49.2-35.8,80.2-77.4,80.2-147.5v-57.7 C277.3,203.5,275.1,200,271.7,198.3z"></path> <g> <path class="st2" d="M79.6,308.6c-3-13.2-4.6-27.7-4.6-43.6v-80.8l-28.4,14.2c-3.4,1.7-5.5,5.2-5.5,8.9V265 c0,20.8,2.7,39.1,7.9,55.5C57.8,314,68.2,309.8,79.6,308.6z"></path> </g> <path class="st3" d="M159.2,345.5c-5.4,0-10.7-0.6-15.7-1.8c4.1,8.4,6.4,17.9,6.4,27.9c0,22.6-11.8,42.4-29.6,53.6v52.4 c0,3.3,3.9,5,6.4,2.8l30-27.1c1.5-1.3,3.7-1.3,5.1,0l30,27.1c2.4,2.2,6.4,0.5,6.4-2.8v-144C187,341.1,173.6,345.5,159.2,345.5 L159.2,345.5z"></path> <g> <path class="st3" d="M120.3,425.1v52.4c0,3.3,3.9,5,6.4,2.8l19.3-17.5v-69.4C141.1,406.6,132,417.7,120.3,425.1z"></path> </g> <g> <path class="st4" d="M159.2,206.8c-38.3,0-69.3,31-69.3,69.3c0,12,3,23.3,8.4,33.1c19.9,3.7,36.5,16.7,45.2,34.4 c5.1,1.2,10.3,1.8,15.7,1.8c38.3,0,69.3-31,69.3-69.3C228.5,237.9,197.5,206.8,159.2,206.8L159.2,206.8z"></path> <path class="st4" d="M123.3,276.1c0-32.5,22.4-59.8,52.6-67.3c-5.4-1.3-11-2-16.7-2c-38.3,0-69.3,31-69.3,69.3 c0,12,3,23.3,8.4,33.1c19.9,3.7,36.5,16.7,45.2,34.4c5.1,1.2,10.3,1.8,15.7,1.8c5.8,0,11.4-0.7,16.7-2 C145.7,335.9,123.3,308.7,123.3,276.1z"></path> </g> <g> <g> <path class="st2" d="M267.9,440.5l7.7,15.7c0.6,1.1,1.6,1.9,2.9,2.1l17.3,2.5c3.1,0.5,4.4,4.3,2.1,6.5l-12.5,12.2 c-0.9,0.9-1.3,2.1-1.1,3.4l3,17.2c0.5,3.1-2.7,5.5-5.5,4l-15.5-8.1c-1.1-0.6-2.4-0.6-3.5,0l-15.5,8.1c-2.8,1.5-6.1-0.9-5.5-4 l3-17.2c0.2-1.2-0.2-2.5-1.1-3.4L231,467.3c-2.3-2.2-1-6,2.1-6.5l17.3-2.5c1.2-0.2,2.3-1,2.9-2.1l7.7-15.7 C262.4,437.7,266.5,437.7,267.9,440.5L267.9,440.5z"></path> </g> <g> <g> <path class="st2" d="M263.8,492.7l3-17.2c0.2-1.2-0.2-2.5-1.1-3.4l-12.5-12.2c-0.7-0.7-1-1.5-1.1-2.3c-0.5,0.3-1,0.5-1.6,0.6 l-17.3,2.5c-3.1,0.5-4.4,4.3-2.1,6.5l12.5,12.2c0.9,0.9,1.3,2.1,1.1,3.4l-3,17.2c-0.5,3.1,2.7,5.5,5.5,4l15.5-8.1 c0.6-0.3,1.2-0.4,1.8-0.4C263.9,494.7,263.6,493.7,263.8,492.7L263.8,492.7z"></path> </g> </g> <g> <path class="st2" d="M360.7,440.5l7.7,15.7c0.6,1.1,1.6,1.9,2.9,2.1l17.3,2.5c3.1,0.5,4.4,4.3,2.1,6.5l-12.5,12.2 c-0.9,0.9-1.3,2.1-1.1,3.4l3,17.2c0.5,3.1-2.7,5.5-5.5,4l-15.5-8.1c-1.1-0.6-2.4-0.6-3.5,0l-15.5,8.1c-2.8,1.5-6.1-0.9-5.5-4 l3-17.2c0.2-1.2-0.2-2.5-1.1-3.4l-12.5-12.2c-2.3-2.2-1-6,2.1-6.5l17.3-2.5c1.2-0.2,2.3-1,2.9-2.1l7.7-15.7 C355.2,437.7,359.3,437.7,360.7,440.5L360.7,440.5z"></path> </g> <g> <g> <path class="st2" d="M356.6,492.7l3-17.2c0.2-1.2-0.2-2.5-1.1-3.4L346,459.9c-0.7-0.7-1-1.5-1.1-2.3c-0.5,0.3-1,0.5-1.6,0.6 l-17.3,2.5c-3.1,0.5-4.4,4.3-2.1,6.5l12.5,12.2c0.9,0.9,1.3,2.1,1.1,3.4l-3,17.2c-0.5,3.1,2.7,5.5,5.5,4l15.5-8.1 c0.6-0.3,1.2-0.4,1.8-0.4C356.7,494.7,356.4,493.7,356.6,492.7L356.6,492.7z"></path> </g> </g> <g> <path class="st2" d="M453.5,440.5l7.7,15.7c0.6,1.1,1.6,1.9,2.9,2.1l17.3,2.5c3.1,0.5,4.4,4.3,2.1,6.5L471,479.4 c-0.9,0.9-1.3,2.1-1.1,3.4l3,17.2c0.5,3.1-2.7,5.5-5.5,4l-15.5-8.1c-1.1-0.6-2.4-0.6-3.5,0l-15.5,8.1c-2.8,1.5-6.1-0.9-5.5-4 l3-17.2c0.2-1.2-0.2-2.5-1.1-3.4l-12.5-12.2c-2.3-2.2-1-6,2.1-6.5l17.3-2.5c1.2-0.2,2.3-1,2.9-2.1l7.7-15.7 C448.1,437.7,452.1,437.7,453.5,440.5L453.5,440.5z"></path> </g> <g> <g> <path class="st2" d="M449.4,492.7l3-17.2c0.2-1.2-0.2-2.5-1.1-3.4l-12.5-12.2c-0.7-0.7-1-1.5-1.1-2.3c-0.5,0.3-1,0.5-1.6,0.6 l-17.3,2.5c-3.1,0.5-4.4,4.3-2.1,6.5l12.5,12.2c0.9,0.9,1.3,2.1,1.1,3.4l-3,17.2c-0.5,3.1,2.7,5.5,5.5,4l15.5-8.1 c0.6-0.3,1.2-0.4,1.8-0.4C449.5,494.7,449.2,493.7,449.4,492.7L449.4,492.7z"></path> </g> </g> </g> <g> <g> <circle class="st5" cx="86.5" cy="371.5" r="63.3"></circle> </g> <g> <path class="st5" d="M54,371.5c0-29.7,20.4-54.6,47.9-61.5c-4.9-1.2-10.1-1.9-15.4-1.9c-35,0-63.3,28.4-63.3,63.3 s28.4,63.3,63.3,63.3c5.3,0,10.5-0.7,15.4-1.9C74.4,426.1,54,401.2,54,371.5z"></path> </g> <g> <path class="st2" d="M89.6,343.7l7,14.1c0.5,1,1.5,1.7,2.6,1.9l15.5,2.3c2.8,0.4,3.9,3.9,1.9,5.8l-11.2,11c-0.8,0.8-1.2,1.9-1,3 l2.7,15.5c0.5,2.8-2.5,4.9-5,3.6l-13.9-7.3c-1-0.5-2.2-0.5-3.2,0L71,400.8c-2.5,1.3-5.4-0.8-5-3.6l2.7-15.5c0.2-1.1-0.2-2.2-1-3 l-11.2-11c-2-2-0.9-5.4,1.9-5.8l15.5-2.3c1.1-0.2,2.1-0.9,2.6-1.9l7-14.1C84.7,341.2,88.4,341.2,89.6,343.7z"></path> </g> <g> <g> <path class="st2" d="M85.5,391l2.7-15.5c0.2-1.1-0.2-2.2-1-3l-11.2-11c-0.6-0.6-1-1.4-1-2.1c-0.3,0.1-0.6,0.2-0.9,0.3l-15.5,2.3 c-2.8,0.4-3.9,3.9-1.9,5.8l11.2,11c0.8,0.8,1.2,1.9,1,3l-2.7,15.5c-0.5,2.8,2.5,4.9,5,3.6l13.9-7.3c0.3-0.1,0.6-0.2,0.9-0.3 C85.5,392.6,85.3,391.8,85.5,391L85.5,391z"></path> </g> </g> <g> <path d="M485.8,0H197.9c-5.8,0-10.5,4.7-10.5,10.5V34h-23.5c-5.8,0-10.5,4.7-10.5,10.5v92.1l-110.1,55c-6,3-9.7,9-9.7,15.7V265 c0,19.6,2.3,37.1,6.7,52.9c-15.1,13-24.7,32.2-24.7,53.6c0,39.1,31.8,70.8,70.8,70.8c9.3,0,18.1-1.8,26.2-5.1v40.2 c0,4.5,2.6,8.5,6.7,10.3c4.1,1.8,8.9,1,12.2-2l27.5-24.9l27.5,24.9c2.1,1.9,4.8,2.9,7.6,2.9c1.6,0,3.1-0.3,4.6-1 c4.1-1.8,6.7-5.9,6.7-10.3v-59.1H262c4.1,0,7.5-3.4,7.5-7.5s-3.4-7.5-7.5-7.5h-41.4c15.9-13.6,29.2-28.2,39.4-44.7h131.5 c4.1,0,7.5-3.4,7.5-7.5s-3.4-7.5-7.5-7.5H268.3c3-6.2,5.5-12.6,7.7-19.3h25c4.1,0,7.5-3.4,7.5-7.5s-3.4-7.5-7.5-7.5h-20.9 c1.4-6.2,2.5-12.6,3.2-19.3h108.2c4.1,0,7.5-3.4,7.5-7.5s-3.4-7.5-7.5-7.5h-107c0.1-3.4,0.2-6.8,0.2-10.2v-9h106.8 c4.1,0,7.5-3.4,7.5-7.5s-3.4-7.5-7.5-7.5H284.8v-19.3H323c4.1,0,7.5-3.4,7.5-7.5s-3.4-7.5-7.5-7.5h-38.3 c-0.2-6.4-3.9-12.2-9.7-15l-8.5-4.2h124.9c4.1,0,7.5-3.4,7.5-7.5s-3.4-7.5-7.5-7.5H236.6l-68.2-34.1V49h278.9v56 c0,4.1,3.4,7.5,7.5,7.5s7.5-3.4,7.5-7.5V44.5c0-5.8-4.7-10.5-10.5-10.5H202.4V15h278.9v354.4h-19V140c0-4.1-3.4-7.5-7.5-7.5 s-7.5,3.4-7.5,7.5v263.4H297c-4.1,0-7.5,3.4-7.5,7.5s3.4,7.5,7.5,7.5h154.8c5.8,0,10.5-4.7,10.5-10.5v-23.5h23.5 c5.8,0,10.5-4.7,10.5-10.5V10.5C496.3,4.7,491.6,0,485.8,0L485.8,0z M30.7,371.5c0-30.8,25.1-55.8,55.8-55.8s55.8,25.1,55.8,55.8 s-25.1,55.8-55.8,55.8S30.7,402.3,30.7,371.5z M166.8,447.7c-4.3-3.9-10.8-3.9-15.2,0l-23.8,21.5v-40.1 c17.9-12.9,29.6-33.9,29.6-57.5c0-6.5-0.9-12.7-2.5-18.7c1.4,0.1,2.9,0.1,4.3,0.1c11.2,0,21.8-2.4,31.4-6.7v123L166.8,447.7z M269.8,207.3V265c0,39.5-9.8,70.7-31,98.2c-8.8,11.5-19.5,22.3-33.2,33.4v-59.2c18.5-14,30.4-36.2,30.4-61.2 c0-12.3-3-24.6-8.7-35.5c-1.9-3.7-6.4-5.1-10.1-3.2s-5.1,6.4-3.2,10.1c4.6,8.9,7,18.5,7,28.6c0,34.1-27.7,61.8-61.8,61.8 c-3.7,0-7.3-0.3-10.8-1c-9.5-16.9-25.7-29.6-45-34.3c-3.9-8.1-6-17.1-6-26.6c0-34.1,27.7-61.8,61.8-61.8 c12.1,0,23.8,3.5,33.8,10.1c3.5,2.3,8.1,1.3,10.4-2.2c2.3-3.5,1.3-8.1-2.2-10.4c-12.5-8.2-27.1-12.5-42-12.5 c-42.4,0-76.8,34.5-76.8,76.8c0,8.6,1.4,16.8,4,24.5c-11.9,0-23,3-32.9,8.2c-3.3-13.5-4.9-28-4.9-43.9v-57.7c0-1,0.5-1.8,1.4-2.2 l109.2-54.6L268.4,205C269.2,205.5,269.8,206.3,269.8,207.3L269.8,207.3z"></path> <path d="M216.7,145.6c0,4.1,3.4,7.5,7.5,7.5h167.3c4.1,0,7.5-3.4,7.5-7.5s-3.4-7.5-7.5-7.5H224.2 C220.1,138.1,216.7,141.5,216.7,145.6L216.7,145.6z"></path> <path d="M391.5,206.7H351c-4.1,0-7.5,3.4-7.5,7.5s3.4,7.5,7.5,7.5h40.5c4.1,0,7.5-3.4,7.5-7.5S395.7,206.7,391.5,206.7z"></path> <path d="M391.5,309.5H328c-4.1,0-7.5,3.4-7.5,7.5s3.4,7.5,7.5,7.5h63.5c4.1,0,7.5-3.4,7.5-7.5S395.7,309.5,391.5,309.5z"></path> <path d="M359.3,103.6c4.1,0,7.5-3.4,7.5-7.5s-3.4-7.5-7.5-7.5H256.5c-4.1,0-7.5,3.4-7.5,7.5s3.4,7.5,7.5,7.5H359.3z"></path> <path d="M182.3,258.7l-26.7,26.7L138.1,268c-2.9-2.9-7.7-2.9-10.6,0c-2.9,2.9-2.9,7.7,0,10.6l22.8,22.8c1.5,1.5,3.4,2.2,5.3,2.2 s3.8-0.7,5.3-2.2l32-32c2.9-2.9,2.9-7.7,0-10.6C190,255.8,185.3,255.8,182.3,258.7z"></path> <path d="M296.8,453.3l-15.4-2.2l-6.9-13.9c0,0,0,0,0,0c-1.9-3.9-5.8-6.3-10.1-6.3c-4.3,0-8.2,2.4-10.1,6.3l-6.9,13.9l-15.4,2.2 c-4.3,0.6-7.8,3.6-9.1,7.7c-1.3,4.1-0.2,8.6,2.9,11.6l11.1,10.8l-2.6,15.3c-0.7,4.3,1,8.5,4.5,11.1c2,1.4,4.3,2.2,6.6,2.2 c1.8,0,3.6-0.4,5.3-1.3l13.7-7.2l13.7,7.2c3.8,2,8.4,1.7,11.9-0.9c3.5-2.5,5.2-6.8,4.5-11.1l-2.6-15.3l11.1-10.8 c3.1-3,4.2-7.5,2.9-11.6C304.6,456.9,301.1,454,296.8,453.3L296.8,453.3z M280.1,474.1c-2.7,2.6-3.9,6.3-3.3,10l1.7,9.8l-8.8-4.6 c-1.6-0.9-3.5-1.3-5.3-1.3s-3.6,0.4-5.3,1.3l-8.8,4.6l1.7-9.8c0.6-3.7-0.6-7.4-3.3-10l-7.2-7l9.9-1.4c3.7-0.5,6.9-2.8,8.5-6.2 l4.4-9l4.4,9c1.6,3.3,4.8,5.7,8.5,6.2l9.9,1.4L280.1,474.1z"></path> <path d="M389.6,453.3l-15.4-2.2l-6.9-13.9c0,0,0,0,0,0c-1.9-3.9-5.8-6.3-10.1-6.3c-4.3,0-8.2,2.4-10.1,6.3l-6.9,13.9l-15.4,2.2 c-4.3,0.6-7.8,3.6-9.1,7.7s-0.2,8.6,2.9,11.6l11.1,10.8l-2.6,15.3c-0.7,4.3,1,8.5,4.5,11.1c3.5,2.5,8.1,2.9,11.9,0.9l13.7-7.2 l13.7,7.2c1.7,0.9,3.5,1.3,5.3,1.3c2.3,0,4.7-0.7,6.6-2.2c3.5-2.5,5.2-6.8,4.5-11.1l-2.6-15.3l11.1-10.8c3.1-3,4.2-7.5,2.9-11.6 C397.4,456.9,393.9,454,389.6,453.3L389.6,453.3z M372.9,474.1c-2.7,2.6-3.9,6.3-3.3,10l1.7,9.8l-8.8-4.6 c-1.6-0.9-3.5-1.3-5.3-1.3s-3.6,0.4-5.3,1.3l-8.8,4.6l1.7-9.8c0.6-3.7-0.6-7.4-3.3-10l-7.2-7l9.9-1.4c3.7-0.5,6.9-2.8,8.5-6.2 l4.4-9l4.4,9c1.6,3.3,4.8,5.7,8.5,6.2l9.9,1.4L372.9,474.1z"></path> <path d="M482.5,453.3l-15.4-2.2l-6.9-13.9c0,0,0,0,0,0c-1.9-3.9-5.8-6.3-10.1-6.3c-4.3,0-8.2,2.4-10.1,6.3l-6.9,13.9l-15.4,2.2 c-4.3,0.6-7.8,3.6-9.1,7.7s-0.2,8.6,2.9,11.6l11.1,10.8l-2.6,15.3c-0.7,4.3,1,8.5,4.5,11.1c2,1.4,4.3,2.2,6.6,2.2 c1.8,0,3.6-0.4,5.3-1.3l13.7-7.2l13.7,7.2c3.8,2,8.4,1.7,11.9-0.9c3.5-2.5,5.2-6.8,4.5-11.1l-2.6-15.3l11.1-10.8 c3.1-3,4.2-7.5,2.9-11.6C490.2,456.9,486.7,454,482.5,453.3L482.5,453.3z M465.7,474.1c-2.7,2.6-3.9,6.3-3.3,10l1.7,9.8l-8.8-4.6 c-1.6-0.9-3.5-1.3-5.3-1.3s-3.6,0.4-5.3,1.3l-8.8,4.6l1.7-9.8c0.6-3.7-0.6-7.4-3.3-10l-7.2-7l9.9-1.4c3.7-0.5,6.9-2.8,8.5-6.2 l4.4-9l4.4,9c1.6,3.3,4.8,5.7,8.5,6.2l9.9,1.4L465.7,474.1z"></path> <path d="M115.8,354.5l-13.4-2l-6-12.2c-1.9-3.8-5.6-6.1-9.8-6.1s-7.9,2.3-9.8,6.1l-6,12.2l-13.4,2c-4.1,0.6-7.5,3.5-8.8,7.4 c-1.3,4-0.2,8.3,2.8,11.2l9.7,9.5L58.7,396c-0.7,4.1,1,8.2,4.3,10.7c1.9,1.4,4.2,2.1,6.4,2.1c1.7,0,3.5-0.4,5.1-1.3l12-6.3 l12,6.3c3.7,2,8.1,1.6,11.5-0.8s5.1-6.6,4.3-10.7l-2.3-13.4l9.7-9.5c3-2.9,4.1-7.2,2.8-11.2C123.3,358,119.9,355.1,115.8,354.5z M100.1,373.4c-2.6,2.5-3.8,6.1-3.1,9.7l1.3,7.3l-6.6-3.5c-3.2-1.7-7-1.7-10.2,0l-6.6,3.5l1.3-7.3c0.6-3.5-0.6-7.2-3.1-9.7 l-5.3-5.2l7.4-1.1c3.6-0.5,6.6-2.8,8.2-6l3.3-6.7l3.3,6.7c1.6,3.2,4.7,5.5,8.2,6l7.4,1.1L100.1,373.4z"></path> </g> </g> </g> </svg> 