<?xml version="1.0" encoding="UTF-8"?> <svg xmlns="http://www.w3.org/2000/svg" xmlns:xlink="http://www.w3.org/1999/xlink" version="1.1" id="Capa_1" x="0px" y="0px" viewBox="0 0 512 512" style="enable-background:new 0 0 512 512;" xml:space="preserve"> <style type="text/css"> .st0{fill:#243B81;} .st1{fill:#00B4EA;} .st2{fill:#F18B20;} .st3{fill:#2170B8;} .st4{fill:#D8D8D8;} .st5{fill:#FFFFFF;} </style> <rect x="72.4" y="403.9" class="st0" width="32" height="68.8"></rect> <rect x="12.9" y="444.6" class="st1" width="32" height="32"></rect> <rect x="133.3" y="426.5" class="st2" width="32" height="46.3"></rect> <g> <g> <path class="st2" d="M457.9,432.7l-23.5,23.5c-5.9,5.9-15.4,5.9-21.2,0L308.4,351.5l44.7-44.7l104.7,104.7 C463.7,417.3,463.7,426.8,457.9,432.7L457.9,432.7z"></path> </g> <g> <path class="st2" d="M457.9,411.4L353.2,306.8l-18.6,18.6l87,87c5.3,5.3,5.3,14,0,19.3l-16.5,16.5l8,8c5.9,5.9,15.4,5.9,21.2,0 l23.5-23.5C463.7,426.8,463.7,417.3,457.9,411.4z"></path> </g> <g> <circle class="st3" cx="258.4" cy="256.7" r="145.4"></circle> </g> <g> <path class="st3" d="M361.2,153.9c-10.1-10.1-21.2-18.3-33.1-24.8c30.2,55.2,21.9,125.8-24.8,172.5s-117.3,55-172.5,24.8 c6.5,11.9,14.8,23.1,24.8,33.1c56.8,56.8,148.8,56.8,205.6,0S417.9,210.7,361.2,153.9L361.2,153.9z"></path> </g> <g> <path class="st4" d="M352.8,245.6c6.7,6.4,6.7,17.1,0,23.5c-17.4,16.5-53.1,44.7-94.3,44.7s-76.9-28.1-94.3-44.7 c-6.7-6.4-6.7-17.1,0-23.5c17.4-16.5,53.1-44.7,94.3-44.7S335.4,229.1,352.8,245.6z"></path> </g> <g> <path class="st5" d="M352.8,245.6c-5.4-5.1-12.6-11.4-21.1-17.6c1.2,5.4-0.3,11.2-4.6,15.3c-17.4,16.5-53.1,44.7-94.3,44.7 c-28.4,0-54.2-13.4-73.2-27.1c0.7,3,2.2,5.9,4.6,8.2c17.4,16.5,53.1,44.7,94.3,44.7s76.9-28.1,94.3-44.7 C359.6,262.8,359.6,252,352.8,245.6z"></path> </g> <g> <circle class="st0" cx="258.5" cy="257.4" r="29.3"></circle> </g> <g> <path class="st0" d="M268.1,229.7c1,3,1.6,6.3,1.6,9.6c0,16.2-13.1,29.3-29.3,29.3c-3.4,0-6.6-0.6-9.6-1.6 c4,11.5,14.9,19.7,27.7,19.7c16.2,0,29.3-13.1,29.3-29.3C287.8,244.6,279.6,233.7,268.1,229.7L268.1,229.7z"></path> </g> <g> <path d="M438.5,381.5c-2.9-2.9-7.7-2.9-10.6,0c-2.9,2.9-2.9,7.7,0,10.6l24.6,24.6c2.1,2.2,3.4,6.8,0,10.6L429,450.9 c-2.9,2.9-7.7,2.9-10.6,0L348,380.5c6.5-4.7,12.7-10,18.4-15.7c5.8-5.8,11-12,15.7-18.4l21.8,21.8c1.5,1.5,3.4,2.2,5.3,2.2 c1.9,0,3.8-0.7,5.3-2.2c2.9-2.9,2.9-7.7,0-10.6l-24-24c34-58.5,26-134.9-24.1-184.9c-59.6-59.6-156.6-59.6-216.2,0 c-28.3,28.3-44.2,65.9-44.8,105.9c-0.6,39.9,14.2,77.9,41.5,106.9c2.8,3,7.6,3.2,10.6,0.3c3-2.8,3.2-7.6,0.3-10.6 c-51.4-54.6-50.1-138.9,2.9-192c53.8-53.8,141.2-53.8,195,0c53.8,53.8,53.8,141.2,0,195c-45.3,45.3-117.3,53.3-171.2,19 c-3.5-2.2-8.1-1.2-10.4,2.3c-2.2,3.5-1.2,8.1,2.3,10.4c24.4,15.5,53,23.7,81.9,23.7c5.3,0,10.6-0.3,15.9-0.8 c21.5-2.2,42.3-9.1,60.8-19.9l72.6,72.6c4.4,4.4,10.2,6.6,15.9,6.6c5.8,0,11.5-2.2,15.9-6.6l23.5-23.5c8.8-8.8,8.8-23.1,0-31.8 L438.5,381.5z"></path> <path d="M308.7,213.8c1.7-3.8-0.1-8.2-3.8-9.9c-15.7-6.9-31.3-10.4-46.4-10.4c-43.7,0-81.1,29.3-99.5,46.7 c-4.7,4.5-7.4,10.7-7.4,17.2c0,6.5,2.7,12.7,7.4,17.2c18.4,17.5,55.8,46.7,99.5,46.7c43.7,0,81.1-29.3,99.5-46.7 c4.7-4.5,7.4-10.7,7.4-17.2s-2.7-12.7-7.4-17.2c-6.6-6.2-13.5-12.1-20.7-17.3c-3.3-2.5-8-1.7-10.5,1.6c-2.5,3.3-1.7,8,1.6,10.5 c6.6,4.9,13.1,10.3,19.2,16.1c1.7,1.7,2.7,3.9,2.7,6.3s-1,4.7-2.7,6.3c-16.8,15.9-50.7,42.6-89.2,42.6 c-38.5,0-72.4-26.7-89.2-42.6c-1.7-1.7-2.7-3.9-2.7-6.3s1-4.7,2.7-6.3c16.8-15.9,50.7-42.6,89.2-42.6c13,0,26.6,3.1,40.3,9.1 C302.6,219.3,307.1,217.6,308.7,213.8L308.7,213.8z"></path> <path d="M221.7,257.4c0,20.3,16.5,36.8,36.8,36.8c20.3,0,36.8-16.5,36.8-36.8c0-20.3-16.5-36.8-36.8-36.8 C238.2,220.6,221.7,237.1,221.7,257.4L221.7,257.4z M280.3,257.4c0,12-9.8,21.8-21.8,21.8s-21.8-9.8-21.8-21.8s9.8-21.8,21.8-21.8 C270.5,235.6,280.3,245.4,280.3,257.4z"></path> <path d="M388.2,122.4c1.9,0,3.8-0.7,5.3-2.2l32.7-32.7l14.1,14.1c4.4,4.4,11.5,4.4,15.8,0l39.7-39.7V72c0,4.1,3.4,7.5,7.5,7.5 s7.5-3.4,7.5-7.5V44.2c0-4.1-3.4-7.5-7.5-7.5h-27.8c-4.1,0-7.5,3.4-7.5,7.5s3.4,7.5,7.5,7.5h9.3l-36.6,36.6l-14.1-14.1 c-4.4-4.4-11.5-4.4-15.8,0l-35.4,35.4c-2.9,2.9-2.9,7.7,0,10.6C384.4,121.7,386.3,122.4,388.2,122.4L388.2,122.4z"></path> <path d="M39.6,101.9c21.3,0,38.6-17.3,38.6-38.6S60.9,24.6,39.6,24.6S0.9,42,0.9,63.3S18.3,101.9,39.6,101.9z M39.6,39.6 c13,0,23.6,10.6,23.6,23.6S52.6,86.9,39.6,86.9S15.9,76.3,15.9,63.3S26.5,39.6,39.6,39.6z"></path> <path d="M40.7,127.6c-21.3,0-38.6,17.3-38.6,38.6s17.3,38.6,38.6,38.6s38.6-17.3,38.6-38.6S62,127.6,40.7,127.6z M40.7,189.9 c-13,0-23.6-10.6-23.6-23.6s10.6-23.6,23.6-23.6s23.6,10.6,23.6,23.6C64.4,179.3,53.8,189.9,40.7,189.9z"></path> <path d="M40.7,229.4c-21.3,0-38.6,17.3-38.6,38.6s17.3,38.6,38.6,38.6s38.6-17.3,38.6-38.6S62,229.4,40.7,229.4z M40.7,291.7 c-13,0-23.6-10.6-23.6-23.6s10.6-23.6,23.6-23.6S64.3,255,64.3,268C64.4,281.1,53.8,291.7,40.7,291.7z"></path> <path d="M108.7,51.6h66.4c4.1,0,7.5-3.4,7.5-7.5s-3.4-7.5-7.5-7.5h-66.4c-4.1,0-7.5,3.4-7.5,7.5S104.5,51.6,108.7,51.6z"></path> <path d="M108.7,83.6h33.2c4.1,0,7.5-3.4,7.5-7.5s-3.4-7.5-7.5-7.5h-33.2c-4.1,0-7.5,3.4-7.5,7.5C101.2,80.2,104.5,83.6,108.7,83.6 z"></path> <path d="M504.5,142.8h-36.6c-4.1,0-7.5,3.4-7.5,7.5s3.4,7.5,7.5,7.5h36.6c4.1,0,7.5-3.4,7.5-7.5S508.6,142.8,504.5,142.8z"></path> <circle cx="440" cy="150.5" r="8.3"></circle> <path d="M504.5,173.4h-36.6c-4.1,0-7.5,3.4-7.5,7.5s3.4,7.5,7.5,7.5h36.6c4.1,0,7.5-3.4,7.5-7.5S508.6,173.4,504.5,173.4z"></path> <circle cx="440" cy="181.1" r="8.3"></circle> <path d="M306.2,440.8h-36.6c-4.1,0-7.5,3.4-7.5,7.5s3.4,7.5,7.5,7.5h36.6c4.1,0,7.5-3.4,7.5-7.5 C313.7,444.1,310.3,440.8,306.2,440.8z"></path> <path d="M241.7,440.1c-4.6,0-8.3,3.7-8.3,8.3s3.7,8.3,8.3,8.3s8.3-3.7,8.3-8.3S246.3,440.1,241.7,440.1L241.7,440.1z"></path> <path d="M306.2,471.3h-36.6c-4.1,0-7.5,3.4-7.5,7.5s3.4,7.5,7.5,7.5h36.6c4.1,0,7.5-3.4,7.5-7.5S310.3,471.3,306.2,471.3z"></path> <circle cx="241.7" cy="479" r="8.3"></circle> <path d="M504.5,204h-36.6c-4.1,0-7.5,3.4-7.5,7.5s3.4,7.5,7.5,7.5h36.6c4.1,0,7.5-3.4,7.5-7.5S508.6,204,504.5,204z"></path> <path d="M504.5,234.6h-36.6c-4.1,0-7.5,3.4-7.5,7.5s3.4,7.5,7.5,7.5h36.6c4.1,0,7.5-3.4,7.5-7.5S508.6,234.6,504.5,234.6z"></path> <circle cx="440" cy="242.3" r="8.3"></circle> <path d="M504.5,265.2h-36.6c-4.1,0-7.5,3.4-7.5,7.5s3.4,7.5,7.5,7.5h36.6c4.1,0,7.5-3.4,7.5-7.5S508.6,265.2,504.5,265.2z"></path> <path d="M504.5,295.7h-36.6c-4.1,0-7.5,3.4-7.5,7.5s3.4,7.5,7.5,7.5h36.6c4.1,0,7.5-3.4,7.5-7.5 C512,299.1,508.6,295.7,504.5,295.7z"></path> <path d="M440,295.1c-4.6,0-8.3,3.7-8.3,8.3s3.7,8.3,8.3,8.3s8.3-3.7,8.3-8.3S444.6,295.1,440,295.1z"></path> <path d="M202.5,471.4h-28.1v-42.9c0-6.3-5.2-11.5-11.5-11.5h-27.2c-6.3,0-11.5,5.2-11.5,11.5v42.9h-10.7v-69.8 c0-6.3-5.2-11.5-11.5-11.5H74.8c-6.3,0-11.5,5.2-11.5,11.5v69.8H54v-23.7c0-6.3-5.2-11.5-11.5-11.5H15.3 c-6.3,0-11.5,5.2-11.5,11.5v24.7c-2.3,1.3-3.8,3.7-3.8,6.5c0,4.1,3.4,7.5,7.5,7.5h195c4.1,0,7.5-3.4,7.5-7.5 S206.6,471.4,202.5,471.4L202.5,471.4z M139.2,432h20.2v39.4h-20.2L139.2,432z M78.3,405.1h20.2v66.2H78.3V405.1z M18.8,451.2H39 v20.2H18.8V451.2z"></path> </g> </g> </svg> 