<?xml version="1.0" encoding="UTF-8"?> <svg xmlns="http://www.w3.org/2000/svg" xmlns:xlink="http://www.w3.org/1999/xlink" version="1.1" id="Capa_1" x="0px" y="0px" viewBox="0 0 512 512" style="enable-background:new 0 0 512 512;" xml:space="preserve"> <style type="text/css"> .st0{fill:#FFFFFF;} .st1{fill:#2170B8;} .st2{fill:#243B81;} .st3{fill:#F18B20;} </style> <path class="st0" d="M482,502H126c-11,0-20-9-20-20V30c0-11,9-20,20-20h356c11,0,20,9,20,20v452C502,493,493,502,482,502z"></path> <circle class="st1" cx="264" cy="195.7" r="145.7"></circle> <circle class="st0" cx="264" cy="195.7" r="97.9"></circle> <path class="st2" d="M181.2,319L58.9,441.3c-11.2,11.2-29.3,11.2-40.5,0l0,0c-11.2-11.2-11.2-29.3,0-40.5l122.3-122.3L181.2,319z"></path> <path class="st0" d="M295,183.1v7.8c0,17.1-13.9,31-31,31l0,0l0,0c-17.1,0-31-13.9-31-31v-7.8c0-17.1,13.9-31,31-31l0,0 C281.1,152.1,295,166,295,183.1z"></path> <path class="st3" d="M264,222L264,222c-30.3,0-56.2,18.8-66.7,45.4c17.5,16.3,40.9,26.2,66.7,26.2s49.2-10,66.7-26.2 C320.2,240.8,294.3,222,264,222z"></path> <path d="M482,0H126c-16.5,0-30,13.5-30,30v34c0,5.5,4.5,10,10,10s10-4.5,10-10V30c0-5.5,4.5-10,10-10h356c5.5,0,10,4.5,10,10v452 c0,5.5-4.5,10-10,10H126c-5.5,0-10-4.5-10-10v-32.3c0-5.5-4.5-10-10-10s-10,4.5-10,10V482c0,16.5,13.5,30,30,30h356 c16.5,0,30-13.5,30-30V30C512,13.5,498.5,0,482,0z"></path> <path d="M433.9,386h-240c-5.5,0-10,4.5-10,10s4.5,10,10,10h240c5.5,0,10-4.5,10-10S439.4,386,433.9,386z"></path> <path d="M433.9,438c-2.6,0-5.2,1.1-7.1,2.9s-2.9,4.4-2.9,7.1s1.1,5.2,2.9,7.1c1.9,1.9,4.4,2.9,7.1,2.9c2.6,0,5.2-1.1,7.1-2.9 c1.9-1.9,2.9-4.4,2.9-7.1s-1.1-5.2-2.9-7.1C439.1,439.1,436.5,438,433.9,438z"></path> <path d="M193.9,438c-5.5,0-10,4.5-10,10s4.5,10,10,10H393c5.5,0,10-4.5,10-10s-4.5-10-10-10H193.9z"></path> <path d="M190,274.2c0.4,0.4,0.7,0.7,1.2,1.1c19.2,17.6,44.8,28.4,72.9,28.4s53.6-10.8,72.9-28.4c0.4-0.3,0.8-0.7,1.2-1.1 c20.9-19.7,33.9-47.6,33.9-78.5c0-59.5-48.4-107.9-107.9-107.9s-107.9,48.4-107.9,107.9C156.1,226.6,169.1,254.5,190,274.2z M209.5,264.7c10.6-20.1,31.3-32.7,54.4-32.7s43.8,12.6,54.4,32.7c-15,11.9-33.9,18.9-54.4,18.9S224.5,276.5,209.5,264.7z M242.9,190.9v-7.8c0-11.6,9.4-21,21-21c11.6,0,21,9.4,21,21v7.8c0,11.6-9.4,21-21,21S242.9,202.5,242.9,190.9z M264,107.8 c48.5,0,87.9,39.4,87.9,87.9c0,20.5-7,39.4-18.9,54.3c-9.2-14.6-22.5-25.7-38.2-32.1c6.3-7.2,10.2-16.7,10.2-27v-7.8 c0-22.6-18.4-41-41-41s-41,18.4-41,41v7.8c0,10.3,3.9,19.8,10.2,27c-15.7,6.4-29.1,17.5-38.2,32.1c-11.8-15-18.9-33.8-18.9-54.3 C176.1,147.2,215.5,107.8,264,107.8z"></path> <path d="M264,351.4c85.8,0,155.7-69.8,155.7-155.7S349.8,40,264,40s-155.7,69.8-155.7,155.7c0,49.6,23.3,93.9,59.6,122.4L51.9,434.2 c-7.3,7.3-19.1,7.3-26.4,0C21.9,430.7,20,426,20,421s1.9-9.7,5.5-13.2l59.4-59.4c3.9-3.9,3.9-10.2,0-14.1c-3.9-3.9-10.2-3.9-14.1,0 l-59.4,59.4C4,401,0,410.7,0,421s4,20,11.3,27.3c7.5,7.5,17.4,11.3,27.3,11.3s19.8-3.8,27.3-11.3l118.7-118.7 C207.9,343.4,235,351.4,264,351.4z M128.3,195.7C128.3,120.9,189.2,60,264,60s135.7,60.9,135.7,135.7S338.8,331.4,264,331.4 S128.3,270.5,128.3,195.7z"></path> <path d="M116.3,317c1.9-1.9,2.9-4.4,2.9-7.1c0-2.6-1.1-5.2-2.9-7.1c-1.9-1.9-4.4-2.9-7.1-2.9c-2.6,0-5.2,1.1-7.1,2.9 c-1.9,1.9-2.9,4.4-2.9,7.1c0,2.6,1.1,5.2,2.9,7.1c1.9,1.9,4.4,2.9,7.1,2.9C111.9,319.9,114.4,318.8,116.3,317z"></path> </svg> 