<?xml version="1.0" encoding="UTF-8"?>
<svg width="202px" height="148px" viewBox="0 0 202 148" version="1.1" xmlns="http://www.w3.org/2000/svg" xmlns:xlink="http://www.w3.org/1999/xlink">
    <!-- Generator: Sketch 58 (84663) - https://sketch.com -->
    <title>Handshake</title>
    <desc>Created with Sketch.</desc>
    <g id="Page-1" stroke="none" stroke-width="1" fill="none" fill-rule="evenodd">
        <g id="Contact-Us" transform="translate(-231.000000, -261.000000)">
            <g id="Handshake" transform="translate(232.000000, 261.000000)">
                <g id="BG" transform="translate(30.959752, 0.000000)" fill="#F4F6F9" fill-rule="nonzero">
                    <path d="M2.47678019,53.9814241 C5.88235294,55.8823529 8.66873065,57.9102167 9.26315789,61.8359133 C12.9318885,61.7399381 17.003096,61.7027864 20.5634675,61.749226 C23.1919505,61.7832817 25.8452012,61.8049536 28.4582043,62.0928793 C29.0123839,62.1517028 30.6718266,62.0928793 31.0897833,62.501548 C31.4458204,62.8544892 31.5139319,63.4829721 31.4427245,64.2012384 L31.5232198,64.2012384 C38.9845201,64.2012384 52.0557276,64.8885449 53.7337461,64.867375 C55.4117647,64.8452012 58.6873065,59.4303406 61.8266254,57.6532508 C64.9659443,55.876161 69.4582043,55.7244582 72.4829721,56.6842105 C73.5859553,57.0439759 74.6293452,57.5656709 75.5789474,58.2321981 L75.6439628,58.1795666 C81.1114551,55.2910217 88.0588235,55.8513932 95.5232198,61.4582043 C98.5851393,61.4891641 104.888545,61.5603715 106.668731,61.5417957 C111.102167,61.495356 132.164087,60.4210526 138.03096,60.1176471 L138.052632,59.869969 C138.897833,55.9226006 140.693498,52.9876161 144.767802,51.5572755 C146.226006,51.0433437 148.628483,50.6625387 149.786378,52.1455108 C150.504644,53.0743034 150.473684,55.4643963 150.736842,56.2198142 C150.773994,56.0743034 150.820433,55.9318885 150.863777,55.7894737 C150.244582,52.5634675 149.625387,50.3869969 149.108359,49.9535604 C149.086867,49.809846 149.050554,49.6687428 149,49.5325077 C138.390093,21.9040248 105.755418,2.07120743 76.1052632,0.377708978 C44.4086687,-1.43034056 12.5417957,17.0959752 1.91021672,47.6377709 C1.32198142,49.3250774 0.764705882,51.0433437 0.238390093,52.7894737 C0.975232198,53.1547988 1.71826625,53.5603715 2.47678019,53.9814241 Z" id="Path"></path>
                    <path d="M148.662539,97.0340557 C144.925697,95.9287926 141.891641,92.8482972 141.891641,89.250774 L141.359133,88.4489164 C141.055271,88.6671003 140.717363,88.8334387 140.359133,88.9411765 C138.987616,89.3653251 132.160991,89.5417957 130.170279,89.4179567 C126.873065,89.2105263 123.535604,89.5758514 120.204334,89.3931889 C120.318885,89.126935 120.421053,88.8544892 120.513932,88.5820433 L120.337461,88.5820433 C118.229102,88.7801858 114.247678,88.9597523 112.133127,89.0897833 L111.356037,89.126935 C111.317172,89.403342 111.262385,89.6772754 111.19195,89.9473684 C110.628483,92.1052632 107.430341,96.2848297 104.854489,95.0464396 L104.869969,94.9040248 C104.597254,95.6062809 104.232901,96.2694039 103.786378,96.876161 C103.111455,97.7832817 100.860681,99.8606811 98.5541796,99.250774 C97.5572755,101.198142 93.2229102,104.408669 89.4055728,102.965944 C87.5479876,104.616099 84.2198142,109.904025 78.7987616,105.473684 C78.7987616,105.473684 75.3343653,106.337461 74.4427245,106.281734 C72.504644,106.154799 70.0371517,105.767802 69.1052632,103.804954 C64.2383901,105.352941 58.3684211,106.148607 56.4117647,100.613003 L56.4117647,100.597523 C53.9566563,101.473684 51.1671827,101.44582 48.8978328,100.287926 C48.0990712,99.876161 46.1578947,98.7585139 46.0743034,97.6873065 C42.9783282,97.9473684 32.6687307,97.6501548 28.8111455,97.619195 C28.9783282,98.2879257 29.120743,98.9380805 29.003096,99.0928793 C28.2972136,100.154799 23.0340557,99.377709 21.7739938,99.3065015 C17.501548,99.0681115 13.2229102,99.1052632 8.94117647,99.1176471 L8.82662539,99.2879257 C8.86068111,101.894737 7.36532508,104.702786 5.42105263,106.913313 C11.9226006,118.219814 19.879257,127.126935 28.5417957,133.068111 C39.9380805,140.866873 54.6346749,147.73065 76.1609907,147.73065 C97.6873065,147.73065 121.479876,138.080495 133.613003,126.337461 C144.922601,115.377709 149.739938,105.065015 151.770898,97.6842105 C150.717296,97.561648 149.676938,97.3440433 148.662539,97.0340557 Z" id="Path"></path>
                </g>
                <g id="Character" transform="translate(0.000000, 22.291022)" stroke="#333333" stroke-linecap="round" stroke-linejoin="round" stroke-width="2.16718266">
                    <path d="M62.4891641,41.9164087 C69.9504644,41.9164087 83.0216718,42.6037152 84.6996904,42.5820433 C86.377709,42.5603715 89.6532508,37.1455108 92.7925697,35.3684211 C95.9318885,33.5913313 100.424149,33.4396285 103.448916,34.3993808 C107.668731,35.7337461 110.188854,39.3312693 113.018576,42.4489164 C115.513932,45.1981424 117.820433,48.1764706 120.03096,51.1362229 C121.653251,53.3034056 123.504644,56.6656347 122.427245,59.2786378 C121.260062,62.1176471 116.702786,62.1176471 113.414861,59.9473684 C110.101619,57.7327969 107.072774,55.1198591 104.396285,52.1671827 C103.318885,54.3188854 99.0340557,56.6996904 96.8823529,57.4303406 C94.7306502,58.1609907 90.7801858,58.2167183 88.5232198,57.4303406" id="Path"></path>
                    <path d="M74.0092879,59.9473684 C74.0587419,60.6855693 73.9445684,61.4255828 73.6749226,62.1145511" id="Path"></path>
                    <path d="M59.8173375,75.3065015 C63.1083591,75.3065015 73.7678019,75.6532508 77.0309598,75.377709" id="Path"></path>
                    <path d="M96.377709,57.5851393 C94.0897833,60.3250774 91.4736842,62.6563467 88.7863777,65.0835913 C85.7151703,67.8544892 82.5541796,69.8606811 79.3467492,72.5448916 C78.5448916,73.2167183 76.9504644,74.3653251 77.0309598,75.3684211 C77.1145511,76.4396285 79.0557276,77.5572755 79.8544892,77.9690402 C82.6873065,79.4241486 86.3343653,79.1145511 89.120743,77.4736842 C91.6563467,75.9783282 101.582043,67.4674923 101.582043,67.4674923" id="Path"></path>
                    <path d="M87.3684211,78.3281734 C89.3281734,83.8637771 95.1981424,83.0681115 100.06192,81.5201238 C100.990712,83.4922601 103.467492,83.879257 105.399381,83.996904 C106.733746,84.0835913 110.913313,83.006192 112.074303,82.3250774" id="Path"></path>
                    <path d="M112.244582,82.6625387 C113.622291,79.6160991 113.204334,76.4705882 114.043344,73.2755418 C114.458204,71.7027864 114.972136,70.3467492 116.919505,70.7987616 C118.139319,71.0897833 119.321981,72.25387 119.705882,73.5077399 C120.198142,75.0557276 120.080495,80.3405573 120.080495,80.3405573 C120.727554,76.9783282 119.79257,71.5696594 121.040248,67.9566563 C121.55418,66.4613003 122.049536,64.8359133 123.749226,64.8204334 C125.591331,64.8204334 127.086687,66.7058824 127.739938,68.2105263 C128.591331,70.1671827 128.76161,73.8513932 128.76161,73.8513932 C128.76161,73.8513932 127.600619,67.3993808 128.510836,63.6842105 C128.820433,62.3900929 129.424149,60.6996904 130.678019,60.2786378 C132.668731,59.6006192 134.916409,61.2662539 135.662539,62.9473684 C137.173375,66.3529412 137.037152,71.5170279 134.733746,74.5913313 C134.058824,75.498452 131.80805,77.5758514 129.501548,76.9659443 C128.504644,78.9133127 124.170279,82.123839 120.352941,80.6811146 C118.495356,82.3312693 115.167183,87.619195 109.74613,83.1888545" id="Path"></path>
                    <path d="M100.065015,81.504644 C102.250774,80.625387 109.934985,74.0185759 111.241486,72.9349845" id="Path"></path>
                    <path d="M106.609907,35.8823529 C112.077399,32.993808 119.024768,33.5541796 126.489164,39.1609907 C129.551084,39.1919505 135.854489,39.2631579 137.634675,39.244582 C142.798762,39.1919505 170.520124,37.7399381 170.520124,37.7399381" id="Path"></path>
                    <path d="M143.108359,66.7987616 C145.22291,66.6687307 149.204334,66.4891641 151.312693,66.2910217" id="Path"></path>
                    <path d="M153.842105,38.7182663 C154.130031,41.003096 154.535604,43.1609907 154.653251,45.4860681 C154.820433,48.7058824 154.526316,51.9380805 154.151703,55.1145511 C153.668731,59.2136223 152.743034,63.4334365 151.164087,67.1021672 C154.495356,67.2848297 157.832817,66.9195046 161.130031,67.126935 C163.120743,67.250774 169.947368,67.0743034 171.318885,66.6501548 C173.597523,65.9411765 173.681115,63.8359133 173.996904,61.7585139 C174.640681,57.1862182 174.703097,52.5508202 174.182663,47.9628483 C173.76161,44.5727554 173.018576,41.7306502 170.597523,37.9071207" id="Path" fill="#5FC9D7"></path>
                    <path d="M166.591331,63.3684211 L168.176471,63.2848297" id="Path"></path>
                    <path d="M172.851393,66.9597523 C172.851393,70.5572755 175.885449,73.6377709 179.622291,74.7430341 C181.702786,75.3622291 184.346749,75.8390093 186.365325,75.0278638 C188.656347,74.0990712 189.498452,71.869969 190.55418,69.8606811 C191.482972,72.0866873 192.473684,73.9287926 195.089783,74.6099071 C197.256966,75.1764706 200.318885,74.7151703 199.708978,71.4674923" id="Path"></path>
                    <path d="M169.012384,37.5727554 C169.857585,33.625387 171.653251,30.6904025 175.727554,29.2600619 C177.185759,28.74613 179.591331,28.3653251 180.74613,29.8482972 C181.464396,30.7770898 181.433437,33.1671827 181.696594,33.9226006 C182.77709,29.8978328 185.795666,26.1331269 189.780186,24.4829721 C192.755418,23.244582 195.06192,24.3126935 196.058824,27.2229102" id="Path"></path>
                    <path d="M40.247678,39.5789474 C44.2167183,39.4582043 47.5727554,39.4055728 51.5417957,39.4582043 C54.1702786,39.4922601 56.8235294,39.5139319 59.4365325,39.8018576 C59.9907121,39.8606811 61.6501548,39.8018576 62.0681115,40.2105263 C63.1083591,41.2383901 61.7213622,44.5603715 61.4489164,45.8544892 C60.4458204,50.625387 59.5417957,55.5882353 59.0247678,60.4303406 C58.5089636,64.8348959 58.6131769,69.2900149 59.3343653,73.6656347 C59.377709,73.9287926 60.1950464,76.4520124 59.9721362,76.7832817 C59.2662539,77.8452012 54.003096,77.0681115 52.7430341,76.996904 C47.876161,76.7244582 43,76.8111455 38.126935,76.8111455" id="Path" fill="#F7C407"></path>
                    <path d="M0.213622291,28.4179567 C5,27.1795666 9.77399381,27.3869969 14.7399381,27.3900929 C18.2535841,27.3797459 21.759696,27.7157354 25.2074303,28.3931889 C28.3034056,29.0123839 30.7058824,30.1578947 33.4427245,31.6904025 C36.8916409,33.619195 39.7275542,35.6749226 40.25387,39.7120743 C37.2724458,42.4148607 36.7058824,52.6904025 36.7058824,60.120743 C36.7058824,67.5510836 36.7708978,72.1052632 37.6068111,76.4767802" id="Path"></path>
                    <path d="M39.7832817,76.9783282 C39.8297214,80.6780186 36.8018576,84.7894737 33.8049536,87.0123839 C27.8111455,91.4582043 21.5386997,89.9071207 15.2724458,87.3529412 C14.2260062,89.0433437 12.2414861,90.1857585 10.3188854,90.9102167 C7.22291022,92.0866873 3.39009288,92.2972136 0.216718266,92.1702786" id="Path"></path>
                    <path d="M77.9442724,100.473684 L75.0650155,103.427245" id="Path"></path>
                    <path d="M120.739938,106.092879 L121.93808,109.801858" id="Path"></path>
                    <path d="M138.173375,99.4086687 L140.486068,101.442724" id="Path"></path>
                    <path d="M77.622291,15.5789474 L74.2229102,12.504644" id="Path"></path>
                    <path d="M106.256966,4.62848297 L106.820433,1.60371517" id="Path"></path>
                    <path d="M116.006192,3.95975232 L117.795666,0.0557275542" id="Path"></path>
                    <path d="M135.773994,18.1950464 L139.281734,16.5263158" id="Path"></path>
                    <path d="M136.842105,63.8823529 C140.482972,62.1176471 143.173375,63.8823529 142.164087,67.6563467 C141.588235,69.8142415 138.390093,73.993808 135.814241,72.755418" id="Path"></path>
                </g>
            </g>
        </g>
    </g>
</svg>