<?xml version="1.0" encoding="UTF-8"?>
<svg width="50px" height="50px" viewBox="0 0 50 50" version="1.1" xmlns="http://www.w3.org/2000/svg" xmlns:xlink="http://www.w3.org/1999/xlink">
    <title>iBridge - icon 02</title>
    <g id="Page-1" stroke="none" stroke-width="1" fill="none" fill-rule="evenodd">
        <g id="Illustrations" transform="translate(-846.000000, -1540.000000)" fill-rule="nonzero">
            <g id="iBridge---icon-02" transform="translate(846.000000, 1540.000000)">
                <path d="M39.1666992,5.00009766 C35.9450195,5.00009766 33.3333984,7.61181641 33.3333984,10.8333984 C33.3333984,14.0549805 35.9451172,16.6666992 39.1666992,16.6666992 C42.3882813,16.6666992 45,14.0549805 45,10.8333984 C44.9962891,7.61328125 42.3868164,5.00380859 39.1666992,5.00009766 Z M39.1666992,15.0000977 C36.8655273,15.0000977 35,13.1345703 35,10.8333984 C35,8.53222656 36.8654297,6.66669922 39.1666992,6.66669922 C41.4678711,6.66669922 43.3333984,8.53222656 43.3333984,10.8333984 C43.3306641,13.1334961 41.4667969,14.9973633 39.1666992,15.0000977 Z" id="Shape" fill="#002060"></path>
                <path d="M48.6295898,8.33339844 L47.9875,8.33339844 C47.7921875,7.64804688 47.5176758,6.98789063 47.1696289,6.36601563 L47.6253906,5.90986328 C48.1600586,5.37441406 48.1600586,4.50722656 47.6253906,3.97177734 L46.0287109,2.37470703 C45.4866211,1.85615234 44.6325195,1.85605469 44.0902344,2.37431641 L43.6336914,2.83046875 C43.0123047,2.48193359 42.3520508,2.20761719 41.6666992,2.01298828 L41.6666992,1.37050781 C41.665918,0.613964844 41.052832,0.00078125 40.2962891,2.33990336e-05 L38.037207,2.33990336e-05 C37.2806641,0.00087890625 36.6674805,0.613964844 36.6667969,1.37050781 L36.6667969,2.01298828 C35.9814453,2.20771484 35.3212891,2.48212891 34.6998047,2.83046875 L34.2424805,2.37353516 C33.7001953,1.85664063 32.8474609,1.85693359 32.3056641,2.37441406 L30.7082031,3.971875 C30.1735352,4.50722656 30.1735352,5.37451172 30.7082031,5.90996094 L31.1639648,6.36611328 C30.815918,6.98789063 30.5414062,7.64814453 30.3460937,8.33339844 L29.7040039,8.33339844 C28.9474609,8.33417969 28.334375,8.94726563 28.3335937,9.70380859 L28.3335937,10 L21.624707,10 C21.1835937,4.25146484 16.3155273,-0.143554687 10.5518555,0.00361328125 C4.78828125,0.150683594 0.150683594,4.78828125 0.00361328125,10.5518555 C-0.143457031,16.3155273 4.25146484,21.1835938 10.0000977,21.6245117 L10.0000977,34.1666992 C10.0015625,35.5467773 11.1200195,36.6652344 12.5000977,36.6666992 L15.0000977,36.6666992 C15.4603516,36.6666992 15.8333984,36.2936523 15.8333984,35.8333984 C15.8333984,35.3731445 15.4602539,35.0000977 15.0000977,35.0000977 L12.5000977,35.0000977 C12.0400391,34.9996094 11.6671875,34.6268555 11.6667969,34.1667969 L11.6667969,21.6245117 C16.984375,21.2083008 21.2083984,16.9842773 21.6246094,11.6666992 L28.3334961,11.6666992 L28.3334961,11.9628906 C28.3342773,12.7194336 28.9473633,13.3326172 29.7039062,13.3333008 L30.3459961,13.3333008 C30.5413086,14.0186523 30.8158203,14.6788086 31.1638672,15.3006836 L30.7081055,15.7568359 C30.1734375,16.2921875 30.1734375,17.1594727 30.7081055,17.6949219 L32.3047852,19.2919922 C32.846875,19.8105469 33.7009766,19.8106445 34.2432617,19.2923828 L34.6998047,18.8362305 C35.3211914,19.1847656 35.9814453,19.459082 36.6667969,19.6537109 L36.6667969,20.2961914 C36.6675781,21.0527344 37.2806641,21.665918 38.037207,21.6666016 L38.3333984,21.6666016 L38.3333984,34.1666016 C38.3329102,34.6266602 37.9601562,34.9995117 37.5000977,34.9999023 L35.0000977,34.9999023 C34.5398437,34.9999023 34.1667969,35.3729492 34.1667969,35.8332031 C34.1667969,36.293457 34.5398437,36.6666992 35.0000977,36.6666992 L37.5000977,36.6666992 C38.8801758,36.6650391 39.9986328,35.546582 40.0000977,34.1665039 L40.0000977,21.6665039 L40.2962891,21.6665039 C41.052832,21.6657227 41.6660156,21.0526367 41.6666992,20.2960938 L41.6666992,19.6536133 C42.3520508,19.459082 43.0123047,19.184668 43.6336914,18.8361328 L44.0910156,19.2930664 C44.6333008,19.8099609 45.4860352,19.809668 46.027832,19.2921875 L47.625293,17.6947266 C48.1599609,17.159375 48.1599609,16.2920898 47.625293,15.7566406 L47.1695312,15.3004883 C47.5175781,14.6787109 47.7920898,14.018457 47.9874023,13.3331055 L48.6294922,13.3331055 C49.3860352,13.3323242 49.9991211,12.7192383 49.9999023,11.9626953 L49.9999023,9.70380859 C49.9993164,8.94726563 49.3862305,8.33417969 48.6295898,8.33339844 Z M10.8333984,20.0000977 C5.77080078,20.0000977 1.66669922,15.8959961 1.66669922,10.8333984 C1.66669922,5.77080078 5.77080078,1.66669922 10.8333984,1.66669922 C15.8959961,1.66669922 20.0000977,5.77080078 20.0000977,10.8333984 C19.9943359,15.8936523 15.8936523,19.9943359 10.8333984,20.0000977 Z M48.3334961,11.6666992 L47.7540039,11.6666992 C47.128125,11.6704102 46.5838867,12.0969727 46.4307617,12.7039063 C46.2549805,13.3856445 45.9834961,14.0389648 45.6243164,14.6444336 C45.3021484,15.1818359 45.3852539,15.8692383 45.8261719,16.3143555 L46.2379883,16.7256836 L45.0587891,17.9044922 L44.6486328,17.4939453 C44.2038086,17.0519531 43.515625,16.9682617 42.9779297,17.290918 C42.3728516,17.65 41.7199219,17.9214844 41.0386719,18.0973633 C40.4307617,18.2495117 40.0033203,18.7943359 40.0001953,19.4209961 L40.0001953,20 L38.3334961,20 L38.3334961,19.4209961 C38.3305664,18.7946289 37.903418,18.25 37.2958984,18.0977539 C36.6146484,17.9217773 35.9617187,17.650293 35.3566406,17.2913086 C34.8192383,16.9678711 34.1307617,17.0509766 33.6859375,17.4931641 L33.275,17.9045898 L32.0958008,16.7257813 L32.5076172,16.3144531 C32.9485352,15.8693359 33.031543,15.1819336 32.7094727,14.6445313 C32.3501953,14.0389648 32.0787109,13.3854492 31.9030273,12.7036133 C31.749707,12.096875 31.2055664,11.6705078 30.5797852,11.6667969 L30.0003906,11.6667969 L30.0003906,10.0000977 L30.5797852,10.0000977 C31.2056641,9.99638672 31.7499023,9.56982422 31.9030273,8.96289063 C32.0788086,8.28115234 32.350293,7.62783203 32.7095703,7.02236328 C33.0317383,6.48496094 32.9486328,5.79755859 32.5077148,5.35244141 L32.0958984,4.94101563 L33.2750977,3.76220703 L33.6852539,4.17275391 C34.1299805,4.61494141 34.8182617,4.69863281 35.355957,4.37578125 C35.9610352,4.01669922 36.6139648,3.74521484 37.2952148,3.56933594 C37.903125,3.4171875 38.3305664,2.87236328 38.3335937,2.24570313 L38.3335937,1.66669922 L40.000293,1.66669922 L40.000293,2.24570313 C40.0032227,2.87207031 40.4303711,3.41669922 41.0378906,3.56894531 C41.7197266,3.74511719 42.3731445,4.01689453 42.9788086,4.37626953 C43.5162109,4.69785156 44.203125,4.61445313 44.6479492,4.17363281 L45.0588867,3.76230469 L46.2380859,4.94111328 L45.8262695,5.35253906 C45.3853516,5.79765625 45.3023437,6.48505859 45.6244141,7.02246094 C45.9836914,7.62802734 46.2551758,8.28154297 46.4308594,8.96337891 C46.5841797,9.57011719 47.1283203,9.99648438 47.7541016,10.0001953 L48.3334961,10.0001953 L48.3334961,11.6666992 L48.3334961,11.6666992 Z" id="Shape" fill="#002060"></path>
                <circle id="Oval" fill="#002060" cx="39.1666992" cy="10.8333984" r="1"></circle>
                <path d="M10.8333984,3.33339844 C6.69130859,3.33339844 3.33339844,6.69130859 3.33339844,10.8333984 C3.33339844,14.9754883 6.69130859,18.3333984 10.8333984,18.3333984 C14.9754883,18.3333984 18.3333984,14.9754883 18.3333984,10.8333984 C18.3287109,6.69316406 14.9736328,3.33808594 10.8333984,3.33339844 Z M10.8333984,16.6666992 C7.61171875,16.6666992 5.00009766,14.0549805 5.00009766,10.8333984 C5.00009766,7.61181641 7.61181641,5.00009766 10.8333984,5.00009766 C14.0549805,5.00009766 16.6666992,7.61181641 16.6666992,10.8333984 C16.6629883,14.0535156 14.0535156,16.6629883 10.8333984,16.6666992 Z" id="Shape" fill="#002060"></path>
                <path d="M11.6666992,10.4883789 L11.6666992,7.50009766 C11.6666992,7.03984375 11.2936523,6.66679687 10.8333984,6.66679687 C10.3731445,6.66679687 10.0000977,7.03984375 10.0000977,7.50009766 L10.0000977,10.8333984 C10.0001953,11.0543945 10.0879883,11.2663086 10.2442383,11.4225586 L11.9109375,13.0892578 C12.237207,13.409668 12.7606445,13.4072266 13.0839844,13.0839844 C13.4073242,12.7607422 13.409668,12.237207 13.0892578,11.9109375 L11.6666992,10.4883789 Z" id="Path" fill="#002060"></path>
                <path d="M28.3333984,48.3333984 L21.6666992,48.3333984 C21.2064453,48.3333984 20.8333984,48.7064453 20.8333984,49.1666992 C20.8333984,49.6269531 21.2064453,50 21.6666992,50 L28.3333984,50 C28.7936523,50 29.1666992,49.6269531 29.1666992,49.1666992 C29.1666992,48.7064453 28.7936523,48.3333984 28.3333984,48.3333984 Z" id="Path" fill="#F7C407"></path>
                <path d="M32.4952148,35.5607422 C32.422168,33.5231445 31.5216797,31.6033203 30.0016602,30.2442383 C27.9583984,28.4154297 25.0801758,27.847168 22.4952148,28.7621094 C19.9102539,29.6771484 18.0304688,31.9296875 17.5928711,34.6367188 L17.5928711,34.6367188 C17.2177734,36.9573242 17.9552734,39.3192383 19.5842773,41.0140625 C20.3933594,41.8633789 20.8412109,42.9936523 20.8334961,44.1666992 C20.8349609,45.5467773 21.953418,46.6652344 23.3334961,46.6666992 L26.6667969,46.6666992 C28.046875,46.6652344 29.165332,45.5467773 29.1667969,44.1666992 C29.1512695,43.0056641 29.5898438,41.884375 30.3891602,41.0420898 C31.8078125,39.5777344 32.5683594,37.5983398 32.4952148,35.5607422 Z M29.1927734,39.8825195 C28.0908203,41.0348633 27.4833008,42.5724609 27.5000977,44.1667969 C27.4996094,44.6268555 27.1267578,44.999707 26.6667969,45.0000977 L23.3334961,45.0000977 C22.8732422,44.9994141 22.5003906,44.6261719 22.5001953,44.165918 C22.5087891,42.5630859 21.8946289,41.0196289 20.7871094,39.8609375 C19.2535156,38.2625977 18.7587891,35.9330078 19.5105469,33.8493164 C20.2623047,31.765625 22.1304688,30.2884766 24.33125,30.0375 C24.5557617,30.0124023 24.781543,29.9996787 25.0075195,29.9996787 L25.0075195,29.9996787 C26.4413086,29.9952148 27.825293,30.5251953 28.8893555,31.4860352 C30.0717773,32.5423828 30.7724609,34.0350586 30.8296875,35.6196289 C30.8869141,37.2041016 30.2958008,38.743457 29.1927734,39.8825195 Z" id="Shape" fill="#F7C407"></path>
                <path d="M25.8333984,25.8333984 L25.8333984,23.3333984 C25.8333984,22.8731445 25.4603516,22.5000977 25.0000977,22.5000977 C24.5398437,22.5000977 24.1667969,22.8731445 24.1667969,23.3333984 L24.1667969,25.8333984 C24.1667969,26.2936523 24.5398437,26.6666992 25.0000977,26.6666992 C25.4603516,26.6666992 25.8333984,26.2936523 25.8333984,25.8333984 Z" id="Path" fill="#F7C407"></path>
                <path d="M18.1446289,29.5670898 C18.4321289,29.4900391 18.6567383,29.2654297 18.7337891,28.9779297 C18.8108398,28.6904297 18.7286133,28.3835937 18.5181641,28.1730469 L16.7505859,26.4054687 C16.5402344,26.1943359 16.2331055,26.1117187 15.9452148,26.1886719 C15.6573242,26.265625 15.4324219,26.4905273 15.3554688,26.778418 C15.2785156,27.0663086 15.3611328,27.3734375 15.5722656,27.5837891 L17.3398438,29.3513672 C17.550293,29.5620117 17.8570313,29.6441406 18.1446289,29.5670898 Z" id="Path" fill="#F7C407"></path>
                <path d="M31.8555664,29.5670898 C32.1430664,29.6441406 32.4499023,29.5619141 32.6604492,29.3514648 L34.4280273,27.5838867 C34.584375,27.4276367 34.672168,27.2157227 34.672168,26.9947266 C34.672168,26.7737305 34.584375,26.5618164 34.4280273,26.4055664 C34.2717773,26.2492187 34.0598633,26.1614258 33.8388672,26.1614258 C33.6178711,26.1614258 33.4058594,26.2492187 33.249707,26.4055664 L31.4821289,28.1731445 C31.2716797,28.3836914 31.1894531,28.6904297 31.2665039,28.9780273 C31.3433594,29.2655273 31.5679688,29.4900391 31.8555664,29.5670898 Z" id="Path" fill="#F7C407"></path>
                <path d="M18.1446289,42.099707 C17.8571289,42.0226562 17.550293,42.1048828 17.3397461,42.315332 L15.572168,44.0829102 C15.4158203,44.2391602 15.3280273,44.4510742 15.3280273,44.6720703 C15.3280273,44.8930664 15.4158203,45.1049805 15.572168,45.2612305 C15.728418,45.4175781 15.940332,45.5053711 16.1613281,45.5053711 C16.3823242,45.5053711 16.5942383,45.4175781 16.7504883,45.2612305 L18.5180664,43.4936523 C18.7286133,43.2831055 18.8107422,42.9763672 18.7336914,42.6887695 C18.6567383,42.4013672 18.4321289,42.1767578 18.1446289,42.099707 Z" id="Path" fill="#F7C407"></path>
                <path d="M32.6603516,42.315332 C32.5041016,42.1589844 32.2921875,42.0711914 32.0711914,42.0711914 C31.8501953,42.0711914 31.6382813,42.1589844 31.4820312,42.315332 C31.3256836,42.471582 31.2378906,42.6834961 31.2378906,42.9044922 C31.2378906,43.1254883 31.3256836,43.3374023 31.4820312,43.4936523 L33.2496094,45.2612305 C33.5751953,45.5856445 34.1019531,45.5852539 34.4269531,45.2602539 C34.7519531,44.9352539 34.7524414,44.4084961 34.4279297,44.0829102 L32.6603516,42.315332 Z" id="Path" fill="#F7C407"></path>
            </g>
        </g>
    </g>
</svg>