<?xml version="1.0" encoding="UTF-8"?>
<svg width="688px" height="572px" viewBox="0 0 688 572" version="1.1" xmlns="http://www.w3.org/2000/svg" xmlns:xlink="http://www.w3.org/1999/xlink">
    <!-- Generator: Sketch 58 (84663) - https://sketch.com -->
    <title>our_history</title>
    <desc>Created with Sketch.</desc>
    <defs>
        <path d="M42.2028017,20.9804009 C42.2028017,32.5208013 32.8476013,41.8748017 21.3084008,41.8748017 C9.76920039,41.8748017 0.414000016,32.5208013 0.414000016,20.9804009 C0.414000016,9.44120041 9.76920039,0.0860000432 21.3084008,0.0860000432 C32.8476013,0.0860000432 42.2028017,9.44120041 42.2028017,20.9804009" id="path-1"></path>
        <linearGradient x1="14.6447852%" y1="14.6450724%" x2="85.3557891%" y2="85.3560763%" id="linearGradient-3">
            <stop stop-color="#FFFFFE" offset="0%"></stop>
            <stop stop-color="#EDF0EF" offset="100%"></stop>
        </linearGradient>
        <path d="M0.25080001,21.2196008 C0.25080001,9.67920038 9.60600038,0.325200013 21.1452008,0.325200013 C32.6856013,0.325200013 42.0396017,9.67920038 42.0396017,21.2196008 C42.0396017,32.7600013 32.6856013,42.1140017 21.1452008,42.1140017 C9.60600038,42.1140017 0.25080001,32.7600013 0.25080001,21.2196008" id="path-4"></path>
        <linearGradient x1="85.3577992%" y1="85.3549276%" x2="14.6467953%" y2="14.6439237%" id="linearGradient-6">
            <stop stop-color="#EDF0EF" offset="0%"></stop>
            <stop stop-color="#FFFFFE" offset="100%"></stop>
        </linearGradient>
        <path d="M42.4944017,20.9804009 C42.4944017,32.5208013 33.1392013,41.8748017 21.6000009,41.8748017 C10.0608004,41.8748017 0.705600028,32.5208013 0.705600028,20.9804009 C0.705600028,9.44120041 10.0608004,0.0860000432 21.6000009,0.0860000432 C33.1392013,0.0860000432 42.4944017,9.44120041 42.4944017,20.9804009" id="path-7"></path>
        <linearGradient x1="14.6450724%" y1="14.6450724%" x2="85.3560763%" y2="85.3560763%" id="linearGradient-9">
            <stop stop-color="#FFFFFE" offset="0%"></stop>
            <stop stop-color="#EDF0EF" offset="100%"></stop>
        </linearGradient>
        <path d="M0.159200046,21.2196008 C0.159200046,9.67920038 9.51440042,0.325200013 21.0536009,0.325200013 C32.5940013,0.325200013 41.9492017,9.67920038 41.9492017,21.2196008 C41.9492017,32.7600013 32.5940013,42.1140017 21.0536009,42.1140017 C9.51440042,42.1140017 0.159200046,32.7600013 0.159200046,21.2196008" id="path-10"></path>
        <linearGradient x1="85.3553482%" y1="85.3528972%" x2="14.6463747%" y2="14.6459542%" id="linearGradient-12">
            <stop stop-color="#EDF0EF" offset="0%"></stop>
            <stop stop-color="#FFFFFE" offset="100%"></stop>
        </linearGradient>
        <path d="M41.7860017,20.9804009 C41.7860017,32.5208013 32.4308013,41.8748017 20.8916009,41.8748017 C9.35240041,41.8748017 -0.00279996038,32.5208013 -0.00279996038,20.9804009 C-0.00279996038,9.44120041 9.35240041,0.0860000432 20.8916009,0.0860000432 C32.4308013,0.0860000432 41.7860017,9.44120041 41.7860017,20.9804009" id="path-13"></path>
    </defs>
    <g id="Page-1" stroke="none" stroke-width="1" fill="none" fill-rule="evenodd">
        <g id="About-Us" transform="translate(-1045.000000, -863.000000)">
            <g id="our_history" transform="translate(994.000000, 787.967041)">
                <rect id="Rectangle-Copy-18" fill="#FFFCF3" transform="translate(407.374358, 353.000000) rotate(-25.000000) translate(-407.374358, -353.000000) " x="65.3743579" y="123" width="684" height="460" rx="230"></rect>
                <g id="Group-9" transform="translate(51.000000, 175.032959)">
                    <g id="Group-7">
                        <path d="M63.6468025,288.060011 C63.6492025,288.249611 63.6024025,288.448811 63.5724025,288.661211 C63.5412025,288.874811 63.5064025,289.099211 63.4704025,289.330811 C63.4512025,289.447212 63.4428025,289.566012 63.4140025,289.684812 C63.3840025,289.801212 63.3528025,289.918812 63.3204025,290.038812 C63.2604025,290.276412 63.1980025,290.518812 63.1356025,290.761212 C63.0876025,291.008412 62.9796025,291.236412 62.8992025,291.469212 C62.8152025,291.700812 62.7324025,291.928812 62.6532025,292.149612 C62.4720025,292.581612 62.2620025,292.968012 62.1072025,293.308812 C62.0340025,293.484012 61.9380025,293.626812 61.8588025,293.756412 C61.7784025,293.887212 61.7100025,294.001212 61.6524024,294.094812 C61.5384024,294.282012 61.4736024,294.390012 61.4736024,294.390012 C61.4736024,294.390012 61.4124024,294.499212 61.2936024,294.682812 C61.1628024,294.858012 60.9732024,295.108812 60.7476024,295.408812 C60.5400024,295.724412 60.2256024,296.035212 59.9136024,296.385612 C59.6148024,296.752812 59.2200024,297.064812 58.8552023,297.408012 L58.5768023,297.660012 L58.2768023,297.882012 C58.0788023,298.029612 57.8844023,298.176012 57.6960023,298.316412 C57.5148023,298.467612 57.3120023,298.570812 57.1296023,298.684812 C56.9448023,298.797612 56.7708023,298.902012 56.6112022,299.001612 L56.3820022,299.142012 L56.1624022,299.248812 C56.0256022,299.313612 55.9056022,299.371212 55.8060022,299.418012 C55.6092022,299.514012 55.4964022,299.568012 55.4964022,299.568012 C55.4964022,299.568012 55.3836022,299.623212 55.1868022,299.719212 C54.9864022,299.804412 54.6876022,299.902812 54.3372022,300.034812 C54.1596022,300.096012 53.9724021,300.180012 53.7660021,300.237612 C53.5572021,300.290412 53.3376021,300.345612 53.1096021,300.402012 C52.8816021,300.456012 52.6512021,300.534012 52.4076021,300.576012 C52.1640021,300.612012 51.9156021,300.650412 51.6684021,300.686412 L51.297602,300.745212 C51.175202,300.769212 51.051602,300.782412 50.928002,300.783612 C50.680802,300.795612 50.438402,300.806412 50.203202,300.817212 C49.968002,300.822012 49.740002,300.860412 49.525202,300.840012 C49.309202,300.828012 49.105202,300.816012 48.9180019,300.806412 C48.5424019,300.782412 48.2256019,300.790812 48.0120019,300.740412 C47.7948019,300.705612 47.6712019,300.686412 47.6712019,300.686412 C47.6712019,300.686412 47.5476019,300.667212 47.3304019,300.634812 C47.1132019,300.602412 46.8012019,300.567612 46.4412018,300.457212 C45.7104018,300.291612 44.7504018,299.991612 43.8432017,299.568012 C43.3944017,299.348412 42.9312017,299.152812 42.5412017,298.886412 C42.1404017,298.641612 41.7576017,298.426812 41.4684016,298.184412 C41.1660016,297.960012 40.9140016,297.772812 40.7388016,297.642012 C40.5768016,297.493212 40.4856016,297.408012 40.4856016,297.408012 C40.4856016,297.408012 40.3920016,297.324012 40.2300016,297.176412 C40.1484016,297.102012 40.0500016,297.013212 39.9372016,296.910012 L39.7548016,296.748012 L39.5736016,296.548812 C39.4476016,296.408412 39.3108016,296.257212 39.1656016,296.098812 C39.0264016,295.934412 38.8524015,295.783212 38.7228015,295.586412 C38.5824015,295.398012 38.4372015,295.202412 38.2896015,295.004412 C38.1384015,294.808812 37.9860015,294.609612 37.8660015,294.390012 C37.6176015,293.954412 37.3176015,293.548812 37.1388015,293.112012 C36.9444015,292.684812 36.7188015,292.304412 36.6132015,291.943212 C36.4836014,291.591612 36.3756014,291.297612 36.3000014,291.092412 L36.2256014,290.850012 L36.2040014,290.761212 C36.2040014,290.761212 36.1728014,290.641212 36.1188014,290.427612 C36.0696014,290.215212 35.9760014,289.915212 35.9004014,289.549212 C35.8440014,289.177211 35.7768014,288.744011 35.7060014,288.279611 C35.6820014,287.809211 35.6544014,287.307611 35.6280014,286.806011 C35.6544014,286.304411 35.6820014,285.802811 35.7060014,285.333611 C35.7768014,284.869211 35.8440014,284.436011 35.9004014,284.064011 C35.9760014,283.696811 36.0696014,283.398011 36.1188014,283.184411 C36.1728014,282.972011 36.2040014,282.850811 36.2040014,282.850811 L36.2256014,282.763211 L36.3000014,282.520811 C36.3756014,282.314411 36.4836014,282.021611 36.6132015,281.668811 C36.7188015,281.307611 36.9444015,280.927211 37.1388015,280.501211 C37.3176015,280.064411 37.6176015,279.657611 37.8660015,279.223211 C37.9860015,279.002411 38.1384015,278.802011 38.2896015,278.607611 C38.4372015,278.409611 38.5824015,278.214011 38.7228015,278.026811 C38.8524015,277.828811 39.0264016,277.677611 39.1656016,277.514411 C39.3108016,277.353611 39.4476016,277.202411 39.5736016,277.063211 L39.7548016,276.864011 L39.9372016,276.702011 C40.0500016,276.600011 40.1484016,276.510011 40.2300016,276.436811 C40.3920016,276.289211 40.4856016,276.204011 40.4856016,276.204011 C40.4856016,276.204011 40.5768016,276.118811 40.7388016,275.970011 C40.9140016,275.840411 41.1660016,275.652011 41.4684016,275.427611 C41.7576017,275.185211 42.1404017,274.970411 42.5412017,274.726811 C42.9312017,274.459211 43.3944017,274.264811 43.8432017,274.044011 C44.7504018,273.620411 45.7104018,273.321611 46.4412018,273.153611 C46.8012019,273.044411 47.1132019,273.008411 47.3304019,272.977211 C47.5476019,272.944811 47.6712019,272.925611 47.6712019,272.925611 C47.6712019,272.925611 47.7948019,272.905211 48.0120019,272.872811 C48.2256019,272.822411 48.5424019,272.829611 48.9180019,272.805611 C49.105202,272.796011 49.309202,272.785211 49.525202,272.773211 C49.740002,272.752811 49.968002,272.790011 50.203202,272.794811 C50.438402,272.805611 50.680802,272.817611 50.928002,272.829611 C51.051602,272.829611 51.175202,272.844011 51.297602,272.866811 L51.6684021,272.925611 C51.9156021,272.962811 52.1640021,273.000011 52.4076021,273.036011 C52.6512021,273.078011 52.8816021,273.154811 53.1096021,273.208811 C53.3376021,273.266411 53.5572021,273.322811 53.7660021,273.375611 C53.9724021,273.433211 54.1596022,273.517211 54.3372022,273.578411 C54.6876022,273.710411 54.9864022,273.806411 55.1868022,273.892811 C55.3836022,273.988811 55.4964022,274.044011 55.4964022,274.044011 C55.4964022,274.044011 55.6092022,274.099211 55.8060022,274.194011 C55.9056022,274.240811 56.0256022,274.298411 56.1624022,274.363211 L56.3820022,274.470011 L56.6112022,274.611611 C56.7708023,274.708811 56.9448023,274.815611 57.1296023,274.927211 C57.3120023,275.042411 57.5148023,275.144411 57.6960023,275.296811 C57.8844023,275.437211 58.0788023,275.582411 58.2768023,275.731211 L58.5768023,275.952011 L58.8552023,276.204011 C59.2200024,276.548411 59.6148024,276.860411 59.9136024,277.227611 C60.2256024,277.578011 60.5400024,277.887611 60.7476024,278.202011 C60.9732024,278.503211 61.1628024,278.754011 61.2936024,278.929211 C61.4124024,279.112811 61.4736024,279.223211 61.4736024,279.223211 C61.4736024,279.223211 61.5384024,279.330011 61.6524024,279.517211 C61.7100025,279.610811 61.7784025,279.724811 61.8588025,279.854411 C61.9380025,279.985211 62.0340025,280.129211 62.1072025,280.302011 C62.2620025,280.645211 62.4720025,281.030411 62.6532025,281.463611 C62.7324025,281.684411 62.8152025,281.911211 62.8992025,282.144011 C62.9796025,282.375611 63.0876025,282.603611 63.1356025,282.850811 C63.1980025,283.093211 63.2604025,283.335611 63.3204025,283.574411 C63.3528025,283.693211 63.3840025,283.810811 63.4140025,283.928411 C63.4428025,284.046011 63.4512025,284.164811 63.4704025,284.281211 C63.5064025,284.512811 63.5412025,284.738411 63.5724025,284.950811 C63.6024025,285.163211 63.6492025,285.362411 63.6468025,285.552011 C63.6864025,286.304411 63.7116025,286.806011 63.7116025,286.806011 C63.7116025,286.806011 63.6864025,287.307611 63.6468025,288.060011 Z M74.806803,291.697212 C74.496003,291.399612 74.0796029,291.014412 73.6596029,290.650812 C72.8184029,289.914012 71.9640029,289.279211 71.9640029,289.279211 C71.9640029,289.279211 71.9976029,289.126811 72.0012029,288.895211 C72.0132029,288.662411 72.0288029,288.352811 72.0444029,288.044411 C72.0756029,287.425211 72.1080029,286.806011 72.1080029,286.806011 C72.1080029,286.806011 72.0756029,286.188011 72.0444029,285.568811 C72.0288029,285.259211 72.0132029,284.950811 72.0012029,284.718011 C71.9976029,284.485211 71.9640029,284.332811 71.9640029,284.332811 C71.9640029,284.332811 72.8184029,283.698011 73.6596029,282.962411 C74.0796029,282.597611 74.496003,282.212411 74.806803,281.914811 C74.960403,281.764811 75.090003,281.640011 75.178803,281.552411 L75.312003,281.413211 C75.312003,281.413211 75.056403,280.420811 74.802003,279.427211 C74.692803,278.925611 74.480403,278.455211 74.359203,278.090411 C74.2272029,277.729211 74.1384029,277.489211 74.1384029,277.489211 C74.1384029,277.489211 73.8648029,277.426811 73.4556029,277.334411 C73.0440029,277.246811 72.5148029,277.136411 71.9460029,277.063211 C70.8264028,276.904811 69.7500028,276.840011 69.7500028,276.840011 C69.7500028,276.840011 69.6828028,276.700811 69.5820028,276.490811 C69.5316028,276.386411 69.4728028,276.264011 69.4104028,276.133211 C69.3348028,276.008411 69.2556028,275.876411 69.1752027,275.743211 C68.8536027,275.214011 68.5320027,274.684811 68.5320027,274.684811 C68.5320027,274.684811 68.4516027,274.552811 68.3316027,274.352411 C68.2092027,274.155611 68.0112027,273.915611 67.8300027,273.666011 C67.4592027,273.169211 67.0884027,272.673611 67.0884027,272.673611 C67.0884027,272.673611 67.1976027,272.410811 67.3236027,272.034011 C67.4532027,271.652411 67.6188027,271.135211 67.7712027,270.602411 C68.0808027,269.541611 68.3184027,268.408811 68.3184027,268.408811 L68.1996027,268.279211 C68.1168027,268.203611 67.9992027,268.095611 67.8576027,267.966011 C67.5744027,267.706811 67.1952027,267.362411 66.8172027,267.019211 C66.6240026,266.851211 66.4428026,266.668811 66.2520026,266.523611 C66.0612026,266.378411 65.8824026,266.244011 65.7288026,266.128811 C65.4216026,265.898411 65.2164026,265.744811 65.2164026,265.744811 C65.2164026,265.744811 64.9524026,265.842011 64.5564026,265.986011 C64.1604025,266.138411 63.6576025,266.328011 63.1452025,266.565611 C62.1156025,267.039611 61.1712024,267.567611 61.1712024,267.567611 C61.1712024,267.567611 61.0392024,267.487211 60.8412024,267.366011 C60.6396024,267.249611 60.3852024,267.070811 60.0996024,266.949611 C59.5404024,266.680811 58.9836023,266.410811 58.9836023,266.410811 C58.9836023,266.410811 58.8432023,266.344811 58.6344023,266.244011 C58.4304023,266.131211 58.1340023,266.036411 57.8436023,265.927211 C57.2628023,265.714811 56.6808023,265.502411 56.6808023,265.502411 C56.6808023,265.502411 56.6232022,265.230011 56.5380022,264.823211 C56.4420022,264.429611 56.2992022,263.91001 56.1384022,263.38201 C55.8228022,262.32841 55.4076022,261.25201 55.4076022,261.25201 L51.357602,260.68441 C51.357602,260.68441 50.659202,261.59161 50.061602,262.50481 C49.759202,262.95121 49.477202,263.43121 49.274402,263.80081 C49.076402,264.16321 48.9456019,264.405611 48.9456019,264.405611 C48.9456019,264.405611 48.3264019,264.436811 47.7084019,264.468011 C47.3964019,264.470411 47.0916019,264.529211 46.8624019,264.562811 C46.6332019,264.598811 46.4796018,264.621611 46.4796018,264.621611 C46.4796018,264.621611 45.8676018,264.715211 45.2556018,264.807611 C44.9508018,264.864011 44.6544018,264.956411 44.4276018,265.009211 C44.2032018,265.068011 44.0532018,265.106411 44.0532018,265.106411 C44.0532018,265.106411 43.2960017,264.328811 42.4404017,263.57881 C41.6124017,262.87801 40.6872016,262.21321 40.6872016,262.21321 C40.6872016,262.21321 40.4460016,262.30201 40.0860016,262.43521 C39.9060016,262.50241 39.6948016,262.58041 39.4704016,262.66321 C39.2532016,262.76641 39.0216016,262.87681 38.7912015,262.98721 C38.3292015,263.21041 37.8672015,263.43361 37.5216015,263.60041 C37.1712015,263.76001 36.9576015,263.90161 36.9576015,263.90161 C36.9576015,263.90161 36.8664015,265.052411 36.8640015,266.156411 C36.8604015,266.709611 36.8736015,267.252011 36.8916015,267.654011 C36.8976015,267.852011 36.9132015,268.028411 36.9240015,268.149611 C36.9348015,268.269611 36.9408015,268.339211 36.9408015,268.339211 L34.9896014,269.863211 C34.9896014,269.863211 34.5312014,270.279611 34.0728014,270.697211 C33.8352013,270.896411 33.6312013,271.129211 33.4752013,271.302011 C33.3192013,271.474811 33.2148013,271.590011 33.2148013,271.590011 C33.2148013,271.590011 32.1612013,271.348811 31.0416012,271.183211 C30.4764012,271.092011 29.9460012,271.056011 29.5224012,271.020011 C29.1024012,270.993611 28.8216011,270.974411 28.8216011,270.974411 C28.8216011,270.974411 28.6680011,271.179611 28.4388011,271.486811 C28.2096011,271.795211 27.8952011,272.199611 27.6420011,272.646011 C27.3756011,273.084011 27.1104011,273.520811 26.9112011,273.850811 C26.8116011,274.014011 26.7300011,274.152011 26.6712011,274.248011 L26.5884011,274.402811 C26.5884011,274.402811 27.1368011,275.424011 27.7332011,276.356411 C28.0296011,276.825611 28.3356011,277.275611 28.5684011,277.604411 C28.6860011,277.767611 28.7832011,277.903211 28.8516011,277.999211 L28.9668012,278.150411 C28.9668012,278.150411 28.7544011,278.731211 28.5420011,279.313211 C28.4352011,279.603611 28.3284011,279.895211 28.2492011,280.112411 C28.1892011,280.336811 28.1508011,280.486811 28.1508011,280.486811 C28.1508011,280.486811 27.9960011,281.086811 27.8424011,281.686811 C27.7692011,281.988011 27.6744011,282.284411 27.6528011,282.516011 C27.6180011,282.746411 27.5952011,282.898811 27.5952011,282.898811 C27.5952011,282.898811 26.5860011,283.268411 25.563601,283.738811 C24.518401,284.196011 23.5668009,284.763611 23.5668009,284.763611 C23.5668009,284.763611 23.5176009,285.784811 23.4672009,286.806011 C23.5176009,287.827211 23.5668009,288.849611 23.5668009,288.849611 C23.5668009,288.849611 24.518401,289.416012 25.563601,289.874412 C26.5860011,290.344812 27.5952011,290.713212 27.5952011,290.713212 C27.5952011,290.713212 27.6180011,290.866812 27.6528011,291.097212 C27.6744011,291.328812 27.7692011,291.625212 27.8424011,291.925212 C27.9960011,292.525212 28.1508011,293.125212 28.1508011,293.125212 C28.1508011,293.125212 28.1892011,293.275212 28.2492011,293.500812 C28.3284011,293.718012 28.4352011,294.008412 28.5420011,294.300012 C28.7544011,294.880812 28.9668012,295.462812 28.9668012,295.462812 L28.8516011,295.612812 C28.7832011,295.707612 28.6860011,295.844412 28.5684011,296.006412 C28.3356011,296.337612 28.0296011,296.787612 27.7332011,297.255612 C27.1368011,298.188012 26.5884011,299.209212 26.5884011,299.209212 L26.6712011,299.365212 C26.7300011,299.460012 26.8116011,299.598012 26.9112011,299.762412 C27.1104011,300.091212 27.3756011,300.529212 27.6420011,300.966012 C27.8952011,301.412412 28.2096011,301.818012 28.4388011,302.125212 C28.6680011,302.433612 28.8216011,302.638812 28.8216011,302.638812 C28.8216011,302.638812 29.1024012,302.619612 29.5224012,302.592012 C29.9460012,302.554812 30.4764012,302.520012 31.0416012,302.428812 C32.1612013,302.264412 33.2148013,302.023212 33.2148013,302.023212 C33.2148013,302.023212 33.3192013,302.138412 33.4752013,302.308812 C33.6312013,302.482812 33.8352013,302.715612 34.0728014,302.916012 C34.5312014,303.332412 34.9896014,303.750012 34.9896014,303.750012 L36.9408015,305.274012 C36.9408015,305.274012 36.9348015,305.342412 36.9240015,305.462412 C36.9132015,305.583612 36.8976015,305.758812 36.8916015,305.956812 C36.8736015,306.358812 36.8604015,306.902412 36.8640015,307.454412 C36.8664015,308.558412 36.9576015,309.711612 36.9576015,309.711612 C36.9576015,309.711612 37.1712015,309.852012 37.5216015,310.011612 C37.8672015,310.179612 38.3292015,310.402812 38.7912015,310.624812 C39.0216016,310.735212 39.2532016,310.845612 39.4704016,310.948812 C39.6948016,311.032812 39.9060016,311.109612 40.0860016,311.176812 C40.4460016,311.310012 40.6872016,311.398812 40.6872016,311.398812 C40.6872016,311.398812 41.6124017,310.734012 42.4404017,310.033212 C43.2960017,309.284412 44.0532018,308.505612 44.0532018,308.505612 C44.0532018,308.505612 44.2032018,308.545212 44.4276018,308.602812 C44.6544018,308.654412 44.9508018,308.749212 45.2556018,308.803212 C45.8676018,308.898012 46.4796018,308.990412 46.4796018,308.990412 C46.4796018,308.990412 46.6332019,309.013212 46.8624019,309.049212 C47.0916019,309.082812 47.3964019,309.142812 47.7084019,309.145212 C48.3264019,309.175212 48.9444019,309.206412 48.9444019,309.206412 C48.9444019,309.206412 49.076402,309.448812 49.274402,309.811212 C49.477202,310.180812 49.759202,310.660812 50.061602,311.107212 C50.659202,312.020412 51.357602,312.927612 51.357602,312.927612 L55.4076022,312.360012 C55.4076022,312.360012 55.8228022,311.284812 56.1384022,310.230012 C56.2992022,309.702012 56.4420022,309.182412 56.5380022,308.790012 C56.6232022,308.382012 56.6808023,308.110812 56.6808023,308.110812 C56.6808023,308.110812 57.2628023,307.898412 57.8436023,307.684812 C58.1340023,307.576812 58.4304023,307.482012 58.6344023,307.369212 C58.8432023,307.268412 58.9836023,307.201212 58.9836023,307.201212 C58.9836023,307.201212 59.5404024,306.932412 60.0996024,306.663612 C60.3852024,306.541212 60.6396024,306.362412 60.8412024,306.247212 C61.0392024,306.126012 61.1712024,306.045612 61.1712024,306.045612 C61.1712024,306.045612 62.1156025,306.573612 63.1452025,307.047612 C63.6576025,307.285212 64.1604025,307.473612 64.5564026,307.626012 C64.9524026,307.771212 65.2164026,307.867212 65.2164026,307.867212 C65.2164026,307.867212 65.4216026,307.713612 65.7288026,307.484412 C65.8824026,307.368012 66.0612026,307.233612 66.2520026,307.089612 C66.4428026,306.943212 66.6240026,306.762012 66.8172027,306.594012 C67.1952027,306.249612 67.5744027,305.904012 67.8576027,305.647212 C67.9992027,305.516412 68.1168027,305.408412 68.1996027,305.332812 L68.3184027,305.203212 C68.3184027,305.203212 68.0808027,304.070412 67.7712027,303.009612 C67.6188027,302.478012 67.4532027,301.959612 67.3236027,301.579212 C67.1976027,301.202412 67.0884027,300.939612 67.0884027,300.939612 C67.0884027,300.939612 67.4592027,300.442812 67.8300027,299.947212 C68.0112027,299.696412 68.2092027,299.456412 68.3316027,299.258412 C68.4516027,299.060412 68.5320027,298.928412 68.5320027,298.928412 C68.5320027,298.928412 68.8536027,298.399212 69.1752027,297.868812 C69.2556028,297.736812 69.3348028,297.603612 69.4104028,297.478812 C69.4728028,297.349212 69.5316028,297.226812 69.5820028,297.121212 C69.6828028,296.912412 69.7500028,296.773212 69.7500028,296.773212 C69.7500028,296.773212 70.8264028,296.707212 71.9460029,296.548812 C72.5148029,296.476812 73.0440029,296.365212 73.4556029,296.278812 C73.8648029,296.185212 74.1384029,296.124012 74.1384029,296.124012 C74.1384029,296.124012 74.2272029,295.882812 74.359203,295.521612 C74.480403,295.156812 74.692803,294.687612 74.802003,294.184812 C75.056403,293.192412 75.312003,292.198812 75.312003,292.198812 L75.178803,292.059612 C75.090003,291.972012 74.960403,291.848412 74.806803,291.697212 L74.806803,291.697212 Z" id="Fill-4" fill="#C7C7C7"></path>
                        <path d="M87.0312035,321.447613 C87.0324035,321.559213 87.0048035,321.679213 86.9868035,321.805213 C86.9664035,321.932413 86.9472035,322.066813 86.9256035,322.204813 L86.8920035,322.414813 L86.8368035,322.626013 C86.7996034,322.767613 86.7636034,322.912813 86.7264034,323.056813 C86.6976034,323.203213 86.6328034,323.340013 86.5860034,323.479213 C86.5356034,323.616013 86.4864034,323.752813 86.4384034,323.883613 C86.3304034,324.141613 86.2056034,324.372013 86.1132034,324.576013 L85.9656034,324.842413 L85.8420034,325.044013 C85.7748034,325.154413 85.7364034,325.219213 85.7364034,325.219213 C85.7364034,325.219213 85.6992034,325.284013 85.6284034,325.394413 C85.5504034,325.498813 85.4376034,325.648813 85.3032034,325.827613 C85.1796034,326.014813 84.9924034,326.199613 84.8052034,326.408413 C84.6276034,326.626813 84.3924034,326.812813 84.1752033,327.018013 L84.0096033,327.168013 L83.8308033,327.301213 C83.7132033,327.388813 83.5968033,327.475213 83.4852033,327.559213 C83.3772033,327.650413 83.2548033,327.710413 83.1468033,327.778813 C83.0376033,327.846013 82.9332033,327.908413 82.8384033,327.967213 L82.7004033,328.052413 L82.5708033,328.114813 L82.3584033,328.215613 C82.2408033,328.273213 82.1736033,328.304413 82.1736033,328.304413 C82.1736033,328.304413 82.1064033,328.338013 81.9900033,328.395613 C81.8688033,328.447213 81.6912032,328.503613 81.4824032,328.582813 C81.3768032,328.618813 81.2652032,328.669213 81.1416032,328.702813 C81.0180032,328.735213 80.8872032,328.768813 80.7516032,328.802413 C80.6148032,328.834813 80.4780032,328.881613 80.3328032,328.905613 C80.1876032,328.927213 80.0400032,328.950013 79.8924032,328.971613 L79.6716032,329.006413 L79.4508032,329.029213 C79.3044032,329.036413 79.1592031,329.043613 79.0188031,329.050813 C78.8784031,329.052013 78.7428031,329.074813 78.6144031,329.062813 C78.4872031,329.055613 78.3648031,329.049613 78.2532031,329.043613 C78.0300031,329.029213 77.8404031,329.034013 77.7132031,329.002813 C77.5848031,328.983613 77.5104031,328.971613 77.5104031,328.971613 C77.5104031,328.971613 77.4372031,328.959613 77.3076031,328.941613 C77.1780031,328.921213 76.9920031,328.902013 76.7772031,328.836013 C76.341603,328.736413 75.770403,328.557613 75.229203,328.304413 C74.961603,328.173613 74.685603,328.057213 74.454003,327.898813 C74.2140029,327.752413 73.9860029,327.625213 73.8132029,327.481213 C73.6344029,327.346813 73.4844029,327.235213 73.3788029,327.157213 L73.2276029,327.018013 L73.0764029,326.880013 L72.9012029,326.721613 L72.7932029,326.624413 L72.6852029,326.505613 L72.4416029,326.238013 C72.3588029,326.139613 72.2556029,326.049613 72.1776029,325.932013 C72.0936029,325.819213 72.0072029,325.702813 71.9196029,325.586413 C71.8296029,325.468813 71.7384029,325.351213 71.6676028,325.219213 C71.5188028,324.960013 71.3400028,324.717613 71.2344028,324.457213 C71.1180028,324.202813 70.9836028,323.977213 70.9200028,323.761213 C70.8432028,323.552413 70.7796028,323.376013 70.7340028,323.253613 L70.6896028,323.108413 L70.6764028,323.056813 C70.6764028,323.056813 70.6584028,322.984813 70.6260028,322.857613 C70.5972028,322.731613 70.5408028,322.552813 70.4952028,322.334413 C70.4628028,322.112413 70.4220028,321.854413 70.3800028,321.578413 C70.3656028,321.297613 70.3500028,320.998813 70.3344028,320.701213 C70.3500028,320.402413 70.3656028,320.102413 70.3800028,319.821613 C70.4220028,319.545613 70.4628028,319.287613 70.4952028,319.065613 C70.5408028,318.847213 70.5972028,318.668413 70.6260028,318.542413 C70.6584028,318.415213 70.6764028,318.343213 70.6764028,318.343213 L70.6896028,318.291613 L70.7340028,318.146413 C70.7796028,318.024013 70.8432028,317.850013 70.9200028,317.638813 C70.9836028,317.422813 71.1180028,317.197213 71.2344028,316.942813 C71.3400028,316.682413 71.5188028,316.440013 71.6676028,316.180813 C71.7384029,316.050013 71.8296029,315.931213 71.9196029,315.813613 C72.0072029,315.697213 72.0936029,315.580813 72.1776029,315.468013 C72.2556029,315.351613 72.3588029,315.260413 72.4416029,315.162013 L72.6852029,314.894413 L72.7932029,314.775613 L72.9012029,314.678413 L73.0764029,314.520012 L73.2276029,314.382012 L73.3788029,314.242812 C73.4844029,314.164812 73.6344029,314.053212 73.8132029,313.920012 C73.9860029,313.774812 74.2140029,313.647612 74.454003,313.502412 C74.685603,313.342812 74.961603,313.226412 75.229203,313.095612 C75.770403,312.842412 76.341603,312.663612 76.7772031,312.564012 C76.9920031,312.499212 77.1780031,312.478812 77.3076031,312.458412 C77.4372031,312.440412 77.5104031,312.428412 77.5104031,312.428412 C77.5104031,312.428412 77.5848031,312.416412 77.7132031,312.397212 C77.8404031,312.366012 78.0300031,312.370812 78.2532031,312.356412 C78.3648031,312.351612 78.4872031,312.344412 78.6144031,312.337212 C78.7428031,312.325212 78.8784031,312.348012 79.0188031,312.350412 C79.1592031,312.356412 79.3044032,312.363612 79.4508032,312.370812 L79.6716032,312.393612 L79.8924032,312.428412 C80.0400032,312.451212 80.1876032,312.472812 80.3328032,312.494412 C80.4780032,312.518412 80.6148032,312.565212 80.7516032,312.597612 C80.8872032,312.631212 81.0180032,312.664812 81.1416032,312.697212 C81.2652032,312.730812 81.3768032,312.781212 81.4824032,312.817212 C81.6912032,312.896412 81.8688033,312.952812 81.9900033,313.004412 C82.1064033,313.062012 82.1736033,313.095612 82.1736033,313.095612 C82.1736033,313.095612 82.2408033,313.126812 82.3584033,313.184412 L82.5708033,313.285212 L82.7004033,313.348812 L82.8384033,313.432812 C82.9332033,313.491612 83.0376033,313.554012 83.1468033,313.621212 C83.2548033,313.689612 83.3772033,313.750812 83.4852033,313.840812 C83.5968033,313.924812 83.7132033,314.011212 83.8308033,314.100012 L84.0096033,314.232012 L84.1752033,314.382012 C84.3924034,314.587213 84.6276034,314.773213 84.8052034,314.991613 C84.9924034,315.201613 85.1796034,315.385213 85.3032034,315.572413 C85.4376034,315.752413 85.5504034,315.902413 85.6284034,316.005613 C85.6992034,316.116013 85.7364034,316.180813 85.7364034,316.180813 C85.7364034,316.180813 85.7748034,316.245613 85.8420034,316.356013 L85.9656034,316.557613 L86.1132034,316.824013 C86.2056034,317.028013 86.3304034,317.258413 86.4384034,317.516413 C86.4864034,317.648413 86.5356034,317.784013 86.5860034,317.920813 C86.6328034,318.060013 86.6976034,318.196813 86.7264034,318.343213 C86.7636034,318.487213 86.7996034,318.632413 86.8368035,318.774013 L86.8920035,318.985213 L86.9256035,319.195213 C86.9472035,319.334413 86.9664035,319.467613 86.9868035,319.594813 C87.0048035,319.720813 87.0324035,319.840813 87.0312035,319.952413 C87.0540035,320.401213 87.0684035,320.701213 87.0684035,320.701213 C87.0684035,320.701213 87.0540035,321.000013 87.0312035,321.447613 Z M93.6804037,323.614813 C93.4956037,323.437213 93.2472037,323.208013 92.9964037,322.990813 C92.4960037,322.552813 91.9872037,322.173613 91.9872037,322.173613 C91.9872037,322.173613 92.0076037,322.083613 92.0100037,321.944413 C92.0160037,321.805213 92.0256037,321.621613 92.0352037,321.438013 C92.0532037,321.068413 92.0724037,320.701213 92.0724037,320.701213 C92.0724037,320.701213 92.0532037,320.331613 92.0352037,319.962013 C92.0256037,319.778413 92.0160037,319.594813 92.0100037,319.455613 C92.0076037,319.316413 91.9872037,319.226413 91.9872037,319.226413 C91.9872037,319.226413 92.4960037,318.848413 92.9964037,318.409213 C93.2472037,318.192013 93.4956037,317.962813 93.6804037,317.785213 L93.9036037,317.569213 L93.9816037,317.486413 C93.9816037,317.486413 93.8304037,316.894813 93.6780037,316.302013 C93.6132037,316.003213 93.4872037,315.723613 93.4152037,315.505213 C93.3360037,315.291613 93.2832037,315.147613 93.2832037,315.147613 C93.2832037,315.147613 93.1200037,315.110413 92.8752037,315.055213 C92.6316037,315.002413 92.3160037,314.937613 91.9764037,314.894413 C91.3092036,314.800813 90.6672036,314.760013 90.6672036,314.760013 C90.6672036,314.760013 90.6276036,314.677213 90.5676036,314.552412 L90.4656036,314.340012 L90.3252036,314.107212 C90.1332036,313.792812 89.9412036,313.476012 89.9412036,313.476012 C89.9412036,313.476012 89.8944036,313.398012 89.8224036,313.279212 C89.7492036,313.161612 89.6316036,313.018812 89.5236036,312.868812 C89.3028035,312.573612 89.0808035,312.278412 89.0808035,312.278412 C89.0808035,312.278412 89.1468035,312.121212 89.2212035,311.896812 C89.2992035,311.670012 89.3976036,311.360412 89.4888036,311.043612 C89.6724036,310.411212 89.8152036,309.736812 89.8152036,309.736812 L89.7432036,309.658812 L89.5404036,309.472812 C89.3712036,309.318012 89.1456035,309.112812 88.9200035,308.907612 C88.8048035,308.808012 88.6968035,308.701212 88.5840035,308.612412 C88.4688035,308.527212 88.3632035,308.446812 88.2708035,308.377212 C88.0884035,308.240412 87.9660035,308.149212 87.9660035,308.149212 C87.9660035,308.149212 87.8088035,308.205612 87.5724035,308.293212 C87.3372035,308.384412 87.0372035,308.497212 86.7324034,308.638812 C86.1180034,308.919612 85.5552034,309.235212 85.5552034,309.235212 C85.5552034,309.235212 85.4772034,309.187212 85.3584034,309.115212 C85.2396034,309.046812 85.0872034,308.940012 84.9168034,308.866812 C84.5844034,308.706012 84.2508033,308.546412 84.2508033,308.546412 C84.2508033,308.546412 84.1680033,308.505612 84.0432033,308.446812 C83.9220033,308.379612 83.7456033,308.322012 83.5728033,308.257212 C83.2260033,308.131212 82.8792033,308.004012 82.8792033,308.004012 C82.8792033,308.004012 82.8456033,307.843212 82.7940033,307.600812 C82.7376033,307.365612 82.6524033,307.056012 82.5564033,306.741612 C82.3680033,306.112812 82.1208033,305.472012 82.1208033,305.472012 L79.7076032,305.133612 C79.7076032,305.133612 79.2912032,305.673612 78.9348031,306.218412 C78.7548031,306.484812 78.5868031,306.770412 78.4656031,306.990012 C78.3480031,307.206012 78.2688031,307.351212 78.2688031,307.351212 C78.2688031,307.351212 77.9004031,307.369212 77.5320031,307.388412 C77.3472031,307.389612 77.1648031,307.424412 77.0280031,307.446012 C76.8912031,307.465212 76.8000031,307.479612 76.8000031,307.479612 C76.8000031,307.479612 76.435203,307.536012 76.070403,307.591212 C75.889203,307.623612 75.712803,307.680012 75.577203,307.711212 C75.444003,307.746012 75.354003,307.768812 75.354003,307.768812 C75.354003,307.768812 74.902803,307.304412 74.394003,306.858012 C73.8996029,306.441612 73.3488029,306.045612 73.3488029,306.045612 C73.3488029,306.045612 73.2048029,306.098412 72.9900029,306.176412 C72.8832029,306.216012 72.7572029,306.262812 72.6228029,306.313212 C72.4932029,306.374412 72.3564029,306.440412 72.2184029,306.505212 C71.9436029,306.638412 71.6688028,306.771612 71.4624028,306.871212 C71.2536028,306.966012 71.1252028,307.051212 71.1252028,307.051212 C71.1252028,307.051212 71.0712028,307.737612 71.0700028,308.395212 C71.0676028,308.724012 71.0760028,309.048012 71.0868028,309.288012 C71.0904028,309.404412 71.1000028,309.510012 71.1060028,309.582012 L71.1156028,309.694812 L69.9528028,310.603212 C69.9528028,310.603212 69.6804028,310.852812 69.4068028,311.100012 C69.2652028,311.218812 69.1428027,311.358012 69.0504027,311.461212 L68.8956027,311.631612 C68.8956027,311.631612 68.2680027,311.488812 67.6008027,311.390412 C67.2636027,311.336412 66.9480027,311.314812 66.6948027,311.293212 C66.4440026,311.276412 66.2772026,311.265612 66.2772026,311.265612 C66.2772026,311.265612 66.1860026,311.388012 66.0492026,311.570412 C65.9124026,311.754012 65.7252026,311.996412 65.5740026,312.261612 C65.4156026,312.522012 65.2572026,312.783612 65.1384026,312.979212 L64.9956026,313.215612 L64.9464026,313.308012 C64.9464026,313.308012 65.2728026,313.916412 65.6292026,314.473212 C65.8056026,314.752813 65.9880026,315.020413 66.1272026,315.216013 L66.2952026,315.452413 L66.3636026,315.541213 C66.3636026,315.541213 66.2376026,315.888013 66.1116026,316.234813 C66.0468026,316.407613 65.9844026,316.581613 65.9364026,316.711213 C65.9016026,316.845613 65.8776026,316.934413 65.8776026,316.934413 C65.8776026,316.934413 65.7864026,317.292013 65.6940026,317.649613 C65.6508026,317.828413 65.5944026,318.004813 65.5812026,318.144013 C65.5608026,318.280813 65.5464026,318.372013 65.5464026,318.372013 C65.5464026,318.372013 64.9452026,318.591613 64.3356026,318.871213 C63.7128025,319.144813 63.1464025,319.483213 63.1464025,319.483213 C63.1464025,319.483213 63.1164025,320.091613 63.0864025,320.701213 C63.1164025,321.308413 63.1464025,321.916813 63.1464025,321.916813 C63.1464025,321.916813 63.7128025,322.255213 64.3356026,322.528813 C64.9452026,322.808413 65.5464026,323.029213 65.5464026,323.029213 C65.5464026,323.029213 65.5608026,323.119213 65.5812026,323.256013 C65.5944026,323.395213 65.6508026,323.571613 65.6940026,323.751613 C65.7864026,324.108013 65.8776026,324.465613 65.8776026,324.465613 C65.8776026,324.465613 65.9016026,324.554413 65.9364026,324.688813 C65.9844026,324.818413 66.0468026,324.992413 66.1116026,325.165213 C66.2376026,325.512013 66.3636026,325.858813 66.3636026,325.858813 L66.2952026,325.948813 L66.1272026,326.184013 C65.9880026,326.379613 65.8056026,326.648413 65.6292026,326.926813 C65.2728026,327.483613 64.9464026,328.092013 64.9464026,328.092013 L64.9956026,328.184413 L65.1384026,328.420813 C65.2572026,328.616413 65.4156026,328.878013 65.5740026,329.138413 C65.7252026,329.403613 65.9124026,329.646013 66.0492026,329.829613 C66.1860026,330.012013 66.2772026,330.134413 66.2772026,330.134413 C66.2772026,330.134413 66.4440026,330.123613 66.6948027,330.106813 C66.9480027,330.085213 67.2636027,330.063613 67.6008027,330.009613 C68.2680027,329.911213 68.8956027,329.768413 68.8956027,329.768413 L69.0504027,329.938813 C69.1428027,330.042013 69.2652028,330.181213 69.4068028,330.301213 C69.6804028,330.548413 69.9528028,330.796813 69.9528028,330.796813 L71.1156028,331.705213 L71.1060028,331.818013 C71.1000028,331.890013 71.0904028,331.995613 71.0868028,332.112013 C71.0760028,332.352013 71.0676028,332.676013 71.0700028,333.004813 C71.0712028,333.662413 71.1252028,334.351213 71.1252028,334.351213 C71.1252028,334.351213 71.2536028,334.434013 71.4624028,334.528813 C71.6688028,334.628413 71.9436029,334.761613 72.2184029,334.894813 C72.3564029,334.959613 72.4932029,335.025613 72.6228029,335.086813 C72.7572029,335.137213 72.8832029,335.184013 72.9900029,335.223613 C73.2048029,335.302813 73.3488029,335.354413 73.3488029,335.354413 C73.3488029,335.354413 73.8996029,334.958413 74.394003,334.542013 C74.902803,334.095613 75.354003,333.631213 75.354003,333.631213 C75.354003,333.631213 75.444003,333.654013 75.577203,333.688813 C75.712803,333.720013 75.889203,333.776413 76.070403,333.808813 C76.435203,333.864013 76.8000031,333.920413 76.8000031,333.920413 C76.8000031,333.920413 76.8912031,333.934813 77.0280031,333.955213 C77.1648031,333.975613 77.3472031,334.010413 77.5320031,334.011613 C77.9004031,334.030813 78.2688031,334.050013 78.2688031,334.050013 C78.2688031,334.050013 78.3480031,334.194013 78.4656031,334.410013 C78.5868031,334.629613 78.7548031,334.915213 78.9348031,335.181613 C79.2912032,335.726413 79.7076032,336.266413 79.7076032,336.266413 L82.1208033,335.929213 C82.1208033,335.929213 82.3680033,335.287213 82.5564033,334.658413 C82.6524033,334.344013 82.7376033,334.034413 82.7940033,333.800413 C82.8456033,333.556813 82.8792033,333.396013 82.8792033,333.396013 C82.8792033,333.396013 83.2260033,333.268813 83.5728033,333.142813 C83.7456033,333.078013 83.9220033,333.020413 84.0432033,332.953213 C84.1680033,332.894413 84.2508033,332.853613 84.2508033,332.853613 C84.2508033,332.853613 84.5844034,332.694013 84.9168034,332.533213 C85.0872034,332.460013 85.2396034,332.354413 85.3584034,332.284813 C85.4772034,332.212813 85.5552034,332.164813 85.5552034,332.164813 C85.5552034,332.164813 86.1180034,332.480413 86.7324034,332.761213 C87.0372035,332.902813 87.3372035,333.015613 87.5724035,333.106813 C87.8088035,333.194413 87.9660035,333.252013 87.9660035,333.252013 C87.9660035,333.252013 88.0884035,333.159613 88.2708035,333.022813 C88.3632035,332.953213 88.4688035,332.872813 88.5840035,332.787613 C88.6968035,332.700013 88.8048035,332.592013 88.9200035,332.492413 C89.1456035,332.287213 89.3712036,332.082013 89.5404036,331.927213 L89.7432036,331.741213 L89.8152036,331.663213 C89.8152036,331.663213 89.6724036,330.988813 89.4888036,330.356413 C89.3976036,330.039613 89.2992035,329.731213 89.2212035,329.503213 C89.1468035,329.278813 89.0808035,329.121613 89.0808035,329.121613 C89.0808035,329.121613 89.3028035,328.826413 89.5236036,328.531213 C89.6316036,328.381213 89.7492036,328.238413 89.8224036,328.120813 C89.8944036,328.002013 89.9412036,327.924013 89.9412036,327.924013 C89.9412036,327.924013 90.1332036,327.607213 90.3252036,327.292813 L90.4656036,327.060013 L90.5676036,326.847613 C90.6276036,326.722813 90.6672036,326.640013 90.6672036,326.640013 C90.6672036,326.640013 91.3092036,326.600413 91.9764037,326.505613 C92.3160037,326.462413 92.6316037,326.397613 92.8752037,326.344813 C93.1200037,326.289613 93.2832037,326.252413 93.2832037,326.252413 C93.2832037,326.252413 93.3360037,326.108413 93.4152037,325.894813 C93.4872037,325.676413 93.6132037,325.396813 93.6780037,325.098013 C93.8304037,324.505213 93.9816037,323.913613 93.9816037,323.913613 L93.9036037,323.830813 L93.6804037,323.614813 L93.6804037,323.614813 Z" id="Fill-5" fill="#EBEBEB"></path>
                        <path d="M109.350004,152.462406 L8.09880032,152.462406 C3.62640014,152.462406 0,148.836006 0,144.362406 C0,139.890006 3.62640014,136.262405 8.09880032,136.262405 L109.350004,136.262405 C113.822405,136.262405 117.450005,139.890006 117.450005,144.362406 C117.450005,148.836006 113.822405,152.462406 109.350004,152.462406" id="Fill-6" fill="#EBEBEB"></path>
                        <path d="M72.5244029,144.362406 C72.5244029,151.984806 66.3456026,158.162406 58.7244023,158.162406 C51.103202,158.162406 44.9244018,151.984806 44.9244018,144.362406 C44.9244018,136.741205 51.103202,130.562405 58.7244023,130.562405 C66.3456026,130.562405 72.5244029,136.741205 72.5244029,144.362406" id="Fill-7" fill="#FFFFFE"></path>
                        <path d="M67.724402,144.362405 C67.724402,149.334006 63.6948025,153.362405 58.724402,153.362405 C53.7540021,153.362405 49.724402,149.334006 49.724402,144.362405 C49.724402,139.393206 53.7540021,135.362405 58.724402,135.362405 C63.6948025,135.362405 67.724402,139.393206 67.724402,144.362405" id="Fill-8" fill="#EBEBEB"></path>
                        <path d="M210.895208,152.462406 L109.645204,152.462406 C105.171604,152.462406 101.545204,148.836006 101.545204,144.362406 C101.545204,139.890006 105.171604,136.262405 109.645204,136.262405 L210.895208,136.262405 C215.368809,136.262405 218.995209,139.890006 218.995209,144.362406 C218.995209,148.836006 215.368809,152.462406 210.895208,152.462406" id="Fill-9" fill="#EBEBEB"></path>
                        <path d="M174.069607,144.362406 C174.069607,151.984806 167.892007,158.162406 160.269606,158.162406 C152.648406,158.162406 146.469606,151.984806 146.469606,144.362406 C146.469606,136.741205 152.648406,130.562405 160.269606,130.562405 C167.892007,130.562405 174.069607,136.741205 174.069607,144.362406" id="Fill-10" fill="#FFFFFE"></path>
                        <path d="M169.269606,144.362405 C169.269606,149.334006 165.241207,153.362405 160.269606,153.362405 C155.299206,153.362405 151.269606,149.334006 151.269606,144.362405 C151.269606,139.393206 155.299206,135.362405 160.269606,135.362405 C165.241207,135.362405 169.269606,139.393206 169.269606,144.362405" id="Fill-11" fill="#EBEBEB"></path>
                        <path d="M312.441612,152.462406 L211.191608,152.462406 C206.716808,152.462406 203.091608,148.836006 203.091608,144.362406 C203.091608,139.890006 206.716808,136.262405 211.191608,136.262405 L312.441612,136.262405 C316.914013,136.262405 320.541613,139.890006 320.541613,144.362406 C320.541613,148.836006 316.914013,152.462406 312.441612,152.462406" id="Fill-12" fill="#C7C7C7"></path>
                        <path d="M275.616011,144.362406 C275.616011,151.984806 269.438411,158.162406 261.81601,158.162406 C254.19481,158.162406 248.01601,151.984806 248.01601,144.362406 C248.01601,136.741205 254.19481,130.562405 261.81601,130.562405 C269.438411,130.562405 275.616011,136.741205 275.616011,144.362406" id="Fill-13" fill="#FFFFFE"></path>
                        <path d="M270.81601,144.362405 C270.81601,149.334006 266.787611,153.362405 261.81601,153.362405 C256.84561,153.362405 252.81601,149.334006 252.81601,144.362405 C252.81601,139.393206 256.84561,135.362405 261.81601,135.362405 C266.787611,135.362405 270.81601,139.393206 270.81601,144.362405" id="Fill-14" fill="#EBEBEB"></path>
                        <path d="M413.986816,152.462406 L312.736812,152.462406 C308.263212,152.462406 304.636812,148.836006 304.636812,144.362406 C304.636812,139.890006 308.263212,136.262405 312.736812,136.262405 L413.986816,136.262405 C418.460417,136.262405 422.086817,139.890006 422.086817,144.362406 C422.086817,148.836006 418.460417,152.462406 413.986816,152.462406" id="Fill-15" fill="#EBEBEB"></path>
                        <path d="M377.161215,144.362406 C377.161215,151.984806 370.983615,158.162406 363.361214,158.162406 C355.741214,158.162406 349.561214,151.984806 349.561214,144.362406 C349.561214,136.741205 355.741214,130.562405 363.361214,130.562405 C370.983615,130.562405 377.161215,136.741205 377.161215,144.362406" id="Fill-16" fill="#FFFFFE"></path>
                        <path d="M372.361214,144.362405 C372.361214,149.334006 368.332815,153.362405 363.361214,153.362405 C358.390814,153.362405 354.361214,149.334006 354.361214,144.362405 C354.361214,139.393206 358.390814,135.362405 363.361214,135.362405 C368.332815,135.362405 372.361214,139.393206 372.361214,144.362405" id="Fill-17" fill="#EBEBEB"></path>
                        <path d="M515.53322,152.462406 L414.283216,152.462406 C409.808416,152.462406 406.183216,148.836006 406.183216,144.362406 C406.183216,139.890006 409.808416,136.262405 414.283216,136.262405 L515.53322,136.262405 C520.005621,136.262405 523.633221,139.890006 523.633221,144.362406 C523.633221,148.836006 520.005621,152.462406 515.53322,152.462406" id="Fill-18" fill="#C7C7C7"></path>
                        <path d="M478.707619,144.362406 C478.707619,151.984806 472.528819,158.162406 464.907618,158.162406 C457.286418,158.162406 451.107618,151.984806 451.107618,144.362406 C451.107618,136.741205 457.286418,130.562405 464.907618,130.562405 C472.528819,130.562405 478.707619,136.741205 478.707619,144.362406" id="Fill-19" fill="#FFFFFE"></path>
                        <path d="M473.907618,144.362405 C473.907618,149.334006 469.878019,153.362405 464.907618,153.362405 C459.937218,153.362405 455.907618,149.334006 455.907618,144.362405 C455.907618,139.393206 459.937218,135.362405 464.907618,135.362405 C469.878019,135.362405 473.907618,139.393206 473.907618,144.362405" id="Fill-20" fill="#EBEBEB"></path>
                        <polygon id="Fill-21" fill="#FFFFFE" points="57.8244023 155.599206 59.6244024 155.599206 59.6244024 88.4988035 57.8244023 88.4988035"></polygon>
                        <path d="M87.9264035,36.6576015 C87.9264035,56.6988023 58.7244023,81.9636033 58.7244023,81.9636033 C58.7244023,81.9636033 29.5224012,57.5520023 29.5224012,36.6576015 C29.5224012,20.5296008 42.5964017,7.4544003 58.7244023,7.4544003 C74.852403,7.4544003 87.9264035,20.5296008 87.9264035,36.6576015" id="Fill-22" fill="#C7C7C7"></path>
                        <g id="Group-27" transform="translate(37.416001, 15.677201)">
                            <mask id="mask-2" fill="white">
                                <use xlink:href="#path-1"></use>
                            </mask>
                            <g id="Clip-26"></g>
                            <path d="M42.2028017,20.9804009 C42.2028017,32.5208013 32.8476013,41.8748017 21.3084008,41.8748017 C9.76920039,41.8748017 0.414000016,32.5208013 0.414000016,20.9804009 C0.414000016,9.44120041 9.76920039,0.0860000432 21.3084008,0.0860000432 C32.8476013,0.0860000432 42.2028017,9.44120041 42.2028017,20.9804009" id="Fill-25" fill="url(#linearGradient-3)" mask="url(#mask-2)"></path>
                        </g>
                        <path d="M334.159213,284.296811 C334.159213,264.254411 363.361214,238.992009 363.361214,238.992009 C363.361214,238.992009 392.564416,263.40121 392.564416,284.296811 C392.564416,300.424812 379.490415,313.498812 363.361214,313.498812 C347.234414,313.498812 334.159213,300.424812 334.159213,284.296811" id="Fill-29" fill="#C7C7C7"></path>
                        <g id="Group-34" transform="translate(342.216014, 263.077210)">
                            <mask id="mask-5" fill="white">
                                <use xlink:href="#path-4"></use>
                            </mask>
                            <g id="Clip-33"></g>
                            <path d="M0.25080001,21.2196008 C0.25080001,9.67920038 9.60600038,0.325200013 21.1452008,0.325200013 C32.6856013,0.325200013 42.0396017,9.67920038 42.0396017,21.2196008 C42.0396017,32.7600013 32.6856013,42.1140017 21.1452008,42.1140017 C9.60600038,42.1140017 0.25080001,32.7600013 0.25080001,21.2196008" id="Fill-32" fill="url(#linearGradient-6)" mask="url(#mask-5)"></path>
                        </g>
                        <polygon id="Fill-35" fill="#FFFFFE" points="260.91601 155.599206 262.71601 155.599206 262.71601 88.4988035 260.91601 88.4988035"></polygon>
                        <path d="M291.018012,36.6576015 C291.018012,56.6988023 261.81601,81.9636033 261.81601,81.9636033 C261.81601,81.9636033 232.614009,57.5520023 232.614009,36.6576015 C232.614009,20.5296008 245.68801,7.4544003 261.81601,7.4544003 C277.944011,7.4544003 291.018012,20.5296008 291.018012,36.6576015" id="Fill-36" fill="#C7C7C7"></path>
                        <g id="Group-41" transform="translate(240.216010, 15.677201)">
                            <mask id="mask-8" fill="white">
                                <use xlink:href="#path-7"></use>
                            </mask>
                            <g id="Clip-40"></g>
                            <path d="M42.4944017,20.9804009 C42.4944017,32.5208013 33.1392013,41.8748017 21.6000009,41.8748017 C10.0608004,41.8748017 0.705600028,32.5208013 0.705600028,20.9804009 C0.705600028,9.44120041 10.0608004,0.0860000432 21.6000009,0.0860000432 C33.1392013,0.0860000432 42.4944017,9.44120041 42.4944017,20.9804009" id="Fill-39" fill="url(#linearGradient-9)" mask="url(#mask-8)"></path>
                        </g>
                        <path d="M131.067605,284.296811 C131.067605,264.254411 160.269606,238.992009 160.269606,238.992009 C160.269606,238.992009 189.472808,263.40121 189.472808,284.296811 C189.472808,300.424812 176.397607,313.498812 160.269606,313.498812 C144.141606,313.498812 131.067605,300.424812 131.067605,284.296811" id="Fill-43" fill="#C7C7C7"></path>
                        <g id="Group-48" transform="translate(139.216005, 263.077210)">
                            <mask id="mask-11" fill="white">
                                <use xlink:href="#path-10"></use>
                            </mask>
                            <g id="Clip-47"></g>
                            <path d="M0.159200046,21.2196008 C0.159200046,9.67920038 9.51440042,0.325200013 21.0536009,0.325200013 C32.5940013,0.325200013 41.9492017,9.67920038 41.9492017,21.2196008 C41.9492017,32.7600013 32.5940013,42.1140017 21.0536009,42.1140017 C9.51440042,42.1140017 0.159200046,32.7600013 0.159200046,21.2196008" id="Fill-46" fill="url(#linearGradient-12)" mask="url(#mask-11)"></path>
                        </g>
                        <polygon id="Fill-49" fill="#FFFFFE" points="464.007618 155.599206 465.807619 155.599206 465.807619 88.4988035 464.007618 88.4988035"></polygon>
                        <path d="M494.10962,36.6576015 C494.10962,56.6988023 464.907618,81.9636033 464.907618,81.9636033 C464.907618,81.9636033 435.704417,57.5520023 435.704417,36.6576015 C435.704417,20.5296008 448.779618,7.4544003 464.907618,7.4544003 C481.035619,7.4544003 494.10962,20.5296008 494.10962,36.6576015" id="Fill-50" fill="#C7C7C7"></path>
                        <g id="Group-55" transform="translate(444.016018, 15.677201)">
                            <mask id="mask-14" fill="white">
                                <use xlink:href="#path-13"></use>
                            </mask>
                            <g id="Clip-54"></g>
                            <path d="M41.7860017,20.9804009 C41.7860017,32.5208013 32.4308013,41.8748017 20.8916009,41.8748017 C9.35240041,41.8748017 -0.00279996038,32.5208013 -0.00279996038,20.9804009 C-0.00279996038,9.44120041 9.35240041,0.0860000432 20.8916009,0.0860000432 C32.4308013,0.0860000432 41.7860017,9.44120041 41.7860017,20.9804009" id="Fill-53" fill="url(#linearGradient-9)" mask="url(#mask-14)"></path>
                        </g>
                        <path d="M175.413607,31.9896013 C175.413607,41.5344017 168.633607,49.270802 160.269606,49.270802 C151.906806,49.270802 145.126806,41.5344017 145.126806,31.9896013 C145.126806,22.4460009 151.906806,14.7096006 160.269606,14.7096006 C168.633607,14.7096006 175.413607,22.4460009 175.413607,31.9896013" id="Fill-56" fill="#F7C407"></path>
                        <path d="M176.521207,42.6768017 C173.226007,48.8604019 167.185207,53.0268021 160.270806,53.0268021 C153.355206,53.0268021 147.314406,48.8604019 144.019206,42.6768017 C136.497605,46.2204018 131.281205,53.8488021 131.281205,62.7132025 L131.281205,67.5096027 L189.259208,67.5096027 L189.259208,62.7132025 C189.259208,53.8488021 184.041607,46.2204018 176.521207,42.6768017" id="Fill-57" fill="#F7C407"></path>
                        <path d="M284.743211,330.499213 L284.743211,330.499213 C283.443611,331.798813 281.337611,331.798813 280.038011,330.499213 L261.88201,312.343212 L266.588411,307.635612 L284.743211,325.791613 C286.042811,327.091213 286.042811,329.199613 284.743211,330.499213" id="Fill-58" fill="#EBEBEB"></path>
                        <path d="M284.743211,330.499213 L284.319611,330.074413 C283.785611,330.608413 283.090811,330.872413 282.391211,330.873613 C281.690411,330.872413 280.995611,330.608413 280.461611,330.074413 L262.73041,312.343212 L266.588411,308.484012 L284.319611,326.215213 C284.853611,326.749213 285.117611,327.444013 285.118811,328.144813 C285.117611,328.845613 284.853611,329.540413 284.319611,330.074413 L284.743211,330.499213 L285.168011,330.922813 C285.933611,330.157213 286.318811,329.148013 286.318811,328.144813 C286.318811,327.141613 285.933611,326.132413 285.168011,325.366813 L266.588411,306.787212 L261.03361,312.343212 L279.613211,330.922813 C280.378811,331.688413 281.386811,332.073613 282.391211,332.073613 C283.394411,332.073613 284.402411,331.688413 285.168011,330.922813 L284.743211,330.499213" id="Fill-59" fill="#CAD6D4"></path>
                        <polyline id="Fill-60" fill="#CAD6D4" points="265.083611 309.141612 257.36641 301.423212 255.66841 303.120012 263.38561 310.838412"></polyline>
                        <path d="M256.47601,271.779611 L253.50601,274.749611 C256.89841,278.144411 258.57841,282.555611 258.58321,287.005211 C258.57841,291.454812 256.89841,295.864812 253.50601,299.260812 C250.11121,302.653212 245.70001,304.332012 241.25041,304.336812 C236.800809,304.332012 232.389609,302.653212 228.994809,299.260812 C225.603609,295.866012 223.923609,291.454812 223.918809,287.005211 C223.923609,282.555611 225.603609,278.144411 228.994809,274.749611 C232.389609,271.357211 236.800809,269.678411 241.25041,269.673611 C245.70001,269.678411 250.11121,271.357211 253.50601,274.749611 L259.44601,268.809611 C254.43241,263.79361 247.82161,261.26881 241.25041,261.273604 C234.679209,261.26881 228.069609,263.79361 223.056009,268.809611 C218.038809,273.823211 215.514009,280.434011 215.518802,287.005211 C215.514009,293.576412 218.038809,300.186012 223.054809,305.200812 C228.069609,310.216812 234.679209,312.741612 241.25041,312.736819 C247.82161,312.741612 254.43241,310.216812 259.44601,305.200812 C264.462011,300.187212 266.988011,293.576412 266.983217,287.005211 C266.988011,280.434011 264.462011,273.823211 259.44601,268.809611 L256.47601,271.779611" id="Fill-61" fill="#EBEBEB"></path>
                        <path d="M233.724009,294.531612 C231.643209,292.449612 230.607609,289.732812 230.606409,287.005211 C230.607609,284.276411 231.643209,281.559611 233.724009,279.477611 C234.192009,279.008411 234.192009,278.248811 233.724009,277.780811 C233.254809,277.311611 232.495209,277.311611 232.027209,277.780811 C229.482009,280.324811 228.205209,283.670411 228.206408,287.005211 C228.205209,290.338812 229.482009,293.684412 232.027209,296.228412 C232.495209,296.697612 233.254809,296.697612 233.724009,296.228412 C234.192009,295.760412 234.192009,294.999612 233.724009,294.531612" id="Fill-62" fill="#EBEBEB"></path>
                        <path d="M483.583219,296.361612 C483.583219,285.348011 474.045619,276.559211 462.780018,277.804811 C454.213218,278.752811 447.312018,285.645611 446.353218,294.208812 C445.603218,300.916812 448.411218,307.011612 453.129618,310.850412 C455.863218,313.075212 457.438818,316.422013 457.438818,319.947613 L457.438818,321.697213 C457.438818,322.426813 458.030418,323.019613 458.761218,323.019613 L471.054019,323.019613 C471.786019,323.019613 472.377619,322.426813 472.377619,321.697213 L472.377619,319.950013 C472.377619,316.372813 474.040819,313.038012 476.797219,310.759212 C480.940819,307.335612 483.583219,302.157612 483.583219,296.361612" id="Fill-63" fill="#EBEBEB"></path>
                        <path d="M470.952019,328.587613 L458.864418,328.587613 C458.077218,328.587613 457.438818,327.949213 457.438818,327.160813 C457.438818,326.373613 458.077218,325.735213 458.864418,325.735213 L470.952019,325.735213 C471.740419,325.735213 472.377619,326.373613 472.377619,327.160813 C472.377619,327.949213 471.740419,328.587613 470.952019,328.587613" id="Fill-64" fill="#EBEBEB"></path>
                        <path d="M468.016819,333.852013 L461.798418,333.852013 C461.011218,333.852013 460.372818,333.212413 460.372818,332.425213 C460.372818,331.638013 461.011218,330.999613 461.798418,330.999613 L468.016819,330.999613 C468.804019,330.999613 469.442419,331.638013 469.442419,332.425213 C469.442419,333.212413 468.804019,333.852013 468.016819,333.852013" id="Fill-65" fill="#EBEBEB"></path>
                        <path d="M464.907618,274.137611 C464.216418,274.137611 463.654818,273.577211 463.654818,272.884811 L463.654818,264.349211 C463.654818,263.65561 464.216418,263.09641 464.907618,263.09641 C465.600019,263.09641 466.160419,263.65561 466.160419,264.349211 L466.160419,272.884811 C466.160419,273.577211 465.600019,274.137611 464.907618,274.137611" id="Fill-66" fill="#C7C7C7"></path>
                        <path d="M453.304818,277.248011 C452.871618,277.248011 452.450418,277.023611 452.218818,276.621611 L447.948018,269.227211 C447.602418,268.628411 447.807618,267.861611 448.407618,267.516011 C449.004018,267.170411 449.772018,267.375611 450.118818,267.974411 L454.389618,275.368811 C454.735218,275.967611 454.530018,276.734411 453.930018,277.080011 C453.733218,277.194011 453.517218,277.248011 453.304818,277.248011" id="Fill-67" fill="#C7C7C7"></path>
                        <path d="M444.805218,285.744011 C444.592818,285.744011 444.378018,285.690011 444.181218,285.576011 L436.788017,281.306411 C436.189217,280.959611 435.982817,280.194011 436.329617,279.595211 C436.675217,278.995211 437.442017,278.790011 438.040817,279.136811 L445.434018,283.405211 C446.032818,283.752011 446.239218,284.517611 445.891218,285.116411 C445.659618,285.518411 445.239618,285.744011 444.805218,285.744011" id="Fill-68" fill="#C7C7C7"></path>
                        <path d="M441.697218,297.349212 L433.160417,297.349212 C432.468017,297.349212 431.907617,296.787612 431.907617,296.096412 C431.907617,295.402812 432.468017,294.843612 433.160417,294.843612 L441.697218,294.843612 C442.389618,294.843612 442.950018,295.402812 442.950018,296.096412 C442.950018,296.787612 442.389618,297.349212 441.697218,297.349212" id="Fill-69" fill="#C7C7C7"></path>
                        <path d="M437.415617,313.221612 C436.982417,313.221612 436.561217,312.997212 436.329617,312.595212 C435.982817,311.996412 436.189217,311.229612 436.788017,310.884012 L444.181218,306.615612 C444.777618,306.270012 445.545618,306.475212 445.891218,307.074012 C446.239218,307.674012 446.032818,308.439612 445.434018,308.786412 L438.040817,313.053612 C437.842817,313.167612 437.628017,313.221612 437.415617,313.221612" id="Fill-70" fill="#C7C7C7"></path>
                        <path d="M492.39962,313.221612 C492.18722,313.221612 491.97242,313.167612 491.77562,313.053612 L484.382419,308.786412 C483.782419,308.439612 483.577219,307.674012 483.924019,307.074012 C484.269619,306.475212 485.035219,306.270012 485.635219,306.615612 L493.02842,310.884012 C493.62722,311.229612 493.83362,311.996412 493.48682,312.595212 C493.25402,312.997212 492.83402,313.221612 492.39962,313.221612" id="Fill-71" fill="#C7C7C7"></path>
                        <path d="M496.65482,297.349212 L488.118019,297.349212 C487.425619,297.349212 486.865219,296.787612 486.865219,296.096412 C486.865219,295.402812 487.425619,294.843612 488.118019,294.843612 L496.65482,294.843612 C497.34722,294.843612 497.90762,295.402812 497.90762,296.096412 C497.90762,296.787612 497.34722,297.349212 496.65482,297.349212" id="Fill-72" fill="#C7C7C7"></path>
                        <path d="M485.010019,285.744011 C484.576819,285.744011 484.155619,285.518411 483.924019,285.116411 C483.577219,284.517611 483.782419,283.752011 484.382419,283.405211 L491.77562,279.136811 C492.37082,278.790011 493.14002,278.995211 493.48682,279.595211 C493.83362,280.194011 493.62722,280.959611 493.02842,281.306411 L485.635219,285.576011 C485.438419,285.690011 485.222419,285.744011 485.010019,285.744011" id="Fill-73" fill="#C7C7C7"></path>
                        <path d="M476.511619,277.248011 C476.299219,277.248011 476.084419,277.194011 475.887619,277.080011 C475.287619,276.734411 475.082419,275.967611 475.428019,275.368811 L479.696419,267.974411 C480.042019,267.375611 480.808819,267.170411 481.407619,267.516011 C482.007619,267.861611 482.212819,268.628411 481.867219,269.227211 L477.597619,276.621611 C477.366019,277.023611 476.944819,277.248011 476.511619,277.248011" id="Fill-74" fill="#C7C7C7"></path>
                        <path d="M347.739614,57.4380023 L378.985215,57.4380023 L378.985215,7.28040029 L347.739614,7.28040029 L347.739614,57.4380023 Z M363.361214,64.4400026 C361.975214,64.4400026 360.850814,63.3168025 360.850814,61.9296025 C360.850814,60.5436024 361.975214,59.4192024 363.361214,59.4192024 C364.748414,59.4192024 365.872815,60.5436024 365.872815,61.9296025 C365.872815,63.3168025 364.748414,64.4400026 363.361214,64.4400026 Z M377.870415,-1.02318158e-13 L348.853214,-1.02318158e-13 C346.389614,-1.02318158e-13 344.391614,1.99680008 344.391614,4.46160018 L344.391614,63.0468025 C344.391614,65.5116026 346.389614,67.5096027 348.853214,67.5096027 L377.870415,67.5096027 C380.335215,67.5096027 382.332015,65.5116026 382.332015,63.0468025 L382.332015,4.46160018 C382.332015,1.99680008 380.335215,-1.02318158e-13 377.870415,-1.02318158e-13 L377.870415,-1.02318158e-13 Z" id="Fill-75" fill="#C7C7C7"></path>
                        <text id="01" font-family="Roboto-Black, Roboto" font-size="22.8000009" font-weight="700" letter-spacing="0.000120000002" fill="#C7C7C7">
                            <tspan x="45.5212818" y="42.9580509">01</tspan>
                        </text>
                        <text id="02" font-family="Roboto-Black, Roboto" font-size="22.8000009" font-weight="700" letter-spacing="0.000120000002" fill="#C7C7C7">
                            <tspan x="147.065646" y="292.777901">02</tspan>
                        </text>
                        <text id="04" font-family="Roboto-Black, Roboto" font-size="22.8000009" font-weight="700" letter-spacing="0.000120000002" fill="#C7C7C7">
                            <tspan x="350.156654" y="292.777901">04</tspan>
                        </text>
                        <text id="03" font-family="Roboto-Black, Roboto" font-size="22.8000009" font-weight="700" letter-spacing="0.000120000002" fill="#C7C7C7">
                            <tspan x="248.32045" y="42.9580509">03</tspan>
                        </text>
                        <text id="05" font-family="Roboto-Black, Roboto" font-size="22.8000009" font-weight="700" letter-spacing="0.000120000002" fill="#C7C7C7">
                            <tspan x="451.119618" y="42.9580509">05</tspan>
                        </text>
                        <rect id="Rectangle" fill="#EBEBEB" x="109.416004" y="78.2772031" width="98.4000039" height="7.20000029"></rect>
                        <rect id="Rectangle" fill="#EBEBEB" x="109.416004" y="92.6772037" width="98.4000039" height="2.4000001"></rect>
                        <rect id="Rectangle" fill="#EBEBEB" x="115.416005" y="101.077204" width="86.4000034" height="2.4000001"></rect>
                        <rect id="Rectangle" fill="#EBEBEB" x="109.416004" y="108.277204" width="98.4000039" height="2.4000001"></rect>
                        <rect id="Rectangle" fill="#EBEBEB" x="13.4160005" y="177.877207" width="122.400005" height="7.20000029"></rect>
                        <rect id="Rectangle" fill="#EBEBEB" x="13.4160005" y="192.277208" width="98.4000039" height="2.4000001"></rect>
                        <rect id="Rectangle" fill="#EBEBEB" x="13.4160005" y="200.677208" width="86.4000034" height="2.4000001"></rect>
                        <rect id="Rectangle" fill="#EBEBEB" x="13.4160005" y="215.077209" width="86.4000034" height="2.4000001"></rect>
                        <rect id="Rectangle" fill="#EBEBEB" x="13.4160005" y="207.877208" width="98.4000039" height="2.4000001"></rect>
                        <rect id="Rectangle" fill="#EBEBEB" x="229.416009" y="177.877207" width="122.400005" height="7.20000029"></rect>
                        <rect id="Rectangle" fill="#EBEBEB" x="229.416009" y="192.277208" width="98.4000039" height="2.4000001"></rect>
                        <rect id="Rectangle" fill="#EBEBEB" x="229.416009" y="200.677208" width="86.4000034" height="2.4000001"></rect>
                        <rect id="Rectangle" fill="#EBEBEB" x="229.416009" y="215.077209" width="86.4000034" height="2.4000001"></rect>
                        <rect id="Rectangle" fill="#EBEBEB" x="229.416009" y="207.877208" width="98.4000039" height="2.4000001"></rect>
                        <rect id="Rectangle" fill="#EBEBEB" x="421.416017" y="177.877207" width="122.400005" height="7.20000029"></rect>
                        <rect id="Rectangle" fill="#EBEBEB" x="421.416017" y="192.277208" width="98.4000039" height="2.4000001"></rect>
                        <rect id="Rectangle" fill="#EBEBEB" x="421.416017" y="200.677208" width="86.4000034" height="2.4000001"></rect>
                        <rect id="Rectangle" fill="#EBEBEB" x="421.416017" y="215.077209" width="86.4000034" height="2.4000001"></rect>
                        <rect id="Rectangle" fill="#EBEBEB" x="421.416017" y="207.877208" width="98.4000039" height="2.4000001"></rect>
                        <rect id="Rectangle" fill="#EBEBEB" x="313.416012" y="78.2772031" width="98.4000039" height="7.20000029"></rect>
                        <rect id="Rectangle" fill="#EBEBEB" x="313.416012" y="92.6772037" width="98.4000039" height="2.4000001"></rect>
                        <rect id="Rectangle" fill="#EBEBEB" x="319.416013" y="101.077204" width="86.4000034" height="2.4000001"></rect>
                        <rect id="Rectangle" fill="#EBEBEB" x="313.416012" y="108.277204" width="98.4000039" height="2.4000001"></rect>
                    </g>
                    <g id="humaaan-11" transform="translate(297.900017, 252.200001) scale(-1, 1) translate(-297.900017, -252.200001) translate(162.400017, 31.200001)">
                        <g id="Bottom/Skinny-Jeans-1" transform="translate(0.000000, 209.331530)">
                            <path d="M93.4664446,97.5462224 C116.172109,103.903454 135.76187,107.082071 152.235728,107.082071 C168.709585,107.082071 184.011266,102.187058 198.140769,92.3970332 C175.921211,85.8719131 157.622416,82.609353 143.244382,82.609353 C128.866349,82.609353 112.273703,87.5883095 93.4664446,97.5462224 Z" id="Skirt-Shadow" fill="#55A2AC"></path>
                            <path d="M171.891622,116.24529 C171.672685,115.915822 171.487793,115.557428 171.34114,115.169202 C168.306132,107.134785 119.692777,20.4594711 114.849699,4.61290286 L169.58148,4.61290286 C173.26374,16.6612725 189.837234,92.2705356 192.169671,107.355698 C199.528936,131.150908 214.680928,208.214907 216.615205,213.553665 C218.650031,219.169948 207.20074,225.020663 204.149774,218.116139 C199.295171,207.129876 187.728106,176.731084 182.577772,158.169794 C177.749344,140.768624 173.817714,125.113565 171.891622,116.24529 Z" id="Leg-[skin]" fill="#784931"></path>
                            <path d="M171.891622,116.24529 C171.672685,115.915822 171.487793,115.557428 171.34114,115.169202 C168.306132,107.134785 119.692777,20.4594711 114.849699,4.61290286 L169.58148,4.61290286 C173.26374,16.6612725 189.837234,92.2705356 192.169671,107.355698 C199.528936,131.150908 214.680928,208.214907 216.615205,213.553665 C218.650031,219.169948 207.20074,225.020663 204.149774,218.116139 C199.295171,207.129876 187.728106,176.731084 182.577772,158.169794 C177.749344,140.768624 173.817714,125.113565 171.891622,116.24529 Z" id="Shadow" fill-opacity="0.1" fill="#000000"></path>
                            <path d="M127.113422,126.827587 C104.888195,132.450574 23.5930016,142.61594 18.0141694,144.210351 C12.2752916,145.850504 7.24339386,134.009415 14.3369568,131.444434 C25.624013,127.363117 56.7249618,117.933059 75.5815796,114.084838 C90.748701,110.989563 104.588885,108.463822 113.880821,106.984776 C113.09363,80.8572782 109.495177,18.1552896 111.853764,4.61290286 L160.281192,4.61290286 C158.019466,17.5991411 138.900102,112.354489 135.346496,121.839231 C134.218755,125.225348 130.853812,126.721761 127.113422,126.827587 L127.113422,126.827587 Z" id="Leg-[skin]" fill="#915B3C"></path>
                            <g id="Left-[shoe]" transform="translate(15.792805, 154.009127) rotate(80.000000) translate(-15.792805, -154.009127) translate(-12.207195, 143.509127)" fill="#010100">
                                <path d="M2.53427531,6.97168583 C1.47575139,9.80049159 0.946489431,11.9171531 0.946489431,13.3216703 C0.946489431,15.0301896 1.2308283,17.5233443 1.79950604,20.8011342 C3.77950377,20.8011342 21.5740768,20.8011342 55.1832252,20.8011342 C56.5704788,16.2102833 55.7696756,13.7318306 52.7808155,13.3657762 C49.7919553,12.9997217 47.3090585,12.6692038 45.3321249,12.3742226 L20.5211985,1.30218947 C20.0434063,1.0889717 19.4832321,1.30345161 19.2700144,1.78124375 C19.2662725,1.78962881 19.2626527,1.79806782 19.2591562,1.80655812 L17.6645339,5.67863266 L17.6645339,5.67863266 C14.8976312,6.97091068 12.6492355,7.61704969 10.9193468,7.61704969 C9.51433894,7.61704969 7.57419622,7.04923401 5.09891861,5.91360263 L5.09892688,5.91358462 C4.14782042,5.47722696 3.02305853,5.89451331 2.58670087,6.84561977 C2.56771683,6.88699831 2.55023029,6.92904763 2.53427531,6.97168583 Z" id="shoe"></path>
                            </g>
                            <g id="Right-[shoe]" transform="translate(198.140769, 210.251767)" fill="#010100">
                                <path d="M2.53427531,6.97168583 C1.47575139,9.80049159 0.946489431,11.9171531 0.946489431,13.3216703 C0.946489431,15.0301896 1.2308283,17.5233443 1.79950604,20.8011342 C3.77950377,20.8011342 21.5740768,20.8011342 55.1832252,20.8011342 C56.5704788,16.2102833 55.7696756,13.7318306 52.7808155,13.3657762 C49.7919553,12.9997217 47.3090585,12.6692038 45.3321249,12.3742226 L20.5211985,1.30218947 C20.0434063,1.0889717 19.4832321,1.30345161 19.2700144,1.78124375 C19.2662725,1.78962881 19.2626527,1.79806782 19.2591562,1.80655812 L17.6645339,5.67863266 L17.6645339,5.67863266 C14.8976312,6.97091068 12.6492355,7.61704969 10.9193468,7.61704969 C9.51433894,7.61704969 7.57419622,7.04923401 5.09891861,5.91360263 L5.09892688,5.91358462 C4.14782042,5.47722696 3.02305853,5.89451331 2.58670087,6.84561977 C2.56771683,6.88699831 2.55023029,6.92904763 2.53427531,6.97168583 Z" id="shoe"></path>
                            </g>
                            <path d="M112.010231,4.61290286 C133.350576,-1.49883499 153.542351,-1.49883499 172.585555,4.61290286 C179.210981,34.8719834 195.309763,46.881836 198.140769,93.2740402 C165.960129,109.28003 126.207573,81.8587463 93.0804424,97.4678086 C83.6155481,75.634631 96.8664002,23.0545156 112.010231,4.61290286 Z" id="Skirt" fill="#61C1CD"></path>
                        </g>
                        <g id="Body/Long-Sleeve-1" transform="translate(155.551813, 132.542820) rotate(-10.000000) translate(-155.551813, -132.542820) translate(59.051813, 15.542820)">
                            <path d="M175.680128,140.448942 C179.781071,139.603817 189.790303,132.152054 191.514943,133.665043 C194.066437,135.903413 191.791368,142.776508 189.110796,146.195504 C184.100811,152.585604 179.952759,154.770825 169.700204,157.632386 C164.339639,159.128557 158.543921,162.127504 152.313048,166.629227 L151.491283,152.132921 L165.921956,144.197447 C167.946784,136.484942 170.367219,132.60452 173.18326,132.556181 C175.346566,131.548598 171.579184,141.294067 175.680128,140.448942 Z M150.84275,107.41497 C148.193034,112.122716 145.61744,117.193847 146.967367,118.644201 C148.317293,120.094556 151.683455,118.068474 153.293896,120.478251 C154.367524,122.084769 148.616702,124.622615 136.041432,128.091789 L112.17013,149.970658 L100.038262,136.936232 L132.890704,118.924862 C138.353864,112.430772 143.736598,107.387201 149.038906,103.794149 C150.659121,103.117051 153.492467,102.707223 150.84275,107.41497 Z" id="Arms-[skin]" fill="#915B3C"></path>
                            <g id="Head/Front/Rad" transform="translate(74.443134, 59.439782) rotate(3.000000) translate(-74.443134, -59.439782) translate(3.163137, 3.999785)">
                                <g id="Head" stroke-width="1" transform="translate(57.456941, 32.341117)" fill="#B28B67">
                                    <path d="M40.5851797,9.52908363 C46.7509593,20.7974818 46.0183044,49.3807082 38.0495837,51.3946852 C34.8716332,52.1978655 28.1016137,50.2303644 21.2113515,46.1582591 L25.5364181,76.1581141 L0,76.1581141 L8.79065488,35.9816017 C3.88805986,30.3389739 0.569945429,23.4239409 1.12442843,15.6754826 C2.72210792,-6.65081567 34.4194002,-1.73931451 40.5851797,9.52908363 Z"></path>
                                </g>
                                <path d="M101.514304,40.5846601 C102.339107,39.7832433 102.789017,38.6393558 103.178208,37.5531869 C103.582383,36.424871 103.975099,35.2849282 104.243439,34.1105205 C104.77963,31.7639887 104.784722,29.0654357 103.077433,27.2433544 C101.708214,25.7822221 99.6537478,25.1268666 97.7576416,24.9844387 C96.4943869,24.8894521 95.1969531,25.0629194 93.9859954,25.4532467 C92.7845372,25.8404598 91.7488819,26.6121868 90.5841491,27.0911683 C90.5396869,24.5624491 90.0979053,21.916528 88.7895029,19.7573742 C87.5304594,17.6799191 85.5230998,16.5141276 83.2370192,16.2057067 C80.890611,15.8891886 78.5735831,16.4275497 76.4729901,17.5413322 C75.9470828,17.8202709 75.4260723,18.1124973 74.9274887,18.4432375 C74.5099947,18.7202038 74.0759499,19.0537468 73.5860824,19.1663812 C73.0400007,19.2920957 72.7693103,18.9828443 72.4143963,18.5922055 C71.9982735,18.1341937 71.5294619,17.7307863 71.0333267,17.3731592 C68.8395981,15.7921258 65.9613087,15.1420647 63.4198154,16.0897504 C62.2488148,16.5263773 61.1101326,17.2678954 60.3156895,18.2897018 C59.6075265,19.2005348 59.1023813,20.6453689 58.1249969,21.2799622 C57.7102451,21.5493504 57.4173235,21.19245 57.0396888,20.9286676 C56.4724533,20.5323193 55.9314642,20.0949658 55.3573732,19.7094137 C54.5509821,19.1677307 53.6778977,18.7625585 52.7429188,18.5504737 C51.3741889,18.2399766 49.4826856,18.3127477 49.0913401,20.0704665 C48.9444387,20.7307011 49.0570631,21.4368199 49.1045613,22.1020373 C49.1696876,23.0154656 49.237654,23.9285824 49.3185477,24.8406612 C49.3799525,25.5331808 49.4576144,26.2020316 49.590903,26.882094 C49.6620033,27.2446001 49.8845101,27.9204062 49.7259545,28.2834314 C49.5278333,28.737187 48.6134207,28.479218 48.2227607,28.4949972 C47.4511363,28.5262441 46.67628,28.6589139 45.9628285,28.9821797 C45.4098914,29.2327781 44.8285534,29.6013053 44.5951759,30.2227147 C44.4517021,30.6044258 44.4895048,30.9965179 44.5572753,31.3892329 C44.6385608,31.8605324 44.5456211,32.110508 44.4849019,32.5860638 C43.448561,32.0856973 39.8573098,30.9739911 39.4054409,32.7950342 C39.2550138,33.4013912 39.597588,34.0865402 39.8589747,34.5979106 C40.3174052,35.494833 40.918428,36.3146242 41.5328679,37.0964209 C42.8145342,38.7273871 44.3446599,40.1341227 45.9909357,41.3371822 C44.0621194,42.1779431 43.5586391,44.6578713 45.228615,46.1354056 C45.9659624,46.7877506 46.9573515,46.9329814 47.8874336,46.8912496 C48.2278533,46.8759895 48.7186021,46.7476798 48.9864525,46.8058136 C49.1306118,46.8370606 49.2849563,46.9568579 49.4846443,46.9702494 C50.7972579,47.0583845 52.279004,46.7483026 53.5621394,46.46272 C55.8485138,45.9538411 58.0130579,44.8917563 59.7806743,43.2741816 C60.2341102,42.8592512 60.6087089,42.6203833 61.2190356,42.6265081 C61.7538548,42.6318025 62.2785869,42.77558 62.8129165,42.7888677 C64.2266962,42.8242671 65.5014092,42.1465923 66.8142186,41.6955359 C66.8946227,43.434465 67.3996699,45.3496642 68.1251673,46.9140879 C68.7167885,48.1898147 69.9522298,48.3752202 71.1662236,48.4871279 C75.0483397,48.845274 78.9441666,48.4456037 82.8311794,48.4508981 C79.0684452,49.2848075 75.1802572,49.628524 71.4509186,50.6098443 C69.7651753,51.0533226 71.0524239,52.1673127 71.7732204,52.9395588 C72.9600863,54.2112369 73.8425724,55.7868722 74.4546619,57.4468015 C76.2953372,55.0942488 79.548813,53.5441509 82.4312156,54.2668794 C85.6160394,55.0652856 87.8586372,59.2881915 85.8220932,62.3241286 C84.6397323,64.0865188 82.5045684,64.7668926 80.7279421,65.5240862 C82.1139085,66.9369466 82.4491376,69.0236407 83.2833421,70.7813595 C83.6947641,71.6481769 84.2722828,72.6282515 85.1923756,72.93034 C85.5327953,73.0421438 85.9319755,73.0516944 86.2005114,73.3237816 C86.5331943,73.6606466 86.6124231,74.0372709 87.0372622,74.3267983 C88.7325051,75.4824164 91.3805509,75.393347 92.8831571,73.8852924 C94.2419956,72.5214305 93.8884528,70.363211 92.75359,68.9804556 C94.5600863,68.2421556 97.8512668,67.2926012 97.1333103,64.5331115 C101.047745,64.2782568 110.551878,58.0535737 105.298094,53.5050144 C108.181378,51.9072675 110.830305,48.0025407 108.978269,44.5604971 C107.55215,41.9100083 104.235507,40.7252195 101.514304,40.5846601" id="hair" fill="#191847" transform="translate(74.481219, 45.381890) scale(-1, 1) translate(-74.481219, -45.381890) "></path>
                            </g>
                            <path d="M85.1032502,129.40775 C96.4876548,131.08766 112.023993,131.08523 129.822741,123.371202 L133.928122,138.55413 C121.018467,147.868617 103.892085,154.489016 90.2390185,151.931383 C79.4796493,149.915827 76.028707,135.955153 85.1032502,129.40775 Z" id="Sleeve" fill="#04122F" transform="translate(106.909688, 137.928057) rotate(-9.000000) translate(-106.909688, -137.928057) "></path>
                            <path d="M84.8051871,96.4799954 C86.2542075,115.115256 93.547496,135.652916 99.5329498,155.942634 C111.747206,158.993042 132.23351,155.396738 160.990188,145.153624 C168.122687,159.924427 171.419862,170.454876 170.881714,176.744972 C146.211209,189.644937 125.066844,195.395588 107.647211,195.774091 C108.206893,206.116746 106.949152,215.962915 102.722405,224.959555 C94.0343399,243.452122 43.1608902,226.325943 26.0556774,229.696794 C15.3438902,194.873689 36.0554549,180.72172 36.0721197,158.439868 C36.0903695,134.038866 55.6634025,96.4799954 58.5431823,96.4799954 L58.5431823,96.4799954 Z" id="Clothes" fill="#002060"></path>
                        </g>
                    </g>
                </g>
            </g>
        </g>
    </g>
</svg>