<?xml version="1.0" encoding="UTF-8"?>
<svg width="420px" height="390px" viewBox="0 0 420 390" version="1.1" xmlns="http://www.w3.org/2000/svg" xmlns:xlink="http://www.w3.org/1999/xlink">
    <!-- Generator: Sketch 58 (84663) - https://sketch.com -->
    <title>Group 14</title>
    <desc>Created with Sketch.</desc>
    <g id="Page-1" stroke="none" stroke-width="1" fill="none" fill-rule="evenodd">
        <g id="iBridge" transform="translate(-374.000000, -1023.000000)">
            <g id="Group-14" transform="translate(369.000000, 1018.000000)">
                <g id="Group-9">
                    <rect id="Rectangle" fill="#5FC9D7" transform="translate(34.301750, 35.024801) rotate(45.000000) translate(-34.301750, -35.024801) " x="-1.60825004" y="22.4248009" width="71.82" height="25.2" rx="12.6"></rect>
                    <rect id="Rectangle-Copy-14" fill="#F7C407" transform="translate(40.487102, 80.913267) rotate(45.000000) translate(-40.487102, -80.913267) " x="4.57710223" y="73.6682668" width="71.82" height="14.49" rx="7.245"></rect>
                    <circle id="Oval" fill="#5FC9D7" cx="399.1" cy="290.603051" r="25.83"></circle>
                    <polygon id="Polygon" fill="#F7C407" points="45.99 301.413051 61.11 316.533051 45.99 331.653051 30.87 316.533051"></polygon>
                    <polygon id="Polygon" fill="#F7C407" points="185.86 13.3130509 193.42 20.8730509 185.86 28.4330509 178.3 20.8730509"></polygon>
                    <g id="Group-11" transform="translate(277.000000, 51.000000)">
                        <rect id="Rectangle" fill="#002060" x="0" y="0.723050896" width="16.8" height="4.8" rx="2.4"></rect>
                        <rect id="Rectangle-Copy-37" fill="#A2A8B8" x="19.2" y="0.723050896" width="9.6" height="4.8" rx="2.4"></rect>
                        <rect id="Rectangle-Copy-38" fill="#A2A8B8" x="31.2" y="0.723050896" width="9.6" height="4.8" rx="2.4"></rect>
                        <rect id="Rectangle-Copy-39" fill="#A2A8B8" x="43.2" y="0.723050896" width="9.6" height="4.8" rx="2.4"></rect>
                        <rect id="Rectangle-Copy-40" fill="#A2A8B8" x="55.2" y="0.723050896" width="9.6" height="4.8" rx="2.4"></rect>
                    </g>
                </g>
                <g id="Visual-data-pana" transform="translate(74.000000, 66.000000)">
                    <g id="freepik--background-complete--inject-7" transform="translate(0.000000, 1.000000)" fill-rule="nonzero">
                        <path d="M62.895,240.338 C61.495,238.868 59.43,238.308 57.526,237.608 C49.0052468,234.468435 42.4601906,227.499972 39.8602057,218.799387 C37.2602207,210.098802 38.9088392,200.681833 44.31,193.382 L44.023,191.905 C43.372,185.003 35.042,180.061 28.672,182.805 C22.302,185.549 20.146,194.964 24.696,200.2 C17.227,200.816 12.285,209.3 13.342,216.755 C14.399,224.21 19.824,230.265 25.872,234.696 C35.88389,241.994344 47.9297684,245.974551 60.319,246.078 C61.1602961,246.150257 62.0057051,245.998083 62.769,245.637 C64.519,244.608 64.295,241.815 62.895,240.338 Z" id="Path" fill="#E0E0E0"></path>
                        <path d="M271.04,210.147 C272.755,207.347 273,203.602 271.257,200.83 C269.514,198.058 265.692,196.665 262.717,198.03 C264.543682,195.099577 263.648923,191.243182 260.7185,189.4165 C257.788077,187.589819 253.931682,188.484577 252.105,191.415 C250.117,194.488 251.167,198.611 252.875,201.852 C254.583,205.093 256.928,208.152 257.488,211.743 C258.048,215.334 256.648,219.219 254.436,222.243 C252.224,225.267 249.277,227.633 246.358,229.943 L245.805,230.475 C251.130612,232.286092 256.971931,231.778151 261.905,229.075 C264.649,227.556 267.19,225.043 267.372,221.914 C267.47,220.164 266.819,218.414 267.085,216.678 C267.442,214.2 269.682,212.352 271.04,210.147 Z" id="Path" fill="#E0E0E0"></path>
                        <path d="M120.505,324.583 C117.782,324.247 115.052,323.057 113.449,320.831 C112.427,319.431 111.93,317.667 111.041,316.155 C110.152,314.643 108.605,313.278 106.841,313.446 C104.139,313.712 102.312,317.45 99.673,316.792 C98.091,316.393 97.335,314.531 97.328,312.9 C97.321,311.269 97.79,309.638 97.587,308 C97.02,303.443 91.168,301.203 86.8,302.631 C82.432,304.059 75.81,309.316 72.961,312.921 C75.957,317.898 82.096,319.83 87.724,321.244 C97.174,323.61 106.705667,325.619 116.319,327.271 C118.573,327.656 120.876,328.027 123.13,327.67 C125.384,327.313 127.631,326.116 128.674,324.086 C126,324.513 123.2,324.926 120.505,324.583 Z" id="Path" fill="#E0E0E0"></path>
                        <path d="M228.9,289.485 C228.2,285.593 224.322,282.163 220.5,283.059 C223.692,280.427 223.713,275.135 221.2,271.859 C218.687,268.583 214.284,267.162 210.147,267.288 C206.01,267.414 202.041,268.863 198.205,270.403 C200.088,268.009 197.33,264.271 194.292,264.103 C191.254,263.935 188.531,265.832 186.06,267.603 C183.589,269.374 180.747,271.215 177.737,270.746 L180.537,271.88 C187.292,272.902 194.103,274.477 199.948,278.005 C205.793,281.533 210.616,287.287 211.624,294.042 C212.632,300.797 209.076,308.357 202.671,310.723 C211.465018,311.183874 219.936911,307.35365 225.4,300.447 C227.808,297.325 229.6,293.37 228.9,289.485 Z" id="Path" fill="#E0E0E0"></path>
                        <path d="M6.951,188.545 C6.77078309,186.377653 6.71002448,184.202027 6.769,182.028 C6.70993728,179.851641 6.77069582,177.673681 6.951,175.504 C7.13551677,177.673445 7.1962819,179.851642 7.133,182.028 C7.19618264,184.202027 7.13541746,186.377888 6.951,188.545 L6.951,188.545 Z" id="Path" fill="#E0E0E0"></path>
                        <path d="M13.692,182 C11.4498248,182.180302 9.19963763,182.241055 6.951,182.182 C4.70469404,182.240952 2.45684241,182.180199 0.217,182 C2.45661372,181.815579 4.70469437,181.75482 6.951,181.818 C9.19963721,181.754733 11.4500524,181.815492 13.692,182 L13.692,182 Z" id="Path" fill="#E0E0E0"></path>
                        <path d="M266.994,255.563 C266.809583,253.395888 266.748817,251.220027 266.812,249.046 C266.748718,246.869642 266.809483,244.691445 266.994,242.522 C267.174304,244.691681 267.235063,246.869641 267.176,249.046 C267.234976,251.220027 267.174217,253.395653 266.994,255.563 Z" id="Path" fill="#E0E0E0"></path>
                        <path d="M273.735,249.039 C271.493296,249.227905 269.242766,249.291004 266.994,249.228 C264.745234,249.291254 262.494689,249.228154 260.253,249.039 C262.495175,248.858698 264.745362,248.797945 266.994,248.857 C269.242638,248.798157 271.492813,248.858909 273.735,249.039 L273.735,249.039 Z" id="Path" fill="#E0E0E0"></path>
                        <path d="M227.437,31.815 C227.252483,29.6455545 227.191718,27.4673583 227.255,25.291 C227.191817,23.1169731 227.252583,20.9411122 227.437,18.774 C227.617217,20.9413473 227.677976,23.1169728 227.619,25.291 C227.678063,27.4673588 227.617304,29.6453188 227.437,31.815 Z" id="Path" fill="#E0E0E0"></path>
                        <path d="M234.178,25.291 C231.936052,25.4755079 229.685637,25.5362668 227.437,25.473 C225.188363,25.5362668 222.937948,25.4755079 220.696,25.291 C222.938175,25.1106976 225.188362,25.0499449 227.437,25.109 C229.685638,25.0499449 231.935825,25.1106976 234.178,25.291 L234.178,25.291 Z" id="Path" fill="#E0E0E0"></path>
                        <circle id="Oval" fill="#E0E0E0" cx="14.455" cy="127.295" r="3.983"></circle>
                        <path d="M173.432006,296.968 C173.434832,298.582438 172.464498,300.039484 170.973763,300.659266 C169.483029,301.279049 167.765712,300.939411 166.623128,299.798832 C165.480544,298.658253 165.137892,296.941535 165.755056,295.449714 C166.372219,293.957894 167.827559,292.984994 169.442,292.984994 C170.49957,292.983141 171.51446,293.401957 172.262933,294.149116 C173.011405,294.896275 173.432006,295.910429 173.432006,296.968 L173.432006,296.968 Z" id="Path" fill="#E0E0E0"></path>
                        <path d="M210.504006,221.676 C210.507832,223.873917 208.730548,225.659509 206.532638,225.665945 C204.334727,225.672346 202.547045,223.897165 202.538005,221.699264 C202.529034,219.501362 204.302111,217.711592 206.5,217.699945 C207.558779,217.694416 208.57621,218.110625 209.327513,218.856674 C210.078816,219.602722 210.502154,220.617208 210.504006,221.676 L210.504006,221.676 Z" id="Path" fill="#E0E0E0"></path>
                        <path d="M92.127,23.282 C92.127,25.4817502 90.3437502,27.265 88.144,27.265 C85.9442498,27.265 84.161,25.4817502 84.161,23.282 C84.161,21.0822498 85.9442498,19.299 88.144,19.299 C90.3437502,19.299 92.127,21.0822498 92.127,23.282 L92.127,23.282 Z" id="Path" fill="#E0E0E0"></path>
                        <circle id="Oval" fill="#E0E0E0" cx="109.011" cy="258.979" r="1.995"></circle>
                        <path d="M62.9370124,249.039 C62.9398335,249.846533 62.4555679,250.576128 61.7103163,250.887123 C60.9650647,251.198118 60.105834,251.029166 59.5338157,250.459155 C58.9617973,249.889144 58.7898267,249.030512 59.0982001,248.284172 C59.4065736,247.537832 60.1344619,247.050988 60.942,247.050988 C61.4704622,247.049139 61.9779179,247.257767 62.3522556,247.630791 C62.7265933,248.003815 62.9370124,248.510535 62.9370124,249.039 Z" id="Path" fill="#E0E0E0"></path>
                        <path d="M112.049,27.3 C112.049,28.4018081 111.155808,29.295 110.054,29.295 C108.952192,29.295 108.059,28.4018081 108.059,27.3 C108.059,26.1981919 108.952192,25.305 110.054,25.305 C111.154213,25.3088402 112.04516,26.1997865 112.049,27.3 L112.049,27.3 Z" id="Path" fill="#E0E0E0"></path>
                        <path d="M199.801,135.058 C199.801,136.159808 198.907808,137.053 197.806,137.053 C196.704192,137.053 195.811,136.159808 195.811,135.058 C195.811,133.956192 196.704192,133.063 197.806,133.063 C198.907808,133.063 199.801,133.956192 199.801,135.058 L199.801,135.058 Z" id="Path" fill="#E0E0E0"></path>
                        <path d="M8.491,21.35 C8.491,21.35 4.053,23.639 10.269,32.935 C16.485,42.231 20.559,46.711 20.559,46.711 C20.559,46.711 21.728,48.902 19.859,49.511 C17.99,50.12 13.636,49.924 13.055,52.388 C12.474,54.852 14.504,57.05 18.361,58.688 C22.218,60.326 30.492,64.05 31.248,64.4 C32.004,64.75 32.795,65.723 31.57,66.332 C30.345,66.941 20.895,69.069 22.176,73.5 C23.457,77.931 34.923,80.626 36.176,80.948 C37.429,81.27 37.772,81.739 37.751,82.404 C37.73,83.069 34.482,83.489 31.822,84.203 C29.162,84.917 26.222,86.219 27.146,88.711 C28.07,91.203 35.245,95.823 51.24,95.501 L58.639,94.871 L61.915,88.165 C68.054,73.395 66.36,65.065 64.386,63.252 C62.412,61.439 60.123,63.742 58.485,65.961 C56.847,68.18 55.272,71.05 54.642,70.861 C54.012,70.672 53.704,70.161 53.865,68.859 C54.026,67.557 55.692,55.923 52.038,53.116 C48.384,50.309 42.938,58.331 41.937,59.255 C40.936,60.179 40.306,59.052 40.257,58.24 C40.208,57.428 39.676,48.244 39.592,44.1 C39.508,39.956 38.297,37.219 35.7,36.848 C33.103,36.477 31.766,40.6 30.534,42.133 C29.302,43.666 27.685,41.797 27.685,41.797 C27.685,41.797 24.997,36.365 18.585,27.188 C12.173,18.011 8.4,21.406 8.4,21.406" id="Path" fill="#EBEBEB"></path>
                        <path d="M59.22,96.551 C54.558,89.796 46.48,77.651 39.48,67.242 C32.48,56.833 26.18,47.446 21.525,40.642 L16.037,32.634 C15.393,31.696 14.896,30.961 14.546,30.457 C14.385,30.205 14.252,30.016 14.161,29.883 C14.07,29.75 14.042,29.68 14.042,29.68 L14.182,29.869 L14.588,30.429 L16.1,32.585 C17.423,34.461 19.313,37.191 21.644,40.572 C26.32,47.327 32.683,56.7 39.676,67.116 C46.669,77.532 54.733,89.677 59.36,96.46" id="Path" fill="#E0E0E0"></path>
                        <path d="M19.082,52.85 C19.2619345,52.85784 19.4404036,52.8860193 19.614,52.934 C19.95,52.997 20.44,53.109 21.014,53.256 C22.211,53.536 23.863,53.956 25.669,54.488 L30.303,55.825 L31.703,56.224 C31.8806893,56.254481 32.0528886,56.3110945 32.214,56.392 C32.0341584,56.3832472 31.8557894,56.3550837 31.682,56.308 C31.346,56.245 30.856,56.133 30.282,55.986 C29.085,55.685 27.44,55.23 25.627,54.712 L21,53.41 L19.6,53.018 C19.4218277,52.980665 19.2481695,52.9243435 19.082,52.85 L19.082,52.85 Z" id="Path" fill="#E0E0E0"></path>
                        <path d="M32.69,55.8600431 C32.634,55.8600431 33.39,52.409 34.37,48.16 C35.35,43.911 36.218,40.516 36.274,40.5299569 C36.33,40.544 35.574,43.988 34.594,48.23 C33.614,52.472 32.753,55.874 32.69,55.8600431 Z" id="Path" fill="#E0E0E0"></path>
                        <path d="M42.7,72.31 C42.7599202,72.1366693 42.8422875,71.9719345 42.945,71.82 L43.645,70.518 C44.261,69.419 45.108,67.9 45.983,66.192 C46.858,64.484 47.593,62.909 48.083,61.768 L48.706,60.41 C48.771941,60.240204 48.8564545,60.0782197 48.958,59.927 C48.9231404,60.1058217 48.8667288,60.2797575 48.79,60.445 C48.664,60.781 48.475,61.25 48.23,61.845 C47.747,63.007 47.026,64.596 46.13,66.311 C45.234,68.026 44.387,69.538 43.736,70.616 C43.407,71.155 43.134,71.582 42.938,71.876 C42.8716341,72.0274089 42.7919897,72.1726429 42.7,72.31 L42.7,72.31 Z" id="Path" fill="#E0E0E0"></path>
                        <path d="M29.806,72.296 C29.9712367,72.2583253 30.1406007,72.2418594 30.31,72.247 L31.71,72.191 C32.879,72.191 34.51,72.128 36.26,72.107 C38.01,72.086 39.641,72.107 40.803,72.107 L42.203,72.107 C42.3704407,72.087613 42.5395593,72.087613 42.707,72.107 C42.5415914,72.1436027 42.3723615,72.1600557 42.203,72.156 L40.803,72.212 C39.634,72.247 38.003,72.282 36.253,72.303 C34.503,72.324 32.872,72.303 31.71,72.303 L30.31,72.303 C30.1422217,72.3184084 29.9732856,72.316062 29.806,72.296 L29.806,72.296 Z" id="Path" fill="#E0E0E0"></path>
                        <path d="M36.806,87.941 C37.0184795,87.902507 37.2340655,87.8837604 37.45,87.885 L39.214,87.808 C40.705,87.752 42.763,87.696 45.038,87.647 C47.313,87.598 49.371,87.57 50.862,87.556 L52.633,87.556 C52.8473626,87.5398421 53.0626374,87.5398421 53.277,87.556 C53.0658708,87.604208 52.8494691,87.6253777 52.633,87.619 L50.869,87.689 C49.378,87.745 47.32,87.801 45.045,87.85 C42.77,87.899 40.712,87.934 39.214,87.941 L37.45,87.941 C37.235755,87.960027 37.020245,87.960027 36.806,87.941 Z" id="Path" fill="#E0E0E0"></path>
                        <path d="M52.885,87.5 C52.9646139,87.2819002 53.0629821,87.0711113 53.179,86.87 L54.047,85.19 C54.782,83.79 55.783,81.809 56.847,79.59 C57.911,77.371 58.793,75.39 59.43,73.92 L60.193,72.184 C60.276511,71.9686179 60.3771673,71.7602829 60.494,71.561 C60.44045,71.7860881 60.3678551,72.0062146 60.277,72.219 C60.116,72.639 59.885,73.241 59.577,73.983 C58.975,75.46 58.1,77.483 57.043,79.695 C55.986,81.907 54.943,83.853 54.201,85.253 C53.809,85.953 53.501,86.513 53.263,86.898 C53.1553913,87.1096435 53.0288768,87.3111295 52.885,87.5 Z" id="Path" fill="#E0E0E0"></path>
                        <path d="M248.85,154.7 C240.961,147.819 240.212,136.549 241.626,126.637 C241.857,124.978 241.864,123.207 242.816,121.835 C243.768,120.463 245.714,119.665 247.121,120.526 C248.29,121.226 248.675,122.731 249.221,124.026 C249.975638,125.706556 251.188685,127.140377 252.721,128.163 C253.722,128.828 254.996,129.304 256.102,128.863 C257.621,128.233 257.999,126.273 258.167,124.614 C258.484333,121.534 258.797,118.454 259.105,115.374 C259.183694,113.71203 259.531199,112.073796 260.134,110.523 C260.750799,108.960769 262.091309,107.797949 263.725,107.408 C265.342,107.135 267.19,108.255 267.344,109.907 C267.334388,110.596274 267.275908,111.283999 267.169,111.965 C267.071214,112.662338 267.402625,113.350017 268.009,113.708 C268.695873,113.869998 269.417223,113.657053 269.906,113.148 C271.726523,111.567863 273.275432,109.699713 274.491,107.618 C275.707013,105.540724 277.163738,103.614088 278.831,101.878 C280.574,100.226 282.87,99.015 285.25,99.134 C287.63,99.253 289.989,100.989 290.339,103.334 C290.689,105.679 289.072,107.947 287.392,109.669 C284.899267,112.229455 282.048645,114.415168 278.929,116.158 C278.331796,116.412505 277.829773,116.848408 277.494,117.404 C277.018,118.468 277.942,119.672 278.992,120.148 C280.175,120.694 281.526,120.708 282.8,121.002 C284.074,121.296 285.404,122.01 285.761,123.277 C286.258,125.041 284.655,126.658 283.136,127.666 C280.104345,129.688917 276.746441,131.173688 273.21,132.055 C271.922096,132.267772 270.68382,132.713741 269.556,133.371 C268.485,134.113 267.729,135.534 268.198,136.766 C268.667,137.998 270.144,138.53 271.446,138.432 C272.729116,138.206148 273.991158,137.873662 275.219,137.438 C277.578,136.822 280.49,137.298 281.736,139.412 C282.485201,140.878541 282.505918,142.610963 281.792,144.095 C281.076189,145.549985 280.076581,146.847095 278.852,147.91 C274.786169,151.83826 269.753093,154.62046 264.264,155.974 C258.804,157.234 253.869,157.199 248.864,154.721" id="Path" fill="#F5F5F5"></path>
                        <path d="M252.091,148.729 C254.330417,143.486003 256.870987,138.376817 259.7,133.427 L261.898,129.521 C262.598,128.24 263.34,126.973 264.117,125.769 C265.627876,123.469144 267.263662,121.253822 269.017,119.133 C270.669,117.103 272.307,115.227 273.854,113.491 C275.401,111.755 276.885,110.166 278.292,108.773 C280.501956,106.564074 282.882303,104.53247 285.411,102.697 C286.307,102.053 287.021,101.57 287.511,101.255 L288.064,100.891 L288.26,100.779 C288.20761,100.832646 288.148838,100.879664 288.085,100.919 L287.546,101.304 C287.07,101.64 286.37,102.137 285.488,102.795 C282.992326,104.66213 280.638539,106.71175 278.446,108.927 C277.046,110.327 275.59,111.923 274.05,113.659 C272.51,115.395 270.879,117.278 269.241,119.315 C267.508304,121.431847 265.893524,123.642529 264.404,125.937 C263.634,127.127 262.92,128.387 262.199,129.675 L260.001,133.581 C257.18861,138.523049 254.653034,143.61757 252.406,148.841" id="Path" fill="#E0E0E0"></path>
                        <path d="M264.187,125.769 C264.135128,125.539155 264.106981,125.304592 264.103,125.069 C264.061,124.6 264.033,123.928 264.005,123.088 C263.949,121.422 263.949,119.112 263.956,116.571 C263.963,114.03 263.956,111.72 263.858,110.054 C263.816,109.221 263.781,108.549 263.746,108.087 C263.721881,107.85429 263.721881,107.61971 263.746,107.387 C263.816665,107.614552 263.861284,107.849387 263.879,108.087 C263.949,108.549 264.019,109.221 264.082,110.054 C264.222,111.72 264.292,114.03 264.278,116.585 C264.264,119.14 264.278,121.366 264.236,123.102 L264.236,125.076 C264.241215,125.30802 264.224811,125.540022 264.187,125.769 L264.187,125.769 Z" id="Path" fill="#E0E0E0"></path>
                        <path d="M285.845,124.089 C285.56091,124.114626 285.27509,124.114626 284.991,124.089 C284.438,124.089 283.64,124.089 282.66,124.089 C280.693,124.089 277.977,124.187 274.96,124.425 C271.943,124.663 269.262,124.999 267.316,125.3 C266.343,125.44 265.559,125.58 265.013,125.671 C264.734711,125.734297 264.451176,125.771789 264.166,125.783 C264.432505,125.677348 264.709351,125.599924 264.992,125.552 C265.531,125.426 266.315,125.251 267.288,125.083 C269.227,124.726 271.936,124.383 274.939,124.117 C277.499784,123.903634 280.069832,123.82186 282.639,123.872 C283.626,123.872 284.424,123.942 284.977,123.991 C285.268953,123.993408 285.559859,124.026253 285.845,124.089 L285.845,124.089 Z" id="Path" fill="#E0E0E0"></path>
                        <path d="M252.392,148.4 C252.341622,148.314054 252.301673,148.222407 252.273,148.127 C252.203,147.91 252.105,147.644 251.993,147.322 C251.755,146.622 251.433,145.593 251.055,144.319 C250.292,141.778 249.347,138.236 248.36,134.309 C247.373,130.382 246.463,126.826 245.756,124.271 C245.413,123.032 245.126,122.01 244.909,121.247 C244.818,120.918 244.748,120.645 244.685,120.421 C244.653507,120.325546 244.632385,120.226977 244.622,120.127 C244.676639,120.213236 244.716835,120.307813 244.741,120.407 L245.021,121.212 C245.266,121.912 245.588,122.941 245.966,124.208 C246.729,126.756 247.667,130.298 248.654,134.225 C249.641,138.152 250.551,141.701 251.258,144.263 C251.608,145.502 251.895,146.524 252.105,147.287 L252.336,148.106 C252.371687,148.199979 252.39064,148.299482 252.392,148.4 L252.392,148.4 Z" id="Path" fill="#E0E0E0"></path>
                        <path d="M281.589,142.317 C281.493616,142.353457 281.395247,142.381562 281.295,142.401 L280.448,142.583 L277.319,143.241 C274.68,143.794 271.019,144.599 267.022,145.488 C263.025,146.377 259.357,147.161 256.704,147.658 C255.374,147.903 254.303,148.099 253.554,148.211 L252.693,148.344 C252.593528,148.362596 252.491472,148.362596 252.392,148.344 L252.686,148.26 L253.533,148.078 L256.662,147.42 C259.301,146.867 262.962,146.062 266.959,145.166 C270.956,144.27 274.624,143.5 277.277,143.003 C278.607,142.751 279.678,142.562 280.427,142.45 L281.288,142.317 C281.387472,142.298404 281.489528,142.298404 281.589,142.317 Z" id="Path" fill="#E0E0E0"></path>
                        <path d="M188.041,36.4 C189.308,29.106 192.787,18.445 196.952,12.327 C201.117,6.209 207.536,1.4 214.9,0.35 C222.264,-0.7 230.3,2.8 233.59,9.401 C235.361,12.95 235.69,17.038 236.978,20.783 C238.266,24.528 241.094,28.287 245.049,28.588 C248.549,28.861 251.93,26.334 255.374,27.006 C259.868,27.881 261.597,33.411 261.625,37.982 C261.653,42.553 260.995,47.635 263.809,51.24 C266.105,54.194 270.046,55.209 273.217,57.19 C280.084,61.474 283.017,70.315 282.317,78.379 C281.617,86.443 277.907,93.905 273.966,100.968 C270.685161,89.3723775 266.228709,78.1421188 260.666,67.452 C257.481,61.348 251.664,56.161 246.519,51.59 C238.616,44.59 221.277,41.223 210.784,39.935 C200.291,38.647 198.443,38.367 188.062,36.435" id="Path" fill="#E0E0E0"></path>
                    </g>
                    <g id="freepik--back-screens--inject-7" transform="translate(42.700000, 44.400000)" fill-rule="nonzero">
                        <path d="M75.397,1.61 C49.448,3.493 21.112,6.93 0.336,14.91 L6.902,59.311 C6.902,59.311 47.166,44.898 79.933,45.899 L75.397,1.61 Z" id="Path" fill="#D3D7E1"></path>
                        <g id="Group" opacity="0.8" transform="translate(0.000000, 1.400000)" fill="#FFFFFF">
                            <path d="M75.397,0.21 C49.448,2.093 21.112,5.53 0.336,13.51 L6.902,57.911 C6.902,57.911 47.166,43.498 79.933,44.499 L75.397,0.21 Z" id="Path"></path>
                        </g>
                        <path d="M73.5,40.04 L73.248,40.082 L72.513,40.187 L69.713,40.537 C68.481,40.684 66.976,40.866 65.233,41.118 C63.49,41.37 61.502,41.622 59.318,41.986 C50.561,43.337 38.507,45.57 25.417,48.986 C20.867,50.162 16.478,51.373 12.467,52.633 L12.264,52.689 L12.264,52.486 C10.864,42.308 9.506,33.53 8.463,27.286 C7.931,24.192 7.504,21.686 7.21,19.999 C7.063,19.166 6.951,18.515 6.867,18.053 C6.867,17.843 6.811,17.675 6.79,17.549 C6.7808291,17.4910271 6.7808291,17.4319729 6.79,17.374 C6.81329659,17.4277298 6.82975853,17.4841708 6.839,17.542 C6.839,17.668 6.902,17.836 6.951,18.039 C7.042,18.501 7.175,19.145 7.35,19.978 C7.686,21.665 8.155,24.136 8.701,27.244 C9.807,33.46 11.207,42.238 12.635,52.444 L12.404,52.304 C16.429,51.03 20.804,49.812 25.375,48.636 C36.5637603,45.7529319 47.89598,43.4584495 59.325,41.762 C61.516,41.419 63.525,41.188 65.254,40.957 C66.983,40.726 68.509,40.558 69.741,40.432 L72.583,40.145 L73.325,40.082 C73.3819105,40.0626237 73.4404944,40.0485636 73.5,40.04 L73.5,40.04 Z" id="Path" fill="#D3D7E1"></path>
                        <path d="M74.41,29.246 C74.41,29.246 74.312,28.938 74.109,28.357 C73.7747102,27.5341755 73.3244876,26.7633756 72.772,26.068 C71.8981657,24.9631247 70.8308268,24.0262383 69.622,23.303 C69.286,23.079 68.887,22.911 68.502,22.708 C68.0903397,22.528113 67.6670521,22.3761036 67.235,22.253 C66.3019311,21.9564995 65.3166263,21.8610704 64.344,21.973 C63.2786631,22.089447 62.2637235,22.4881733 61.404,23.128 C60.4764428,23.835378 59.6803469,24.7001846 59.052,25.683 C57.652,27.706 56.805,30.17 55.755,32.725 C55.2423257,34.0755794 54.4029811,35.2780788 53.312,36.225 C52.7287079,36.7119509 52.0335398,37.0463051 51.289,37.198 C50.5185146,37.3281172 49.7269011,37.2358433 49.007,36.932 C46.053,35.763 44.737,32.354 41.748,31.332 C40.2805402,30.8664684 38.6888138,30.9972263 37.317,31.696 C36.6475492,32.0284337 36.0504327,32.48995 35.56,33.054 C35.0955512,33.6295088 34.7029893,34.2594884 34.391,34.93 C33.726,36.246 33.222,37.73 32.095,38.745 C31.5415545,39.2609678 30.8324625,39.5785819 30.079,39.648 C29.3513469,39.6915846 28.625517,39.5367409 27.979,39.2 C26.7725712,38.5306325 25.7708412,37.5458399 25.081,36.351 C24.4821597,35.2248112 23.9696869,34.054782 23.548,32.851 C23.155342,31.7476569 22.6461288,30.6893383 22.029,29.694 C21.4527088,28.7898821 20.6552103,28.0477989 19.712,27.538 C18.0588832,26.6629942 16.0929645,26.6060861 14.392,27.384 C13.0898543,27.9201506 11.9317797,28.7545397 11.011,29.82 C10.4359477,30.4984463 10.0048787,31.2867548 9.744,32.137 C9.562,32.718 9.541,33.047 9.513,33.04 C9.52989246,32.7267118 9.58393772,32.4165389 9.674,32.116 C9.90620606,31.2416059 10.3240126,30.42748 10.899,29.729 C11.819529,28.6272414 12.9876827,27.7589218 14.308,27.195 C16.0664562,26.3694791 18.109733,26.4135041 19.831,27.314 C20.8199751,27.8355063 21.6586893,28.6019176 22.267,29.54 C22.9009095,30.5495336 23.42426,31.624397 23.828,32.746 C24.2529572,33.9281391 24.7653747,35.0769838 25.361,36.183 C26.0279024,37.3277414 26.9964823,38.267264 28.161,38.899 C28.7534035,39.2085139 29.4187676,39.3512647 30.086,39.312 C30.7644614,39.242562 31.401385,38.9523805 31.899,38.486 C32.935,37.541 33.439,36.113 34.104,34.776 C34.4280949,34.0751946 34.8371668,33.416918 35.322,32.816 C35.8434742,32.2164275 36.4787427,31.7262953 37.191,31.374 C38.6491609,30.6295881 40.3423224,30.4912168 41.902,30.989 C43.491,31.514 44.632,32.739 45.689,33.845 C46.6425478,35.0173429 47.8359355,35.9720531 49.189,36.645 C49.8511442,36.9258959 50.5799765,37.0109263 51.289,36.89 C51.9757646,36.7482729 52.6174214,36.4406621 53.158,35.994 C54.2037199,35.082064 55.0110783,33.9286948 55.51,32.634 C56.553,30.107 57.47,27.608 58.87,25.557 C59.5166867,24.5439587 60.3420982,23.6568785 61.306,22.939 C62.2086293,22.2815689 63.2685321,21.8735426 64.379,21.756 C65.3840913,21.6508565 66.4000601,21.7581772 67.361,22.071 C67.8031813,22.2022644 68.2358592,22.3636415 68.656,22.554 C70.3382794,23.3723076 71.8072804,24.5705141 72.947,26.054 C73.4946944,26.7708309 73.9312608,27.5660898 74.242,28.413 C74.3156056,28.6427763 74.3763662,28.876471 74.424,29.113 C74.4213343,29.1575212 74.4166629,29.2018996 74.41,29.246 L74.41,29.246 Z" id="Path" fill="#D3D7E1"></path>
                        <path d="M5.635,23.415 C5.635,23.513 5.313,23.66 4.879,23.744 C4.445,23.828 4.074,23.814 4.06,23.744 C4.046,23.674 4.375,23.499 4.809,23.415 C5.243,23.331 5.6,23.317 5.635,23.415 Z" id="Path" fill="#D3D7E1"></path>
                        <path d="M6.783,31.5 C6.825,31.598 6.573,31.801 6.216,31.969 C5.859,32.137 5.516,32.193 5.516,32.102 C5.516,32.011 5.733,31.808 6.09,31.64 C6.447,31.472 6.741,31.43 6.783,31.5 Z" id="Path" fill="#D3D7E1"></path>
                        <path d="M8.218,40.383 C8.218,40.481 7.987,40.656 7.63,40.782 C7.273,40.908 6.93,40.929 6.93,40.838 C6.93,40.747 7.161,40.565 7.518,40.439 C7.875,40.313 8.183,40.292 8.218,40.383 Z" id="Path" fill="#D3D7E1"></path>
                        <path d="M9.94,49.091 C9.94,49.189 9.667,49.371 9.24,49.49 C8.813,49.609 8.498,49.644 8.47,49.546 C8.442,49.448 8.736,49.273 9.128,49.147 C9.52,49.021 9.905,49 9.94,49.091 Z" id="Path" fill="#D3D7E1"></path>
                        <path d="M58.877,7.252 C59.1504702,7.15299903 59.4348391,7.08719465 59.724,7.056 C60.284,6.965 61.124,6.839 62.139,6.692 C64.239,6.398 67.186,5.992 70.721,5.579 L70.889,5.579 L70.889,5.747 C71.162,8.729 71.484,12.159 71.82,15.799 L71.82,15.953 L71.82,16.128 L71.645,16.128 L60.046,17.528 L59.885,17.528 L59.885,17.374 C59.563,14.329 59.29,11.774 59.094,9.961 C59.01,9.107 58.947,8.428 58.891,7.91 C58.8630862,7.67771004 58.849,7.44396112 58.849,7.21 C58.9057494,7.45460134 58.9478244,7.70237669 58.975,7.952 C59.052,8.47 59.143,9.163 59.262,10.052 C59.493,11.858 59.808,14.364 60.193,17.374 L60.018,17.234 L71.617,15.757 L71.456,15.953 L71.456,15.806 C71.134,12.166 70.833,8.729 70.567,5.747 L70.749,5.894 L58.877,7.252 Z" id="Path" fill="#D3D7E1"></path>
                        <path d="M69.657,9.016 C69.657,9.128 67.662,9.121 65.226,9.387 C62.79,9.653 60.837,10.087 60.809,9.954 C63.6608615,9.02872687 66.6745274,8.70924014 69.657,9.016 L69.657,9.016 Z" id="Path" fill="#D3D7E1"></path>
                        <path d="M69.783,11.62 C69.783,11.725 67.921,11.795 65.646,12.019 C63.371,12.243 61.523,12.523 61.502,12.418 C62.8330496,11.9876038 64.2141693,11.7311438 65.611,11.655 C66.9941563,11.4609929 68.3967835,11.4492259 69.783,11.62 L69.783,11.62 Z" id="Path" fill="#D3D7E1"></path>
                        <path d="M67.004,13.888 C66.2458402,14.1731145 65.4472474,14.3361408 64.638,14.371 C63.8482618,14.531192 63.0391673,14.5736518 62.237,14.497 C62.9940155,14.2163429 63.7895977,14.0534492 64.596,14.014 C65.3881053,13.8538302 66.1995042,13.8113733 67.004,13.888 Z" id="Path" fill="#D3D7E1"></path>
                        <path d="M201.901,14.7 C176.491,6.958 155.05,0.343 126.301,0.525 L121.905,45.766 C151.802,48.412 161.805,50.372 189.399,60.361 L201.901,14.7 Z" id="Path" fill="#D3D7E1"></path>
                        <g id="Group" opacity="0.8" transform="translate(121.800000, 0.000000)" fill="#FFFFFF">
                            <path d="M80.101,14.7 C54.691,6.958 33.25,0.343 4.501,0.525 L0.105,45.766 C30.002,48.412 40.005,50.372 67.599,60.361 L80.101,14.7 Z" id="Path"></path>
                        </g>
                        <path d="M144.375,22.449 L145.495,12.852 C142.704682,12.5724142 139.910679,13.3464455 137.662,15.022 C134.640487,17.2354611 132.852388,20.7544816 132.846,24.5 C132.833912,24.9669582 132.845593,25.4342291 132.881,25.9 L132.881,25.9 L144.081,24.64 L144.375,22.449 Z" id="Path" fill="#D3D7E1"></path>
                        <path d="M155.96,20.881 C154.871805,17.0911422 151.814426,14.1891779 147.973,13.3 L147.637,13.23 L147.42,13.181 L146.762,13.083 L146.706,13.083 L145.6,22.638 L145.334,24.892 L155.918,28.756 L155.918,28.756 C156.184749,27.9581607 156.367735,27.1347247 156.464,26.299 C156.673839,24.4775938 156.502198,22.6324493 155.96,20.881 L155.96,20.881 Z" id="Path" fill="#D3D7E1"></path>
                        <g id="Group" opacity="0.3" transform="translate(144.900000, 12.600000)" fill="#000000">
                            <path d="M11.06,8.281 C9.97180485,4.49114223 6.91442595,1.58917785 3.073,0.7 L2.737,0.63 L2.52,0.581 L1.862,0.483 L1.806,0.483 L0.7,10.038 L0.434,12.292 L11.018,16.156 L11.018,16.156 C11.2847493,15.3581607 11.4677351,14.5347247 11.564,13.699 C11.773839,11.8775938 11.6021977,10.0324493 11.06,8.281 L11.06,8.281 Z" id="Path"></path>
                        </g>
                        <path d="M144.536,25.97 L133.336,27.23 C133.805,32.662 137.767,37.163 143.087,37.821 C148.407,38.479 153.398,35.021 155.148,29.841 L144.564,25.977" id="Path" fill="#D3D7E1"></path>
                        <path d="M192.08,23.296 C191.739887,23.1923397 191.409602,23.0588202 191.093,22.897 C190.47,22.61 189.56,22.197 188.426,21.742 C185.485159,20.5118437 182.474649,19.4553604 179.41,18.578 C176.340712,17.6974255 173.222773,16.9962398 170.072,16.478 C168.868,16.282 167.881,16.142 167.202,16.051 C166.846881,16.0248947 166.495189,15.9639347 166.152,15.869 C166.509549,15.8549892 166.867646,15.8690323 167.223,15.911 C167.923,15.96 168.896,16.065 170.114,16.226 C176.471604,17.090429 182.673197,18.8582719 188.531,21.476 C189.651,21.98 190.547,22.414 191.156,22.736 C191.479468,22.8958625 191.788605,23.083218 192.08,23.296 L192.08,23.296 Z" id="Path" fill="#D3D7E1"></path>
                        <path d="M191.31,28 C190.970644,27.8913565 190.640579,27.7555851 190.323,27.594 C189.7,27.314 188.79,26.894 187.656,26.446 C181.770947,23.9685734 175.608381,22.2105264 169.302,21.21 C168.098,21.014 167.111,20.874 166.432,20.783 C166.078024,20.7480659 165.727084,20.6872363 165.382,20.601 C165.739491,20.577878 166.098417,20.5919536 166.453,20.643 C167.153,20.685 168.126,20.79 169.344,20.951 C172.518134,21.385677 175.657372,22.045338 178.738,22.925 C181.818477,23.80779 184.83349,24.904796 187.761,26.208 C188.881,26.712 189.777,27.146 190.386,27.468 C190.711411,27.6132116 191.021038,27.7914815 191.31,28 Z" id="Path" fill="#D3D7E1"></path>
                        <path d="M190.54,32.739 C190.199887,32.6353397 189.869602,32.5018202 189.553,32.34 C188.93,32.06 188.02,31.64 186.886,31.185 C183.944415,29.9508385 180.93408,28.8874052 177.87,28 C174.799855,27.1227817 171.682111,26.4216399 168.532,25.9 C167.328,25.711 166.348,25.564 165.662,25.473 C165.306881,25.4468947 164.955189,25.3859347 164.612,25.291 C164.969549,25.2769892 165.327646,25.2910323 165.683,25.333 C166.383,25.382 167.356,25.487 168.574,25.648 C171.748134,26.082677 174.887372,26.742338 177.968,27.622 C181.05053,28.498459 184.065985,29.5956263 186.991,30.905 C188.111,31.409 189.007,31.843 189.616,32.165 C189.942093,32.3255421 190.251586,32.517803 190.54,32.739 L190.54,32.739 Z" id="Path" fill="#D3D7E1"></path>
                        <path d="M189,37.464 C188.670728,37.3553764 188.350146,37.2219958 188.041,37.065 C187.439,36.778 186.557,36.365 185.465,35.917 C179.767219,33.4435968 173.786038,31.682628 167.657,30.674 C166.481,30.478 165.557,30.338 164.857,30.247 C164.511134,30.2204284 164.168776,30.1594606 163.835,30.065 C164.183216,30.0464961 164.532399,30.0605572 164.878,30.107 C165.543,30.149 166.502,30.254 167.678,30.422 C170.767095,30.8561777 173.820256,31.5159413 176.813,32.396 C179.807284,33.2864177 182.733802,34.3905875 185.57,35.7 C186.655,36.204 187.523,36.638 188.104,36.96 C188.417853,37.0994467 188.717849,37.2681944 189,37.464 Z" id="Path" fill="#D3D7E1"></path>
                        <path d="M185.654,41.23 C185.357615,41.1407974 185.069534,41.0260333 184.793,40.887 L182.476,39.858 C177.405443,37.5588867 172.022403,36.0232342 166.502,35.301 L163.989,34.951 C163.679428,34.922625 163.372723,34.8687759 163.072,34.79 C163.381255,34.7534119 163.693745,34.7534119 164.003,34.79 C164.605,34.79 165.466,34.902 166.53,35.021 C172.104111,35.6109419 177.534346,37.1597312 182.581,39.599 C183.554,40.061 184.324,40.453 184.856,40.74 C185.138637,40.8745488 185.406144,41.0388079 185.654,41.23 L185.654,41.23 Z" id="Path" fill="#D3D7E1"></path>
                        <path d="M174.363,41.762 C173.752311,41.6852247 173.1485,41.5611858 172.557,41.391 C171.451,41.132 169.918,40.796 168.21,40.509 C166.502,40.222 164.941,39.998 163.814,39.809 C163.199452,39.7561602 162.590559,39.650775 161.994,39.494 C162.61021,39.4456801 163.229846,39.464457 163.842,39.55 C164.983,39.648 166.551,39.816 168.273,40.117 C169.739555,40.3662455 171.190865,40.6981071 172.62,41.111 C173.224024,41.2604986 173.808863,41.4789322 174.363,41.762 Z" id="Path" fill="#D3D7E1"></path>
                        <path d="M130.676,5.859 L131.264,5.824 L133.014,5.768 C134.554,5.768 136.794,5.768 139.65,5.915 C147.552382,6.4407881 155.371069,7.84956054 162.96,10.115 L163.086,10.157 L163.086,10.29 C161.336,20.321 159.25,32.242 157.024,44.996 C156.933,45.514 156.842,46.032 156.751,46.536 L156.751,46.732 L156.555,46.683 C151.427825,45.3403212 146.233671,44.2678442 140.994,43.47 C135.975,42.7 131.194,42.154 126.728,41.874 L126.553,41.874 L126.553,41.706 C127.778,31.003 128.807,22.043 129.528,15.736 C129.892,12.614 130.186,10.136 130.382,8.456 C130.48,7.63 130.564,6.993 130.613,6.545 C130.613,6.342 130.662,6.181 130.676,6.055 C130.69,5.929 130.676,5.894 130.676,5.901 C130.682197,5.95916876 130.682197,6.01783124 130.676,6.076 C130.676,6.202 130.676,6.37 130.627,6.58 C130.585,7.035 130.515,7.686 130.431,8.526 C130.256,10.234 129.99,12.726 129.661,15.848 C128.961,22.148 128.009,31.073 126.861,41.748 L126.707,41.573 C131.18,41.839 135.982,42.378 141.008,43.141 C146.261453,43.9362575 151.469601,45.0063929 156.611,46.347 L156.387,46.494 C156.478,45.99 156.569,45.472 156.66,44.954 C158.907,32.2 161.007,20.286 162.771,10.262 L162.876,10.437 C155.313674,8.16384581 147.52533,6.72495053 139.65,6.146 C136.808,5.957 134.554,5.908 133.042,5.915 L130.69,5.915 L130.676,5.859 Z" id="Path" fill="#D3D7E1"></path>
                    </g>
                    <g id="humaaan-3" transform="translate(62.000000, 0.000000)">
                        <g id="Bottom/Skinny-Jeans-1" transform="translate(0.000000, 116.724602)">
                            <path d="M125.482484,12.3673991 C112.454627,22.9915712 117.48339,116.229845 116.614163,117.403018 C116.22784,117.924429 95.5725689,122.348202 54.6483506,130.674339 L56.4204534,137.891764 C104.296888,135.550011 129.629022,132.602304 132.416855,129.048644 C136.408234,123.960821 141.324813,95.4933887 147.166591,43.6463464 L125.482484,12.3673991 Z" id="leg-[skin]" fill="#B28B67" transform="translate(100.907471, 75.129582) rotate(-55.000000) translate(-100.907471, -75.129582) "></path>
                            <path d="M125.482484,12.3673991 C112.454627,22.9915712 117.48339,116.229845 116.614163,117.403018 C116.22784,117.924429 95.5725689,122.348202 54.6483506,130.674339 L56.4204534,137.891764 C104.296888,135.550011 129.629022,132.602304 132.416855,129.048644 C136.408234,123.960821 141.324813,95.4933887 147.166591,43.6463464 L125.482484,12.3673991 Z" id="shadow" fill-opacity="0.1" fill="#000000" transform="translate(100.907471, 75.129582) rotate(-55.000000) translate(-100.907471, -75.129582) "></path>
                            <path d="M61.5551772,123.08379 L64.6757311,134.708175 C100.368323,138.835108 123.89232,133.777348 132.167866,125.90158 C137.684896,120.651068 142.614248,92.2610232 146.955922,40.7314467 L123.759407,7.60339075 C92.7460348,31.0037314 111.299798,107.696194 110.508105,109.450102 C109.716411,111.204011 90.8957064,112.577286 61.5551772,123.08379 Z" id="Pant" fill="#C29B07" transform="translate(104.255550, 71.892282) rotate(-55.000000) translate(-104.255550, -71.892282) "></path>
                            <g id="Right-[shoe]" transform="translate(133.951603, 152.469662) rotate(20.000000) translate(-133.951603, -152.469662) translate(113.451603, 144.469662)" fill="#000000">
                                <path d="M1.82719662,5.30588434 C1.06396134,7.34017924 0.682343709,8.86232525 0.682343709,9.87232236 C0.682343709,11.1008299 0.887329451,12.8935278 1.29730094,15.2504163 C2.72472205,15.2504163 15.553196,15.2504163 39.7827226,15.2504163 C40.7828223,11.9493739 40.2055068,10.1672474 38.050776,9.90403662 C35.8960453,9.64082588 34.1060738,9.40316766 32.6808617,9.19106195 L14.7927194,1.22909961 C14.4483907,1.07583987 14.0450156,1.23073185 13.8917559,1.57506054 C13.8892405,1.58071188 13.886802,1.58639717 13.8844412,1.59211482 L12.734726,4.37661116 L12.734726,4.37661116 C10.7400089,5.30582114 9.11909418,5.77042613 7.87198179,5.77042613 C6.85855752,5.77042613 5.45894331,5.36171585 3.67313916,4.54429529 L3.67313908,4.54429547 C2.98773701,4.23056468 2.1777798,4.53186378 1.86404901,5.21726585 C1.85072976,5.24636418 1.83843803,5.27592194 1.82719662,5.30588434 Z" id="shoe"></path>
                            </g>
                            <polygon id="leg-[skin]" fill="#B28B67" points="72.7046821 19 37.3961503 103.630875 2.69335903 175.179146 10.8808707 175.179146 100.458117 19"></polygon>
                            <g id="Left-[shoe]" transform="translate(0.376249, 166.570821)" fill="#000000">
                                <path d="M1.82719662,5.30588434 C1.06396134,7.34017924 0.682343709,8.86232525 0.682343709,9.87232236 C0.682343709,11.1008299 0.887329451,12.8935278 1.29730094,15.2504163 C2.72472205,15.2504163 15.553196,15.2504163 39.7827226,15.2504163 C40.7828223,11.9493739 40.2055068,10.1672474 38.050776,9.90403662 C35.8960453,9.64082588 34.1060738,9.40316766 32.6808617,9.19106195 L14.7927194,1.22909961 C14.4483907,1.07583987 14.0450156,1.23073185 13.8917559,1.57506054 C13.8892405,1.58071188 13.886802,1.58639717 13.8844412,1.59211482 L12.734726,4.37661116 L12.734726,4.37661116 C10.7400089,5.30582114 9.11909418,5.77042613 7.87198179,5.77042613 C6.85855752,5.77042613 5.45894331,5.36171585 3.67313916,4.54429529 L3.67313908,4.54429547 C2.98773701,4.23056468 2.1777798,4.53186378 1.86404901,5.21726585 C1.85072976,5.24636418 1.83843803,5.27592194 1.82719662,5.30588434 Z" id="shoe"></path>
                            </g>
                            <path d="M5.82718503,160.315814 L24.0199265,163.722116 C38.0865032,143.074466 96.955701,58.4121674 103.410149,19 L62.9090057,19 C41.3543189,47.4910064 19.2355377,139.326612 5.82718503,160.315814 Z" id="Pant" fill="#F7C407"></path>
                        </g>
                        <g id="Head/Front/Wavy" transform="translate(91.289312, 45.885858) rotate(14.000000) translate(-91.289312, -45.885858) translate(44.889940, 10.460317)">
                            <g id="Head" stroke-width="1" transform="translate(36.851277, 21.155363)" fill="#B28B67">
                                <path d="M26.0302005,6.23327942 C29.9847592,13.6043003 29.5148548,32.301506 24.40394,33.618913 C22.3657659,34.1442798 18.0239076,32.8573876 13.6048532,30.1938909 L16.3783452,49.8174666 L0,49.8174666 L5.63797356,23.536595 C2.49364474,19.845594 0.365551106,15.322294 0.721176982,10.2538363 C1.74588398,-4.35051198 22.0756417,-1.13774144 26.0302005,6.23327942 Z" id="Head-[skin]"></path>
                            </g>
                            <path d="M64.4276985,30.6982277 C64.265463,29.7427903 63.8689697,28.6817874 63.5490465,27.7778538 C63.1365835,26.6125643 62.5123894,25.5619087 61.8254799,24.5717091 C60.5322497,22.7074551 58.9808599,21.0239879 57.2679751,19.6267566 C54.1391787,17.074583 50.1563724,15.6024793 46.2397717,16.0805468 C44.2622759,16.3219058 42.3426307,17.0762107 40.7087484,18.3317192 C39.2325538,19.4660831 37.8126235,21.1359477 35.9011218,21.2559297 C33.8212506,21.3863751 31.9147196,19.5506053 30.2466769,18.4168226 C28.3659513,17.1386431 26.3651884,16.2072719 24.1670778,15.8452334 C20.4847349,15.2389294 17.0254394,16.4830443 14.4876285,19.5042169 C11.7870533,22.7191975 9.82394088,27.4339522 11.5974261,31.6937753 C11.9270792,32.4856328 12.3511758,33.1532066 12.9598231,33.7064953 C13.5180231,34.2138607 14.3705524,34.7536631 14.5968783,35.5643548 C14.8372702,36.4260855 14.1191615,37.5377784 13.8406961,38.3153356 C13.4417703,39.4293538 13.1142324,40.5987125 13.2306739,41.8095765 C13.4219932,43.7981141 14.6716504,45.6964326 15.9912148,47.003445 C17.3340463,48.3334771 18.9867539,49.0961529 20.7519898,49.4477278 C21.9306822,49.6824599 23.1352857,49.8119752 24.3332264,49.723849 C24.9279134,49.6801346 25.4526933,49.514927 26.0288724,49.3835514 C26.5891876,49.25578 26.9023422,49.4045948 27.3777322,49.711874 C29.5861015,51.1395659 31.9606194,51.6919245 34.5105926,51.4796309 C36.6626977,51.3003556 39.1431868,50.7788063 40.8987987,49.3042611 C42.8484796,47.6666009 42.8096658,45.4083365 42.35088,42.9955606 C42.8369518,43.2364545 44.181687,43.3856181 43.3781244,42.4254139 C43.0597876,42.0451224 42.4583319,41.8903783 42.0498877,41.6666911 C41.5742862,41.4062652 41.0913872,41.069688 40.7220741,40.6448683 C39.2308617,38.9295454 40.7369862,35.4386761 42.6112605,34.863414 C45.3959146,34.0087753 46.0193683,37.9469028 48.0072286,38.9655865 C49.1501741,39.5513122 50.3457881,38.7507351 51.2021248,37.9333002 C52.349195,36.8382326 53.130971,35.387521 53.8059297,33.9112319 C54.3619087,32.6954848 54.8792854,31.4626474 55.4459461,30.252946 C55.710557,29.6880311 56.626648,28.0910624 56.1665931,27.4523215 C58.1611161,27.0545907 60.3825996,27.8834193 62.1003495,28.9703485 C62.8103146,29.4196994 63.351593,29.9150899 63.7303187,30.7083424 C63.8114364,30.8783168 63.9880552,31.3835895 64.2098334,31.4042841 C64.6227194,31.4428829 64.468416,30.9383078 64.4276985,30.6982277" id="hair" fill="#191847"></path>
                        </g>
                        <g id="Body/Long-Sleeve-1" transform="translate(94.039203, 127.094003) rotate(1.000000) translate(-94.039203, -127.094003) translate(21.539203, 63.594003)">
                            <path d="M23.609485,66.3707691 L37.8686888,66.4267548 C29.0642884,94.8037495 24.3112204,109.860405 23.609485,111.596722 C22.0305802,115.503434 25.371755,121.453289 26.800574,124.650697 C22.1469582,126.729745 22.6428059,119.03018 16.7723948,121.756968 C11.4141557,124.245854 7.33815656,128.755548 1.14748553,124.941778 C0.386378907,124.472898 -0.447669955,122.707478 1.56749754,121.327895 C6.58801466,117.890853 13.822884,111.875409 14.8004288,109.895379 C16.1334857,107.195254 19.0698378,92.6870509 23.609485,66.3707691 L23.609485,66.3707691 Z M107.178355,65.8200341 L128.943939,81.7776044 C134.847214,83.367992 139.779209,85.3467027 143.739925,87.7137366 C144.675515,88.5649068 145.806263,90.2886678 141.926146,89.9907588 C138.046028,89.6928497 133.951308,89.5537203 133.415927,90.8750672 C132.880546,92.196414 135.228583,93.7766 134.146345,95.5594429 C133.424853,96.7480048 130.016236,93.7677299 123.920494,86.618618 L102.366855,77.6950581 L107.178355,65.8200341 Z" id="Arms-[skin]" fill="#B28B67"></path>
                            <path d="M60.750792,9.53108768 L66.5405853,8.01026301 C89.9947717,24.9118226 102.11377,60.2635683 130.520429,77.0672438 L124.782931,85.5928713 C77.9063797,83.9173501 62.5557358,40.8464351 60.750792,9.53108768 Z" id="Coat-Back" fill="#021845" transform="translate(95.635610, 46.801567) rotate(5.000000) translate(-95.635610, -46.801567) "></path>
                            <path d="M38.4109338,80.6636864 C62.0689883,80.6636864 79.4713573,80.6636864 90.6180408,80.6636864 C93.0036394,80.6636864 92.5541188,77.2244366 92.2092661,75.4889723 C88.229249,55.4596171 72.6927717,33.8689415 72.6927717,5.35765853 L57.6337843,3 C45.1780673,23.0007202 40.8706643,47.6256563 38.4109338,80.6636864 Z" id="Shirt" fill="#DDE3E9"></path>
                            <path d="M56.4998869,3 C57.0086403,3 57.4746845,3.03178083 57.8980197,3.09534248 L62.6147482,3.36429715 C76.0051803,48.674007 79.7951559,79.0547378 73.984675,94.5064896 L73.8056612,94.9701549 L32.7142,94.9710898 C30.2797438,100.638678 27.9501694,105.407189 25.7254768,109.276623 L25.7254768,109.276623 L14.528904,109.276623 C13.475146,75.2592079 21.5757185,46.3868574 38.8306215,22.659572 C36.6440949,22.0327313 34.9116373,20.5686182 33.6345278,18.2678565 C28.1304412,8.35203338 30.1182245,2.89263827 36.0003475,1.09810427 C41.8824705,-0.696429726 47.1280925,3 56.4998869,3 Z" id="Coat-Front" fill="#002060"></path>
                            <path d="M47.9637457,94.9701549 L32.7142,94.9710898 C35.5542225,88.3593142 38.5369831,80.5239469 41.6624817,71.4649879 C42.9547049,82.2603584 45.0551523,90.0955408 47.9637457,94.9701549 Z" id="Shade" fill-opacity="0.1" fill="#000000"></path>
                        </g>
                    </g>
                    <g id="freepik--Lines--inject-7" transform="translate(32.200000, 94.800000)" fill="#D3D7E1" fill-rule="nonzero">
                        <path d="M116.9,83.216 L115.857,83.216 L112.805,83.258 C110.117,83.3 106.155,83.405 101.059,83.65 C95.963,83.895 89.733,84.35 82.53,85.19 C78.939,85.624 75.089,86.114 71.036,86.786 C66.983,87.458 62.713,88.242 58.268,89.257 C53.823,90.272 49.168,91.476 44.464,93.023 C39.5352564,94.5849789 34.7466949,96.5589434 30.149,98.924 C27.7375952,100.182214 25.4420122,101.650919 23.289,103.313 C21.0463385,104.984547 19.1452934,107.070944 17.689,109.459 C17.514,109.767 17.332,110.068 17.171,110.383 L16.779,111.37 L16.576,111.867 C16.52,112.035 16.492,112.21 16.443,112.385 L16.198,113.421 C15.9702066,114.845779 16.0417259,116.302389 16.408,117.698 C17.108,120.533 18.963,122.976 21.112,125.034 C25.494,129.157 31.087,132.034 36.89,134.428 C42.8672407,136.819475 49.0138054,138.76382 55.279,140.245 C68.4671292,143.333739 81.8912566,145.31001 95.41,146.153 C108.926285,147.065917 122.4869,147.119692 136.01,146.314 C148.611027,145.607015 161.142527,143.969217 173.502,141.414 C179.247996,140.202115 184.922102,138.671416 190.498,136.829 C195.768693,135.125702 200.858907,132.907673 205.695,130.207 C207.967521,128.891191 210.111875,127.365536 212.1,125.65 C214.032397,124.01825 215.609563,122.007481 216.734,119.742 L217.084,118.888 C217.208901,118.608487 217.307331,118.317883 217.378,118.02 L217.588,117.138 C217.623,116.991 217.672,116.844 217.693,116.697 L217.693,116.242 C217.84049,115.069314 217.750021,113.878928 217.427,112.742 C217.085794,111.625362 216.588547,110.562527 215.95,109.585 C215.308334,108.632557 214.582058,107.73994 213.78,106.918 C212.219232,105.347437 210.502348,103.940155 208.656,102.718 C206.91155,101.532475 205.097633,100.45254 203.224,99.484 C199.797052,97.6937847 196.262251,96.1180863 192.64,94.766 C186.83274,92.6018199 180.905579,90.7741229 174.888,89.292 C169.939,88.06 166.054,87.276 163.415,86.772 C162.099,86.513 161.084,86.345 160.412,86.212 L159.383,86.016 C159.383,86.016 160.783,86.219 163.429,86.716 C166.075,87.213 169.96,87.955 174.923,89.173 C180.953563,90.626999 186.892918,92.4361534 192.71,94.591 C196.34586,95.9350835 199.894697,97.5037722 203.336,99.288 C205.217996,100.260301 207.041147,101.342505 208.796,102.529 C210.660086,103.766077 212.393359,105.189753 213.969,106.778 C214.780074,107.609431 215.515635,108.511313 216.167,109.473 C216.828678,110.470394 217.344866,111.556981 217.7,112.7 C218.038257,113.881962 218.133507,115.12021 217.98,116.34 L217.945,116.802 C217.945,116.956 217.875,117.103 217.84,117.257 L217.623,118.16 C217.551344,118.465282 217.450548,118.762981 217.322,119.049 L216.972,119.924 C215.831773,122.225034 214.233418,124.268832 212.275,125.93 C210.273729,127.665423 208.112769,129.207627 205.821,130.536 C200.974698,133.251891 195.872751,135.483993 190.589,137.2 C185.002504,139.054185 179.316613,140.59426 173.558,141.813 C161.182539,144.371345 148.634518,146.009162 136.017,146.713 C122.47781,147.524897 108.900649,147.47346 95.368,146.559 C81.8275244,145.712517 68.3821784,143.7292 55.174,140.63 C48.8908178,139.147233 42.7275658,137.195771 36.736,134.792 C30.919,132.37 25.298,129.493 20.86,125.321 C18.683,123.221 16.772,120.743 16.065,117.817 C15.6916725,116.379586 15.6201701,114.880419 15.855,113.414 L16.114,112.343 C16.156,112.161 16.191,111.986 16.247,111.811 L16.45,111.3 L16.863,110.292 C17.024,109.97 17.213,109.655 17.388,109.34 C18.8734729,106.917391 20.8101827,104.802456 23.093,103.11 C25.265488,101.441371 27.5796217,99.9657596 30.009,98.7 C34.6218331,96.3310394 39.4270032,94.3569856 44.373,92.799 C49.119,91.259 53.753,90.055 58.205,89.047 C62.657,88.039 66.941,87.241 71.001,86.604 C75.061,85.967 78.911,85.449 82.509,85.029 C89.719,84.224 95.956,83.797 101.052,83.552 C106.148,83.307 110.117,83.244 112.805,83.223 L116.9,83.223 L116.9,83.216 Z" id="Path"></path>
                        <path d="M59.696,30.177 C59.696,30.177 59.297,30.268 58.52,30.422 C57.743,30.576 56.581,30.8 55.062,31.122 C52.024,31.752 47.551,32.725 41.874,34.279 C34.9710087,36.1243942 28.2252037,38.5142162 21.7,41.426 C19.803,42.294 17.857,43.253 15.918,44.352 C13.9078328,45.4709921 11.9697071,46.7147591 10.115,48.076 C8.15230377,49.5038498 6.35606117,51.1474705 4.76,52.976 C3.05954366,54.8932489 1.81723536,57.1720109 1.127,59.64 C0.452497759,62.2437118 0.65674022,64.9972938 1.708,67.473 C2.83181171,70.0471566 4.48183709,72.357669 6.552,74.256 C10.696,78.225 15.953,81.256 21.546,83.825 C32.823,88.949 45.696,92.386 59.346,94.948 C73.6850319,97.542307 88.1862756,99.1421216 102.746,99.736 C118.381374,100.439128 134.045456,100.160915 149.646,98.903 C165.648,97.566 181.223,95.214 195.881,91.364 C203.082307,89.5254627 210.123759,87.1096453 216.937,84.14 C220.204331,82.6945162 223.360565,81.0099439 226.38,79.1 C229.364679,77.2455494 232.064474,74.9678184 234.395,72.338 C236.628,69.727 238.273,66.528 238.371,63.154 C238.385106,62.7358641 238.371075,62.3172528 238.329,61.901 C238.313029,61.4854462 238.268592,61.0714759 238.196,60.662 L237.923,59.444 C237.817401,59.0432309 237.68408,58.6502844 237.524,58.268 C236.926017,56.7334856 236.117977,55.2893789 235.123,53.977 C233.089591,51.4536415 230.69556,49.2435852 228.018,47.418 C225.427383,45.6394106 222.711268,44.0509162 219.891,42.665 C214.519837,40.0602084 208.954425,37.8766385 203.245,36.134 C197.757,34.419 192.409,33.054 187.271,31.934 C170.992811,28.5008202 154.462926,26.3939094 137.844,25.634 C131.964,25.333 127.386,25.319 124.285,25.242 L120.785,25.165 L119.588,25.123 C119.588,25.123 119.994,25.123 120.785,25.123 L124.285,25.165 C127.386,25.221 131.985,25.207 137.851,25.494 C154.484699,26.2020834 171.032235,28.2740372 187.327,31.689 C192.472,32.823 197.827,34.174 203.329,35.889 C209.056274,37.6287883 214.638369,39.8148163 220.024,42.427 C222.860937,43.79781 225.59359,45.3747006 228.2,47.145 C230.902668,48.9867819 233.320138,51.2155717 235.375,53.76 C236.391743,55.0969123 237.216406,56.5695244 237.825,58.135 C237.991601,58.5251023 238.12735,58.9276699 238.231,59.339 L238.518,60.585 C238.594164,61.0057384 238.638622,61.4316026 238.651,61.859 C238.698759,62.2842181 238.715136,62.7123761 238.7,63.14 C238.631354,64.8750428 238.217274,66.5789592 237.482,68.152 C236.758314,69.7364922 235.815784,71.2115514 234.682,72.534 C232.33173,75.1932109 229.605617,77.4948427 226.59,79.366 C223.537804,81.3067967 220.34377,83.014961 217.035,84.476 C210.205473,87.4562486 203.147827,89.8837044 195.93,91.735 C181.23,95.592 165.655,97.951 149.632,99.288 C134.031399,100.545403 118.367203,100.82128 102.732,100.114 C88.1719498,99.5110482 73.6708494,97.9042328 59.332,95.305 C45.647,92.722 32.732,89.271 21.448,84.105 C15.848,81.494 10.563,78.47 6.384,74.452 C4.29061219,72.5261743 2.62176646,70.1850222 1.484,67.578 C0.416948628,65.0444905 0.215196067,62.2297963 0.91,59.57 C1.61023587,57.0692898 2.87193471,54.7613625 4.599,52.822 C6.20902479,50.9702816 8.02434776,49.3076054 10.01,47.866 C11.8731644,46.5029069 13.8207231,45.2590879 15.841,44.142 C17.787,43.043 19.74,42.084 21.644,41.216 C28.1948098,38.3170244 34.9666683,35.9458206 41.895,34.125 C47.586,32.592 52.066,31.64 55.111,31.031 C58.156,30.422 59.696,30.177 59.696,30.177 Z" id="Path"></path>
                        <path d="M84.238,135.8 L80.738,136.353 C78.449,136.717 75.082,137.298 70.777,138.236 C65.5579069,139.361906 60.4144951,140.813751 55.377,142.583 C52.2324886,143.701234 49.1685949,145.034379 46.207,146.573 C44.5936317,147.411393 43.0405486,148.36102 41.559,149.415 C39.9866898,150.509374 38.5508368,151.787776 37.282,153.223 C36.6318795,153.972112 36.063966,154.788781 35.588,155.659 C35.0983471,156.533113 34.7465392,157.477564 34.545,158.459 C34.51,158.711 34.447,158.963 34.426,159.222 L34.377,159.992 C34.377,160.503 34.447,161.021 34.489,161.539 C34.597229,162.052192 34.7327548,162.559246 34.895,163.058 L35.189,163.793 L35.336,164.164 L35.532,164.507 C36.6064549,166.407411 38.0316464,168.086762 39.732,169.456 C41.4835608,170.900791 43.3733787,172.169267 45.374,173.243 C49.5868047,175.495462 54.0052217,177.34018 58.569,178.752 C63.3950769,180.278115 68.302743,181.533075 73.269,182.511 C83.95138,184.60695 94.7755788,185.900894 105.651,186.382 C117.318234,186.957177 129.010838,186.753725 140.651,185.773 C152.607,184.737 164.241,182.91 175.14,179.83 C180.497504,178.357628 185.701355,176.374539 190.68,173.908 C193.075489,172.690226 195.339111,171.228841 197.435,169.547 C197.967,169.148 198.422,168.658 198.912,168.217 C199.402,167.776 199.801,167.251 200.249,166.775 C201.07783,165.774871 201.748298,164.65349 202.237,163.45 C203.207325,161.059658 203.094993,158.366245 201.929,156.065 C200.734394,153.881081 199.093492,151.973057 197.113,150.465 C193.256,147.399 188.874,145.334 184.597,143.619 C180.442997,141.991449 176.190166,140.628392 171.864,139.538 C167.706,138.467 163.667,137.62 159.796,136.941 C147.536325,134.847126 135.132092,133.712021 122.696,133.546 L109.025,133.476 C109.025,133.476 113.89,133.413 122.696,133.476 C135.130731,133.609607 147.535676,134.721371 159.796,136.801 C163.681,137.501 167.72,138.32 171.885,139.391 C176.233529,140.486616 180.507576,141.859081 184.681,143.5 C188.965,145.215 193.361,147.28 197.246,150.367 C199.260714,151.893341 200.930462,153.827864 202.146,156.044 C203.337012,158.393013 203.451907,161.14282 202.461,163.583 C201.963556,164.805321 201.283847,165.945248 200.445,166.964 C199.99,167.447 199.577,167.972 199.087,168.427 C198.597,168.882 198.142,169.365 197.603,169.764 C195.495605,171.460655 193.217722,172.933889 190.806,174.16 C185.816386,176.634642 180.600815,178.624763 175.231,180.103 C163.934735,183.163163 152.375944,185.15525 140.707,186.053 C129.052822,187.034037 117.346229,187.237488 105.665,186.662 C94.7825563,186.172903 83.9516243,184.874315 73.262,182.777 C68.2960712,181.78892 63.3885797,180.526993 58.562,178.997 C53.9841245,177.584242 49.553523,175.732297 45.332,173.467 C43.3245037,172.382946 41.4278134,171.1052 39.669,169.652 C37.9488893,168.269321 36.5090347,166.570482 35.427,164.647 L35.224,164.297 L35.077,163.919 L34.776,163.177 C34.587,162.673 34.51,162.141 34.37,161.63 C34.23,161.119 34.258,160.573 34.258,160.048 L34.307,159.264 C34.307,159.005 34.391,158.753 34.433,158.494 C34.6322571,157.485497 34.9889519,156.514626 35.49,155.617 C35.9730779,154.739599 36.5479683,153.91598 37.205,153.16 C38.4812048,151.715594 39.9265961,150.430018 41.51,149.331 C43.0020578,148.276092 44.5643524,147.324215 46.186,146.482 C49.1279349,144.940552 52.1732426,143.605014 55.3,142.485 C60.353054,140.719772 65.5131036,139.277203 70.749,138.166 C75.054,137.242 78.449,136.675 80.717,136.325 C82.985,135.975 84.238,135.8 84.238,135.8 Z" id="Path"></path>
                        <path d="M175.644,199.829 C175.607074,198.949121 175.410195,198.083325 175.063,197.274 C174.412,195.671 172.669,193.676 169.932,191.87 C164.437,188.251 155.232,185.213 143.668,183.351 C137.355204,182.346393 130.987715,181.722267 124.6,181.482 C117.260153,181.176737 109.9086,181.312314 102.585,181.888 C98.714,182.189 94.759,182.637 90.748,183.288 C86.6529323,183.918896 82.5960289,184.776547 78.596,185.857 C76.559,186.403 74.522,187.04 72.513,187.775 C70.4769228,188.506006 68.4915664,189.371238 66.57,190.365 C64.6138472,191.357248 62.8027064,192.612564 61.187,194.096 C59.598,195.58 58.303,197.596 58.268,199.836 C58.233,202.076 59.591,204.092 61.18,205.583 C62.776939,207.05706 64.5666173,208.307479 66.5,209.3 C68.4201834,210.296666 70.4057374,211.161984 72.443,211.89 C74.452,212.632 76.489,213.29 78.526,213.815 C82.5283779,214.89551 86.5876141,215.753161 90.685,216.384 C94.696,217.021 98.651,217.469 102.522,217.784 C109.847768,218.363187 117.201861,218.498768 124.544,218.19 C130.950861,217.944973 137.337118,217.313827 143.668,216.3 C155.246,214.438 164.437,211.4 169.939,207.781 C172.676,205.975 174.412,203.98 175.063,202.377 C175.409815,201.570004 175.606696,200.706572 175.644,199.829 C175.644,199.934 175.644,200.109 175.595,200.494 C175.578587,200.769564 175.529235,201.042171 175.448,201.306 C175.366895,201.677686 175.244815,202.039229 175.084,202.384 C174.44,204.001 172.704,206.01 169.967,207.83 C164.465,211.47 155.267,214.529 143.682,216.405 C137.355326,217.415031 130.973956,218.046155 124.572,218.295 C117.225437,218.605105 109.866886,218.474204 102.536,217.903 C98.665,217.595 94.71,217.154 90.692,216.503 C86.5893708,215.878662 82.5252432,215.023303 78.519,213.941 C76.475,213.395 74.438,212.758 72.422,212.016 C70.379466,211.281388 68.3872071,210.413867 66.458,209.419 C64.4907793,208.418862 62.6681903,207.156708 61.04,205.667 C60.2230467,204.90308 59.5288772,204.01766 58.982,203.042 C57.7963648,201.054022 57.7963648,198.575978 58.982,196.588 C59.5426336,195.612144 60.2510305,194.729009 61.082,193.97 C62.7101903,192.480292 64.5327793,191.218138 66.5,190.218 C68.4274217,189.224433 70.4172663,188.356945 72.457,187.621 C74.48,186.879 76.517,186.221 78.561,185.696 C82.5658524,184.617749 86.6274224,183.762436 90.727,183.134 C94.745,182.497 98.7,182.049 102.571,181.734 C109.901713,181.159189 117.260481,181.028283 124.607,181.342 C131.009043,181.585203 137.390611,182.21401 143.717,183.225 C155.295,185.101 164.5,188.16 170.002,191.8 C172.739,193.62 174.475,195.629 175.119,197.246 C175.278773,197.591187 175.400813,197.952615 175.483,198.324 C175.564235,198.587829 175.613587,198.860436 175.63,199.136 C175.623,199.542 175.637,199.724 175.644,199.829 Z" id="Path"></path>
                        <path d="M21.000011,91.259 C20.9961369,92.4913332 19.9946846,93.4875685 18.762348,93.4850001 C17.5300114,93.4824217 16.5327285,92.4820126 16.5340109,91.249674 C16.5352959,90.0173354 17.5346607,89.019 18.767,89.019 C19.3604432,89.019 19.9294789,89.2552196 20.3484495,89.6755035 C20.76742,90.0957874 21.0018603,90.6655597 21.000011,91.259 Z" id="Path"></path>
                        <circle id="Oval" cx="220.864" cy="92.771" r="2.233"></circle>
                        <path d="M131.950011,175.119 C131.952831,176.026263 131.408113,176.845636 130.570449,177.194139 C129.732786,177.542643 128.767627,177.351443 128.126092,176.709908 C127.484557,176.068373 127.293357,175.103214 127.641861,174.265551 C127.990364,173.427887 128.809737,172.883169 129.717,172.885989 C130.950252,172.885989 131.950011,173.885748 131.950011,175.119 L131.950011,175.119 Z" id="Path"></path>
                        <path d="M64.085,117.691 C64.085,118.143998 63.8121208,118.55239 63.3936054,118.725745 C62.9750901,118.8991 62.4933582,118.803277 62.1730404,118.48296 C61.8527226,118.162642 61.7569002,117.68091 61.9302549,117.262395 C62.1036096,116.843879 62.5120023,116.571 62.965,116.571 C63.5835589,116.571 64.085,117.072441 64.085,117.691 L64.085,117.691 Z" id="Path"></path>
                        <path d="M203.042,144.767 C203.042,145.220633 202.768348,145.629461 202.348973,145.802398 C201.929598,145.975334 201.447321,145.878222 201.127562,145.556451 C200.807802,145.23468 200.713715,144.751805 200.889278,144.333522 C201.06484,143.915239 201.475376,143.644165 201.929,143.646978 C202.544824,143.650849 203.042,144.151164 203.042,144.767 Z" id="Path"></path>
                        <path d="M114.8,196.448 C114.8,196.901633 114.526348,197.310461 114.106973,197.483398 C113.687598,197.656334 113.205321,197.559222 112.885562,197.237451 C112.565802,196.91568 112.471715,196.432805 112.647278,196.014522 C112.82284,195.596239 113.233376,195.325165 113.687,195.327978 C114.302824,195.331849 114.8,195.832164 114.8,196.448 L114.8,196.448 Z" id="Path"></path>
                        <circle id="Oval" cx="56.504" cy="0.819" r="1"></circle>
                    </g>
                    <g id="freepik--front-screens--inject-7" transform="translate(24.500000, 84.300000)" fill-rule="nonzero">
                        <path d="M164.955,97.3 C137.816,104.482 111.657,103.936 83.146,97.3 L79.8,45.164 C109.263,50.897 138.838,50.169 164.941,43.932 L164.955,97.3 Z" id="Path" fill="#D3D7E1"></path>
                        <g id="Group" opacity="0.8" transform="translate(79.800000, 43.400000)" fill="#FFFFFF">
                            <path d="M85.155,53.9 C58.016,61.082 31.857,60.536 3.346,53.9 L0,1.764 C29.463,7.497 59.038,6.769 85.141,0.532 L85.155,53.9 Z" id="Path"></path>
                        </g>
                        <path d="M160.748,89.355 C160.693851,89.3909915 160.634951,89.4192633 160.573,89.439 L160.062,89.656 C159.607,89.838 158.949,90.132 158.074,90.447 C155.613172,91.3617652 153.106062,92.1468434 150.563,92.799 C142.148572,94.9121187 133.491198,95.9007259 124.817,95.739 C116.152919,95.5650231 107.520104,94.6422534 99.015,92.981 C95.746,92.358 93.121,91.784 91.315,91.364 C90.412,91.161 89.712,90.986 89.215,90.867 L88.676,90.727 C88.557,90.692 88.494,90.671 88.5004732,90.664 L88.69,90.664 L89.236,90.769 L91.336,91.196 C93.149,91.574 95.788,92.113 99.036,92.694 C107.535876,94.279854 116.151321,95.1671512 124.796,95.347 C133.441318,95.5114566 142.072216,94.5705029 150.479,92.547 C153.692,91.735 156.254,90.923 158.004,90.3 C158.886,90.013 159.551,89.74 160.013,89.6 L160.538,89.418 C160.602786,89.3824547 160.674346,89.3609867 160.748,89.355 Z" id="Path" fill="#D3D7E1"></path>
                        <path d="M120.869,91.476 C117.43125,92.4085399 113.792605,92.2866014 110.425,91.126 L110.425,72.576 C113.871153,71.876075 117.422847,71.876075 120.869,72.576 L120.869,91.476 Z" id="Path" fill="#D3D7E1"></path>
                        <path d="M137.739,90.377 C137.73418,90.3281185 137.73418,90.2788815 137.739,90.23 C137.739,90.125 137.739,89.992 137.739,89.831 C137.739,89.453 137.739,88.935 137.69,88.277 C137.69,86.912 137.627,84.959 137.578,82.516 C137.508,77.616 137.403,70.707 137.284,62.72 L137.424,62.888 C133.852687,62.1910286 130.180313,62.1910286 126.609,62.888 L126.756,62.713 L126.756,63.077 C126.868,74.039 126.973,83.944 127.043,91.014 L126.938,90.888 C128.436638,91.2138714 129.962052,91.4013264 131.495,91.448 C132.647405,91.468212 133.798907,91.372058 134.932,91.161 C135.643648,91.0241391 136.345244,90.8393856 137.032,90.608 L137.557,90.426 C137.619476,90.3984887 137.68542,90.3796476 137.753,90.37 L137.585,90.447 L137.053,90.678 C136.369336,90.9372125 135.667417,91.1454484 134.953,91.301 C133.813411,91.5377505 132.651889,91.6527294 131.488,91.644 C129.939971,91.6254997 128.397398,91.4567074 126.882,91.14 L126.784,91.14 L126.784,91 C126.679,83.93 126.539,74.032 126.385,63.07 L126.385,62.545 L126.539,62.545 C130.153336,61.8302527 133.872664,61.8302527 137.487,62.545 L137.627,62.58 L137.627,62.72 C137.69,70.742 137.739,77.665 137.781,82.607 C137.781,85.036 137.781,86.975 137.781,88.34 C137.781,88.984 137.781,89.488 137.781,89.859 C137.781,90.013 137.781,90.146 137.781,90.251 C137.781,90.356 137.746,90.377 137.739,90.377 Z" id="Path" fill="#D3D7E1"></path>
                        <path d="M153.797,88.2 C150.997,89.712 147.322,89.915 143.346,89.684 L143.346,59.038 C146.780684,58.2118338 150.362316,58.2118338 153.797,59.038 L153.797,88.2 Z" id="Path" fill="#D3D7E1"></path>
                        <path d="M104.3,89.964 C104.3,89.964 104.3,89.677 104.265,89.173 C104.23,88.669 104.265,87.92 104.223,87.031 C104.223,85.169 104.174,82.586 104.146,79.513 L104.244,79.66 C101.055187,78.3681222 97.6203038,77.7968367 94.185,77.987 L94.185,77.987 L94.353,77.805 C94.353,81.634 94.353,85.211 94.353,88.256 L94.262,88.116 C95.5608994,88.6422768 96.912691,89.0271619 98.294,89.264 C99.533,89.488 100.618,89.614 101.521,89.705 L103.621,89.88 C103.869725,89.8939166 104.117458,89.9219619 104.363,89.964 C104.115946,89.980612 103.868054,89.980612 103.621,89.964 C103.131,89.964 102.424,89.964 101.521,89.873 C100.618,89.782 99.519,89.705 98.273,89.502 C96.8631103,89.2888673 95.4821665,88.9154489 94.157,88.389 L94.066,88.347 L94.066,88.242 C94.066,85.197 94.066,81.62 94.066,77.791 L94.066,77.623 L94.248,77.623 C97.7378817,77.4274499 101.226824,78.023298 104.454,79.366 L104.559,79.401 L104.559,79.513 C104.559,82.628 104.496,85.246 104.475,87.136 C104.475,88.011 104.475,88.711 104.433,89.236 C104.410174,89.4821074 104.365668,89.7257195 104.3,89.964 Z" id="Path" fill="#D3D7E1"></path>
                        <path d="M109.2,62.853 C108.5244,62.9615007 107.839811,63.0037014 107.156,62.979 C105.889,62.979 104.139,62.979 102.214,62.86 C100.289,62.741 98.553,62.566 97.314,62.398 C96.6316068,62.343706 95.9562926,62.2217743 95.298,62.034 C95.9788964,62.0172095 96.6600488,62.0546612 97.335,62.146 C98.595,62.244 100.331,62.384 102.235,62.496 C104.139,62.608 105.896,62.678 107.135,62.72 C107.825711,62.7118581 108.51604,62.7563199 109.2,62.853 L109.2,62.853 Z" id="Path" fill="#D3D7E1"></path>
                        <path d="M107.639,65.135 C107.043153,65.1946026 106.442847,65.1946026 105.847,65.135 C104.741,65.079 103.215,64.981 101.528,64.855 C99.841,64.729 98.315,64.589 97.216,64.47 C96.6182039,64.4413144 96.0248464,64.3521935 95.445,64.204 C96.0408465,64.1443974 96.6411535,64.1443974 97.237,64.204 C98.35,64.26 99.869,64.358 101.556,64.484 C103.243,64.61 104.762,64.75 105.861,64.869 C106.460962,64.8990806 107.056503,64.9881774 107.639,65.135 Z" id="Path" fill="#D3D7E1"></path>
                        <path d="M111.461,68.124 C111.461,68.124 111.461,67.886 111.461,67.473 C111.461,67.06 111.496,66.423 111.531,65.667 C111.601,64.085 111.706,61.859 111.839,59.122 L111.972,59.269 C105.508481,59.3279066 99.0479389,58.9678185 92.631,58.191 L92.834,58.023 L92.834,58.023 L92.834,58.303 L92.834,58.597 L92.799,59.185 C92.799,59.577 92.757,59.969 92.729,60.354 C92.687,61.131 92.645,61.894 92.596,62.643 C92.505,64.148 92.421,65.604 92.337,66.997 L92.19,66.815 C97.79,67.515 102.613,67.795 106.036,67.928 L110.047,68.047 L111.097,68.082 L111.482,68.082 C111.365551,68.0920762 111.248449,68.0920762 111.132,68.082 C110.894,68.082 110.516,68.082 110.047,68.117 C109.109,68.117 107.744,68.117 106.029,68.117 C102.599,68.047 97.755,67.795 92.148,67.13 L91.987,67.13 L91.987,66.962 C92.064,65.562 92.148,64.113 92.232,62.608 C92.274,61.859 92.316,61.096 92.365,60.319 L92.428,59.15 L92.428,58.562 L92.428,58.268 L92.428,57.988 L92.428,57.988 L92.631,57.82 C99.0585759,58.5935144 105.526064,58.988529 112,59.003 L112.14,59.003 L112.14,59.143 C111.951,61.901 111.797,64.155 111.685,65.751 C111.629,66.493 111.58,67.088 111.545,67.522 C111.536692,67.7249252 111.508558,67.9265515 111.461,68.124 L111.461,68.124 Z" id="Path" fill="#D3D7E1"></path>
                        <path d="M113.848,72.051 C113.312697,71.4940626 112.857955,70.8649637 112.497,70.182 C112.035402,69.5609809 111.684885,68.8646843 111.461,68.124 C111.996303,68.6809374 112.451045,69.3100363 112.812,69.993 C113.273598,70.6140191 113.624115,71.3103157 113.848,72.051 Z" id="Path" fill="#D3D7E1"></path>
                        <path d="M0.448,4.2 L9.317,57.876 C9.317,57.876 22.862,83.23 58.842,88.942 L53.039,41.034 C53.039,41.034 19.761,30.73 0.448,4.2 Z" id="Path" fill="#D3D7E1"></path>
                        <g id="Group" opacity="0.8" transform="translate(0.000000, 4.200000)" fill="#FFFFFF">
                            <path d="M0.448,0 L9.317,53.676 C9.317,53.676 22.862,79.03 58.842,84.742 L53.039,36.834 C53.039,36.834 19.761,26.53 0.448,0 Z" id="Path"></path>
                        </g>
                        <path d="M54.201,85.106 L53.977,85.05 L53.277,84.861 L50.743,84.084 C49.644,83.734 48.279,83.384 46.76,82.754 L44.317,81.823 C43.442,81.494 42.525,81.123 41.594,80.703 C39.725,79.849 37.646,78.967 35.532,77.777 C33.418,76.587 31.164,75.306 28.868,73.843 C23.9168351,70.5919472 19.4206508,66.6960388 15.498,62.258 C13.6600297,60.1900843 12.0435563,57.9354675 10.675,55.531 L10.675,55.531 L10.675,55.531 L6.615,29.281 C6.125,26.005 5.726,23.38 5.453,21.539 L5.159,19.439 L5.089,18.9 C5.08116709,18.8372435 5.08116709,18.7737565 5.089,18.711 C5.11106742,18.7695181 5.12519315,18.8307295 5.131,18.893 L5.236,19.432 L5.593,21.532 C5.894,23.366 6.293,25.991 6.86,29.232 C7.91,35.826 9.38,45.01 11.06,55.461 L11.06,55.412 C12.4202083,57.785787 14.0198824,60.0140721 15.834,62.062 C19.7417938,66.4764262 24.2135154,70.3574099 29.134,73.605 C31.416,75.075 33.593,76.454 35.749,77.553 C37.905,78.652 39.914,79.653 41.776,80.507 C42.7,80.962 43.617,81.319 44.478,81.648 L46.9,82.6 C48.405,83.237 49.763,83.615 50.848,84 L53.361,84.84 L54.012,85.064 C54.0762636,85.0715407 54.139591,85.0856135 54.201,85.106 Z" id="Path" fill="#D3D7E1"></path>
                        <path d="M51.037,69.524 C51.037,69.524 51.037,69.566 50.918,69.636 L50.533,69.944 L49.042,71.106 L43.4,75.439 L43.316,75.509 L43.246,75.411 C41.342,72.786 38.997,69.538 36.337,65.849 L36.547,65.884 L31.248,69.664 L31.073,69.79 L30.996,69.58 C28.896,63.98 26.607,57.68 24.164,51.051 L23.184,48.384 L23.513,48.384 L19.201,56.952 L19.012,57.323 L18.879,56.931 C15.12,46.109 11.935,36.911 9.863,30.94 L10.052,30.94 C9.485,33.334 9.037,35.217 8.729,36.54 C8.575,37.17 8.449,37.66 8.365,38.01 L8.267,38.388 C8.25734867,38.4323017 8.24081479,38.4748174 8.218,38.514 L8.218,38.381 C8.218,38.283 8.26,38.157 8.288,38.003 L8.603,36.519 C8.89,35.196 9.303,33.306 9.835,30.919 L9.912,30.583 L10.031,30.912 C12.131,36.869 15.372,46.046 19.187,56.847 L18.865,56.847 L23.17,48.279 L23.359,47.901 L23.506,48.293 L24.486,50.96 C26.915,57.596 29.225,63.889 31.283,69.503 L31.031,69.426 L36.351,65.674 L36.47,65.59 L36.561,65.709 L43.4,75.285 L43.239,75.285 L48.958,71.036 L50.484,69.916 L50.883,69.636 L51.037,69.524 Z" id="Path" fill="#D3D7E1"></path>
                        <path d="M49.798,43.785 C49.5402439,43.759088 49.2864712,43.702694 49.042,43.617 C48.566,43.484 47.873,43.274 47.033,42.994 C44.8457401,42.2626553 42.6984432,41.4168213 40.6,40.46 C38.4874711,39.507992 36.4244971,38.4496372 34.419,37.289 C33.656,36.841 33.019,36.463 32.627,36.19 C32.4015893,36.064254 32.1923747,35.9114568 32.004,35.735 C32.2499294,35.8186065 32.4849416,35.9314124 32.704,36.071 L34.552,37.065 C36.113,37.898 38.29,39.018 40.754,40.131 C43.218,41.244 45.493,42.133 47.152,42.756 C47.929,43.036 48.552,43.281 49.119,43.456 C49.3591402,43.53453 49.5875467,43.6452012 49.798,43.785 Z" id="Path" fill="#D3D7E1"></path>
                        <path d="M51.226,46.011 C50.6369524,45.9793896 50.05397,45.8759573 49.49,45.703 C48.1090945,45.3694178 46.7468487,44.9628471 45.409,44.485 C44.0722089,44.0055239 42.7614175,43.4564402 41.482,42.84 C40.9391112,42.6138895 40.4246,42.3249175 39.949,41.979 C40.5155246,42.1380137 41.0661871,42.3489057 41.594,42.609 C42.595,43.022 43.981,43.582 45.535,44.142 C47.089,44.702 48.517,45.143 49.56,45.458 C50.1311358,45.5907855 50.6888254,45.7759009 51.226,46.011 L51.226,46.011 Z" id="Path" fill="#D3D7E1"></path>
                        <path d="M37.051,65.863 C37.051,66.311 36.778,66.668 36.442,66.668 C36.106,66.668 35.84,66.311 35.84,65.863 C35.84,65.415 36.113,65.058 36.442,65.058 C36.771,65.058 37.051,65.422 37.051,65.863 Z" id="Path" fill="#D3D7E1"></path>
                        <ellipse id="Oval" fill="#D3D7E1" cx="23.282" cy="48.895" rx="1" ry="1"></ellipse>
                        <path d="M10.591,31.192 C10.591,31.633 10.318,31.997 9.989,31.997 C9.66,31.997 9.387,31.633 9.387,31.192 C9.387,30.751 9.653,30.387 9.989,30.387 C10.325,30.387 10.591,30.751 10.591,31.192 Z" id="Path" fill="#D3D7E1"></path>
                        <path d="M235.2,13.748 L230.755,68.278 C230.755,68.278 217.756,91.595 182,92.484 L186.417,37.583 C186.417,37.583 217.616,36.316 235.2,13.748 Z" id="Path" fill="#D3D7E1"></path>
                        <path d="M234.5,10.906 C233.338,7.133 230.51,1.75 223.79,0.63 L215.866,73.976 C215.866,73.976 230.783,71.001 231.182,62.825 C231.217,62.125 234.199,25.662 234.948,16.625 C235.173678,14.7077045 235.021477,12.7647668 234.5,10.906 L234.5,10.906 Z" id="Path" fill="#D3D7E1"></path>
                        <g id="Group" opacity="0.8" transform="translate(182.000000, 13.300000)" fill="#FFFFFF">
                            <path d="M53.2,0.448 L48.755,54.978 C48.755,54.978 35.756,78.295 0,79.184 L4.417,24.283 C4.417,24.283 35.616,23.016 53.2,0.448 Z" id="Path"></path>
                        </g>
                        <path d="M234.115,27.65 C230.536587,32.8457125 228.558163,38.9756658 228.424,45.283 C228.389,47.096 228.494,48.965 227.801,50.638 C227.108,52.311 225.316,53.711 223.601,53.235 C221.886,52.759 220.962,50.575 219.366,49.567 C217.867378,48.7279058 216.031454,48.7681086 214.571,49.672 C213.145257,50.5862103 212.04324,51.9257732 211.421,53.501 C210.126,56.49 210.021,59.864 209.083,62.979 C208.145,66.094 205.779,69.237 202.517,69.377 C201.327,69.426 200.151,69.069 198.961,69.104 C196.448,69.181 194.264,71.05 193.095,73.304 C191.926,75.558 191.569,78.085 191.233,80.577 C191.233,80.577 210.287,82.397 231.672,57.141 L234.115,27.65 Z" id="Path" fill="#D3D7E1"></path>
                        <path d="M203.826,60.725 C203.826,61.425 203.49,61.95 203.077,61.95 C202.664,61.95 202.335,61.404 202.335,60.725 C202.335,60.046 202.664,59.5 203.077,59.5 C203.49,59.5 203.826,60.053 203.826,60.725 Z" id="Path" fill="#D3D7E1"></path>
                        <path d="M212.8,38.059 C212.8,38.759 212.464,39.284 212.051,39.284 C211.638,39.284 211.309,38.731 211.309,38.059 C211.309,37.387 211.638,36.834 212.051,36.834 C212.464,36.834 212.8,37.38 212.8,38.059 Z" id="Path" fill="#D3D7E1"></path>
                        <path d="M233.688,30.282 C233.658543,30.3883251 233.618684,30.4914899 233.569,30.59 L233.163,31.479 C232.785,32.27 232.26,33.39 231.595,34.804 L225.911,46.641 L225.834,46.802 L225.68,46.704 L212.205,38.178 L212.471,38.094 C212.296,38.528 212.1,38.997 211.911,39.494 L203.21,60.781 L203.147,60.928 L203.014,60.851 C199.654,58.961 196.91,57.442 195.006,56.406 C194.047,55.888 193.305,55.489 192.794,55.23 L192.213,54.95 L192.01,54.859 C193.077754,55.2181558 194.105277,55.6873444 195.076,56.259 C197.008,57.253 199.766,58.737 203.147,60.599 L202.951,60.669 L211.575,39.326 C211.764,38.857 211.96,38.388 212.135,37.926 L212.219,37.723 L212.401,37.842 L225.855,46.41 L225.624,46.473 C228.011,41.622 230.013,37.569 231.427,34.699 L233.1,31.43 L233.548,30.569 C233.586696,30.4696468 233.633522,30.3736547 233.688,30.282 L233.688,30.282 Z" id="Path" fill="#D3D7E1"></path>
                    </g>
                </g>
            </g>
        </g>
    </g>
</svg>