<?xml version="1.0" encoding="UTF-8"?>
<svg width="380px" height="344px" viewBox="0 0 380 344" version="1.1" xmlns="http://www.w3.org/2000/svg" xmlns:xlink="http://www.w3.org/1999/xlink">
    <!-- Generator: Sketch 58 (84663) - https://sketch.com -->
    <title>Group 14</title>
    <desc>Created with Sketch.</desc>
    <g id="Page-1" stroke="none" stroke-width="1" fill="none" fill-rule="evenodd">
        <g id="BSFI-2" transform="translate(-340.000000, -893.000000)">
            <g id="Group-14" transform="translate(335.000000, 888.000000)">
                <g id="Group-9">
                    <rect id="Rectangle" fill="#5FC9D7" transform="translate(34.301750, 35.024801) rotate(45.000000) translate(-34.301750, -35.024801) " x="-1.60825004" y="22.4248009" width="71.82" height="25.2" rx="12.6"></rect>
                    <rect id="Rectangle-Copy-14" fill="#F7C407" transform="translate(40.487102, 80.913267) rotate(45.000000) translate(-40.487102, -80.913267) " x="4.57710223" y="73.6682668" width="71.82" height="14.49" rx="7.245"></rect>
                    <circle id="Oval" fill="#5FC9D7" cx="359.1" cy="300.603051" r="25.83"></circle>
                    <polygon id="Polygon" fill="#F7C407" points="45.99 301.413051 61.11 316.533051 45.99 331.653051 30.87 316.533051"></polygon>
                    <polygon id="Polygon" fill="#F7C407" points="185.86 13.3130509 193.42 20.8730509 185.86 28.4330509 178.3 20.8730509"></polygon>
                    <g id="Group-11" transform="translate(294.000000, 51.000000)">
                        <rect id="Rectangle" fill="#002060" x="0" y="0.723050896" width="16.8" height="4.8" rx="2.4"></rect>
                        <rect id="Rectangle-Copy-37" fill="#A2A8B8" x="19.2" y="0.723050896" width="9.6" height="4.8" rx="2.4"></rect>
                        <rect id="Rectangle-Copy-38" fill="#A2A8B8" x="31.2" y="0.723050896" width="9.6" height="4.8" rx="2.4"></rect>
                        <rect id="Rectangle-Copy-39" fill="#A2A8B8" x="43.2" y="0.723050896" width="9.6" height="4.8" rx="2.4"></rect>
                    </g>
                </g>
                <g id="Group-12" transform="translate(107.000000, 41.000000)">
                    <path d="M162.6,127.640344 C162.701972,128.627418 162.858817,129.591603 163.080311,130.523051 C162.763066,129.69851 162.621772,128.711436 162.6,127.640344 Z M247.960732,6.78830236 C247.697748,9.07471269 246.549256,11.1069101 245.214846,12.8939306 C245.071809,13.0830843 245.110192,13.0755543 245.090101,12.8005585 C245.064013,12.9345926 245.013635,13.0318802 244.942866,13.1005539 C244.943466,14.3113785 245.00314,15.5541303 244.887391,16.6194752 C244.555737,19.6703315 244.038166,22.7293202 243.362565,25.7226473 C243.198238,26.4506481 243.015918,27.1717212 242.816507,27.8855656 C244.093942,26.9075687 245.791191,26.0681239 246.451499,25.812405 C248.165241,25.1494634 250.788181,24.4741727 252.384675,25.8331878 C253.709189,26.9605799 253.677403,28.8268161 252.484231,30.0286047 C251.063459,31.4593054 248.615642,31.2761757 246.793948,31.0340108 C245.969912,30.9243739 241.569958,30.3388408 242.655178,29.6704777 C242.573014,29.6966821 242.40089,29.7617413 242.215572,29.8527038 C242.100123,30.2017947 241.979877,30.5493797 241.855432,30.8951575 C241.880621,30.9117235 241.901911,30.9291931 241.928899,30.9457591 C241.899512,30.9310003 241.879121,30.9156391 241.853333,30.9008803 C240.606784,34.3568508 238.91913,37.621258 236.774779,40.6456087 C237.531044,40.3926006 238.3101,40.2118805 239.093653,40.1543513 C241.414027,39.9835708 246.169324,42.0296234 243.430035,44.9645176 C240.803497,47.7780282 237.119926,44.418743 234.336857,43.8362219 C231.416149,47.4930929 228.22466,50.977075 224.895532,54.3318423 C225.085049,54.4023231 225.247577,54.5369596 225.334238,54.7378601 C226.629366,54.1637726 227.991963,53.3167978 229.172541,53.1300537 C230.876087,52.8610819 234.342254,52.8255403 235.536626,54.4008171 C237.005677,56.3378353 235.247854,57.756488 233.378781,58.0152189 C230.668579,58.3905143 227.224902,56.8950555 224.689524,55.8736858 C224.391455,55.9104323 224.073596,55.8071206 223.893376,55.5607389 C223.8373,55.5390525 223.781225,55.5176673 223.726649,55.4968845 C220.358539,58.8323749 216.87468,62.0458793 213.41481,65.186192 C213.449894,65.186192 213.484979,65.1858908 213.521563,65.1858908 C214.408271,64.668429 215.351953,64.2551824 216.361307,64.0657275 C218.696374,63.6244693 221.409274,63.7639249 223.192885,65.530765 C224.9696,67.2900751 225.477575,70.2306921 223.451671,71.9954238 C219.396564,75.5278992 214.156382,66.7141804 212.228235,66.2566574 C208.714089,69.4126325 205.019723,72.3396956 201.27318,75.201097 C201.686997,75.0983877 202.10951,75.0291117 202.543418,75.0107385 C206.078255,74.8583312 214.107803,79.604342 209.569011,83.6217496 C205.61376,87.1225989 201.633021,79.7766285 198.732104,77.1284767 C195.203264,79.7934957 191.657033,82.438033 188.200461,85.1976287 C190.026953,84.8135985 191.771582,84.8343814 193.672141,85.5193105 C195.638672,86.228938 198.783981,87.9072253 197.379402,90.5397146 C195.950834,93.2167815 192.144317,91.7649968 190.173289,90.7879035 C189.098264,90.2550804 186.977002,88.5355288 185.076143,87.7584324 C179.544789,92.4595643 174.692335,97.7025553 170.897814,103.979566 C168.528861,107.898783 166.665785,112.121006 165.281298,116.488409 C164.397588,119.276016 162.699439,123.946727 162.796896,127.640344 C161.799537,120.204917 164.763726,111.493004 167.802583,105.053044 C170.596747,99.1311476 174.582284,94.0128535 179.175053,89.458406 C178.257159,86.1229156 169.333106,80.913659 174.97571,78.1552681 C177.971685,76.6974593 180.813828,79.5260299 181.302012,82.3895398 C181.637264,84.3572803 180.843215,86.7659779 180.037471,88.6165516 C181.479834,87.2304285 182.973773,85.8940035 184.508494,84.606674 C186.629456,82.8274848 188.795998,81.1055235 190.981131,79.4076583 C187.70598,75.9899402 184.930707,66.5647851 189.62873,65.2934193 C196.565862,63.422364 192.620506,75.8733757 192.020772,78.2143033 C191.885232,78.2152069 191.782077,78.1688221 191.709209,78.0772572 C191.736198,78.2959285 191.768583,78.529961 191.810265,78.7664032 C195.991616,75.5348268 200.228742,72.3740324 204.339923,69.0563128 C203.999874,68.7761966 203.489799,67.7472969 203.075683,67.192185 C202.140996,65.9406984 201.252189,64.6380078 200.628165,63.1985723 C199.642501,60.9239087 198.765089,57.332097 201.754167,56.1812112 C205.005029,54.9270138 206.304954,59.005565 206.2021,61.3925762 C206.130731,63.0434542 205.599366,64.5874061 205.280607,66.1925017 C205.181051,66.6930964 205.34358,68.9816151 204.707861,67.9674742 C204.721355,68.329818 204.712359,68.5912597 204.68657,68.7755942 C205.424844,68.1768083 206.158019,67.5707936 206.886997,66.9599597 C206.859109,66.8765273 206.839918,66.7861672 206.839918,66.6825544 C206.839918,65.9693124 207.569795,65.7328703 208.060678,65.9675052 C209.023552,65.1437228 209.97803,64.3084948 210.917215,63.4548936 C212.907734,61.6464879 214.92854,59.785071 216.938252,57.8811848 C216.543626,57.5043834 216.733742,57.0212584 216.367004,56.6239754 C216.000866,56.227596 215.251797,55.9797083 214.81639,55.6065213 C213.721274,54.6673792 212.842063,53.336677 212.223737,52.0400103 C211.202988,49.8975737 209.971733,45.4509559 213.32455,44.6310891 C216.780521,43.7844155 218.287055,48.081638 218.368019,50.7231633 C218.383912,51.2349023 217.761987,55.8059158 217.382655,57.4576974 C221.10221,53.9185957 224.771087,50.236725 228.117607,46.4705184 C227.165828,46.4117844 224.568377,44.3187445 224.050506,43.7576086 C222.786865,42.3889552 220.820335,39.4079773 223.234567,38.0116134 C225.381018,36.7733796 227.837531,38.8585882 228.625883,40.8013292 C228.755425,41.1212037 229.117665,44.0542908 229.089478,45.3602946 C230.476664,43.7615242 231.804477,42.1498022 233.046228,40.5281406 C233.874161,39.4501453 234.653217,38.3399216 235.387292,37.202891 C235.230162,37.1025914 235.086225,36.9345217 234.952784,36.7278984 C231.521402,35.9586332 227.390429,30.3237808 231.555587,28.6569392 C233.53861,27.8644816 235.541724,29.819873 236.41104,31.3803909 C236.589161,31.6996631 236.822458,33.2701207 237.014373,34.5092581 C239.153027,30.7270878 240.847278,26.6931142 242.193682,22.5365521 C241.896214,22.4458909 241.653021,22.20222 241.640127,21.8043346 C240.009448,20.7576641 238.723917,19.8899064 237.647093,17.9851167 C236.978089,16.8020025 235.802309,14.1174056 237.977547,13.5942209 C240.808295,12.9135086 242.336119,17.2640435 242.454267,19.3736494 C242.468061,19.6185251 242.429978,20.3266467 242.386797,20.9751306 C242.484254,20.9669982 242.58201,20.9736246 242.677068,20.9956122 C243.454025,18.4188449 244.103537,15.8017168 244.648696,13.1746491 C243.152958,12.6050796 243.308589,4.59887848 244.381215,3.51395554 C246.778954,1.08447514 248.183533,4.8491758 247.960732,6.78830236 Z M254.915957,14.23772 C253.337952,17.4748442 248.142812,17.2435114 245.213472,17.0241442 C245.507813,17.0241442 246.612117,14.0376816 246.959757,13.595879 C247.985011,12.2925615 249.410606,11.3837981 250.897883,10.7395027 C253.316992,9.69359652 256.389161,11.2147473 254.915957,14.23772 Z" id="Leaf-Bottom" fill="#002060" opacity="0.049999997" transform="translate(208.950000, 66.623051) scale(-1, 1) rotate(-3.000000) translate(-208.950000, -66.623051) "></path>
                    <g id="Image" transform="translate(0.000000, 26.800000)">
                        <g id="Web" transform="translate(0.415000, 0.598000)">
                            <rect id="Container" fill="#EAEBF1" x="-5.68434189e-14" y="0.723050896" width="234.428" height="237" rx="5.544"></rect>
                            <g id="Row" transform="translate(14.585000, 176.602000)">
                                <rect id="Container" fill="#FFFFFF" x="0" y="0" width="133" height="47" rx="4"></rect>
                                <g id="Text-Stuff" transform="translate(9.000000, 14.000000)" fill="#DDE3E9">
                                    <rect id="Label" x="0" y="0" width="75" height="7.05" rx="3"></rect>
                                    <rect id="Label" x="0" y="11.75" width="50.3424658" height="7.05" rx="3"></rect>
                                </g>
                                <g id="Check" transform="translate(112.000000, 16.000000)">
                                    <circle id="Background" fill="#DDE3E9" cx="7" cy="7" r="7"></circle>
                                    <circle id="Indicator" fill="#F2F2F2" cx="7" cy="7" r="3"></circle>
                                </g>
                            </g>
                            <g id="Components" transform="translate(155.585000, 115.602000)">
                                <rect id="Background" fill="#FFFFFF" x="0" y="0" width="70" height="109" rx="8"></rect>
                                <g id="Rows" transform="translate(18.000000, 18.000000)">
                                    <rect id="Data" fill="#DDE3E9" x="0" y="0" width="34" height="26" rx="4"></rect>
                                    <rect id="Data" fill="#AFB9C5" x="0" y="34" width="34" height="25" rx="4"></rect>
                                    <rect id="Data" fill="#DDE3E9" x="0" y="67" width="34" height="25" rx="4"></rect>
                                </g>
                            </g>
                            <g id="Profile" transform="translate(155.585000, 26.602000)">
                                <rect id="Background" fill="#FFFFFF" x="0" y="0" width="70" height="81" rx="8"></rect>
                                <g id="Profile-Info" transform="translate(10.000000, 15.000000)" fill="#DDE3E9">
                                    <circle id="Avatar" cx="25" cy="16" r="16"></circle>
                                    <rect id="Name" x="0" y="36" width="50" height="6" rx="3"></rect>
                                    <rect id="Name" x="8" y="46" width="34" height="6" rx="3"></rect>
                                </g>
                            </g>
                            <path d="M5.544,0.723050896 L228.884,0.723050896 C231.945867,0.723050896 234.428,3.20518424 234.428,6.2670509 L234.428,19.4340509 L234.428,19.4340509 L0,19.4340509 L0,6.2670509 C5.132079e-16,3.20518424 2.48213335,0.723050896 5.544,0.723050896 Z" id="Header" fill="#D3D7E1"></path>
                            <g id="Buttons" transform="translate(6.237000, 6.930000)" fill="#F2F2F2">
                                <circle id="buttons" cx="2.772" cy="3.4950509" r="2.772"></circle>
                                <circle id="buttons" cx="11.088" cy="3.4950509" r="2.772"></circle>
                                <circle id="buttons" cx="19.404" cy="3.4950509" r="2.772"></circle>
                            </g>
                            <rect id="Background" fill="#FFFFFF" x="14.83" y="29.602" width="133" height="139" rx="5.544"></rect>
                            <g id="Head" transform="translate(71.000000, 69.000000)" fill="#B28B67">
                                <path d="M33.1874674,7.73495397 C38.2924197,17.3523912 37.6858187,41.7478182 31.0881227,43.4667225 C28.4570415,44.1522007 22.8521363,42.4731173 17.1475744,38.9978958 L20.7278571,64.602 L-0.415,64.602 L6.86329299,30.3119397 C2.80415093,25.4960105 0.0568829546,19.5940832 0.515969628,12.9808288 C1.8387671,-6.07438818 28.0825151,-1.88248323 33.1874674,7.73495397 Z" id="Head-[skin]"></path>
                            </g>
                            <path d="M69.585,55.602 C76.5561935,55.602 82.2457948,61.0891484 82.5703827,67.9800241 C93.2622493,64.2092525 107.280509,68.4811072 105.416887,77.1000084 C104.227054,82.602764 97.7834324,85.3511004 91.4444347,88.2925195 C90.5131326,86.6898992 88.7335704,85.6070617 86.6916361,85.6070617 C83.6827352,85.6070617 81.243539,87.9582939 81.243539,90.8586858 C81.243539,91.9034276 81.5600227,92.8769163 82.1056163,93.6949294 C79.9737011,95.5289735 78.468826,97.7374985 78.1049127,100.602 C74.7147104,100.602 69.2635272,90.889973 70.8766026,81.5371874 C70.4524858,81.5805114 70.0212524,81.602 69.585,81.602 C62.4052983,81.602 56.585,75.7817017 56.585,68.602 C56.585,61.4222983 62.4052983,55.602 69.585,55.602 Z" id="Hair" fill="#191847"></path>
                            <g id="Asset-13" transform="translate(23.585000, 37.602000)" fill-rule="nonzero">
                                <path d="M18.305,105.819286 C18.2140307,105.819286 18.1267874,105.782863 18.0624624,105.718538 C17.9981374,105.654213 17.962,105.566969 17.962,105.476 L17.962,8.113 C17.962,7.91970034 18.1187003,7.763 18.312,7.763 C18.5052997,7.763 18.6620001,7.91970034 18.6620001,8.113 L18.6620001,105.476 C18.6620779,105.569448 18.6240251,105.658882 18.5566395,105.723625 C18.4892539,105.788368 18.3983698,105.822814 18.305,105.819286 L18.305,105.819286 Z" id="Path" fill="#D9D9D6"></path>
                                <path d="M34.181,105.819286 C34.0900307,105.819286 34.0027874,105.782863 33.9384624,105.718538 C33.8741374,105.654213 33.838,105.566969 33.838,105.476 L33.838,8.113 C33.838,7.91970034 33.9947003,7.763 34.188,7.763 C34.3812997,7.763 34.5380001,7.91970034 34.5380001,8.113 L34.5380001,105.476 C34.5380779,105.569448 34.5000251,105.658882 34.4326395,105.723625 C34.3652539,105.788368 34.2743698,105.822814 34.181,105.819286 Z" id="Path" fill="#D9D9D6"></path>
                                <path d="M50.057,105.819286 C49.9660307,105.819286 49.8787874,105.782863 49.8144624,105.718538 C49.7501374,105.654213 49.714,105.566969 49.714,105.476 L49.714,8.113 C49.714,7.91970034 49.8707003,7.763 50.064,7.763 C50.2572997,7.763 50.4140001,7.91970034 50.4140001,8.113 L50.4140001,105.476 C50.4140779,105.569448 50.3760251,105.658882 50.3086395,105.723625 C50.2412539,105.788368 50.1503698,105.822814 50.057,105.819286 Z" id="Path" fill="#D9D9D6"></path>
                                <path d="M65.933,105.819286 C65.8420307,105.819286 65.7547874,105.782863 65.6904624,105.718538 C65.6261374,105.654213 65.59,105.566969 65.59,105.476 L65.59,8.113 C65.59,7.91970034 65.7467003,7.763 65.94,7.763 C66.1332997,7.763 66.2900001,7.91970034 66.2900001,8.113 L66.2900001,105.476 C66.2900779,105.569448 66.2520251,105.658882 66.1846395,105.723625 C66.1172539,105.788368 66.0263698,105.822814 65.933,105.819286 Z" id="Path" fill="#D9D9D6"></path>
                                <path d="M81.809,105.819 C81.7186611,105.819 81.63212,105.78266 81.5689026,105.718126 C81.5056852,105.653592 81.4711179,105.566319 81.473,105.476 L81.473,8.113 C81.4711179,8.02268067 81.5056852,7.93540836 81.5689026,7.87087397 C81.63212,7.80633957 81.7186611,7.76999999 81.809,7.76999999 C81.9984337,7.76999999 82.152,7.92356633 82.152,8.113 L82.152,105.476 C82.152,105.665434 81.9984337,105.819 81.809,105.819 Z" id="Path" fill="#D9D9D6"></path>
                                <path d="M97.685,105.819 C97.5946611,105.819 97.50812,105.78266 97.4449026,105.718126 C97.3816852,105.653592 97.3471179,105.566319 97.349,105.476 L97.349,8.113 C97.3471179,8.02268067 97.3816852,7.93540836 97.4449026,7.87087397 C97.50812,7.80633957 97.5946611,7.76999999 97.685,7.76999999 C97.8744337,7.76999999 98.028,7.92356633 98.028,8.113 L98.028,105.476 C98.028,105.665434 97.8744337,105.819 97.685,105.819 Z" id="Path" fill="#D9D9D6"></path>
                                <path d="M102.571,17.444 L13.426,17.444 C13.2327003,17.444 13.076,17.2872997 13.076,17.094 C13.076,16.9007003 13.2327003,16.744 13.426,16.744 L102.571,16.744 C102.7643,16.744 102.921,16.9007003 102.921,17.094 C102.921,17.2872997 102.7643,17.444 102.571,17.444 Z" id="Path" fill="#D9D9D6"></path>
                                <path d="M102.571,33.32 L13.426,33.32 C13.2327003,33.32 13.076,33.1632997 13.076,32.97 C13.076,32.7767003 13.2327003,32.62 13.426,32.62 L102.571,32.62 C102.7643,32.62 102.921,32.7767003 102.921,32.97 C102.921,33.1632997 102.7643,33.32 102.571,33.32 Z" id="Path" fill="#D9D9D6"></path>
                                <path d="M102.571,49.196 L13.426,49.196 C13.3356807,49.1978821 13.2484084,49.1633148 13.183874,49.1000974 C13.1193396,49.03688 13.083,48.9503389 13.083,48.86 C13.083,48.6705663 13.2365663,48.517 13.426,48.517 L102.571,48.517 C102.760434,48.517 102.914,48.6705663 102.914,48.86 C102.914,48.9503389 102.87766,49.03688 102.813126,49.1000974 C102.748592,49.1633148 102.661319,49.1978821 102.571,49.196 L102.571,49.196 Z" id="Path" fill="#D9D9D6"></path>
                                <path d="M102.571,65.1 L13.426,65.1 C13.2327003,65.1 13.076,64.9432997 13.076,64.75 C13.076,64.5567003 13.2327003,64.4 13.426,64.4 L102.571,64.4 C102.7643,64.4 102.921,64.5567003 102.921,64.75 C102.921,64.9432997 102.7643,65.1 102.571,65.1 Z" id="Path" fill="#D9D9D6"></path>
                                <path d="M102.571,80.948 L13.426,80.948 C13.3356807,80.9498821 13.2484084,80.9153148 13.183874,80.8520974 C13.1193396,80.78888 13.083,80.7023389 13.083,80.612 C13.083,80.4225663 13.2365663,80.269 13.426,80.269 L102.571,80.269 C102.760434,80.269 102.914,80.4225663 102.914,80.612 C102.914,80.7023389 102.87766,80.78888 102.813126,80.8520974 C102.748592,80.9153148 102.661319,80.9498821 102.571,80.948 Z" id="Path" fill="#D9D9D6"></path>
                                <path d="M102.571,96.831 L13.426,96.831 C13.2327003,96.831 13.076,96.6742997 13.076,96.481 C13.076,96.2877003 13.2327003,96.131 13.426,96.131 L102.571,96.131 C102.7643,96.131 102.921,96.2877003 102.921,96.481 C102.921,96.6742997 102.7643,96.831 102.571,96.831 Z" id="Path" fill="#D9D9D6"></path>
                                <polygon id="Path" fill="#C5CFD6" points="14.14 22.526 16.219 22.526 16.219 12.985 25.76 12.985 25.76 10.906 14.14 10.906"></polygon>
                                <polygon id="Path" fill="#C5CFD6" points="90.237 10.906 90.237 12.985 99.771 12.985 99.771 22.526 101.85 22.526 101.85 10.906"></polygon>
                                <polygon id="Path" fill="#C5CFD6" points="99.771 100.604 90.237 100.604 90.237 102.683 101.85 102.683 101.85 91.07 99.771 91.07"></polygon>
                                <polygon id="Path" fill="#C5CFD6" points="16.219 91.07 14.14 91.07 14.14 102.683 25.76 102.683 25.76 100.604 16.219 100.604"></polygon>
                                <polygon id="Path" fill="#C5CFD6" points="7.973 17.71 10.346 17.71 10.346 6.832 21.224 6.832 21.224 4.459 7.973 4.459"></polygon>
                                <polygon id="Path" fill="#C5CFD6" points="94.766 4.459 94.766 6.832 105.644 6.832 105.644 17.71 108.017 17.71 108.017 4.459"></polygon>
                                <polygon id="Path" fill="#C5CFD6" points="105.644 106.764 94.766 106.764 94.766 109.137 108.017 109.137 108.017 95.886 105.644 95.886"></polygon>
                                <polygon id="Path" fill="#C5CFD6" points="10.346 95.886 7.973 95.886 7.973 109.137 21.224 109.137 21.224 106.764 10.346 106.764"></polygon>
                                <path d="M86.429,12.411 L83.839,12.411 L83.839,11.438 L86.429,11.438 L86.429,12.411 Z M80.829,12.411 L77.812,12.411 L77.812,11.438 L80.829,11.438 L80.829,12.411 Z M74.795,12.411 L71.785,12.411 L71.785,11.438 L74.795,11.438 L74.795,12.411 Z M68.768,12.411 L65.744,12.411 L65.744,11.438 L68.761,11.438 L68.768,12.411 Z M62.734,12.411 L59.724,12.411 L59.724,11.438 L62.734,11.438 L62.734,12.411 Z M56.707,12.411 L53.683,12.411 L53.683,11.438 L56.7,11.438 L56.707,12.411 Z M50.673,12.411 L47.649,12.411 L47.649,11.438 L50.666,11.438 L50.673,12.411 Z M44.646,12.411 L41.622,12.411 L41.622,11.438 L44.639,11.438 L44.646,12.411 Z M38.612,12.411 L35.588,12.411 L35.588,11.438 L38.605,11.438 L38.612,12.411 Z M32.585,12.411 L29.561,12.411 L29.561,11.438 L32.578,11.438 L32.585,12.411 Z" id="Shape" fill="#C5CFD6"></path>
                                <path d="M86.429,102.2 L83.839,102.2 L83.839,101.227 L86.429,101.227 L86.429,102.2 Z M80.829,102.2 L77.812,102.2 L77.812,101.227 L80.829,101.227 L80.829,102.2 Z M74.795,102.2 L71.785,102.2 L71.785,101.227 L74.795,101.227 L74.795,102.2 Z M68.768,102.2 L65.744,102.2 L65.744,101.227 L68.761,101.227 L68.768,102.2 Z M62.734,102.2 L59.724,102.2 L59.724,101.227 L62.734,101.227 L62.734,102.2 Z M56.7,102.2 L53.683,102.2 L53.683,101.227 L56.7,101.227 L56.7,102.2 Z M50.666,102.2 L47.649,102.2 L47.649,101.227 L50.666,101.227 L50.666,102.2 Z M44.639,102.2 L41.622,102.2 L41.622,101.227 L44.639,101.227 L44.639,102.2 Z M38.605,102.2 L35.588,102.2 L35.588,101.227 L38.605,101.227 L38.605,102.2 Z M32.578,102.2 L29.561,102.2 L29.561,101.227 L32.578,101.227 L32.578,102.2 Z" id="Shape" fill="#C5CFD6"></path>
                                <path d="M100.303,85.232 L100.303,82.635 L101.269,82.635 L101.269,85.232 L100.303,85.232 Z M100.303,79.632 L100.303,76.622 L101.269,76.622 L101.269,79.632 L100.303,79.632 Z M100.303,73.605 L100.303,70.588 L101.269,70.588 L101.269,73.605 L100.303,73.605 Z M100.303,67.571 L100.303,64.561 L101.269,64.561 L101.269,67.571 L100.303,67.571 Z M100.303,61.544 L100.303,58.513 L101.269,58.513 L101.269,61.53 L100.303,61.544 Z M100.303,55.51 L100.303,52.5 L101.269,52.5 L101.269,55.51 L100.303,55.51 Z M100.303,49.483 L100.303,46.452 L101.269,46.452 L101.269,49.469 L100.303,49.483 Z M100.303,43.449 L100.303,40.418 L101.269,40.418 L101.269,43.435 L100.303,43.449 Z M100.303,37.422 L100.303,34.391 L101.269,34.391 L101.269,37.408 L100.303,37.422 Z M100.303,31.388 L100.303,28.357 L101.269,28.357 L101.269,31.374 L100.303,31.388 Z" id="Shape" fill="#C5CFD6"></path>
                                <path d="M14.602,85.232 L14.602,82.635 L15.568,82.635 L15.568,85.232 L14.602,85.232 Z M14.602,79.632 L14.602,76.622 L15.568,76.622 L15.568,79.632 L14.602,79.632 Z M14.602,73.605 L14.602,70.588 L15.568,70.588 L15.568,73.605 L14.602,73.605 Z M14.602,67.571 L14.602,64.561 L15.568,64.561 L15.568,67.571 L14.602,67.571 Z M14.602,61.544 L14.602,58.513 L15.568,58.513 L15.568,61.53 L14.602,61.544 Z M14.602,55.51 L14.602,52.5 L15.568,52.5 L15.568,55.51 L14.602,55.51 Z M14.602,49.483 L14.602,46.452 L15.568,46.452 L15.568,49.469 L14.602,49.483 Z M14.602,43.449 L14.602,40.418 L15.568,40.418 L15.568,43.435 L14.602,43.449 Z M14.602,37.422 L14.602,34.391 L15.568,34.391 L15.568,37.408 L14.602,37.422 Z M14.602,31.388 L14.602,28.357 L15.568,28.357 L15.568,31.374 L14.602,31.388 Z" id="Shape" fill="#C5CFD6"></path>
                                <path d="M56.651,94.717 C55.734,94.682 54.81,94.619 53.893,94.521 L54.53,88.571 C55.307,88.655 56.091,88.711 56.861,88.739 L56.651,94.717 Z M59.416,94.717 L59.199,88.739 C59.969,88.739 60.753,88.655 61.53,88.571 L62.174,94.514 C61.264,94.612 60.333,94.675 59.416,94.71 L59.416,94.717 Z M51.156,94.129 C50.253,93.961 49.343,93.765 48.447,93.534 L49.945,87.745 C50.701,87.941 51.464,88.109 52.227,88.249 L51.156,94.129 Z M64.918,94.129 L63.833,88.2 C64.596,88.06 65.359,87.885 66.108,87.689 L67.62,93.478 C66.731,93.737 65.8,93.94 64.918,94.108 L64.918,94.129 Z M45.794,92.729 C44.919,92.435 44.044,92.099 43.197,91.742 L45.535,86.24 C46.235,86.541 46.984,86.821 47.712,87.066 L45.794,92.729 Z M70.294,92.729 L68.362,87.066 C69.062,86.814 69.825,86.534 70.532,86.233 L72.877,91.735 C72.016,92.071 71.148,92.4 70.273,92.708 L70.294,92.729 Z M40.712,90.587 C39.893,90.167 39.081,89.712 38.297,89.236 L41.405,84.126 C42.105,84.532 42.756,84.917 43.442,85.267 L40.712,90.587 Z M75.383,90.587 L72.646,85.267 C73.346,84.917 74.046,84.567 74.669,84.126 L77.798,89.229 C77,89.656 76.181,90.111 75.362,90.538 L75.383,90.587 Z M35.98,87.731 C35.231,87.199 34.496,86.625 33.789,86.044 L37.611,81.445 C38.206,81.935 38.829,82.418 39.459,82.845 L35.98,87.731 Z M80.08,87.696 L76.58,82.838 C77.21,82.39 77.833,81.907 78.428,81.438 L82.257,86.03 C81.564,86.541 80.822,87.115 80.08,87.647 L80.08,87.696 Z M31.703,84.196 C31.045,83.559 30.394,82.894 29.785,82.208 L34.23,78.211 C34.748,78.785 35.294,79.352 35.854,79.891 L31.703,84.196 Z M84.329,84.154 L80.178,79.8 C80.738,79.261 81.284,78.701 81.795,78.12 L86.247,82.117 C85.638,82.796 84.994,83.468 84.329,84.105 L84.329,84.154 Z M28,80.038 C27.44,79.338 26.894,78.554 26.383,77.791 L31.36,74.473 C31.794,75.124 32.249,75.761 32.725,76.37 L28,80.038 Z M88.018,79.982 L83.3,76.3 C83.776,75.684 84.231,75.047 84.658,74.403 L89.642,77.707 C89.131,78.498 88.585,79.254 88.025,79.982 L88.018,79.982 Z M24.934,75.432 C24.486,74.627 24.059,73.801 23.667,72.968 L29.078,70.42 C29.4,71.12 29.778,71.82 30.142,72.52 L24.934,75.432 Z M91.077,75.369 L85.862,72.443 C86.24,71.743 86.604,71.043 86.926,70.343 L92.344,72.884 C91.959,73.738 91.532,74.564 91.084,75.369 L91.077,75.369 Z M22.575,70.427 C22.246,69.559 21.945,68.677 21.679,67.802 L27.405,66.073 C27.622,66.773 27.881,67.55 28.161,68.278 L22.575,70.427 Z M93.429,70.357 L87.829,68.215 C88.102,67.515 88.361,66.752 88.578,66.01 L94.311,67.725 C94.066,68.6 93.8,69.489 93.436,70.357 L93.429,70.357 Z M21,65.1 C20.804,64.197 20.629,63.28 20.496,62.37 L26.39,61.53 C26.502,62.293 26.649,63.063 26.817,63.819 L21,65.1 Z M95.053,65.016 L89.208,63.728 C89.376,62.972 89.523,62.195 89.628,61.432 L95.529,62.3 C95.396,63.231 95.2,64.148 95.032,65.044 L95.053,65.016 Z M20.174,59.654 C20.104,58.737 20.069,57.806 20.069,56.854 L26.047,56.854 C26.047,57.631 26.047,58.415 26.138,59.185 L20.174,59.654 Z M95.83,59.57 L89.859,59.143 C89.915,58.366 89.943,57.582 89.943,56.805 L89.943,56.7 L95.9,56.63 L95.9,56.805 C95.9,57.729 95.9,58.653 95.83,59.57 Z M26.124,54.537 L20.16,54.124 C20.223,53.207 20.321,52.276 20.454,51.373 L26.369,52.22 C26.264,52.983 26.18,53.767 26.124,54.537 Z M89.824,54.334 C89.768,53.564 89.677,52.787 89.565,52.017 L95.501,51.1 C95.641,52.01 95.746,52.941 95.816,53.858 L89.824,54.334 Z M26.761,49.924 L20.916,48.643 C21.112,47.747 21.35,46.844 21.616,45.962 L27.37,47.67 C27.146,48.412 26.95,49.175 26.789,49.924 L26.761,49.924 Z M89.131,49.728 C88.963,48.972 88.76,48.216 88.536,47.474 L94.255,45.731 C94.521,46.606 94.759,47.509 94.955,48.412 L89.131,49.728 Z M28.119,45.5 L22.519,43.4 C22.848,42.546 23.219,41.685 23.597,40.845 L29.022,43.379 C28.7,44.016 28.392,44.737 28.119,45.5 Z M87.801,45.304 C87.521,44.604 87.213,43.869 86.884,43.169 L92.281,40.6 C92.68,41.426 93.044,42.287 93.38,43.141 L87.801,45.304 Z M30.1,41.237 L24.878,38.318 C25.326,37.513 25.809,36.715 26.32,35.952 L31.311,39.242 C30.877,39.9 30.471,40.558 30.1,41.237 Z M85.813,41.069 C85.428,40.369 85.015,39.718 84.588,39.081 L89.558,35.756 C90.069,36.519 90.559,37.31 91.014,38.115 L85.813,41.069 Z M32.655,37.345 L27.916,33.691 C28.483,32.991 29.071,32.249 29.687,31.591 L34.146,35.574 C33.635,36.12 33.131,36.729 32.655,37.345 Z M83.216,37.191 C82.74,36.575 82.236,35.973 81.718,35.406 L86.156,31.395 C86.765,32.095 87.367,32.795 87.934,33.495 L83.216,37.191 Z M35.763,33.859 L31.605,29.568 C32.263,28.924 32.956,28.301 33.656,27.713 L37.499,32.298 C36.904,32.795 36.323,33.32 35.763,33.859 Z M80.087,33.726 C79.534,33.194 78.946,32.669 78.351,32.179 L82.159,27.566 C82.859,28.154 83.559,28.777 84.224,29.407 L80.087,33.726 Z M39.34,30.863 L35.84,26.012 C36.589,25.473 37.366,24.955 38.143,24.479 L41.3,29.575 C40.6,29.974 39.97,30.408 39.34,30.863 Z M76.496,30.751 C75.866,30.303 75.208,29.876 74.543,29.47 L77.651,24.36 C78.435,24.836 79.212,25.347 79.961,25.879 L76.496,30.751 Z M43.309,28.427 L40.558,23.1 C41.37,22.68 42.21,22.281 43.057,21.917 L45.416,27.412 C44.702,27.734 43.995,28.07 43.309,28.427 Z M72.506,28.336 C71.806,27.979 71.106,27.636 70.406,27.349 L72.73,21.84 C73.577,22.197 74.424,22.589 75.243,23.009 L72.506,28.336 Z M47.6,26.6 L45.64,20.937 C46.508,20.636 47.404,20.363 48.293,20.132 L49.812,25.9 C49.07,26.11 48.3,26.334 47.6,26.6 Z M68.222,26.53 C67.522,26.285 66.745,26.061 65.989,25.83 L67.48,20.041 C68.376,20.272 69.272,20.538 70.133,20.832 L68.222,26.53 Z M52.122,25.41 L51.03,19.53 C51.933,19.362 52.857,19.222 53.767,19.124 L54.432,25.067 C53.627,25.144 52.85,25.256 52.087,25.403 L52.122,25.41 Z M63.7,25.361 C62.944,25.228 62.167,25.116 61.397,25.032 L62.027,19.089 C62.944,19.187 63.868,19.32 64.764,19.481 L63.7,25.361 Z M56.7,24.878 L56.49,18.9 C56.987,18.9 57.498,18.9 58.002,18.9 L59.255,18.9 L59.059,24.878 C58.688,24.878 58.324,24.878 57.939,24.878 C57.554,24.878 57.127,24.864 56.7,24.878 Z" id="Shape" fill="#C5CFD6"></path>
                                <path d="M32.319,112.245 C31.983,112.245 31.752,112.364 31.752,112.609 C31.752,113.435 34.139,112.973 34.132,114.59 C34.132,115.472 33.369,115.948 32.375,115.948 C31.6544984,115.945453 30.9561486,115.698686 30.394,115.248 L30.8,114.422 C31.237054,114.825594 31.7962135,115.071919 32.389,115.122 C32.809,115.122 33.089,114.968 33.089,114.695 C33.089,113.848 30.695,114.338 30.695,112.749 C30.695,111.93 31.395,111.419 32.431,111.419 C33.0350226,111.418903 33.6268939,111.588702 34.139,111.909 L33.747,112.749 C33.3185649,112.468389 32.8286574,112.295481 32.319,112.245 Z" id="Path" fill="#C5CFD6"></path>
                                <path d="M36.932,112.273 C36.1588014,112.273 35.532,112.899801 35.532,113.673 C35.532,114.446199 36.1588014,115.073 36.932,115.073 C37.375349,115.051634 37.7936737,114.861258 38.101,114.541 L38.696,115.192 C38.2202196,115.687138 37.5693621,115.976129 36.883,115.997 C36.0362231,116.036928 35.2367166,115.605602 34.8050986,114.875992 C34.3734806,114.146381 34.3804363,113.237973 34.8231762,112.515058 C35.2659161,111.792143 36.0719339,111.37311 36.918,111.426 C37.5825062,111.432923 38.2180143,111.699183 38.689,112.168 L38.101,112.868 C37.8117724,112.514809 37.3877635,112.298997 36.932,112.273 Z" id="Path" fill="#C5CFD6"></path>
                                <path d="M42.224,115.038 L40.124,115.038 L39.767,115.913 L38.745,115.913 L40.698,111.426 L41.741,111.426 L43.659,115.913 L42.574,115.913 L42.224,115.038 Z M41.895,114.226 L41.195,112.483 L40.495,114.226 L41.895,114.226 Z" id="Shape" fill="#C5CFD6"></path>
                                <polygon id="Path" fill="#C5CFD6" points="45.052 111.426 47.236 114.31 47.236 111.426 48.195 111.426 48.195 115.913 47.271 115.913 45.094 113.036 45.094 115.913 44.1 115.913 44.1 111.426"></polygon>
                                <polygon id="Path" fill="#C5CFD6" points="50.106 111.426 52.29 114.31 52.29 111.426 53.249 111.426 53.249 115.913 52.332 115.913 50.155 113.036 50.155 115.913 49.182 115.913 49.182 111.426"></polygon>
                                <polygon id="Path" fill="#C5CFD6" points="55.258 111.426 55.258 115.913 54.243 115.913 54.243 111.426"></polygon>
                                <polygon id="Path" fill="#C5CFD6" points="57.176 111.426 59.353 114.31 59.353 111.426 60.319 111.426 60.319 115.913 59.395 115.913 57.218 113.036 57.218 115.913 56.252 115.913 56.252 111.426"></polygon>
                                <path d="M64.323,113.652 L65.205,113.652 L65.205,115.374 C64.6672238,115.745704 64.0316277,115.950263 63.378,115.962 C62.5316159,115.995689 61.7358191,115.559215 61.3093076,114.827376 C60.8827961,114.095536 60.8953044,113.187987 61.3418233,112.46818 C61.7883422,111.748374 62.5958659,111.333997 63.441,111.391 C64.0976763,111.394723 64.7330097,111.624629 65.24,112.042 L64.666,112.742 C64.3325578,112.431517 63.8965122,112.254607 63.441,112.245 C62.6678014,112.245 62.041,112.871801 62.041,113.645 C62.041,114.418199 62.6678014,115.045 63.441,115.045 C63.749703,115.030823 64.0512117,114.94707 64.323,114.8 L64.323,113.652 Z" id="Path" fill="#C5CFD6"></path>
                                <path d="M66.836,115.458 C66.8438049,115.592104 66.7954097,115.7234 66.7024368,115.820357 C66.609464,115.917315 66.4803129,115.971174 66.346,115.969 C66.2111115,115.971052 66.0813443,115.917401 65.9872867,115.820694 C65.893229,115.723987 65.8432028,115.592779 65.849,115.458 C65.8431008,115.323834 65.8933266,115.19327 65.9876213,115.097647 C66.0819159,115.002025 66.2117651,114.949978 66.346,114.954 C66.4796607,114.949831 66.6089102,115.002079 66.7021275,115.097959 C66.7953448,115.19384 66.8439312,115.32451 66.836,115.458 Z" id="Path" fill="#C5CFD6"></path>
                                <path d="M68.348,115.458 C68.3707099,115.648344 68.2819272,115.834781 68.1198379,115.937123 C67.9577485,116.039465 67.7512515,116.039465 67.5891621,115.937123 C67.4270728,115.834781 67.3382901,115.648344 67.361,115.458 C67.3382901,115.267656 67.4270728,115.081219 67.5891621,114.978877 C67.7512515,114.876535 67.9577485,114.876535 68.1198379,114.978877 C68.2819272,115.081219 68.3707099,115.267656 68.348,115.458 Z" id="Path" fill="#C5CFD6"></path>
                                <path d="M69.853,115.458 C69.8608049,115.592104 69.8124097,115.7234 69.7194368,115.820357 C69.626464,115.917315 69.4973129,115.971174 69.363,115.969 C69.2281115,115.971052 69.0983443,115.917401 69.0042867,115.820694 C68.910229,115.723987 68.8602028,115.592779 68.866,115.458 C68.8601008,115.323834 68.9103266,115.19327 69.0046213,115.097647 C69.0989159,115.002025 69.2287651,114.949978 69.363,114.954 C69.4966607,114.949831 69.6259102,115.002079 69.7191275,115.097959 C69.8123448,115.19384 69.8609312,115.32451 69.853,115.458 Z" id="Path" fill="#C5CFD6"></path>
                                <path d="M75.047,114.52 C75.047,115.374 74.347,115.969026 73.248,115.969026 C72.6342056,115.971557 72.0339669,115.788557 71.526,115.444 L71.939,114.639 C72.2644105,114.970452 72.7066079,115.161401 73.171,115.171 C73.731,115.171 74.053,114.926 74.053,114.534 C74.053,114.142 73.731,113.918 73.164,113.918 L72.464,113.918 L72.464,113.358 L73.612,112.259 L71.778,112.259 L71.778,111.433 L74.844,111.433 L74.844,112.042 L73.5,113.267 L73.745,113.267 C74.522,113.4 75.047,113.82 75.047,114.52 Z" id="Path" fill="#C5CFD6"></path>
                                <path d="M77.364,113.064 C78.407,113.064 79.079,113.624 79.079,114.422 C79.079,115.353 78.379,115.962 77.28,115.962 C76.6645911,115.947624 76.0655591,115.760881 75.551,115.423 L75.957,114.618 C76.2780564,114.943272 76.711262,115.133582 77.168,115.15 C77.693,115.15 77.994,114.905 77.994,114.492 C77.994,114.079 77.693,113.883 77.175,113.883 C76.916,113.883 76.223,113.883 75.929,113.925 L75.929,111.426 L78.876,111.426 L78.876,112.273 L76.86,112.273 L76.86,113.064 L77.364,113.064 Z" id="Path" fill="#C5CFD6"></path>
                                <path d="M82.033,112.77 C81.9688366,113.431098 81.3921566,113.922326 80.7292675,113.880547 C80.0663785,113.838768 79.5559372,113.279022 79.5752847,112.6151 C79.5946322,111.951177 80.1368029,111.422106 80.801,111.419 C81.1530779,111.405737 81.4931175,111.54826 81.7305212,111.808595 C81.9679249,112.068929 82.0785784,112.420633 82.033,112.77 L82.033,112.77 Z M80.206,112.77 C80.206,113.267 80.423,113.575 80.801,113.575 C81.179,113.575 81.396,113.267 81.396,112.77 C81.396,112.273 81.2,112 80.801,112 C80.402,112 80.206,112.273 80.206,112.77 Z M84.644,111.433 L81.417,115.927 L80.5,115.927 L83.748,111.433 L84.644,111.433 Z M85.596,114.59 C85.5318366,115.251098 84.9551566,115.742326 84.2922675,115.700547 C83.6293785,115.658768 83.1189372,115.099022 83.1382847,114.4351 C83.1576322,113.771177 83.6998029,113.242106 84.364,113.239 C84.7153388,113.228175 85.0538634,113.371428 85.2907133,113.631155 C85.5275631,113.890883 85.6390831,114.241145 85.596,114.59 L85.596,114.59 Z M83.776,114.59 C83.776,115.094 83.993,115.395 84.364,115.395 C84.735,115.395 84.959,115.094 84.959,114.59 C84.959,114.086 84.742,113.792 84.364,113.792 C83.986,113.792 83.776,114.1 83.776,114.59 Z" id="Shape" fill="#C5CFD6"></path>
                                <rect id="Rectangle" fill="#C5CFD6" x="36.967" y="118.881" width="1.918" height="5.383"></rect>
                                <rect id="Rectangle" fill="#C5CFD6" x="40.614" y="118.881" width="1.918" height="5.383"></rect>
                                <rect id="Rectangle" fill="#C5CFD6" x="44.268" y="118.881" width="1.918" height="5.383"></rect>
                                <rect id="Rectangle" fill="#C5CFD6" x="47.915" y="118.881" width="1.918" height="5.383"></rect>
                                <rect id="Rectangle" fill="#DDE3E9" x="51.562" y="118.881" width="1.918" height="5.383"></rect>
                                <rect id="Rectangle" fill="#DDE3E9" x="55.216" y="118.881" width="1.918" height="5.383"></rect>
                                <rect id="Rectangle" fill="#DDE3E9" x="58.863" y="118.881" width="1.918" height="5.383"></rect>
                                <rect id="Rectangle" fill="#DDE3E9" x="62.51" y="118.881" width="1.918" height="5.383"></rect>
                                <rect id="Rectangle" fill="#DDE3E9" x="66.164" y="118.881" width="1.918" height="5.383"></rect>
                                <rect id="Rectangle" fill="#DDE3E9" x="69.811" y="118.881" width="1.918" height="5.383"></rect>
                                <rect id="Rectangle" fill="#DDE3E9" x="73.458" y="118.881" width="1.918" height="5.383"></rect>
                                <rect id="Rectangle" fill="#DDE3E9" x="77.112" y="118.881" width="1.918" height="5.383"></rect>
                                <polygon id="Path" fill="#D9D9D6" points="110.894 28.308 108.759 28.308 108.759 26.18 107.275 26.18 107.275 28.308 105.147 28.308 105.147 29.792 107.275 29.792 107.275 31.927 108.759 31.927 108.759 29.792 110.894 29.792"></polygon>
                                <polygon id="Path" fill="#D9D9D6" points="7.973 81.438 5.845 81.438 5.845 79.303 4.361 79.303 4.361 81.438 2.226 81.438 2.226 82.915 4.361 82.915 4.361 85.05 5.845 85.05 5.845 82.915 7.973 82.915"></polygon>
                                <polygon id="Path" fill="#D9D9D6" points="114.506 65.576 112.847 65.576 112.847 63.924 111.699 63.924 111.699 65.576 110.047 65.576 110.047 66.724 111.699 66.724 111.699 68.383 112.847 68.383 112.847 66.724 114.506 66.724"></polygon>
                                <polygon id="Path" fill="#D9D9D6" points="4.459 32.41 2.8 32.41 2.8 30.751 1.652 30.751 1.652 32.41 0 32.41 0 33.558 1.652 33.558 1.652 35.21 2.8 35.21 2.8 33.558 4.459 33.558"></polygon>
                                <polygon id="Path" fill="#D9D9D6" points="80.297 1.652 78.645 1.652 78.645 0 77.497 0 77.497 1.652 75.838 1.652 75.838 2.8 77.497 2.8 77.497 4.459 78.645 4.459 78.645 2.8 80.297 2.8"></polygon>
                            </g>
                        </g>
                        <g id="Group" transform="translate(168.500000, 170.200000) scale(-1, 1) translate(-168.500000, -170.200000) translate(92.000000, 59.200000)">
                            <g id="Head/Front/Curly" transform="translate(54.381314, 38.757059) rotate(-27.000000) translate(-54.381314, -38.757059) translate(20.381314, 12.757059)">
                                <g id="Head" stroke-width="1" transform="translate(27.000000, 15.500000)" fill="#B28B67">
                                    <path d="M19.0716707,4.56696646 C21.9690761,9.96752735 21.624789,23.6664979 17.8801507,24.6317288 C16.3867606,25.0166702 13.2053579,24.0736882 9.96746812,22.1220217 L12,36.5 L0,36.5 L4.13035442,17.2441448 C1.8268291,14.5399375 0.267846898,11.2260181 0.528388167,7.51272694 C1.27916511,-3.18751029 16.1742653,-0.833594429 19.0716707,4.56696646 Z" id="Head-[skin]"></path>
                                </g>
                                <path d="M51.3878499,12.5802189 C51.1393548,11.7067495 50.4709658,10.9588777 49.5701999,10.7370051 C49.3517654,10.6831869 49.1261784,10.6614495 48.9014154,10.6705123 C48.8207921,10.6737302 48.7981807,10.696978 48.7605059,10.6405987 C48.7325548,10.5987985 48.7319285,10.4966787 48.720425,10.4475561 C48.684629,10.2948032 48.6398676,10.1439548 48.5846245,9.99701386 C48.3961519,9.49583859 48.0794269,9.05229044 47.6976034,8.67865004 C46.9834312,7.97963811 46.0184567,7.49721217 45.0159063,7.40993419 C44.4671998,7.3621907 43.9224816,7.45134033 43.4037369,7.62983662 C43.1351684,7.72223701 42.8747413,7.83729422 42.6211042,7.96450073 C42.5447329,8.00278746 42.2969629,8.19031363 42.2203279,8.17816433 C42.1356833,8.16476725 41.9655702,7.95442009 41.896747,7.90161986 C41.0460492,7.24893947 39.9955401,6.99232644 38.9359337,7 C37.7399335,7.00900711 36.5882663,7.06876856 35.5907919,7.79785823 C35.3796419,7.95222008 35.1785451,8.12122677 34.987073,8.29916484 C34.8862444,8.39284584 34.7885801,8.49004028 34.6954316,8.59127355 C34.6392326,8.65234843 34.5845168,8.71480243 34.5318447,8.77893106 C34.4424537,8.88778227 34.4567919,8.92354063 34.3316708,8.84759106 C33.8516227,8.55594205 33.2953351,8.41954147 32.7350262,8.48839848 C32.402315,8.52931209 32.0786022,8.62919908 31.7712383,8.76067427 C31.6665862,8.80542968 31.4243537,8.9839588 31.3128127,8.98569911 C31.2021617,8.98740658 30.9633242,8.82191334 30.8493441,8.77985047 C30.2337262,8.55259279 29.5701826,8.49657464 28.9231196,8.60158404 C28.2556536,8.70994271 27.5999878,8.97624235 27.034471,9.34423496 C26.7624745,9.52125363 26.5251532,9.71738282 26.3345381,9.98059588 C26.2522338,10.0942411 26.1778402,10.2144536 26.0845598,10.3198242 C26.0299429,10.381523 25.9217969,10.4448307 25.8924944,10.5229146 C25.9100298,10.4761562 25.1625338,10.1879878 25.0919966,10.1695668 C24.716205,10.0714202 24.3335575,10.0913187 23.9655777,10.2124178 C23.2736214,10.4401352 22.6785384,10.9508 22.1894589,11.4743694 C21.9382609,11.7432959 21.7184421,12.0405599 21.5318483,12.3572627 C21.4424243,12.5089649 21.3606474,12.6650013 21.2858253,12.8243543 C21.2495679,12.9015516 21.2255391,12.9981222 21.1777782,13.0676687 C21.1162065,13.1572781 21.0748401,13.1589855 20.9633321,13.1980603 C20.3970243,13.3964552 19.8807846,13.7322686 19.4876554,14.1860287 C19.0900105,14.6451083 18.8319895,15.210445 18.7238106,15.8057938 C18.7174491,15.8408626 18.7136585,15.9861946 18.6931236,16.0051738 C18.6649747,16.0313112 18.5510935,16.0197529 18.5080131,16.0248097 C18.3588303,16.0423113 18.2107023,16.0683502 18.0645519,16.1029593 C17.7951264,16.1667267 17.5328864,16.2605719 17.2848198,16.3833127 C16.3178016,16.8617655 15.6262739,17.7587454 15.2878274,18.7680572 C14.9327026,19.8272796 14.9389982,21.0407982 15.3634406,22.0802534 C15.4320001,22.2481437 15.5135793,22.4111085 15.6093977,22.5652734 C15.6682336,22.6599066 15.6872193,22.6601365 15.6490172,22.7594324 C15.6064312,22.8698926 15.5286426,22.9772333 15.47808,23.0851651 C15.3131087,23.4373965 15.1977772,23.8109712 15.1249328,24.1925251 C15.0054152,24.8184113 14.9461837,25.4761485 15.0640862,26.1067959 C15.1188349,26.399627 15.2142249,26.6858909 15.359749,26.946707 C15.4339448,27.0796926 15.5207648,27.2058155 15.6187917,27.3224817 C15.6696839,27.383064 15.7237404,27.440921 15.780269,27.4963481 C15.812604,27.528002 15.8549923,27.5557155 15.882482,27.5910798 C15.9495911,27.6773071 15.9636986,27.6064142 15.9290892,27.7330297 C15.8807021,27.9100484 15.7710069,28.0847028 15.7038318,28.2569603 C15.6346131,28.4344715 15.5720526,28.6144126 15.5148318,28.7961268 C15.3989399,29.1640865 15.300946,29.538712 15.239671,29.9197733 C15.1219992,30.6513914 15.1426659,31.4309499 15.4887265,32.1024125 C15.6366897,32.3896286 15.8489603,32.641579 16.1064209,32.8375768 C16.2324319,32.9334578 16.3689246,33.0161059 16.5121084,33.0839779 C16.585678,33.1189153 16.6796177,33.1338885 16.7131723,33.2050441 C16.7492978,33.2815518 16.6956698,33.4334838 16.6834412,33.5190215 C16.5770421,34.2631501 16.5236778,35.0444489 16.744881,35.7736699 C16.9486147,36.4453295 17.3971848,37.038347 17.9795778,37.4309665 C19.1093917,38.1925966 20.6323349,38.1496472 21.8194685,37.5399163 C22.128909,37.3809574 22.418408,37.1836132 22.6766596,36.9508391 C23.3342702,37.8360966 24.6874957,37.8080875 25.6486138,37.5558417 C26.8460313,37.2416015 27.8068528,36.4089801 28.3604375,35.3150172 C29.1173934,36.2364928 30.7059955,35.9375214 31.2309039,34.9378634 C31.359387,34.6932026 31.4355935,34.4235537 31.4731035,34.1506869 C31.4928473,34.0071937 31.4802561,33.8624528 31.4950886,33.7201089 C31.5140084,33.5387231 31.6351741,33.3624597 31.7048213,33.1869843 C31.840457,32.8454903 31.924673,32.4927336 31.9282988,32.1243798 C31.9301776,31.9320595 31.9058192,31.7446319 31.8875257,31.5538549 C31.871078,31.3821229 31.9187071,31.2221132 31.9457683,31.052614 C31.638668,31.1031814 31.2645244,31.0203691 30.9751903,30.931318 C30.6912618,30.8439415 30.4253302,30.6137942 30.2249255,30.4036112 C29.7596111,29.9155375 29.475353,29.2757288 29.2809473,28.638941 C28.8541976,27.2413112 29.0291231,25.5644772 30.4348889,24.7974291 C31.0897637,24.4401082 33.0516859,24.4412803 33.8316708,24.6178804 C34.6517908,24.8035678 35.5815298,26.6131921 35.62728,26.7832824 C35.6555938,26.8885545 35.6413545,27.0188476 35.7380629,27.0889852 C35.9505973,27.2432157 36.3011076,26.9755698 36.4578714,26.8434707 C36.7283847,26.6154906 36.92134,26.312152 37.0884537,26.0046761 C37.4525771,25.3348225 37.7461302,24.6164702 37.9534897,23.8831447 C38.1133519,23.3177751 38.2155649,22.7347726 38.4245064,22.183818 C38.6324262,21.6355888 38.9601932,21.1455778 39.4698076,20.8350153 C40.0241835,20.4971661 40.6596441,20.319228 41.2682412,20.1069107 C41.8714987,19.8964978 42.4643403,19.6393266 42.931962,19.192856 C43.0347683,19.0946765 43.134641,18.9903566 43.2174068,18.8747741 C43.282736,18.7835229 43.3473072,18.6088356 43.4468503,18.5509787 C43.6016035,18.4609753 43.8274542,18.69503 43.961277,18.7800095 C44.6214915,19.1993247 45.1723076,19.7841332 45.6165598,20.4229896 C46.0583398,21.0583655 46.4208415,21.6697382 46.7154165,22.3792248 C46.9339168,22.9054211 47.0702842,23.5793135 47.4545798,24.0105482 C47.6261433,24.2030983 48.9014154,24.3195858 49.3144862,24.1514801 C49.727557,23.9833744 50.1904983,23.5468716 50.3291334,23.2733152 C50.4710647,22.993323 50.5049819,22.6857485 50.4443331,22.3792248 C50.408669,22.1988897 50.3358246,22.0304412 50.2959744,21.8533241 C50.2624198,21.7045443 50.2319636,21.5639079 50.1595476,21.4276058 C50.0222968,21.1693182 49.7878103,20.9836636 49.5050354,20.9060394 C49.7993138,20.6347159 50.0431613,20.3101324 50.2118901,19.9472951 C50.3872112,19.5703382 50.5358007,19.1119154 50.5779582,18.6981823 C50.6122379,18.362139 50.559335,18.0139794 50.3753781,17.7251871 C50.1823898,17.4222425 49.8405154,17.2246029 49.5447208,17.0356319 C49.9965541,16.6821199 50.3832559,16.2521987 50.7011675,15.7762086 C51.3194223,14.8505629 51.7018391,13.6837699 51.3878499,12.5802189 Z" id="hair" fill="#191847"></path>
                            </g>
                            <g id="Bottom/Skinny-Jeans-1" transform="translate(10.500000, 102.000000)">
                                <polygon id="leg-[skin]" fill="#B28B67" points="59 0 83.5408197 62.1134546 100.000449 114.625145 106.5 114.625145 81.3368439 2.5451895e-13"></polygon>
                                <path d="M54.058314,0 C53.7969893,21.8270944 49.9859164,51.2137342 49.3770354,52.5743242 C48.9711147,53.4813842 34.9580787,65.0162326 7.33792729,87.1788693 L11.8145357,91.9693682 C44.4037555,72.9676878 61.4523998,62.1996696 62.9604686,59.6653138 C65.2225717,55.86378 72.5872001,20.8815685 78.5,0 L54.058314,0 Z" id="leg-[skin]" fill="#B28B67"></path>
                                <g id="Left-[Shoe]" transform="translate(14.142103, 97.201033) rotate(50.000000) translate(-14.142103, -97.201033) translate(-0.857897, 91.701033)" fill="#010100">
                                    <path d="M1.33906502,3.70096448 C0.77968834,5.19420662 0.5,6.31149693 0.5,7.05283541 C0.5,7.95447852 0.650207102,9.27020005 0.950621307,11 C1.99659059,11 11.3968926,11 29.1515274,11 C29.884369,8.57725363 29.4613303,7.26929082 27.8824114,7.07611158 C26.3034925,6.88293234 24.9918578,6.70850695 23.9475072,6.55283541 L10.8399963,0.70944173 C10.5877817,0.597003215 10.292172,0.7103141 10.1797335,0.962528675 C10.17781,0.966843368 10.1759477,0.971185105 10.1741473,0.975552577 L9.33160655,3.01934752 L9.33160655,3.01934752 C7.86994061,3.70132608 6.68218528,4.04231536 5.76834057,4.04231536 C5.02586901,4.04231536 4.00051164,3.74245723 2.69226844,3.14274097 L2.69228533,3.14270413 C2.19021758,2.91254953 1.59663408,3.13297869 1.36647948,3.63504644 C1.35655969,3.65668583 1.34741571,3.67867252 1.33906502,3.70096448 Z" id="shoe"></path>
                                </g>
                                <g id="Right-{Shoe]" transform="translate(96.000000, 108.500000)" fill="#010100">
                                    <path d="M1.33906502,3.70096448 C0.77968834,5.19420662 0.5,6.31149693 0.5,7.05283541 C0.5,7.95447852 0.650207102,9.27020005 0.950621307,11 C1.99659059,11 11.3968926,11 29.1515274,11 C29.884369,8.57725363 29.4613303,7.26929082 27.8824114,7.07611158 C26.3034925,6.88293234 24.9918578,6.70850695 23.9475072,6.55283541 L10.8399963,0.70944173 C10.5877817,0.597003215 10.292172,0.7103141 10.1797335,0.962528675 C10.17781,0.966843368 10.1759477,0.971185105 10.1741473,0.975552577 L9.33160655,3.01934752 L9.33160655,3.01934752 C7.86994061,3.70132608 6.68218528,4.04231536 5.76834057,4.04231536 C5.02586901,4.04231536 4.00051164,3.74245723 2.69226844,3.14274097 L2.69228533,3.14270413 C2.19021758,2.91254953 1.59663408,3.13297869 1.36647948,3.63504644 C1.35655969,3.65668583 1.34741571,3.67867252 1.33906502,3.70096448 Z" id="shoe"></path>
                                </g>
                                <polygon id="Pant" fill="#3AA1AE" points="75.5 109.216445 106.402232 105.862664 83.5 0 55.8220365 0"></polygon>
                                <path d="M13.729979,79.4502396 L34,103.44298 C55.3499764,80.1249805 67.7970683,64.9099815 71.3412759,57.7979832 C74.8854835,50.6859849 78.0715457,31.4199905 80.8994626,0 L49.7390729,0 C48.1943212,27.6419371 47.153051,42.1060629 46.6152624,43.3923775 C46.0774738,44.6786921 35.1157126,56.6979795 13.729979,79.4502396 Z" id="Pant" fill="#5FC9D7"></path>
                            </g>
                            <g id="Body/Long-Sleeve-1" transform="translate(71.980121, 93.616364) rotate(-14.000000) translate(-71.980121, -93.616364) translate(8.480121, 51.616364)">
                                <path d="M24.7541414,41 L35,43.0329223 C24.6960412,62.2355294 19.1702132,72.4129224 18.4225159,73.5651011 C16.7401972,76.1575033 18.3098346,80.9086192 18.8896521,83.4105895 C15.2522022,84.2573099 16.6867007,78.7825025 12.0835781,79.9255925 C7.88206125,80.968952 4.31968159,83.6465844 0.401939201,80.0353699 C-0.079724204,79.5913923 -0.432324591,78.203644 1.20990995,77.4918746 C5.30131507,75.7185973 11.3460216,72.3981715 12.3261712,71.1090482 C13.6627804,69.3510984 17.8054371,59.314749 24.7541414,41 Z M126.094084,25.6275842 C124.483117,27.980569 122.894445,30.5280071 123.538145,31.3526482 C124.181845,32.1772893 126.046503,31.26711 126.783172,32.6081382 C127.274285,33.502157 124.131143,34.5715903 117.353746,35.8164379 L103.78497,46.2196434 L98,38.8085438 L116.117283,30.852087 C119.291009,27.689511 122.355694,25.2858071 125.311337,23.6409751 C126.19513,23.3596047 127.70505,23.2745994 126.094084,25.6275842 Z" id="Arms-[skin]" fill="#B28B67"></path>
                                <path d="M60.6401234,4.93859013 L64.8825992,3.8230048 C75.0600677,12.1025374 80.8011832,33.6308359 87.3063348,35.9778232 C93.4566924,38.1968046 101.604297,34.8160048 111.251582,30.3695161 L114.898026,36.9176714 C106.704913,47.5000123 88.1493058,57.4582723 79.9214701,53.4199044 C66.7668711,46.9633936 61.5234019,20.250704 60.6401234,4.93859013 Z" id="Coat-Back" fill="#03112D" transform="translate(87.769075, 29.080884) rotate(5.000000) translate(-87.769075, -29.080884) "></path>
                                <path d="M44,57 C61.3358779,57 74.0877864,57 82.2557254,57 C84.0038169,57 83.6744224,54.4758186 83.4217252,53.2021028 C80.5052939,38.5018831 69.1206521,22.6557577 69.1206521,1.73036515 L58.0859001,0 C48.9587425,14.6792034 45.8024132,32.752275 44,57 Z" id="Shirt" fill="#DDE3E9"></path>
                                <path d="M59.3657316,-4.97379915e-14 L61.743199,0 C71.6494614,33.7684739 74.3804426,56.2684739 69.9361425,67.5 L69.9361425,67.5 L35.5,67.5 C36.0448472,59.281226 37.7919104,50.5895437 40.1848141,42.1150389 C32.3858413,56.1836832 25.8305334,66.31165 20.5187226,72.5 L12.5,70.92941 C17.6652964,38.8953361 32.6233053,15.2521994 57.3740267,-4.97379915e-14 L59.3657316,-4.97379915e-14 Z" id="Coat-Front" fill="#002060"></path>
                            </g>
                        </g>
                    </g>
                </g>
            </g>
        </g>
    </g>
</svg>