<?xml version="1.0" encoding="UTF-8"?>
<svg width="701px" height="583px" viewBox="0 0 701 583" version="1.1" xmlns="http://www.w3.org/2000/svg" xmlns:xlink="http://www.w3.org/1999/xlink">
    <!-- Generator: Sketch 58 (84663) - https://sketch.com -->
    <title>technology_statement</title>
    <desc>Created with Sketch.</desc>
    <g id="Page-1" stroke="none" stroke-width="1" fill="none" fill-rule="evenodd">
        <g id="About-Us" transform="translate(-167.000000, -423.000000)">
            <g id="technology_statement" transform="translate(91.000000, 375.000000)">
                <rect id="Rectangle-Copy-18" fill="#F6FBFC" transform="translate(408.000000, 353.000000) scale(-1, 1) rotate(-25.000000) translate(-408.000000, -353.000000) " x="66" y="123" width="684" height="460" rx="230"></rect>
                <g id="Group-3" transform="translate(235.000000, 48.000000)">
                    <g id="Version-control-cuate" fill-rule="nonzero">
                        <g id="freepik--background-complete--inject-62">
                            <rect id="Rectangle" fill="#EBEBEB" x="0.572000031" y="79.7680044" width="218.790012" height="9.39900052"></rect>
                            <polygon id="Path" fill="#EBEBEB" points="32.3830018 126.139007 23.8680013 126.139007 20.4490011 89.1540049 32.3830018 89.1540049"></polygon>
                            <polygon id="Path" fill="#EBEBEB" points="187.55101 126.139007 196.066011 126.139007 199.485011 89.1540049 187.55101 89.1540049"></polygon>
                            <polygon id="Path" fill="#DBDBDB" points="20.4490011 89.1540049 32.3830018 89.1540049 32.3830018 101.894006 21.6190012 101.894006"></polygon>
                            <polygon id="Path" fill="#DBDBDB" points="199.485011 89.1540049 198.315011 101.894006 187.55101 101.894006 187.55101 89.1540049"></polygon>
                            <path d="M79.8070044,23.4000013 C70.0960039,36.556002 59.9690033,51.8180029 57.4990032,68.3020038 C57.4990032,68.5490038 57.8760032,68.6270038 57.9280032,68.3800038 C59.0499278,63.8858585 60.4878381,59.4765565 62.2310034,55.185003 C68.6140038,53.4300029 74.8800041,51.9870029 78.2210043,45.6430025 C81.5620045,39.2990022 81.2110045,30.6410017 80.5610044,23.5430013 C80.5090044,23.1660013 80.0020044,23.1530013 79.8070044,23.4000013 Z" id="Path" fill="#EBEBEB"></path>
                            <path d="M62.3220034,55.055003 C66.5969252,45.0334146 72.3553822,35.7120768 79.4040044,27.4040015 C79.4040044,27.4040015 79.5210044,27.4040015 79.4820044,27.4820015 C75.0185138,33.2088727 71.1013963,39.3413378 67.7820037,45.7990025 C70.9930039,42.5360023 74.5160041,39.6110022 77.5580043,36.153002 C77.5580043,36.088002 77.7140043,36.153002 77.6620043,36.257002 C74.6330041,39.8840022 71.3310039,43.8230024 67.3920037,46.5140026 C66.3390036,48.4510027 65.2730036,50.4140028 64.1940035,52.3640029 L65.0000036,52.0000029 C65.0000036,52.0000029 65.0910036,52.0000029 65.0000036,52.0780029 C64.6880036,52.2340029 64.4020035,52.3900029 64.0900035,52.5200029 L62.5430034,55.289003 C62.5170034,55.4450031 62.2310034,55.263003 62.3220034,55.055003 Z" id="Path" fill="#A6A6A6"></path>
                            <path d="M65.5720036,51.6490028 C68.1813693,50.1866566 70.6720082,48.5218839 73.021004,46.6700026 C73.021004,46.6700026 73.177004,46.6700026 73.112004,46.7610026 C70.8343463,48.7284648 68.3395275,50.4294777 65.6760036,51.8310029 C65.5590036,51.8960029 65.4420036,51.7140028 65.5720036,51.6490028 Z" id="Path" fill="#A6A6A6"></path>
                            <path d="M56.4460031,68.1460037 C56.4677089,68.2250276 56.5395524,68.2797985 56.6215031,68.2797985 C56.7034538,68.2797985 56.7752973,68.2250276 56.7970031,68.1460037 C56.7970031,62.7120035 56.7970031,57.2650032 56.8880031,51.8050029 C58.2790032,48.9970027 61.2560034,47.4500026 63.3880035,45.2010025 C64.8910325,43.5585372 66.1996738,41.74825 67.2880037,39.8060022 C69.7829861,35.1688505 71.3130692,30.0744695 71.7860039,24.8300014 C72.358004,19.019001 70.1480039,-0.143000008 67.7040037,0.520000029 C66.4040037,0.858000047 62.3220034,10.3610006 61.2040034,13.5200007 C59.4253622,18.6951117 58.1200094,24.0209508 57.3040032,29.4320016 C55.302003,42.1720023 55.4710031,55.289003 56.4460031,68.1460037 Z" id="Path" fill="#EBEBEB"></path>
                            <path d="M56.4070031,44.7200025 L56.4070031,44.7200025 C56.927375,37.8148637 58.027586,30.9657239 59.6960033,24.2450013 C61.2560034,17.0690009 63.0760035,10.3090006 66.7810037,3.90000021 C66.7810037,3.78300021 67.0150037,3.90000021 66.9630037,4.01700022 C64.4936555,8.99030761 62.583963,14.2223419 61.2690034,19.6170011 C61.5160034,19.2270011 61.8150034,18.863001 62.0750034,18.499001 C62.1790034,18.343001 62.4130034,18.499001 62.3220034,18.629001 C61.9900023,19.2109968 61.6025347,19.7595465 61.1650034,20.2670011 L61.1650034,20.2670011 C59.8650033,25.4020014 58.9810032,30.6670017 58.2010032,35.867002 L58.3700032,35.672002 C58.3700032,35.672002 58.4870032,35.672002 58.4480032,35.672002 L58.1490032,36.192002 C57.7460032,38.7920021 57.3820032,41.4960023 57.0180031,44.1220024 C61.8651055,40.2252372 65.6631773,35.1805042 68.0680037,29.4450016 C68.0680037,29.4450016 68.0680037,29.4450016 68.0680037,29.4450016 C66.0388196,35.5637498 62.1253165,40.8833836 56.8880031,44.6420025 C56.7970031,45.3570025 56.6930031,46.0590025 56.5890031,46.7610026 C56.5890031,46.9170026 56.3420031,46.8780026 56.3420031,46.7610026 C56.3420031,46.1370025 56.3420031,45.4610025 56.3420031,44.8760025 C56.3273381,44.8153922 56.35364,44.7522676 56.4070031,44.7200025 L56.4070031,44.7200025 Z" id="Path" fill="#A6A6A6"></path>
                            <path d="M58.6300032,34.7750019 C62.3189415,29.5395576 65.5463923,23.9937359 68.2760038,18.200001 C68.2760038,18.200001 68.4190038,18.200001 68.3930038,18.200001 C66.2258895,24.2934081 62.9805674,29.9474021 58.8120032,34.8920019 C58.7340032,35.0090019 58.5650032,34.8790019 58.6300032,34.7750019 Z" id="Path" fill="#A6A6A6"></path>
                            <path d="M63.4400035,16.9000009 C64.9350036,14.3000008 66.5210037,11.7000006 67.9250037,8.97000049 C67.9250037,8.89200049 68.0680037,8.97000049 68.0420037,8.97000049 C66.892268,11.7861786 65.4361742,14.4673094 63.7000035,16.9650009 C63.5700035,17.1080009 63.3490035,16.9910009 63.4400035,16.9000009 Z" id="Path" fill="#A6A6A6"></path>
                            <path d="M53.781003,54.236003 C53.6946659,57.835984 53.2592934,61.4190995 52.4810029,64.9350036 C52.4810029,65.3250036 52.5850029,65.7020036 52.6500029,66.1050036 C53.7706849,62.2227808 54.4252896,58.2209644 54.600003,54.184003 C54.6732176,54.0690002 54.6732176,53.9220058 54.600003,53.807003 L54.600003,53.807003 C54.7553968,48.4117217 54.3590042,43.0146837 53.4170029,37.7000021 C51.7400028,27.7160015 48.0610026,18.200001 41.1060023,10.6600006 C40.9901577,10.5596671 40.8343069,10.5187813 40.6841278,10.5493262 C40.5339486,10.5798711 40.4064508,10.6783872 40.3390022,10.8160006 C37.5310021,17.966001 38.5060021,26.4160015 40.8980023,33.6050018 C42.1965755,37.4604631 44.0536774,41.1045878 46.4100026,44.4210024 C48.8020027,47.7360026 51.8440029,50.5700028 53.781003,54.236003 Z" id="Path" fill="#EBEBEB"></path>
                            <path d="M41.9250023,13.9490008 C48.5160027,24.6610014 53.1050029,37.3490021 53.625003,49.9850028 C53.625003,50.2190028 53.2480029,50.2710028 53.2220029,49.9850028 C53.0660029,48.8410027 52.8970029,47.7230026 52.7020029,46.5920026 L52.7020029,46.5920026 C49.8336755,44.0600353 47.3155161,41.1571572 45.2140025,37.9600021 C45.2140025,37.9600021 45.2140025,37.8300021 45.3050025,37.8820021 C47.5696259,40.6615377 49.9961702,43.3051253 52.5720029,45.7990025 C52.1040029,42.999669 51.5406695,40.2436689 50.8820028,37.5310021 C50.7000028,37.3360021 50.5310028,37.128002 50.3620028,36.920002 C50.1930028,36.712002 50.4400028,36.595002 50.5570028,36.725002 L50.7130028,36.907002 C49.7987423,33.2074212 48.6657509,29.5653531 47.3200026,26.0000014 C45.4944413,24.1408962 43.8891872,22.0776212 42.5360023,19.8510011 C43.5240024,21.2290012 44.4730024,22.6200012 45.5910025,23.8940013 C46.0330025,24.4010013 46.5140026,24.8820014 46.9820026,25.3760014 C45.457846,21.4999841 43.6502901,17.7414844 41.5740023,14.1310008 C41.5237444,14.0340748 41.5615763,13.9147587 41.6585023,13.8645008 C41.7554283,13.8142428 41.8747444,13.8520748 41.9250023,13.9490008 Z" id="Path" fill="#A6A6A6"></path>
                            <path d="M43.2640024,27.1570015 C45.3960025,30.0300017 47.8140026,32.7600018 49.7640027,35.724002 C49.7640027,35.815002 49.7640027,35.893002 49.6210027,35.828002 C47.1034953,33.2467761 44.9197759,30.359899 43.1210024,27.2350015 C43.0560024,27.1440015 43.1990024,27.0660015 43.2640024,27.1570015 Z" id="Path" fill="#A6A6A6"></path>
                            <path d="M50.1020028,36.400002 L50.1930028,36.491002 C50.1930028,36.491002 50.1930028,36.660002 50.0890028,36.595002 L49.9980028,36.504002 C49.9980028,36.504002 50.0370028,36.322002 50.1020028,36.400002 Z" id="Path" fill="#A6A6A6"></path>
                            <path d="M30.5760017,31.8240018 C31.3590004,37.7841776 33.7649445,43.4145364 37.5310021,48.1000026 C39.0891428,49.9407938 41.0097043,51.4409559 43.1730024,52.5070029 C45.6170025,53.716003 48.1780027,55.107003 50.7130028,56.0950031 C51.8879731,59.1612221 52.7588234,62.3354716 53.3130029,65.5720036 C53.3910029,65.2990036 53.4690029,65.0130036 53.5600029,64.7400036 C52.0000029,50.8430028 42.9780024,38.9220021 31.4340017,31.2780017 C31.2504214,31.1588439 31.014189,31.1577812 30.829544,31.2752825 C30.6448991,31.3927839 30.5458104,31.6072328 30.5760017,31.8240018 L30.5760017,31.8240018 Z" id="Path" fill="#EBEBEB"></path>
                            <path d="M34.5540019,35.945002 C34.4760019,35.867002 34.5540019,35.724002 34.6840019,35.789002 C41.0242334,40.5075139 46.08317,46.7373351 49.4000027,53.911003 C49.4780027,54.106003 49.2180027,54.275003 49.1140027,54.080003 C48.5680027,53.1440029 48.0220026,52.2210029 47.4760026,51.3240028 L47.4760026,51.3240028 C44.794049,50.5948519 42.3507922,49.1737282 40.3910022,47.2030026 C40.3910022,47.2030026 40.3910022,47.0860026 40.4690022,47.1250026 C41.4732802,48.0446381 42.5918137,48.8311069 43.7970024,49.4650027 C44.8921361,49.9551668 46.011595,50.3890656 47.1510026,50.7650028 C46.1760025,49.2180027 45.1620025,47.7360026 44.0960024,46.2930025 C41.2505985,45.2129372 38.5822328,43.7144461 36.179002,41.8470023 C36.1533702,41.8217287 36.1483623,41.7821972 36.1668824,41.7513305 C36.1854024,41.7204638 36.2226397,41.7062794 36.257002,41.7170023 C38.6388476,43.146433 41.0949781,44.4482689 43.6150024,45.6170025 C42.0034295,43.5003821 40.2670112,41.4817958 38.4150021,39.5720022 C37.5180021,39.0910022 36.608002,38.6230021 35.737002,38.1160021 C35.737002,38.1160021 35.737002,37.9470021 35.737002,37.9730021 C36.455062,38.2290501 37.1401889,38.5694316 37.7780021,38.9870021 C36.777002,37.9990021 35.711002,36.959002 34.5540019,35.945002 Z" id="Path" fill="#A6A6A6"></path>
                            <path d="M34.8010019,40.7550022 C34.9628304,40.8483532 35.1152121,40.9571972 35.2560019,41.0800023 C35.2560019,41.0800023 35.2560019,41.1710023 35.1910019,41.1450023 C35.032396,41.0710869 34.8802058,40.9841211 34.7360019,40.8850022 C34.6450019,40.8330022 34.7230019,40.7030022 34.8010019,40.7550022 Z" id="Path" fill="#A6A6A6"></path>
                            <polygon id="Path" fill="#DBDBDB" points="67.8080037 79.7680044 44.0440024 79.7680044 45.2140025 64.1810035 45.6560025 59.1110033 65.9750036 59.1110033 66.4300037 64.1810035"></polygon>
                            <polygon id="Path" fill="#C7C7C7" points="66.4300037 64.1810035 45.2140025 64.1810035 45.6560025 59.1110033 65.9750036 59.1110033"></polygon>
                            <rect id="Rectangle" fill="#DBDBDB" x="44.0440024" y="54.938003" width="23.5560013" height="5.21300029"></rect>
                            <rect id="Rectangle" fill="#C7C7C7" transform="translate(118.430007, 51.447503) rotate(90.000000) translate(-118.430007, -51.447503) " x="90.148505" y="44.3235024" width="56.5630031" height="14.2480008"></rect>
                            <rect id="Rectangle" fill="#DBDBDB" transform="translate(118.443007, 23.244001) rotate(90.000000) translate(-118.443007, -23.244001) " x="115.336006" y="16.1200009" width="6.21400034" height="14.2480008"></rect>
                            <rect id="Rectangle" fill="#DBDBDB" transform="translate(118.430007, 35.470502) rotate(90.000000) translate(-118.430007, -35.470502) " x="117.279506" y="28.3465016" width="2.30100013" height="14.2480008"></rect>
                            <rect id="Rectangle" fill="#DBDBDB" transform="translate(118.443007, 69.199004) rotate(90.000000) translate(-118.443007, -69.199004) " x="115.336006" y="62.0750034" width="6.21400034" height="14.2480008"></rect>
                            <rect id="Rectangle" fill="#DBDBDB" transform="translate(130.533007, 46.728503) rotate(90.000000) translate(-130.533007, -46.728503) " x="97.5455054" y="41.7495023" width="65.9750036" height="9.95800055"></rect>
                            <rect id="Rectangle" fill="#EBEBEB" transform="translate(130.481007, 32.643002) rotate(90.000000) translate(-130.481007, -32.643002) " x="117.793006" y="29.6530016" width="25.3760014" height="5.98000033"></rect>
                            <rect id="Rectangle" fill="#C7C7C7" transform="translate(179.437932, 52.928799) rotate(44.670000) translate(-179.437932, -52.928799) " x="146.450431" y="47.9497984" width="65.9750036" height="9.95800055"></rect>
                            <rect id="Rectangle" fill="#DBDBDB" transform="translate(182.892451, 56.293782) rotate(44.670000) translate(-182.892451, -56.293782) " x="170.204451" y="53.3037821" width="25.3760014" height="5.98000033"></rect>
                            <rect id="Rectangle" fill="#A6A6A6" transform="translate(143.962008, 54.671503) rotate(90.000000) translate(-143.962008, -54.671503) " x="118.904507" y="46.2215025" width="50.1150028" height="16.9000009"></rect>
                            <rect id="Rectangle" fill="#C7C7C7" transform="translate(143.962008, 72.091504) rotate(90.000000) translate(-143.962008, -72.091504) " x="141.628508" y="63.6415035" width="4.66700026" height="16.9000009"></rect>
                            <rect id="Rectangle" fill="#C7C7C7" transform="translate(143.962008, 65.773504) rotate(90.000000) translate(-143.962008, -65.773504) " x="143.058508" y="57.3235032" width="1.8070001" height="16.9000009"></rect>
                            <rect id="Rectangle" fill="#A6A6A6" transform="translate(96.747132, 55.816800) rotate(113.230000) translate(-96.747132, -55.816800) " x="73.1976307" y="49.9797993" width="47.0990026" height="11.6740006"></rect>
                            <rect id="Rectangle" fill="#C7C7C7" transform="translate(90.301144, 70.867129) rotate(113.230000) translate(-90.301144, -70.867129) " x="88.1041438" y="65.0301288" width="4.39400024" height="11.6740006"></rect>
                            <rect id="Rectangle" fill="#C7C7C7" transform="translate(101.354000, 45.127743) rotate(113.230000) translate(-101.354000, -45.127743) " x="99.1570001" y="39.2907432" width="4.39400024" height="11.6740006"></rect>
                            <rect id="Rectangle" fill="#C7C7C7" transform="translate(98.955103, 50.674123) rotate(113.230000) translate(-98.955103, -50.674123) " x="98.1036032" y="44.8371222" width="1.70300009" height="11.6740006"></rect>
                            <polygon id="Path" fill="#EBEBEB" points="432.601024 325.884018 499.369027 325.923018 499.408027 240.214013 449.839025 240.188013 432.640024 256.503014"></polygon>
                            <polygon id="Path" fill="#DBDBDB" points="449.839025 240.188013 432.640024 256.503014 449.826025 256.516014"></polygon>
                            <rect id="Rectangle" fill="#DBDBDB" x="455.767025" y="254.579014" width="37.128002" height="2.19700012"></rect>
                            <rect id="Rectangle" fill="#DBDBDB" x="455.767025" y="260.130014" width="37.128002" height="2.19700012"></rect>
                            <rect id="Rectangle" fill="#DBDBDB" x="455.767025" y="265.694015" width="37.128002" height="2.19700012"></rect>
                            <rect id="Rectangle" fill="#DBDBDB" x="438.490024" y="271.245015" width="54.392003" height="2.19700012"></rect>
                            <rect id="Rectangle" fill="#DBDBDB" x="438.490024" y="276.796015" width="54.392003" height="2.19700012"></rect>
                            <rect id="Rectangle" fill="#DBDBDB" x="438.490024" y="282.347016" width="54.392003" height="2.19700012"></rect>
                            <rect id="Rectangle" fill="#DBDBDB" x="438.477024" y="287.911016" width="54.392003" height="2.19700012"></rect>
                            <rect id="Rectangle" fill="#DBDBDB" x="438.477024" y="293.462016" width="54.392003" height="2.19700012"></rect>
                            <rect id="Rectangle" fill="#DBDBDB" x="438.477024" y="299.013016" width="54.392003" height="2.19700012"></rect>
                            <rect id="Rectangle" fill="#DBDBDB" x="438.477024" y="304.577017" width="54.392003" height="2.19700012"></rect>
                            <rect id="Rectangle" fill="#DBDBDB" x="438.477024" y="310.128017" width="54.392003" height="2.19700012"></rect>
                            <rect id="Rectangle" fill="#DBDBDB" x="438.464024" y="315.679017" width="54.392003" height="2.19700012"></rect>
                            <polygon id="Path" fill="#DBDBDB" points="453.440025 345.449019 520.208029 345.488019 520.260029 259.779014 470.678026 259.753014 453.479025 276.068015"></polygon>
                            <polygon id="Path" fill="#C7C7C7" points="470.678026 259.753014 453.479025 276.068015 470.678026 276.081015"></polygon>
                            <rect id="Rectangle" fill="#C7C7C7" x="476.606026" y="274.144015" width="37.128002" height="2.19700012"></rect>
                            <rect id="Rectangle" fill="#C7C7C7" x="476.606026" y="279.695015" width="37.128002" height="2.19700012"></rect>
                            <rect id="Rectangle" fill="#C7C7C7" x="476.606026" y="285.259016" width="37.128002" height="2.19700012"></rect>
                            <rect id="Rectangle" fill="#C7C7C7" x="459.329025" y="290.797016" width="54.392003" height="2.19700012"></rect>
                            <rect id="Rectangle" fill="#C7C7C7" x="459.329025" y="296.361016" width="54.392003" height="2.19700012"></rect>
                            <rect id="Rectangle" fill="#C7C7C7" x="459.329025" y="301.912017" width="54.392003" height="2.19700012"></rect>
                            <rect id="Rectangle" fill="#C7C7C7" x="459.329025" y="307.463017" width="54.392003" height="2.19700012"></rect>
                            <rect id="Rectangle" fill="#C7C7C7" x="459.329025" y="313.027017" width="54.392003" height="2.19700012"></rect>
                            <rect id="Rectangle" fill="#C7C7C7" x="459.316025" y="318.578018" width="54.392003" height="2.19700012"></rect>
                            <rect id="Rectangle" fill="#C7C7C7" x="459.316025" y="324.129018" width="54.392003" height="2.19700012"></rect>
                            <rect id="Rectangle" fill="#C7C7C7" x="459.316025" y="329.693018" width="54.392003" height="2.19700012"></rect>
                            <rect id="Rectangle" fill="#C7C7C7" x="459.316025" y="335.244018" width="54.392003" height="2.19700012"></rect>
                            <polygon id="Path" fill="#C7C7C7" points="474.292026 365.01402 541.06003 365.04002 541.09903 279.344015 491.530027 279.318015 474.331026 295.633016"></polygon>
                            <polygon id="Path" fill="#A6A6A6" points="491.530027 279.318015 474.331026 295.633016 491.517027 295.646016"></polygon>
                            <rect id="Rectangle" fill="#A6A6A6" x="497.458027" y="293.709016" width="37.128002" height="2.19700012"></rect>
                            <rect id="Rectangle" fill="#A6A6A6" x="497.458027" y="299.260016" width="37.128002" height="2.19700012"></rect>
                            <rect id="Rectangle" fill="#A6A6A6" x="497.445027" y="304.811017" width="37.128002" height="2.19700012"></rect>
                            <rect id="Rectangle" fill="#A6A6A6" x="480.181026" y="310.362017" width="54.392003" height="2.19700012"></rect>
                            <rect id="Rectangle" fill="#A6A6A6" x="480.181026" y="315.926017" width="54.392003" height="2.19700012"></rect>
                            <rect id="Rectangle" fill="#A6A6A6" x="480.181026" y="321.477018" width="54.392003" height="2.19700012"></rect>
                            <rect id="Rectangle" fill="#A6A6A6" x="480.168026" y="327.028018" width="54.392003" height="2.19700012"></rect>
                            <rect id="Rectangle" fill="#A6A6A6" x="480.168026" y="332.592018" width="54.392003" height="2.19700012"></rect>
                            <rect id="Rectangle" fill="#A6A6A6" x="480.168026" y="338.143019" width="54.392003" height="2.19700012"></rect>
                            <rect id="Rectangle" fill="#A6A6A6" x="480.168026" y="343.694019" width="54.392003" height="2.19700012"></rect>
                            <rect id="Rectangle" fill="#A6A6A6" x="480.155026" y="349.245019" width="54.392003" height="2.19700012"></rect>
                            <rect id="Rectangle" fill="#A6A6A6" x="480.155026" y="354.80902" width="54.392003" height="2.19700012"></rect>
                            <path d="M475.085026,19.8380011 L461.396025,11.3490006 L458.796025,15.5350009 C458.017294,16.7487832 456.632321,17.4337697 455.195025,17.316001 C454.402025,17.316001 453.596025,17.2250009 452.790025,17.2380009 C451.34782,17.2663287 450.007755,16.4962913 449.306025,15.2360008 L446.979025,10.8940006 L432.783024,18.512001 L435.110024,22.8540013 C435.76923,24.1343117 435.66927,25.6736945 434.850024,26.8580015 C434.395024,27.5210015 433.966024,28.1580015 433.550024,28.8990016 C432.870693,30.1780216 431.526805,30.9632148 430.079024,30.9270017 L425.152023,30.7710017 L424.645023,46.8650026 L429.598024,47.0210026 C431.033079,47.081604 432.311028,47.9469873 432.900024,49.2570027 C433.069024,49.6210027 433.251024,49.9720027 433.446024,50.3230028 C433.641024,50.6740028 433.823024,51.0120028 434.031024,51.3500028 C434.76844,52.5828123 434.76844,54.1211935 434.031024,55.354003 L431.431024,59.5790033 L445.120024,68.0680037 L447.720025,63.8690035 C448.501012,62.6508639 449.892242,61.9652577 451.334025,62.0880034 C452.128817,62.1659359 452.927844,62.1919911 453.726025,62.1660034 C455.163601,62.1425133 456.497503,62.9118804 457.197025,64.1680035 L459.537025,68.5230038 L473.733026,60.9050034 L471.406026,56.5500031 C470.727316,55.2799363 470.822888,53.7356882 471.653026,52.5590029 C472.127948,51.9060701 472.562107,51.2244402 472.953026,50.5180028 C473.647852,49.2476696 474.989272,48.4668431 476.437026,48.4900027 L481.377026,48.6460027 L481.897027,32.5000018 L476.957026,32.3440018 C475.514414,32.2870563 474.227004,31.4220773 473.629026,30.1080017 C473.460026,29.7570016 473.291026,29.3930016 473.096026,29.0420016 C472.901026,28.6910016 472.719026,28.3530016 472.511026,28.0150015 C471.750638,26.7839533 471.750638,25.2290496 472.511026,23.9980013 L475.085026,19.8380011 Z M464.919026,33.4620018 C467.440949,38.1656554 466.88101,43.9253464 463.500325,48.0551671 C460.119639,52.1849877 454.584027,53.8715756 449.474904,52.3284269 C444.36578,50.7852781 440.689378,46.3163136 440.16011,41.0055388 C439.630841,35.6947639 442.352944,30.5881283 447.057025,28.0670015 C453.479334,24.624999 461.475935,27.0402751 464.919026,33.4620018 Z" id="Shape" fill="#EBEBEB"></path>
                            <path d="M48.4250027,229.008013 L42.7830024,219.232012 L39.7930022,221.000012 C38.9197747,221.521527 37.8226308,221.485971 36.985002,220.909012 C36.5118242,220.599604 36.0213587,220.317478 35.516002,220.064012 C34.6133247,219.61347 34.040452,218.693859 34.0340019,217.685012 L34.0340019,214.227012 L22.7500013,214.227012 L22.7500013,217.685012 C22.7435511,218.693859 22.1706784,219.61347 21.2680012,220.064012 C20.7626445,220.317478 20.2721789,220.599604 19.7990011,220.909012 C18.9613723,221.485971 17.8642284,221.521527 16.9910009,221.000012 L14.0010008,219.271012 L8.35900046,229.047013 L11.3620006,230.776013 C12.2282666,231.299192 12.7298838,232.262297 12.6620007,233.272013 C12.6620007,233.545013 12.6620007,233.831013 12.6620007,234.104013 C12.6620007,234.377013 12.6620007,234.663013 12.6620007,234.936013 C12.7309367,235.942472 12.2284238,236.902271 11.3620006,237.419013 L8.34600046,239.148013 L13.9880008,248.924014 L16.9780009,247.195014 C17.8625044,246.694097 18.9537825,246.734328 19.7990011,247.299014 C20.2670011,247.598014 20.7480011,247.884014 21.2550012,248.144014 C22.1576784,248.594555 22.7305511,249.514167 22.7370013,250.523014 L22.7370013,253.981014 L34.0210019,253.981014 L34.0210019,250.523014 C34.027452,249.514167 34.6003247,248.594555 35.503002,248.144014 C36.010002,247.884014 36.491002,247.598014 36.959002,247.299014 C37.8042206,246.734328 38.8954988,246.694097 39.7800022,247.195014 L42.7700024,248.924014 L48.4120027,239.148013 L45.4090025,237.419013 C44.5425793,236.902271 44.0400664,235.942472 44.1090024,234.936013 C44.1090024,234.663013 44.1090024,234.390013 44.1090024,234.104013 C44.1090024,233.818013 44.1090024,233.545013 44.1090024,233.272013 C44.0411193,232.262297 44.5427365,231.299192 45.4090025,230.776013 L48.4250027,229.008013 Z M37.7000112,234.065013 C37.6928248,239.168083 33.5514197,243.299793 28.4483471,243.295013 C23.3452745,243.290226 19.2116221,239.15076 19.2140102,234.047686 C19.2164003,228.944611 23.3539267,224.809012 28.4570016,224.809012 C30.9106518,224.809012 33.2636174,225.784608 34.9973904,227.520819 C36.7311634,229.257031 37.7034531,231.611365 37.7000112,234.065013 Z" id="Shape" fill="#EBEBEB"></path>
                            <path d="M519.441029,77.2330042 L513.799028,67.4570037 L510.809028,69.1860038 C509.930225,69.6854613 508.845649,69.650313 508.001028,69.0950038 C507.530802,68.7808146 507.040034,68.4985145 506.532028,68.2500038 C505.629392,67.7927566 505.057572,66.8698187 505.050028,65.8580036 L505.050028,62.4000034 L493.766027,62.4000034 L493.766027,65.8450036 C493.758483,66.8568187 493.186663,67.7797566 492.284027,68.2370038 C491.776021,68.4855144 491.285253,68.7678146 490.815027,69.0820038 C489.970406,69.637313 488.88583,69.6724613 488.007027,69.1730038 L485.017027,67.4440037 L479.375026,77.2200042 L482.378027,78.9490043 C483.24655,79.4700611 483.748943,80.4346556 483.678027,81.4450045 C483.678027,81.7180045 483.678027,81.9910045 483.678027,82.2770045 C483.678027,82.5630045 483.678027,82.8230046 483.678027,83.0960046 C483.746963,84.1024632 483.24445,85.0622629 482.378027,85.5790047 L479.362026,87.3210048 L485.004027,97.0970053 L487.994027,95.3680052 C488.87853,94.8670886 489.969808,94.90732 490.815027,95.4720053 C491.283958,95.7771053 491.770099,96.0549001 492.271027,96.3040053 C493.173663,96.7612524 493.745483,97.6841904 493.753027,98.6960054 L493.753027,102.154006 L505.037028,102.154006 L505.037028,98.6960054 C505.044572,97.6841904 505.616392,96.7612524 506.519028,96.3040053 C507.019956,96.0549001 507.506097,95.7771053 507.975028,95.4720053 C508.820247,94.90732 509.911525,94.8670886 510.796028,95.3680052 L513.786028,97.0970053 L519.428029,87.3210048 L516.425028,85.5920047 C515.558605,85.0752629 515.056092,84.1154632 515.125028,83.1090046 C515.125028,82.8360046 515.125028,82.5500045 515.125028,82.2770045 C515.125028,82.0040045 515.125028,81.7180045 515.125028,81.4450045 C515.051038,80.4340188 515.554221,79.4679077 516.425028,78.9490043 L519.441029,77.2330042 Z M508.651065,82.2900045 C508.643851,87.3930743 504.502446,91.5247842 499.399373,91.5200051 C494.2963,91.5152178 490.162648,87.3757516 490.165036,82.2726773 C490.167426,77.169603 494.304953,73.0339948 499.408027,73.0339948 C501.862739,73.0305369 504.21772,74.0050231 505.952245,75.7419875 C507.68677,77.4789519 508.657945,79.8353001 508.651065,82.2900045 Z" id="Shape" fill="#EBEBEB"></path>
                        </g>
                        <g id="freepik--Screens--inject-62" transform="translate(35.100002, 8.800000)">
                            <polygon id="Path" fill="#EBEBEB" points="142.415008 267.697015 58.7470032 267.697015 58.7470032 218.596012 60.0470033 218.596012 60.0470033 266.397015 142.415008 266.397015"></polygon>
                            <polygon id="Path" fill="#EBEBEB" points="253.890014 194.559011 252.590014 194.559011 252.590014 148.474008 8.32000046 148.474008 8.32000046 147.174008 253.890014 147.174008"></polygon>
                            <path d="M414.895023,219.246012 L39.1170022,219.246012 C34.7370381,219.203284 31.2069155,215.644179 31.2000017,211.264012 L31.2000017,147.824008 L32.5000018,147.824008 L32.5000018,211.264012 C32.5000018,214.954379 35.4916353,217.946012 39.1820022,217.946012 L414.895023,217.946012 L414.895023,219.246012 Z" id="Path" fill="#EBEBEB"></path>
                            <path d="M77.9220043,171.172179 L39.1430022,171.172179 C34.7457107,171.136316 31.1998569,167.561445 31.2000017,163.164009 L31.2000017,157.431009 L17.745001,148.331008 L18.473001,147.252008 L32.5000018,156.729009 L32.5000018,163.164009 C32.5000018,166.868735 35.5032759,169.872009 39.2080022,169.872009 L77.9870043,169.872009 C81.6917306,169.872009 84.6950047,166.868735 84.6950047,163.164009 L84.6950047,155.897009 L96.3950053,147.304008 L97.1620053,148.357008 L85.9820047,156.547009 L85.9820047,163.164009 C85.9820497,165.296903 85.1312177,167.34169 83.6181609,168.844985 C82.105104,170.34828 80.0548534,171.185859 77.9220043,171.172179 Z" id="Path" fill="#EBEBEB"></path>
                            <path d="M105.144006,219.051012 L96.0440053,209.951012 L96.0440053,177.86701 C96.0368522,174.17243 93.0435845,171.179163 89.3490049,171.172009 L70.9800039,171.172009 L70.9800039,169.872009 L89.3880049,169.872009 C93.8005536,169.879167 97.3758479,173.454461 97.3830054,177.86701 L97.3830054,209.457012 L106.054006,218.141012 L105.144006,219.051012 Z" id="Path" fill="#EBEBEB"></path>
                            <path d="M285.246016,219.480012 L277.446015,211.680012 L277.446015,201.878011 C277.446022,198.185535 274.456484,195.190181 270.764015,195.183011 L211.900012,195.183011 C208.207543,195.190181 205.218004,198.185535 205.218011,201.878011 L205.218011,211.680012 L197.873011,219.025012 L196.950011,218.115012 L203.918011,211.147012 L203.918011,201.878011 C203.925143,197.470523 207.492541,193.897315 211.900012,193.883011 L270.790015,193.883011 C275.200454,193.890182 278.772021,197.467566 278.772015,201.878011 L278.772015,211.147012 L286.169016,218.544012 L285.246016,219.480012 Z" id="Path" fill="#EBEBEB"></path>
                            <path d="M156.624009,244.427014 L107.640006,244.427014 C103.234637,244.419856 99.6651629,240.850382 99.6580055,236.445013 L99.6580055,227.878013 L90.831005,219.051012 L91.754005,218.141012 L100.958006,227.345013 L100.958006,236.445013 C100.958006,240.13538 103.949639,243.127013 107.640006,243.127013 L156.624009,243.127013 C160.316484,243.12702 163.311839,240.137482 163.319009,236.445013 L163.319009,227.800013 L172.523009,218.596012 L173.43301,219.506012 L164.619009,228.333013 L164.619009,236.471013 C164.59046,240.868324 161.021406,244.419968 156.624009,244.427014 L156.624009,244.427014 Z" id="Path" fill="#EBEBEB"></path>
                            <path d="M386.386021,244.427014 L337.389019,244.427014 C332.98365,244.419856 329.414176,240.850382 329.407018,236.445013 L329.407018,227.878013 L320.580018,219.051012 L321.503018,218.141012 L330.707018,227.345013 L330.707018,236.445013 C330.714171,240.132413 333.701619,243.11986 337.389019,243.127013 L386.386021,243.127013 C390.073421,243.11986 393.060869,240.132413 393.068022,236.445013 L393.068022,227.800013 L402.272022,218.596012 L403.195022,219.506012 L394.368022,228.333013 L394.368022,236.471013 C394.346587,240.866225 390.78128,244.419919 386.386021,244.427014 L386.386021,244.427014 Z" id="Path" fill="#EBEBEB"></path>
                            <path d="M15.6000125,147.824008 C15.605261,150.785445 13.8253827,153.458205 11.0908802,154.595145 C8.35637775,155.732084 5.20621532,155.109114 3.11029951,153.016921 C1.0143837,150.924728 0.385814704,147.775678 1.51789097,145.039159 C2.64996723,142.30264 5.31955911,140.518008 8.28100046,140.518008 C12.3181014,140.518008 15.5928302,143.786914 15.6000125,147.824008 Z" id="Path" fill="#EBEBEB"></path>
                            <circle id="Oval" fill="#EBEBEB" cx="123.461007" cy="147.824008" r="7.3190004"></circle>
                            <circle id="Oval" fill="#FFFFFF" cx="123.461007" cy="219.168012" r="7.3190004"></circle>
                            <path d="M123.500007,227.137013 C120.276847,227.137013 117.37106,225.195428 116.13761,222.217617 C114.904161,219.239805 115.585954,215.812196 117.865073,213.533078 C120.144191,211.25396 123.5718,210.572166 126.549611,211.805616 C129.527423,213.039066 131.469007,215.944852 131.469007,219.168012 C131.46185,223.566201 127.898196,227.129855 123.500007,227.137013 Z M123.500007,212.499012 C119.81682,212.499012 116.831006,215.484825 116.831006,219.168012 C116.831006,222.851199 119.81682,225.837012 123.500007,225.837012 C127.183194,225.837012 130.169007,222.851199 130.169007,219.168012 C130.169007,215.484825 127.183194,212.499012 123.500007,212.499012 L123.500007,212.499012 Z" id="Shape" fill="#EBEBEB"></path>
                            <path d="M193.440011,219.168012 C193.440011,223.210184 190.163183,226.487013 186.12101,226.487013 C182.078838,226.487013 178.80201,223.210184 178.80201,219.168012 C178.80201,215.12584 182.078838,211.849012 186.12101,211.849012 C190.163183,211.849012 193.440011,215.12584 193.440011,219.168012 Z" id="Path" fill="#FFFFFF"></path>
                            <path d="M186.12101,227.137013 C181.719853,227.137013 178.15201,223.56917 178.15201,219.168012 C178.15201,214.766855 181.719853,211.199012 186.12101,211.199012 C190.522168,211.199012 194.090011,214.766855 194.090011,219.168012 C194.082853,223.566201 190.5192,227.129855 186.12101,227.137013 L186.12101,227.137013 Z M186.12101,212.499012 C182.437823,212.499012 179.45201,215.484825 179.45201,219.168012 C179.45201,222.851199 182.437823,225.837012 186.12101,225.837012 C189.804197,225.837012 192.790011,222.851199 192.790011,219.168012 C192.790011,217.399283 192.087386,215.702997 190.836706,214.452317 C189.586025,213.201637 187.889739,212.499012 186.12101,212.499012 L186.12101,212.499012 Z" id="Shape" fill="#EBEBEB"></path>
                            <path d="M130.780007,243.777013 C130.780007,247.819186 127.503179,251.096014 123.461007,251.096014 C119.418834,251.096014 116.142006,247.819186 116.142006,243.777013 C116.142006,239.734841 119.418834,236.458013 123.461007,236.458013 C127.503179,236.458013 130.780007,239.734841 130.780007,243.777013 Z" id="Path" fill="#EBEBEB"></path>
                            <path d="M130.780007,243.777013 C130.780007,247.819186 127.503179,251.096014 123.461007,251.096014 C119.418834,251.096014 116.142006,247.819186 116.142006,243.777013 C116.142006,239.734841 119.418834,236.458013 123.461007,236.458013 C127.503179,236.458013 130.780007,239.734841 130.780007,243.777013 Z" id="Path" fill="#EBEBEB" opacity="0.2"></path>
                            <path d="M148.590008,243.777013 C148.590008,247.819186 145.31318,251.096014 141.271008,251.096014 C137.228835,251.096014 133.952007,247.819186 133.952007,243.777013 C133.952007,239.734841 137.228835,236.458013 141.271008,236.458013 C145.31318,236.458013 148.590008,239.734841 148.590008,243.777013 Z" id="Path" fill="#EBEBEB"></path>
                            <path d="M148.590008,243.777013 C148.590008,247.819186 145.31318,251.096014 141.271008,251.096014 C137.228835,251.096014 133.952007,247.819186 133.952007,243.777013 C133.952007,239.734841 137.228835,236.458013 141.271008,236.458013 C145.31318,236.458013 148.590008,239.734841 148.590008,243.777013 Z" id="Path" fill="#EBEBEB" opacity="0.2"></path>
                            <path d="M360.69802,243.777013 C360.69802,247.819186 357.421192,251.096014 353.379019,251.096014 C349.336847,251.096014 346.060019,247.819186 346.060019,243.777013 C346.060019,239.734841 349.336847,236.458013 353.379019,236.458013 C357.421192,236.458013 360.69802,239.734841 360.69802,243.777013 Z" id="Path" fill="#EBEBEB"></path>
                            <path d="M378.430021,243.777013 C378.430021,246.737273 376.646804,249.406046 373.911881,250.538888 C371.176958,251.67173 368.028925,251.045548 365.935706,248.952328 C363.842486,246.859109 363.216304,243.711076 364.349146,240.976153 C365.481988,238.24123 368.150761,236.458013 371.11102,236.458013 C375.153193,236.458013 378.430021,239.734841 378.430021,243.777013 L378.430021,243.777013 Z" id="Path" fill="#EBEBEB"></path>
                            <circle id="Oval" fill="#EBEBEB" cx="253.240014" cy="147.824008" r="7.3190004"></circle>
                            <circle id="Oval" fill="#EBEBEB" cx="59.3970033" cy="171.198009" r="7.3190004"></circle>
                            <circle id="Oval" fill="#FFFFFF" cx="59.3970033" cy="218.596012" r="7.3190004"></circle>
                            <path d="M59.3970033,226.565023 C56.1726657,226.570272 53.2628915,224.632026 52.0253446,221.654635 C50.7877976,218.677244 51.4663789,215.247505 53.744471,212.96569 C56.022563,210.683876 59.4511898,209.999696 62.4305975,211.23238 C65.4100052,212.465064 67.3530037,215.37167 67.3530037,218.596012 C67.3458721,222.989141 63.7901149,226.550708 59.3970033,226.565023 L59.3970033,226.565023 Z M59.3970033,211.926999 C56.6984676,211.921751 54.2627211,213.543262 53.2263893,216.034875 C52.1900574,218.526489 52.7574155,221.397075 54.6637095,223.307092 C56.5700034,225.217109 59.4394765,225.790067 61.9331075,224.758599 C64.4267385,223.727131 66.0530036,221.294553 66.0530036,218.596012 C66.0530036,214.917896 63.0751126,211.934182 59.3970033,211.926999 L59.3970033,211.926999 Z" id="Shape" fill="#EBEBEB"></path>
                            <circle id="Oval" fill="#DDDDDD" cx="59.3970033" cy="267.047015" r="7.3190004"></circle>
                            <circle id="Oval" fill="#A6A6A6" opacity="0.2" cx="59.3970033" cy="267.047015" r="7.3190004"></circle>
                            <circle id="Oval" fill="#EBEBEB" cx="90.623005" cy="267.047015" r="7.3190004"></circle>
                            <circle id="Oval" fill="#A6A6A6" opacity="0.2" cx="90.623005" cy="267.047015" r="7.3190004"></circle>
                            <circle id="Oval" fill="#DDDDDD" cx="141.271008" cy="267.047015" r="7.3190004"></circle>
                            <circle id="Oval" fill="#EBEBEB" opacity="0.2" cx="141.271008" cy="267.047015" r="7.3190004"></circle>
                            <path d="M83.3040046,218.596012 C83.3040046,221.556271 81.5207874,224.225045 78.7858644,225.357887 C76.0509414,226.490729 72.9029088,225.864546 70.8096894,223.771327 C68.7164699,221.678107 68.0902873,218.530075 69.2231295,215.795152 C70.3559717,213.060229 73.0247448,211.277012 75.9850042,211.277012 C80.0271765,211.277012 83.3040046,214.55384 83.3040046,218.596012 L83.3040046,218.596012 Z" id="Path" fill="#EBEBEB"></path>
                            <path d="M75.9850042,226.565013 C72.7618444,226.565013 69.8560576,224.623428 68.6226078,221.645617 C67.3891579,218.667805 68.0709518,215.240196 70.3500699,212.961078 C72.6291881,210.68196 76.0567972,210.000166 79.0346086,211.233616 C82.01242,212.467066 83.9540046,215.372852 83.9540046,218.596012 C83.9468473,222.994201 80.3831935,226.557855 75.9850042,226.565013 Z M75.9850042,211.927012 C72.301817,211.927012 69.3160038,214.912825 69.3160038,218.596012 C69.3160038,222.279199 72.301817,225.265012 75.9850042,225.265012 C79.6681914,225.265012 82.6540045,222.279199 82.6540045,218.596012 C82.6540045,214.912825 79.6681914,211.927012 75.9850042,211.927012 Z" id="Shape" fill="#DDDDDD"></path>
                            <path d="M241.527013,194.559011 C241.527013,198.601183 238.250185,201.878011 234.208013,201.878011 C230.165841,201.878011 226.889012,198.601183 226.889012,194.559011 C226.889012,190.516838 230.165841,187.24001 234.208013,187.24001 C238.250185,187.24001 241.527013,190.516838 241.527013,194.559011 Z" id="Path" fill="#EBEBEB"></path>
                            <path d="M241.527013,194.559011 C241.527013,198.601183 238.250185,201.878011 234.208013,201.878011 C230.165841,201.878011 226.889012,198.601183 226.889012,194.559011 C226.889012,190.516838 230.165841,187.24001 234.208013,187.24001 C238.250185,187.24001 241.527013,190.516838 241.527013,194.559011 Z" id="Path" fill="#EBEBEB" opacity="0.4"></path>
                            <circle id="Oval" fill="#FFFFFF" cx="307.593017" cy="218.596012" r="7.3190004"></circle>
                            <path d="M307.593017,226.565013 C303.19186,226.565013 299.624016,222.997169 299.624016,218.596012 C299.624016,214.194855 303.19186,210.627012 307.593017,210.627012 C311.994174,210.627012 315.562017,214.194855 315.562017,218.596012 C315.55486,222.994201 311.991206,226.557855 307.593017,226.565013 L307.593017,226.565013 Z M307.593017,211.927012 C303.90983,211.927012 300.924017,214.912825 300.924017,218.596012 C300.924017,222.279199 303.90983,225.265012 307.593017,225.265012 C311.276204,225.265012 314.262017,222.279199 314.262017,218.596012 C314.262017,214.912825 311.276204,211.927012 307.593017,211.927012 Z" id="Shape" fill="#EBEBEB"></path>
                            <circle id="Oval" fill="#EBEBEB" cx="353.379019" cy="218.596012" r="7.3190004"></circle>
                            <path d="M353.379019,226.565013 C348.977862,226.565013 345.410019,222.997169 345.410019,218.596012 C345.410019,214.194855 348.977862,210.627012 353.379019,210.627012 C357.780177,210.627012 361.34802,214.194855 361.34802,218.596012 C361.340863,222.994201 357.777209,226.557855 353.379019,226.565013 Z M353.379019,211.927012 C349.695832,211.927012 346.710019,214.912825 346.710019,218.596012 C346.710019,222.279199 349.695832,225.265012 353.379019,225.265012 C357.062207,225.265012 360.04802,222.279199 360.04802,218.596012 C360.04802,214.912825 357.062207,211.927012 353.379019,211.927012 Z" id="Shape" fill="#EBEBEB"></path>
                            <circle id="Oval" fill="#EBEBEB" cx="371.11102" cy="218.596012" r="7.3190004"></circle>
                            <path d="M371.11102,226.565013 C366.709863,226.565013 363.14202,222.997169 363.14202,218.596012 C363.14202,214.194855 366.709863,210.627012 371.11102,210.627012 C375.512178,210.627012 379.080021,214.194855 379.080021,218.596012 C379.072863,222.994201 375.50921,226.557855 371.11102,226.565013 Z M371.11102,211.927012 C367.427833,211.927012 364.44202,214.912825 364.44202,218.596012 C364.44202,222.279199 367.427833,225.265012 371.11102,225.265012 C374.794208,225.265012 377.780021,222.279199 377.780021,218.596012 C377.780021,214.912825 374.794208,211.927012 371.11102,211.927012 L371.11102,211.927012 Z" id="Shape" fill="#EBEBEB"></path>
                            <circle id="Oval" fill="#FFFFFF" cx="414.895023" cy="218.596012" r="7.3190004"></circle>
                            <path d="M414.895023,226.565023 C411.670685,226.570272 408.760911,224.632026 407.523364,221.654635 C406.285817,218.677244 406.964398,215.247505 409.242491,212.96569 C411.520583,210.683876 414.949209,209.999696 417.928617,211.23238 C420.908025,212.465064 422.851023,215.37167 422.851023,218.596012 C422.843892,222.989141 419.288134,226.550708 414.895023,226.565023 L414.895023,226.565023 Z M414.895023,211.926999 C412.196487,211.921751 409.760741,213.543262 408.724409,216.034875 C407.688077,218.526489 408.255435,221.397075 410.161729,223.307092 C412.068023,225.217109 414.937496,225.790067 417.431127,224.758599 C419.924758,223.727131 421.551023,221.294553 421.551023,218.596012 C421.551023,214.917896 418.573132,211.934182 414.895023,211.926999 L414.895023,211.926999 Z" id="Shape" fill="#A6A6A6"></path>
                            <path d="M260.546014,194.559011 C260.546014,197.520452 258.761383,200.190044 256.024863,201.32212 C253.288344,202.454197 250.139294,201.825628 248.047101,199.729712 C245.954908,197.633796 245.331938,194.483633 246.468878,191.749131 C247.605817,189.014629 250.278577,187.23475 253.240014,187.239999 C257.277108,187.247181 260.546014,190.52191 260.546014,194.559011 Z" id="Path" fill="#EBEBEB"></path>
                            <path d="M260.546014,194.559011 C260.546014,197.520452 258.761383,200.190044 256.024863,201.32212 C253.288344,202.454197 250.139294,201.825628 248.047101,199.729712 C245.954908,197.633796 245.331938,194.483633 246.468878,191.749131 C247.605817,189.014629 250.278577,187.23475 253.240014,187.239999 C257.277108,187.247181 260.546014,190.52191 260.546014,194.559011 Z" id="Path" fill="#EBEBEB" opacity="0.4"></path>
                            <path d="M9.95800055,117.612007 L9.95800055,126.816007 C9.96147421,127.047018 9.87302349,127.269945 9.71211177,127.435733 C9.55120005,127.601521 9.33101235,127.696585 9.1000005,127.700109 C8.87137635,127.703552 8.65107479,127.614295 8.48939366,127.452614 C8.32771254,127.290933 8.23845525,127.070631 8.24200045,126.842007 L8.24200045,119.172007 L7.61800042,119.523007 C7.48987266,119.605392 7.34130738,119.650412 7.1890004,119.653007 C6.80011217,119.65177 6.45916198,119.39288 6.35352209,119.018613 C6.24788221,118.644346 6.40315152,118.245395 6.73400037,118.041007 L8.64500048,116.910006 L8.64500048,116.910006 C8.64500048,116.910006 8.64500048,116.910006 8.72300048,116.910006 L8.81400048,116.910006 L9.23000051,116.910006 C9.23000051,116.910006 9.23000051,116.910006 9.32100051,116.910006 L9.38600052,116.910006 C9.38600052,116.910006 9.38600052,116.910006 9.47700052,116.910006 L9.47700052,116.910006 L9.47700052,116.910006 L9.47700052,116.910006 L9.47700052,116.910006 C9.47700052,116.910006 9.47700052,116.910006 9.47700052,116.910006 C9.48263742,116.935701 9.48263742,116.962312 9.47700052,116.988006 C9.47700052,116.988006 9.47700052,117.053006 9.47700052,117.066006 C9.47476784,117.091959 9.47476784,117.118054 9.47700052,117.144007 C9.46306991,117.181763 9.46306991,117.22325 9.47700052,117.261007 L9.95800055,117.612007 Z" id="Path" fill="#263238"></path>
                            <path d="M126.919007,126.816007 C126.922552,127.044631 126.833295,127.264933 126.671614,127.426614 C126.509933,127.588295 126.289631,127.677552 126.061007,127.674109 L120.510007,127.674109 C120.157377,127.670113 119.841892,127.45397 119.710921,127.126541 C119.579949,126.799113 119.659339,126.42502 119.912007,126.179007 L124.527007,121.993007 C124.956396,121.615899 125.198749,121.069416 125.190007,120.498007 C125.174276,120.017146 124.990243,119.557065 124.670007,119.198007 C124.291842,118.770059 123.746058,118.528015 123.175007,118.535007 C122.69321,118.54622 122.231627,118.730853 121.875007,119.055007 L121.381007,119.484007 C121.223855,119.650184 121.005224,119.744339 120.776507,119.744339 C120.547789,119.744339 120.329158,119.650184 120.172007,119.484007 C120.008452,119.322764 119.916371,119.102679 119.916371,118.873007 C119.916371,118.643334 120.008452,118.42325 120.172007,118.262007 L120.653007,117.820007 C121.388397,117.154765 122.358364,116.809644 123.348678,116.860867 C124.338992,116.91209 125.268175,117.355443 125.931007,118.093007 C126.563526,118.774744 126.912223,119.672056 126.906007,120.602007 C126.901587,121.657511 126.453366,122.662471 125.671007,123.371007 L122.720007,126.049007 L126.100007,126.049007 C126.525521,126.065998 126.87418,126.39252 126.919007,126.816007 L126.919007,126.816007 Z" id="Path" fill="#263238"></path>
                            <path d="M255.398014,121.044007 C256.131797,121.762566 256.544319,122.746992 256.542014,123.774007 C256.520265,125.331058 255.574361,126.725938 254.135858,127.322253 C252.697356,127.918567 251.041996,127.60201 249.925014,126.517007 C249.566029,126.158022 249.566029,125.575992 249.925014,125.217007 C250.283999,124.858022 250.866029,124.858022 251.225014,125.217007 C251.61754,125.610497 252.151222,125.830523 252.707014,125.828007 C253.266191,125.828274 253.803089,125.608846 254.202014,125.217007 C254.578496,124.840722 254.793081,124.332248 254.800014,123.800007 C254.808263,123.240511 254.581983,122.703096 254.176014,122.318007 C253.78481,121.920969 253.251395,121.696373 252.694014,121.694007 C252.447672,121.70866 252.209751,121.601838 252.057014,121.408007 L252.057014,121.408007 C251.875436,121.24064 251.772143,121.004952 251.772143,120.758007 C251.772143,120.511061 251.875436,120.275373 252.057014,120.108007 L253.656014,118.483007 L251.134014,118.483007 C250.795011,118.524345 250.46252,118.366715 250.279943,118.078102 C250.097366,117.789489 250.097366,117.421524 250.279943,117.132911 C250.46252,116.844298 250.795011,116.686668 251.134014,116.728006 L255.723014,116.728006 C255.958489,116.720974 256.18677,116.809626 256.355781,116.973739 C256.524793,117.137851 256.620119,117.363427 256.620014,117.599007 C256.617145,117.745384 256.576868,117.888593 256.503014,118.015007 C256.463027,118.096459 256.410373,118.171052 256.347014,118.236007 L254.384014,120.264007 C254.763982,120.464342 255.106918,120.728139 255.398014,121.044007 Z" id="Path" fill="#263238"></path>
                            <polygon id="Path" fill="#263238" points="5.4340003 132.003007 11.2060006 132.003007 8.32000046 135.461008"></polygon>
                            <polygon id="Path" fill="#263238" points="120.575007 132.003007 126.347007 132.003007 123.461007 135.461008"></polygon>
                            <polygon id="Path" fill="#263238" points="250.354014 132.003007 256.113014 132.003007 253.240014 135.461008"></polygon>
                            <rect id="Rectangle" fill="#EBEBEB" x="177.20301" y="267.047015" width="21.3980012" height="12.3760007"></rect>
                            <rect id="Rectangle" fill="#FFFFFF" x="247.806014" y="267.047015" width="21.3980012" height="12.3760007"></rect>
                            <path d="M269.841015,280.073015 L247.156014,280.073015 L247.156014,266.397015 L269.841015,266.397015 L269.841015,280.073015 Z M248.456014,278.773015 L268.541015,278.773015 L268.541015,267.697015 L248.456014,267.697015 L248.456014,278.773015 Z" id="Shape" fill="#EBEBEB"></path>
                            <rect id="Rectangle" fill="#EBEBEB" x="318.396018" y="267.047015" width="21.3980012" height="12.3760007"></rect>
                            <rect id="Rectangle" fill="#EBEBEB" opacity="0.4" x="318.396018" y="267.047015" width="21.3980012" height="12.3760007"></rect>
                            <rect id="Rectangle" fill="#DBDBDB" x="388.999021" y="267.047015" width="21.3980012" height="12.3760007"></rect>
                            <rect id="Rectangle" fill="#000000" opacity="0.2" x="388.999021" y="267.047015" width="21.3980012" height="12.3760007"></rect>
                            <rect id="Rectangle" fill="#C7C7C7" x="205.101011" y="267.749015" width="23.4520013" height="1.30000007"></rect>
                            <rect id="Rectangle" fill="#C7C7C7" x="205.101011" y="271.935015" width="15.0540008" height="1.30000007"></rect>
                            <rect id="Rectangle" fill="#C7C7C7" x="275.340015" y="267.749015" width="23.4520013" height="1.30000007"></rect>
                            <rect id="Rectangle" fill="#C7C7C7" x="275.340015" y="271.935015" width="11.7260006" height="1.30000007"></rect>
                            <rect id="Rectangle" fill="#C7C7C7" x="345.566019" y="267.749015" width="11.7260006" height="1.30000007"></rect>
                            <rect id="Rectangle" fill="#C7C7C7" x="345.566019" y="271.935015" width="18.564001" height="1.30000007"></rect>
                            <rect id="Rectangle" fill="#C7C7C7" x="415.792023" y="267.749015" width="16.8480009" height="1.30000007"></rect>
                            <rect id="Rectangle" fill="#C7C7C7" x="415.792023" y="271.935015" width="23.4520013" height="1.30000007"></rect>
                            <rect id="Rectangle" fill="#37474F" x="250.614014" y="0.170000064" width="121.719007" height="99.9570055"></rect>
                            <polygon id="Path" fill="#263238" points="372.801021 100.595006 250.146014 100.595006 250.614014 0.170000064 372.33302 0.170000064"></polygon>
                            <rect id="Rectangle" fill="#5FC9D7" x="250.614014" y="0.170000064" width="121.719007" height="8.80100048"></rect>
                            <path d="M258.882014,4.64200031 C258.882014,5.86972938 257.886743,6.86500043 256.659014,6.86500043 C255.431285,6.86500043 254.436014,5.86972938 254.436014,4.64200031 C254.436014,3.41427124 255.431285,2.41900019 256.659014,2.41900019 C257.24859,2.41900019 257.814019,2.65320846 258.230913,3.07010185 C258.647806,3.48699524 258.882014,4.05242402 258.882014,4.64200031 L258.882014,4.64200031 Z" id="Path" fill="#A6A6A6"></path>
                            <path d="M267.930015,4.64200031 C267.930015,5.54111993 267.388398,6.35170644 266.55772,6.69578462 C265.727042,7.03986281 264.77089,6.84967235 264.135116,6.21389877 C263.499343,5.57812519 263.309152,4.62197321 263.65323,3.79129499 C263.997308,2.96061678 264.807895,2.41900019 265.707015,2.41900019 C266.934744,2.41900019 267.930015,3.41427124 267.930015,4.64200031 L267.930015,4.64200031 Z" id="Path" fill="#EBEBEB"></path>
                            <path d="M276.978015,4.64200031 C276.978015,5.86972938 275.982744,6.86500043 274.755015,6.86500043 C273.527286,6.86500043 272.532015,5.86972938 272.532015,4.64200031 C272.532015,3.41427124 273.527286,2.41900019 274.755015,2.41900019 C275.344591,2.41900019 275.91002,2.65320846 276.326914,3.07010185 C276.743807,3.48699524 276.978015,4.05242402 276.978015,4.64200031 L276.978015,4.64200031 Z" id="Path" fill="#FFFFFF"></path>
                            <rect id="Rectangle" fill="#EBEBEB" x="260.065014" y="26.4950015" width="4.70600026" height="1.71600009"></rect>
                            <rect id="Rectangle" fill="#EBEBEB" x="268.203015" y="26.4950015" width="54.002003" height="1.71600009"></rect>
                            <rect id="Rectangle" fill="#FFFFFF" x="325.091018" y="26.4950015" width="8.94400049" height="1.71600009"></rect>
                            <rect id="Rectangle" fill="#EBEBEB" x="345.540019" y="49.5050028" width="8.94400049" height="1.71600009"></rect>
                            <rect id="Rectangle" fill="#A6A6A6" x="335.972018" y="26.4950015" width="15.4570009" height="1.71600009"></rect>
                            <rect id="Rectangle" fill="#EBEBEB" x="264.771015" y="31.0970018" width="4.70600026" height="1.71600009"></rect>
                            <rect id="Rectangle" fill="#A6A6A6" x="272.792015" y="31.0970018" width="35.4380019" height="1.71600009"></rect>
                            <rect id="Rectangle" fill="#A6A6A6" x="322.660018" y="49.5050028" width="20.7480011" height="1.71600009"></rect>
                            <rect id="Rectangle" fill="#A6A6A6" x="268.203015" y="44.9030025" width="33.8520019" height="1.71600009"></rect>
                            <rect id="Rectangle" fill="#FFFFFF" x="272.792015" y="35.699002" width="23.7510013" height="1.71600009"></rect>
                            <rect id="Rectangle" fill="#A6A6A6" x="331.071018" y="40.3010023" width="9.0610005" height="1.71600009"></rect>
                            <rect id="Rectangle" fill="#A6A6A6" x="299.169016" y="35.699002" width="37.9210021" height="1.71600009"></rect>
                            <rect id="Rectangle" fill="#FFFFFF" x="268.203015" y="49.5050028" width="45.2660025" height="1.71600009"></rect>
                            <rect id="Rectangle" fill="#FFFFFF" x="334.971018" y="31.0970018" width="24.5310013" height="1.71600009"></rect>
                            <rect id="Rectangle" fill="#EBEBEB" x="310.453017" y="31.0970018" width="22.5810012" height="1.71600009"></rect>
                            <rect id="Rectangle" fill="#EBEBEB" x="338.871019" y="35.699002" width="15.2360008" height="1.71600009"></rect>
                            <rect id="Rectangle" fill="#EBEBEB" x="264.771015" y="35.699002" width="4.70600026" height="1.71600009"></rect>
                            <rect id="Rectangle" fill="#A6A6A6" x="260.065014" y="40.3010023" width="4.70600026" height="1.71600009"></rect>
                            <rect id="Rectangle" fill="#EBEBEB" x="268.203015" y="40.3010023" width="27.8200015" height="1.71600009"></rect>
                            <rect id="Rectangle" fill="#EBEBEB" x="272.792015" y="54.107003" width="27.8200015" height="1.71600009"></rect>
                            <rect id="Rectangle" fill="#A6A6A6" x="324.662018" y="58.7090033" width="21.1510012" height="1.71600009"></rect>
                            <rect id="Rectangle" fill="#FFFFFF" x="302.861017" y="54.107003" width="27.8980015" height="1.71600009"></rect>
                            <rect id="Rectangle" fill="#FFFFFF" x="297.947016" y="58.7090033" width="24.2840013" height="1.71600009"></rect>
                            <polygon id="Path" fill="#EBEBEB" points="296.023016 60.4380034 282.945016 60.4250034 282.945016 58.7090033 296.023016 58.7220033"></polygon>
                            <rect id="Rectangle" fill="#A6A6A6" x="272.792015" y="58.7090033" width="8.06000044" height="1.71600009"></rect>
                            <rect id="Rectangle" fill="#EBEBEB" x="303.953017" y="44.9030025" width="30.0690017" height="1.71600009"></rect>
                            <rect id="Rectangle" fill="#FFFFFF" x="335.972018" y="44.9030025" width="19.1360011" height="1.71600009"></rect>
                            <rect id="Rectangle" fill="#FFFFFF" x="298.844016" y="40.3010023" width="30.0300017" height="1.71600009"></rect>
                            <rect id="Rectangle" fill="#EBEBEB" x="260.065014" y="44.9030025" width="4.70600026" height="1.71600009"></rect>
                            <rect id="Rectangle" fill="#EBEBEB" x="260.065014" y="49.5050028" width="4.70600026" height="1.71600009"></rect>
                            <rect id="Rectangle" fill="#A6A6A6" x="264.771015" y="54.107003" width="4.70600026" height="1.71600009"></rect>
                            <rect id="Rectangle" fill="#EBEBEB" x="264.771015" y="58.7090033" width="4.70600026" height="1.71600009"></rect>
                            <rect id="Rectangle" fill="#EBEBEB" x="260.065014" y="62.5570035" width="4.70600026" height="1.71600009"></rect>
                            <rect id="Rectangle" fill="#EBEBEB" x="268.203015" y="62.5570035" width="32.9420018" height="1.71600009"></rect>
                            <rect id="Rectangle" fill="#EBEBEB" x="264.771015" y="67.1590038" width="4.70600026" height="1.71600009"></rect>
                            <rect id="Rectangle" fill="#A6A6A6" x="272.792015" y="67.1590038" width="35.4380019" height="1.71600009"></rect>
                            <rect id="Rectangle" fill="#A6A6A6" x="268.203015" y="80.9650045" width="33.8520019" height="1.71600009"></rect>
                            <rect id="Rectangle" fill="#FFFFFF" x="272.792015" y="71.761004" width="23.7510013" height="1.71600009"></rect>
                            <rect id="Rectangle" fill="#A6A6A6" x="299.169016" y="71.761004" width="37.9210021" height="1.71600009"></rect>
                            <rect id="Rectangle" fill="#FFFFFF" x="268.203015" y="85.5670048" width="45.2660025" height="1.71600009"></rect>
                            <rect id="Rectangle" fill="#FFFFFF" x="334.971018" y="67.1590038" width="24.5310013" height="1.71600009"></rect>
                            <rect id="Rectangle" fill="#EBEBEB" x="310.453017" y="67.1590038" width="22.5810012" height="1.71600009"></rect>
                            <rect id="Rectangle" fill="#EBEBEB" x="338.871019" y="71.761004" width="15.2360008" height="1.71600009"></rect>
                            <rect id="Rectangle" fill="#EBEBEB" x="264.771015" y="71.761004" width="4.70600026" height="1.71600009"></rect>
                            <rect id="Rectangle" fill="#A6A6A6" x="260.065014" y="76.3630043" width="4.70600026" height="1.71600009"></rect>
                            <rect id="Rectangle" fill="#EBEBEB" x="268.203015" y="76.3630043" width="27.8200015" height="1.71600009"></rect>
                            <rect id="Rectangle" fill="#EBEBEB" x="303.953017" y="80.9650045" width="30.0690017" height="1.71600009"></rect>
                            <rect id="Rectangle" fill="#FFFFFF" x="298.844016" y="76.3630043" width="30.0300017" height="1.71600009"></rect>
                            <rect id="Rectangle" fill="#EBEBEB" x="260.065014" y="80.9650045" width="4.70600026" height="1.71600009"></rect>
                            <path d="M262.964014,21.9710013 C263.043621,22.0448041 263.088865,22.1484468 263.088865,22.2570013 C263.088865,22.3655558 263.043621,22.4691984 262.964014,22.5430013 C262.888014,22.6184531 262.785107,22.6605515 262.678014,22.6600066 C262.567442,22.6586309 262.461152,22.6170394 262.379014,22.5430013 L260.572014,20.7100012 L260.572014,20.7100012 L260.572014,20.7100012 L260.572014,20.7100012 C260.572014,20.7100012 260.572014,20.7100012 260.572014,20.7100012 L260.572014,20.7100012 C260.572014,20.7100012 260.572014,20.7100012 260.572014,20.7100012 L260.572014,20.6320012 C260.572014,20.6320012 260.572014,20.6320012 260.572014,20.6320012 L260.572014,20.6320012 L260.572014,20.5670012 L260.572014,20.5670012 L260.572014,20.5670012 L262.379014,18.7210011 C262.543779,18.5674315 262.79925,18.5674315 262.964014,18.7210011 C263.044311,18.797104 263.089791,18.9028701 263.089791,19.0135011 C263.089791,19.1241321 263.044311,19.2298982 262.964014,19.3060011 L261.430014,20.8530012 L262.964014,21.9710013 Z" id="Path" fill="#FFFFFF"></path>
                            <path d="M264.615015,22.1660013 L266.201015,18.4090011 C266.23554,18.3197217 266.30503,18.2484156 266.393389,18.2115992 C266.481748,18.1747829 266.58131,18.1756505 266.669015,18.2140011 C266.844796,18.2964876 266.924884,18.502428 266.851015,18.6820011 L265.265015,22.4000013 C265.205365,22.5257744 265.079208,22.6065149 264.940015,22.6080013 C264.897551,22.6202799 264.852478,22.6202799 264.810015,22.6080013 C264.724915,22.5760493 264.656273,22.5111672 264.619582,22.4280011 C264.582891,22.344835 264.581245,22.2503957 264.615015,22.1660013 L264.615015,22.1660013 Z" id="Path" fill="#FFFFFF"></path>
                            <path d="M269.971015,20.6580012 L269.971015,20.6580012 L269.971015,20.6580012 L268.164015,22.4910013 C268.08325,22.5672338 267.976069,22.6091743 267.865015,22.6080253 C267.757922,22.6085515 267.655015,22.5664531 267.579015,22.4910013 C267.499408,22.4171984 267.454164,22.3135558 267.454164,22.2050013 C267.454164,22.0964468 267.499408,21.9928041 267.579015,21.9190013 L269.100015,20.4240012 L267.566015,18.8770011 C267.485718,18.8008982 267.440238,18.6951321 267.440238,18.5845011 C267.440238,18.4738701 267.485718,18.368104 267.566015,18.2920011 C267.730779,18.1384315 267.98625,18.1384315 268.151015,18.2920011 L269.958015,20.1380012 L269.958015,20.1380012 L269.958015,20.1380012 L269.958015,20.2030012 L269.958015,20.2030012 L269.958015,20.2030012 L269.958015,20.3850012 L269.958015,20.3850012 C269.958015,20.3850012 269.958015,20.3850012 269.958015,20.4500012 L269.958015,20.4500012 L269.971015,20.6580012 Z" id="Path" fill="#FFFFFF"></path>
                            <rect id="Rectangle" fill="#37474F" x="336.128018" y="76.5840043" width="147.719008" height="99.9570055"></rect>
                            <polygon id="Path" fill="#37474F" points="484.315027 177.00901 335.673018 177.00901 336.128018 76.5840043 483.847027 76.5840043"></polygon>
                            <rect id="Rectangle" fill="#F7C407" x="336.128018" y="76.5840043" width="147.719008" height="8.80100048"></rect>
                            <path d="M344.396019,81.0560045 C344.396019,82.2837336 343.400748,83.2790046 342.173019,83.2790046 C340.94529,83.2790046 339.950019,82.2837336 339.950019,81.0560045 C339.950019,79.8282754 340.94529,78.8330044 342.173019,78.8330044 C342.762595,78.8330044 343.328024,79.0672127 343.744917,79.4841061 C344.161811,79.9009994 344.396019,80.4664282 344.396019,81.0560045 L344.396019,81.0560045 Z" id="Path" fill="#A6A6A6"></path>
                            <circle id="Oval" fill="#EBEBEB" cx="351.221019" cy="81.0560045" r="2.21000012"></circle>
                            <path d="M362.492058,81.0560045 C362.492058,82.2837336 361.496749,83.2790046 360.26902,83.2790046 C359.041291,83.2790046 358.04602,82.2837336 358.04602,81.0560045 C358.04602,79.8282754 359.041291,78.8329659 360.26902,78.8329659 C360.859657,78.8295197 361.427113,79.0626088 361.844764,79.48026 C362.262416,79.8979111 362.495505,80.4653668 362.492058,81.0560045 L362.492058,81.0560045 Z" id="Path" fill="#FFFFFF"></path>
                            <rect id="Rectangle" fill="#EBEBEB" x="345.579019" y="102.909006" width="4.70600026" height="1.71600009"></rect>
                            <rect id="Rectangle" fill="#EBEBEB" x="353.717019" y="102.909006" width="28.0020015" height="1.71600009"></rect>
                            <rect id="Rectangle" fill="#FFFFFF" x="450.450025" y="102.909006" width="11.5700006" height="1.71600009"></rect>
                            <rect id="Rectangle" fill="#FFFFFF" x="384.605021" y="102.909006" width="8.94400049" height="1.71600009"></rect>
                            <rect id="Rectangle" fill="#EBEBEB" x="413.660023" y="102.909006" width="34.5280019" height="1.71600009"></rect>
                            <rect id="Rectangle" fill="#EBEBEB" x="431.054024" y="125.919007" width="27.3130015" height="1.71600009"></rect>
                            <rect id="Rectangle" fill="#A6A6A6" x="395.486022" y="102.909006" width="15.4570009" height="1.71600009"></rect>
                            <rect id="Rectangle" fill="#EBEBEB" x="350.285019" y="107.511006" width="4.70600026" height="1.71600009"></rect>
                            <rect id="Rectangle" fill="#A6A6A6" x="358.30602" y="107.511006" width="35.4380019" height="1.71600009"></rect>
                            <rect id="Rectangle" fill="#A6A6A6" x="408.187022" y="125.919007" width="20.7480011" height="1.71600009"></rect>
                            <rect id="Rectangle" fill="#A6A6A6" x="353.717019" y="121.317007" width="33.8520019" height="1.71600009"></rect>
                            <rect id="Rectangle" fill="#FFFFFF" x="358.30602" y="112.113006" width="23.7510013" height="1.71600009"></rect>
                            <rect id="Rectangle" fill="#FFFFFF" x="441.740024" y="112.113006" width="23.7510013" height="1.71600009"></rect>
                            <rect id="Rectangle" fill="#A6A6A6" x="416.585023" y="116.715006" width="9.0610005" height="1.71600009"></rect>
                            <rect id="Rectangle" fill="#A6A6A6" x="384.683021" y="112.113006" width="37.9210021" height="1.71600009"></rect>
                            <rect id="Rectangle" fill="#FFFFFF" x="353.717019" y="125.919007" width="45.2660025" height="1.71600009"></rect>
                            <rect id="Rectangle" fill="#FFFFFF" x="406.458022" y="107.511006" width="24.5310013" height="1.71600009"></rect>
                            <rect id="Rectangle" fill="#EBEBEB" x="395.967022" y="107.511006" width="8.54100047" height="1.71600009"></rect>
                            <rect id="Rectangle" fill="#EBEBEB" x="433.784024" y="107.511006" width="35.685002" height="1.71600009"></rect>
                            <rect id="Rectangle" fill="#EBEBEB" x="424.385023" y="112.113006" width="15.2360008" height="1.71600009"></rect>
                            <rect id="Rectangle" fill="#EBEBEB" x="350.285019" y="112.113006" width="4.70600026" height="1.71600009"></rect>
                            <rect id="Rectangle" fill="#A6A6A6" x="345.579019" y="116.715006" width="4.70600026" height="1.71600009"></rect>
                            <rect id="Rectangle" fill="#EBEBEB" x="353.717019" y="116.715006" width="27.8200015" height="1.71600009"></rect>
                            <rect id="Rectangle" fill="#EBEBEB" x="427.310024" y="116.715006" width="27.8200015" height="1.71600009"></rect>
                            <rect id="Rectangle" fill="#EBEBEB" x="358.30602" y="130.521007" width="27.8200015" height="1.71600009"></rect>
                            <rect id="Rectangle" fill="#FFFFFF" x="397.605022" y="135.123007" width="21.1510012" height="1.71600009"></rect>
                            <rect id="Rectangle" fill="#FFFFFF" x="388.375021" y="130.521007" width="27.8980015" height="1.71600009"></rect>
                            <rect id="Rectangle" fill="#EBEBEB" x="369.90202" y="135.123007" width="24.2840013" height="1.71600009"></rect>
                            <rect id="Rectangle" fill="#A6A6A6" x="358.30602" y="135.123007" width="8.06000044" height="1.71600009"></rect>
                            <rect id="Rectangle" fill="#A6A6A6" x="420.927023" y="135.123007" width="19.6950011" height="1.71600009"></rect>
                            <rect id="Rectangle" fill="#EBEBEB" x="389.480021" y="121.317007" width="30.0690017" height="1.71600009"></rect>
                            <rect id="Rectangle" fill="#FFFFFF" x="421.486023" y="121.317007" width="19.1360011" height="1.71600009"></rect>
                            <rect id="Rectangle" fill="#FFFFFF" x="384.358021" y="116.715006" width="30.0300017" height="1.71600009"></rect>
                            <rect id="Rectangle" fill="#EBEBEB" x="345.579019" y="121.317007" width="4.70600026" height="1.71600009"></rect>
                            <rect id="Rectangle" fill="#EBEBEB" x="345.579019" y="125.919007" width="4.70600026" height="1.71600009"></rect>
                            <rect id="Rectangle" fill="#A6A6A6" x="350.285019" y="130.521007" width="4.70600026" height="1.71600009"></rect>
                            <rect id="Rectangle" fill="#A6A6A6" x="418.574023" y="130.521007" width="28.4180016" height="1.71600009"></rect>
                            <rect id="Rectangle" fill="#EBEBEB" x="350.285019" y="135.123007" width="4.70600026" height="1.71600009"></rect>
                            <rect id="Rectangle" fill="#EBEBEB" x="345.579019" y="138.971008" width="4.70600026" height="1.71600009"></rect>
                            <rect id="Rectangle" fill="#EBEBEB" x="353.717019" y="138.971008" width="54.002003" height="1.71600009"></rect>
                            <rect id="Rectangle" fill="#EBEBEB" x="350.285019" y="143.573008" width="4.70600026" height="1.71600009"></rect>
                            <rect id="Rectangle" fill="#A6A6A6" x="358.30602" y="143.573008" width="35.4380019" height="1.71600009"></rect>
                            <rect id="Rectangle" fill="#A6A6A6" x="353.717019" y="157.379009" width="33.8520019" height="1.71600009"></rect>
                            <rect id="Rectangle" fill="#FFFFFF" x="358.30602" y="148.175008" width="23.7510013" height="1.71600009"></rect>
                            <rect id="Rectangle" fill="#A6A6A6" x="384.683021" y="148.175008" width="37.9210021" height="1.71600009"></rect>
                            <rect id="Rectangle" fill="#FFFFFF" x="353.717019" y="161.981009" width="45.2660025" height="1.71600009"></rect>
                            <rect id="Rectangle" fill="#FFFFFF" x="420.485023" y="143.573008" width="24.5310013" height="1.71600009"></rect>
                            <rect id="Rectangle" fill="#EBEBEB" x="395.967022" y="143.573008" width="22.5810012" height="1.71600009"></rect>
                            <rect id="Rectangle" fill="#EBEBEB" x="424.385023" y="148.175008" width="15.2360008" height="1.71600009"></rect>
                            <rect id="Rectangle" fill="#EBEBEB" x="350.285019" y="148.175008" width="4.70600026" height="1.71600009"></rect>
                            <rect id="Rectangle" fill="#A6A6A6" x="345.579019" y="152.777008" width="4.70600026" height="1.71600009"></rect>
                            <rect id="Rectangle" fill="#A6A6A6" x="416.403023" y="152.777008" width="18.343001" height="1.71600009"></rect>
                            <rect id="Rectangle" fill="#EBEBEB" x="353.717019" y="152.777008" width="27.8200015" height="1.71600009"></rect>
                            <rect id="Rectangle" fill="#EBEBEB" x="437.645024" y="152.777008" width="15.4830009" height="1.71600009"></rect>
                            <rect id="Rectangle" fill="#EBEBEB" x="389.480021" y="157.379009" width="30.0690017" height="1.71600009"></rect>
                            <rect id="Rectangle" fill="#FFFFFF" x="384.358021" y="152.777008" width="30.0300017" height="1.71600009"></rect>
                            <rect id="Rectangle" fill="#EBEBEB" x="345.579019" y="157.379009" width="4.70600026" height="1.71600009"></rect>
                            <path d="M348.478019,98.3720055 C348.639562,98.5299589 348.642473,98.7889622 348.484519,98.9505055 C348.326566,99.1120488 348.067562,99.1149589 347.906019,98.9570055 L346.086019,97.1110054 C346.086019,97.1110054 346.086019,97.1110054 346.086019,97.1110054 L346.086019,97.1110054 C346.086019,97.1110054 346.086019,97.1110054 346.086019,97.1110054 C346.086019,97.1110054 346.086019,97.1110054 346.086019,97.1110054 L346.086019,97.1110054 C346.086019,97.1110054 346.086019,97.1110054 346.086019,97.1110054 C346.086019,97.1110054 346.086019,97.1110054 346.086019,97.1110054 L346.086019,97.1110054 C346.086019,97.1110054 346.086019,97.1110054 346.086019,97.1110054 L346.086019,97.1110054 L346.086019,97.1110054 C346.086019,97.1110054 346.086019,97.1110054 346.086019,97.1110054 L347.906019,95.2650053 C347.981679,95.1887924 348.084628,95.1459296 348.192019,95.1459296 C348.29941,95.1459296 348.402359,95.1887924 348.478019,95.2650053 C348.558316,95.3411082 348.603796,95.4468743 348.603796,95.5575053 C348.603796,95.6681363 348.558316,95.7739024 348.478019,95.8500053 L346.944019,97.3970054 L348.478019,98.3720055 Z" id="Path" fill="#FFFFFF"></path>
                            <path d="M350.129019,98.5800055 L351.715019,94.8100053 C351.797506,94.6342237 352.003446,94.5541357 352.183019,94.6280053 C352.357042,94.7052149 352.437788,94.907079 352.365019,95.0830053 L350.779019,98.8660055 C350.72193,98.9940076 350.594164,99.0757776 350.454019,99.0740055 C350.411556,99.0862842 350.366483,99.0862842 350.324019,99.0740055 C350.224788,99.0442746 350.14467,98.9706822 350.106635,98.874328 C350.068601,98.7779739 350.076851,98.6694995 350.129019,98.5800055 L350.129019,98.5800055 Z" id="Path" fill="#FFFFFF"></path>
                            <path d="M355.48502,97.0590054 L355.48502,97.0590054 L355.48502,97.0590054 L353.600019,98.9570055 C353.519255,99.033238 353.412073,99.0751785 353.301019,99.0740295 C353.137743,99.0677965 352.993221,98.9665797 352.931573,98.8152615 C352.869925,98.6639433 352.902568,98.490548 353.015019,98.3720055 L354.54902,96.8380054 L353.015019,95.2910053 C352.934723,95.2149024 352.889243,95.1091363 352.889243,94.9985053 C352.889243,94.8878743 352.934723,94.7821082 353.015019,94.7060053 C353.179784,94.5524357 353.435255,94.5524357 353.600019,94.7060053 L355.40702,96.5520054 L355.40702,96.5520054 L355.40702,96.5520054 L355.40702,96.5520054 L355.40702,96.5520054 L355.40702,96.5520054 L355.40702,96.5520054 C355.40702,96.5520054 355.40702,96.5520054 355.40702,96.5520054 L355.40702,96.6300054 L355.40702,96.6300054 L355.40702,96.6300054 L355.40702,96.6300054 L355.48502,97.0590054 Z" id="Path" fill="#FFFFFF"></path>
                            <polygon id="Path" fill="#263238" points="320.814018 155.143009 292.045016 155.143009 292.045016 109.227006 293.345016 109.227006 293.345016 153.843009 320.814018 153.843009"></polygon>
                            <polygon id="Path" fill="#263238" points="319.670018 158.380009 326.404018 154.493009 319.670018 150.606008"></polygon>
                        </g>
                    </g>
                    <g id="A-Human/Standing" transform="translate(74.100004, 193.700011)">
                        <g id="Head/Front/Rad" transform="translate(58.705918, 0.267959)">
                            <g id="Head" stroke-width="1" transform="translate(44.029438, 25.276159)" fill="#B28B67">
                                <path d="M31.1005536,7.44744326 C35.8254103,16.2542456 35.2639745,38.59343 29.1575182,40.1674512 C26.7223188,40.7951566 21.5346731,39.2575715 16.2548097,36.07522 L19.5686392,59.5212777 L0,59.5212777 L6.73587419,28.1208672 C2.97923744,23.7109715 0.436767334,18.3067188 0.861653118,12.2511536 C2.08596005,-5.19793657 26.3756969,-1.35935905 31.1005536,7.44744326 Z" id="Head-[skin]"></path>
                            </g>
                            <path d="M77.7907372,31.7188897 C78.4227862,31.0925435 78.7675538,30.1985396 79.0657921,29.3496457 C79.3755126,28.4678118 79.6764526,27.576891 79.8820824,26.6590341 C80.2929668,24.8251052 80.2968693,22.7160545 78.9885683,21.2920092 C77.939331,20.1500631 76.3649871,19.6378708 74.9119948,19.5265564 C73.9439587,19.4523198 72.949731,19.5878929 72.0217702,19.8929528 C71.101089,20.1955786 70.307463,20.7987209 69.4149245,21.1730683 C69.380853,19.1967511 69.0423143,17.1288347 68.0396813,15.4413508 C67.0748722,13.8177184 65.5366261,12.9065955 63.7847952,12.6655496 C61.9867351,12.4181753 60.2111892,12.8389307 58.601498,13.709406 C58.1984936,13.9274102 57.7992415,14.1557994 57.4171753,14.4142889 C57.0972484,14.6307516 56.7646384,14.8914317 56.3892514,14.979461 C55.9707872,15.077713 55.7633563,14.8360179 55.4913846,14.5307147 C55.1725083,14.1727562 54.8132565,13.8574736 54.4330665,13.5779706 C52.7520052,12.342316 50.5463628,11.8342615 48.5988083,12.5749241 C47.7014668,12.9161692 46.828891,13.4957018 46.2201066,14.2942933 C45.677439,15.0061537 45.2903447,16.1353619 44.5413718,16.6313276 C44.2235462,16.8418675 43.9990795,16.5629325 43.7096968,16.3567737 C43.2750224,16.0470082 42.8604607,15.7051951 42.420533,15.4038674 C41.8025929,14.9805157 41.1335455,14.6638538 40.4170682,14.4980992 C39.368206,14.2554306 37.918741,14.3123048 37.6188517,15.6860477 C37.5062806,16.2020532 37.5925851,16.7539194 37.6289831,17.2738193 C37.6788896,17.987708 37.7309724,18.7013533 37.7929616,19.4141873 C37.8400163,19.9554252 37.8995288,20.4781647 38.0016683,21.0096665 C38.0561527,21.2929828 38.2266604,21.8211582 38.1051587,22.1048801 C37.9533378,22.4595121 37.2526205,22.2578968 36.9532565,22.270229 C36.3619582,22.29465 35.7681833,22.3983379 35.2214632,22.6509859 C34.7977457,22.8468408 34.3522645,23.1348627 34.1734266,23.6205245 C34.0634822,23.9188503 34.0924504,24.2252894 34.1443832,24.5322153 C34.2066726,24.9005588 34.1354526,25.0959269 34.0889232,25.4675969 C33.2947719,25.0765362 30.5427845,24.2076835 30.1965159,25.6309175 C30.0812432,26.104815 30.3437589,26.6402924 30.5440603,27.0399532 C30.8953571,27.7409418 31.3559229,28.3816486 31.8267701,28.9926608 C32.8089151,30.2673404 33.9814554,31.3667728 35.2430018,32.3070224 C33.7649437,32.9641181 33.3791251,34.9023028 34.658833,36.0570679 C35.2238647,36.5669073 35.9835693,36.6804123 36.6962942,36.6477968 C36.9571589,36.6358703 37.3332213,36.53559 37.5384759,36.5810244 C37.6489457,36.6054454 37.7672203,36.6990728 37.9202419,36.709539 C38.9261019,36.7784209 40.0615687,36.5360768 41.0448395,36.3128801 C42.7968956,35.9151664 44.4555927,35.0850953 45.8101228,33.8208819 C46.1575922,33.4965935 46.4446484,33.3099067 46.9123436,33.3146935 C47.3221774,33.3188313 47.7242812,33.4312004 48.1337397,33.4415854 C49.2171236,33.4692517 50.1939403,32.9396159 51.1999504,32.5870933 C51.2615643,33.9461511 51.6485836,35.4429727 52.2045346,36.6656461 C52.6578958,37.6626887 53.6046185,37.8075922 54.5349058,37.8950535 C57.5097838,38.1749621 60.4951685,37.8626003 63.4737989,37.8667381 C60.5904036,38.518479 57.6108726,38.7871101 54.7530685,39.5540598 C53.461278,39.9006597 54.4477007,40.7712972 55.0000494,41.3748452 C55.9095486,42.3687236 56.5858005,43.6001594 57.0548466,44.897475 C58.4653621,43.0588404 60.958511,41.8473634 63.1673054,42.4122109 C65.6078461,43.0362043 67.326356,46.3366111 65.7657458,48.7093438 C64.8596988,50.0867377 63.2235159,50.618483 61.8620814,51.2102666 C62.9241519,52.3144859 63.1810391,53.9453391 63.8202926,55.319082 C64.1355667,55.996542 64.578121,56.7625181 65.2831911,56.9986149 C65.5440558,57.0859951 65.8499489,57.0934593 66.0557288,57.3061088 C66.3106648,57.5693851 66.3713781,57.8637354 66.6969336,58.0900152 C67.9960037,58.9931871 70.0252098,58.923575 71.1766617,57.7449568 C72.2179441,56.6790323 71.947023,54.9922785 71.077374,53.9115878 C72.4616979,53.3345703 74.9837401,52.5924474 74.4335678,50.4357716 C77.4332115,50.2365903 84.7162592,45.3716971 80.6902676,41.8167763 C82.8997375,40.5680592 84.9296189,37.5163249 83.510398,34.8262001 C82.4175581,32.754714 79.8760036,31.8287437 77.7907372,31.7188897" id="hair" fill="#191847" transform="translate(57.075198, 35.468159) scale(-1, 1) translate(-57.075198, -35.468159) "></path>
                        </g>
                        <g id="Bottom/Skinny-Jeans-1" transform="translate(0.000000, 152.382357)">
                            <g id="Objects/Seat/Cube" transform="translate(0.000000, 34.164731)">
                                <g id="Seat" transform="translate(44.844798, 0.000000)">
                                    <polygon id="Seat-Stuff" fill="#C5CFD6" points="22.5223961 0 85.5126648 0 93.7663964 101.104636 0 101.104636"></polygon>
                                    <polygon id="Seat-Stuff" fill-opacity="0.1" fill="#000000" points="22.5223961 0 41.8954791 0 53.4906908 101.104636 0 101.104636"></polygon>
                                </g>
                            </g>
                            <path d="M202.171146,16.8839384 L202.406499,16.7477966 C209.146803,12.9805915 220.154839,18.096484 220.147195,23.7838714 C220.124044,41.0000449 204.375424,122.139809 203.553168,127.269082 C202.730912,132.398355 193.922484,133.75319 193.40954,127.285892 C192.593361,116.995328 191.077,81.3715402 192.59418,64.8826086 C193.220518,58.075484 193.895056,51.5926459 194.559116,45.8091797 C186.296549,60.6972433 173.515545,82.0148189 156.217367,109.761339 L146.827229,105.481309 C154.201012,81.2438108 160.247404,64.1327819 164.966404,54.1482225 C173.046477,37.0522328 180.622867,22.4117968 183.811525,17.254822 C188.827269,9.14292464 197.557961,11.9732488 202.171146,16.8839384 Z" id="Legs-[skin]" fill="#B28B67"></path>
                            <path d="M162.077565,100.353916 L166.311508,17.7549954 C169.328886,3.47075729 194.771028,10.0798185 194.754785,17.7335306 C194.717883,35.1098266 184.215819,95.1432728 184.204827,100.320252 L162.077565,100.353916 Z" id="LegLower" fill="#041538" transform="translate(178.416175, 54.846820) rotate(20.000000) translate(-178.416175, -54.846820) "></path>
                            <g id="Left-[shoe]" transform="translate(163.570875, 114.810616) rotate(30.000000) translate(-163.570875, -114.810616) translate(139.570875, 105.810616)" fill="#010100">
                                <path d="M1.4553913,5.66695998 C0.543370422,8.0959716 0.0873599842,9.91346139 0.0873599842,11.1194294 C0.0873599842,12.5863053 0.332305701,14.7268421 0.822197133,17.5410397 C2.52788009,17.5410397 17.85714,17.5410397 46.8099769,17.5410397 C48.0050363,13.5994931 47.3151787,11.4715789 44.7404042,11.1572972 C42.1656297,10.8430154 40.0267207,10.5592442 38.3236774,10.3059834 L16.9479922,0.798965812 C16.5365409,0.615969347 16.0546458,0.80116859 15.8716493,1.2126199 C15.8687067,1.21923598 15.8658524,1.22589096 15.8630872,1.23258307 L14.4892369,4.55738037 L14.4892369,4.55738037 C12.1056691,5.66688579 10.1687728,6.22163851 8.67854799,6.22163851 C7.4674119,6.22163851 5.79468405,5.73350117 3.66036444,4.7572265 L3.66036185,4.75723216 C2.84135749,4.38260542 1.87372829,4.74284465 1.49910154,5.56184901 C1.48331259,5.59636661 1.46873363,5.63142496 1.4553913,5.66695998 Z" id="shoe"></path>
                            </g>
                            <g id="Right-[shoe]" transform="translate(189.891513, 117.490993)" fill="#010100">
                                <path d="M1.4553913,5.66695998 C0.543370422,8.0959716 0.0873599842,9.91346139 0.0873599842,11.1194294 C0.0873599842,12.5863053 0.332305701,14.7268421 0.822197133,17.5410397 C2.52788009,17.5410397 17.85714,17.5410397 46.8099769,17.5410397 C48.0050363,13.5994931 47.3151787,11.4715789 44.7404042,11.1572972 C42.1656297,10.8430154 40.0267207,10.5592442 38.3236774,10.3059834 L16.9479922,0.798965812 C16.5365409,0.615969347 16.0546458,0.80116859 15.8716493,1.2126199 C15.8687067,1.21923598 15.8658524,1.22589096 15.8630872,1.23258307 L14.4892369,4.55738037 L14.4892369,4.55738037 C12.1056691,5.66688579 10.1687728,6.22163851 8.67854799,6.22163851 C7.4674119,6.22163851 5.79468405,5.73350117 3.66036444,4.7572265 L3.66036185,4.75723216 C2.84135749,4.38260542 1.87372829,4.74284465 1.49910154,5.56184901 C1.48331259,5.59636661 1.46873363,5.63142496 1.4553913,5.66695998 Z" id="shoe"></path>
                            </g>
                            <path d="M222.406043,29.6362999 C222.406043,51.2470966 212.118831,101.656583 212.112321,106.415094 L189.978873,106.432055 C193.218524,61.4521677 194.36728,38.7199414 193.425141,38.2353757 C192.011932,37.5085273 135.493126,43.8650992 118.542216,43.8650992 C94.0989207,43.8650992 83.9872189,28.4872012 83.1667168,-3.47608862e-13 L131.587976,-3.47608862e-13 C141.446979,1.05249085 192.872443,11.4006542 211.97084,14.9579805 C220.147191,16.4809327 222.406043,23.6830818 222.406043,29.6362999 Z" id="Leg-and-Butt" fill="#002060"></path>
                        </g>
                        <g id="Body/Long-Sleeve-1" transform="translate(72.392317, 66.970529)">
                            <path d="M131.901326,37.7502241 C135.434112,37.0246285 144.056635,30.6268013 145.542339,31.925802 C147.740341,33.8475898 145.780467,39.7485919 143.471269,42.6840245 C139.155382,48.1703443 135.582014,50.0465001 126.749878,52.5033375 C122.131982,53.7878989 117.13922,56.3626916 111.771591,60.2277157 L111.063676,47.7816863 L123.49508,40.9685612 C125.239382,34.3468703 127.324483,31.0152737 129.750382,30.9737715 C131.613977,30.1086949 128.368539,38.4758197 131.901326,37.7502241 Z M110.504992,9.38839245 C108.222375,13.4303014 106.003613,17.7841997 107.166516,19.0294244 C108.329419,20.2746491 111.229223,18.5351251 112.616549,20.6040765 C113.541433,21.9833774 108.587348,24.1622845 97.7542931,27.1407978 L77.1901918,45.925242 L66.7391092,34.7343325 L95.0400757,19.2703903 C99.7463532,13.6947878 104.383347,9.36455137 108.951058,6.27968084 C110.346804,5.6983478 112.787609,5.34648352 110.504992,9.38839245 Z" id="Arms-[skin]" fill="#997659"></path>
                            <path d="M53.8714048,28.2601828 C63.6785251,29.7077007 77.0613122,29.7125549 92.3894633,23.0969622 L95.9325652,36.1354096 C84.8165266,44.1273996 70.0670544,49.8042639 58.3053475,47.6020871 C49.0364742,45.8666505 46.057643,33.8779671 53.8714048,28.2601828 Z" id="Sleeve" fill="#55A2AC" transform="translate(72.659453, 35.588556) rotate(-9.000000) translate(-72.659453, -35.588556) "></path>
                            <path d="M53.6164697,3.17044176e-13 C54.8647332,15.9995256 61.1475401,33.632373 66.3037391,51.0523543 C76.8269645,53.6713573 94.4747063,50.5836121 119.246574,41.7895026 C125.390915,54.4712051 128.23129,63.5122864 127.767698,68.9127465 C106.514933,79.9883092 88.2998378,84.9256093 73.293497,85.250501 C73.7760455,94.1302452 72.6925646,102.583878 69.0513832,110.308128 C61.5669882,126.18521 17.7416976,111.481261 3.00629193,114.375358 C-6.22145238,84.4774387 11.6206705,72.3270453 11.6350265,53.196614 C11.6507479,32.2467533 28.5120747,3.17044176e-13 30.9928812,3.17044176e-13 L30.9928812,3.17044176e-13 Z" id="Clothes" fill="#5FC9D7"></path>
                        </g>
                    </g>
                </g>
            </g>
        </g>
    </g>
</svg>